<?xml version="1.0" encoding="utf-8"?>
<!-- Generator: Adobe Illustrator 17.1.0, SVG Export Plug-In . SVG Version: 6.00 Build 0)  -->
<!DOCTYPE svg PUBLIC "-//W3C//DTD SVG 1.1//EN" "http://www.w3.org/Graphics/SVG/1.1/DTD/svg11.dtd">
<svg version="1.1" id="Layer_1" xmlns="http://www.w3.org/2000/svg" xmlns:xlink="http://www.w3.org/1999/xlink" x="0px" y="0px"
	 viewBox="0 0 100 100" enable-background="new 0 0 100 100" xml:space="preserve">
<path fill-rule="evenodd" clip-rule="evenodd" fill="#333333" d="M5.6,11.7h41.8V5.1h5.2v6.6h41.8c0.9,0,1.6,0.7,1.6,1.6v8
	c0,0.9-0.7,1.6-1.6,1.6h-0.6v49.7c0,1.5-1.2,2.7-2.7,2.7H59.9l19.4,19.5h-7.4l-6.5-6.7H52.6v6.7h-5.2v-6.7H34.7L28,94.9h-7.3
	l19.4-19.5H8.8c-1.5,0-2.7-1.2-2.7-2.7V23H5.6c-0.9,0-1.6-0.7-1.6-1.6v-8C3.9,12.4,4.7,11.7,5.6,11.7L5.6,11.7L5.6,11.7z M88.6,23
	H11.4v44.8c0,1.3,1,2.4,2.4,2.4h72.5c1.3,0,2.4-1,2.4-2.4V23L88.6,23z M36.5,86.4h10.9V75.5L36.5,86.4L36.5,86.4z M52.6,86.4h10.9
	L52.6,75.5V86.4L52.6,86.4z M20.3,52.8L20.3,52.8c-2.7,0-4.9,2.2-4.9,4.9c0,2.7,2.2,4.9,4.9,4.9c2.7,0,4.9-2.2,4.9-4.9
	c0-0.4,0-0.7-0.1-1.2L37,48.6c0.7,0.7,1.9,1,3,1c1.5,0,2.8-0.6,3.7-1.6l11.2,4.6c-0.1,0-0.1,0.2-0.1,0.3c0,2.7,2.2,4.9,4.9,4.9
	c2.8,0,4.9-2.2,4.9-4.9c0-0.7,0-1.3-0.3-1.9L77,38.8c0.6,0.4,1.5,0.7,2.4,0.7c2.7,0,4.9-2.2,4.9-4.9c0-2.8-2.2-4.9-4.9-4.9
	c-2.8,0-4.9,2.1-4.9,4.9c0,0.7,0.1,1.3,0.4,1.9L62.3,48.7c-0.7-0.4-1.6-0.7-2.7-0.7c-1.5,0-2.8,0.6-3.7,1.8l-11-4.6
	c0-0.1,0-0.3,0-0.4c0-2.7-2.2-4.9-4.9-4.9c-2.7,0-4.9,2.2-4.9,4.9c0,0.4,0.1,0.9,0.1,1.3l-11.8,7.9C22.5,53.2,21.5,52.8,20.3,52.8
	L20.3,52.8z M79.4,31.9L79.4,31.9c-1.5,0-2.5,1.2-2.5,2.7c0,1.3,1,2.5,2.5,2.5c1.3,0,2.5-1.2,2.5-2.5C81.9,33.1,80.7,31.9,79.4,31.9
	L79.4,31.9z M59.6,50.4L59.6,50.4c-1.3,0-2.5,1-2.5,2.5c0,1.3,1.2,2.5,2.5,2.5c1.5,0,2.7-1.2,2.7-2.5C62.3,51.4,61.1,50.4,59.6,50.4
	L59.6,50.4z M40,42.2L40,42.2c-1.3,0-2.5,1.2-2.5,2.5c0,1.5,1.2,2.7,2.5,2.7c1.5,0,2.5-1.2,2.5-2.7C42.5,43.4,41.4,42.2,40,42.2
	L40,42.2z M20.3,55.1L20.3,55.1c-1.3,0-2.5,1.2-2.5,2.5c0,1.5,1.2,2.5,2.5,2.5c1.3,0,2.5-1,2.5-2.5C22.8,56.3,21.6,55.1,20.3,55.1z"
	/>
</svg>
