<?xml version="1.0" encoding="utf-8"?>
<!-- Generator: Adobe Illustrator 17.1.0, SVG Export Plug-In . SVG Version: 6.00 Build 0)  -->
<!DOCTYPE svg PUBLIC "-//W3C//DTD SVG 1.1//EN" "http://www.w3.org/Graphics/SVG/1.1/DTD/svg11.dtd">
<svg version="1.1" id="Layer_1" xmlns="http://www.w3.org/2000/svg" xmlns:xlink="http://www.w3.org/1999/xlink" x="0px" y="0px"
	 viewBox="0 120 400 155.5" enable-background="new 0 120 400 155.5" xml:space="preserve">
<path fill="#D3CDC1" d="M76.1,178.8c0.8,1.3,1.4,2.2,1.4,3.9c0,4.4-3.6,8-8,8c-4.4,0-8-3.6-8-8c0-1.6,0.4-2.4,1.2-3.7l6.7-9.2
	L76.1,178.8z"/>
<path fill="#D3CDC1" d="M105.5,143.8c0.5,0.8,0.8,1.3,0.8,2.2c0,2.6-2.1,4.6-4.6,4.6c-2.6,0-4.6-2.1-4.6-4.6c0-0.9,0.2-1.4,0.7-2.1
	l3.9-5.3L105.5,143.8z"/>
<path fill="#D3CDC1" d="M95.1,204.6c1.2,1.8,2,3.2,2,5.6c0,6.3-5.1,11.4-11.4,11.4s-11.4-5.1-11.4-11.4c0-2.3,0.6-3.5,1.8-5.3
	l9.6-13.2L95.1,204.6z"/>
<path fill="#D3CDC1" d="M80.8,129.1c0.8,1.3,1.4,2.2,1.4,3.9c0,4.4-3.6,8-8,8c-4.4,0-8-3.6-8-8c0-1.6,0.4-2.4,1.2-3.7l6.7-9.2
	L80.8,129.1z"/>
<path fill="#D3CDC1" d="M110,262.2c1,1.4,1.5,2.5,1.5,4.4c0,5-4,9-9,9s-9-4-9-9c0-1.8,0.5-2.8,1.4-4.2l7.6-10.4L110,262.2z"/>
</svg>
