<?xml version="1.0" encoding="utf-8"?>
<!-- Generator: Adobe Illustrator 17.1.0, SVG Export Plug-In . SVG Version: 6.00 Build 0)  -->
<!DOCTYPE svg PUBLIC "-//W3C//DTD SVG 1.1//EN" "http://www.w3.org/Graphics/SVG/1.1/DTD/svg11.dtd">
<svg version="1.1" id="Layer_1" xmlns="http://www.w3.org/2000/svg" xmlns:xlink="http://www.w3.org/1999/xlink" x="0px" y="0px"
	 viewBox="0 0 35 50" enable-background="new 0 0 35 50" xml:space="preserve">
<path fill="#FFFFFF" d="M26.2,39.7c0.4,0,0.8,0.4,0.8,0.8c0,5.2-0.5,9.3-10.1,9.3c-9.6,0-10.1-4.1-10.1-9.3c0-0.4,0.4-0.8,0.8-0.8
	H26.2z"/>
<path fill="#FFFFFF" d="M29.3,6.9c-0.4,1.6-2,2.7-3.7,2.3L13,6.3c-1.6-0.4-2.7-2-2.3-3.7c0.4-1.6,2-2.7,3.7-2.3L27,3.2
	C28.6,3.6,29.6,5.2,29.3,6.9"/>
<path fill="#FFFFFF" d="M21.2,36.9c-0.2,0.1-0.4-0.1-0.4-0.3c0.1-0.3,0.5-1.2-0.1-2c-0.5-0.7-1.5-1.1-2.5-1.4L5.8,30.4
	c-1.6-0.4-2.7-2-2.3-3.7c0.4-1.6,2-2.7,3.7-2.3l15.8,3.6c1.6,0.4,2.6,2,2.3,3.7C24.7,34.2,22.8,36.3,21.2,36.9"/>
<path fill="#FFFFFF" d="M34.3,16.6c-0.4,1.6-2,2.7-3.7,2.3L4.2,12.8c-1.6-0.4-2.7-2-2.3-3.7c0.4-1.6,2-2.7,3.7-2.3L32,13
	C33.7,13.4,34.7,15,34.3,16.6"/>
<path fill="#FFFFFF" d="M31.8,24.7c-0.4,1.6-2,2.7-3.7,2.3L3,21.2c-1.6-0.4-2.7-2-2.3-3.7c0.4-1.6,2-2.7,3.7-2.3L29.5,21
	C31.1,21.4,32.1,23,31.8,24.7"/>
</svg>
