<?xml version="1.0" encoding="utf-8"?>
<!-- Generator: Adobe Illustrator 17.1.0, SVG Export Plug-In . SVG Version: 6.00 Build 0)  -->
<!DOCTYPE svg PUBLIC "-//W3C//DTD SVG 1.1//EN" "http://www.w3.org/Graphics/SVG/1.1/DTD/svg11.dtd">
<svg version="1.1" xmlns="http://www.w3.org/2000/svg" xmlns:xlink="http://www.w3.org/1999/xlink" x="0px" y="0px"
	 viewBox="-475 -175 1000 400" enable-background="new -475 -175 1000 400" xml:space="preserve">
<g id="Layer_2_1_">
</g>
<g id="Layer_1">
	<g id="Layer_1_1_" display="none">
		<g display="inline">
			<path fill="#F04C23" d="M34.8,36.5l-0.5-3.1L34,33.2l0-0.2l0.2-0.1l0-0.7l0.2-0.2l0.3-2.3l1.2-0.3c0,0,0.2,0.3,0.3,0.4
				c0,0.1,0,0.1-0.1,0.1c0,0-0.2,0.3-0.2,0.3c0,0.1,0,0.6,0,0.6l-0.3,0.5c0,0,0,0,0,0.1c0,0.1,0,0.4,0,0.4s0,0.1-0.2,0.1
				c-0.2,0-0.4,0.1-0.4,0.1l0.1,0.5l0.9-0.1l1.1-2.9l-0.7-0.8c0,0-0.2-0.3-0.7-0.1s-0.2,0.1-0.2,0.1l-0.6,0l-1.9-0.4l0.1-0.8
				l-0.4-0.2l-0.4,0.2l0.1,0.8l-1.8,0.5l-0.5,0c0,0-0.7,0-0.7,0.3c0,0,0.1,0,0.2,0.1c0.1,0.1,1,1.6,1,1.6l0.2,1.2l0.2,0.2l0,0.6
				l0.1,0.2l0,0.2l-0.3,0.1l-0.6,3.2C30.2,36.5,32.6,37.4,34.8,36.5z"/>
			<path fill="#DC3F26" d="M34.2,32.9c-2,0.4-3.3-0.1-3.3-0.1l0-0.6c0,0,1.8,0.5,3.3,0L34.2,32.9z"/>
			<path fill="#CE2C27" d="M34.2,32.9c-2,0.4-3.3-0.1-3.3-0.1l0.1,0.2c0,0,1.5,0.5,2.9,0C34,33,34.2,32.9,34.2,32.9z"/>
			<path fill="#CE2C27" d="M29.4,29c0,0-0.1-0.1,0.6-0.1c0.6,0,0.5,0,0.5,0l0,0C30.5,28.9,29.7,29,29.4,29L29.4,29z"/>
			<path fill="#CE2C27" d="M32.3,28.3c0,0,0.3,0.2,0.6,0l0.1-0.8l-0.4-0.2l-0.4,0.2L32.3,28.3z"/>
		</g>
	</g>
	<g id="Layer_2">
	</g>
	<g id="Layer_4" display="none">
		<path display="inline" fill="#0B1A3C" d="M32,24.9c0,0,0.3,1.2,0.4,1.6c0.1,0.4-0.1,2.7-0.1,2.7l0,0.5H33l0.4-2.3l0.1-2.5
			C33.5,24.8,32.8,25.4,32,24.9z"/>
		<rect x="36.3" y="16.3" display="inline" fill="#F8E680" width="0.8" height="0.8"/>
		<rect x="34.3" y="15.3" display="inline" fill="#F8E680" width="0.8" height="0.8"/>
		<rect x="35.2" y="15.3" display="inline" fill="#F8E680" width="0.8" height="0.8"/>
		<path display="inline" fill="#EAE0CC" stroke="#E0D9CA" stroke-width="0.673" stroke-miterlimit="10" d="M36.2,16.5
			c0,0-0.2,0.3-0.2,0.3C36,17,36,17,36,17.1c-0.1,0.1-0.1,0.2-0.1,0.2l0.2,0.3c0,0,0.4-0.1,0.5-0.2c0.1-0.1,0.2-0.2,0.1-0.2
			c-0.1,0-0.2,0.1-0.2,0.1s0.2-0.4,0.3-0.4c0,0,0.1-0.1,0-0.3c0,0,0,0-0.1,0c0,0-0.4,0.4-0.4,0.4l0,0c0,0,0.3-0.4,0.3-0.4
			s0-0.1-0.1-0.1c0,0,0,0-0.1,0.1c-0.1,0.1-0.3,0.3-0.3,0.3s0.3-0.4,0.2-0.4c0,0-0.2,0.3-0.3,0.3l0,0C36.1,16.8,36.3,16.6,36.2,16.5
			C36.3,16.5,36.3,16.5,36.2,16.5z"/>
		<path display="inline" fill="#E5DACA" stroke="#E0D9CA" stroke-width="0.673" stroke-miterlimit="10" d="M32.5,20.3
			c0,0,0,0.4-0.1,0.4c-0.1,0,0.6,0.2,0.6,0.2s0.1,0,0.1-0.1s0-0.5,0-0.5S32.6,20.3,32.5,20.3z"/>
		<path display="inline" fill="#CCE8DB" d="M33.1,20.8c0,0,2.3-3.2,2.7-3.6l0.3,0.4c0,0-1,1.7-1.2,1.9s-1.4,1.8-1.4,1.8l-0.3-0.1
			L33.1,20.8"/>
		<path display="inline" fill="#EAE0CC" stroke="#E0D9CA" stroke-width="0.673" stroke-miterlimit="10" d="M31.2,18.7
			c0,1.1,0.8,1.6,1.7,1.6c1,0,1.7-0.6,1.7-1.6s-0.8-1.9-1.7-1.9C31.9,16.7,31.2,17.6,31.2,18.7z"/>
		<circle display="inline" fill="#333333" cx="32.8" cy="18.7" r="0.1"/>
		<circle display="inline" fill="#333333" cx="34.2" cy="18.5" r="0.1"/>
		<path display="inline" fill="#333333" d="M34.5,18c-0.9,0.5-2.2-0.5-2.2-0.5C32,17.7,31.8,18,31.8,18c-0.4,0.5-0.6,1.2-0.6,1.2
			l-0.1-0.2c-0.2-1,0.2-1.4,0.2-1.4l0,0.1c-0.4-0.1-0.3,0.4-0.3,0.4s0.1,1.1-0.4,1.6l-0.2,0.2l0.1-0.2c0-0.5-0.8-0.8-0.3-1.9
			c0.4-1,1.5-0.5,1.5-0.5l0.1-0.1c0,0,1.1-1.2,2.4,0.1C34.2,17.3,34.4,17.5,34.5,18L34.5,18L34.5,18z"/>
		<path display="inline" fill="#333333" d="M32.5,19.1l1,0.2C33.6,19.3,33.1,20,32.5,19.1z"/>
		<path display="inline" fill="#B4D6C4" d="M33.5,24.8l-0.2-3.7c0-0.2-0.2-0.4-0.2-0.4c0,0.1-0.1,0.1-0.1,0.1s-0.6-0.2-0.6-0.2
			c0,0-0.2,0.1-0.4,0.5c0,0-0.5,2.1-0.2,3.4l0.1,0.3C32,24.9,32.7,25.4,33.5,24.8z"/>
		<g display="inline">
			<path d="M34.4,15.6v0.2c0,0,0,0,0,0c0,0,0,0,0,0c0,0,0,0,0,0c0,0,0,0,0,0s0,0,0,0s0,0,0,0c0,0,0,0,0,0c0,0,0,0,0,0v-0.2h0v0.2
				c0,0,0,0,0,0.1c0,0,0,0,0,0s0,0,0,0c0,0,0,0-0.1,0c0,0,0,0-0.1,0c0,0,0,0,0,0s0,0,0,0s0,0,0-0.1L34.4,15.6L34.4,15.6z"/>
			<path d="M34.8,15.7l-0.1-0.2h0.1L34.8,15.7l0.1-0.2H35L34.8,15.7l0.2,0.2h-0.1L34.8,15.7l-0.1,0.2h-0.1L34.8,15.7z"/>
		</g>
		<g display="inline">
			<path d="M35.5,15.6v0.2c0,0,0,0,0,0s0,0,0,0s0,0,0,0c0,0,0,0,0,0s0,0,0,0s0,0,0,0c0,0,0,0,0,0c0,0,0,0,0,0v-0.2h0v0.2
				c0,0,0,0,0,0.1c0,0,0,0,0,0c0,0,0,0,0,0c0,0,0,0-0.1,0c0,0,0,0-0.1,0c0,0,0,0,0,0c0,0,0,0,0,0c0,0,0,0,0-0.1L35.5,15.6L35.5,15.6
				z"/>
			<path d="M35.8,15.6L35.8,15.6l0,0.4h0V15.6z"/>
		</g>
		<path display="inline" fill="#EAE0CC" stroke="#E0D9CA" stroke-width="0.673" stroke-miterlimit="10" d="M36.8,20.8
			c0,0,0.7-0.4,0.9-0.3c0.2,0.1,0.5,0.4,0.5,0.4s0,0.1,0,0.1s-0.5-0.3-0.5-0.3s0.1,0.2,0,0.3c-0.1,0.1-0.1,0.3-0.3,0.3s-0.5,0-0.5,0
			L36.8,20.8z"/>
		<path display="inline" fill="#CCE8DB" d="M32.2,20.7c0,0-0.4,0.2-0.2,0.5c0.1,0.3,1.9,1.2,1.9,1.2s0.1,0,0.3,0
			c0.2,0,2.9-1.1,2.9-1.1l-0.2-0.6c0,0-2.4,0.7-2.7,0.7C33.8,21.5,32.3,20.6,32.2,20.7z"/>
	</g>
</g>
<g id="Layer_3">
	<path fill="#D8D8D8" d="M-260.3,106.1l87.8,16.4c0,0-2.3,2.6-0.6,5.8l-87.5-15.5C-260.7,112.8-257.9,109.9-260.3,106.1z"/>
	<path fill="#898989" d="M-505.9,39.3c6.4,0,11.9,0.9,11.9,0.9l-12.9,5.1l-10.6-5.1C-517.5,40.2-511.8,39.3-505.9,39.3z"/>
	<g opacity="0.35">
		<polygon fill="#CAE0E5" points="56.6,-17.7 71.3,-105 126.6,-83.9 102,-7.4 		"/>
		<polygon fill="#B0CCD7" points="129,-81.9 104.8,-6.4 202.1,46.6 239.5,-74.8 		"/>
		<polygon fill="#9DBBC4" points="243.6,-74.7 204.5,49.8 247.9,106.4 340.2,-81.9 		"/>
	</g>
	<g>
		<path fill="#9DBBC4" d="M215.2,108c0.2,1-0.4,1.9-1.4,2.2l-83.7,18.5c-1,0.2-1.9-0.4-2.2-1.4l-8.2-37c-0.2-1,0.4-1.9,1.4-2.2
			l83.7-18.5c1-0.2,1.9,0.4,2.2,1.4L215.2,108z"/>
		<path fill="#9DBBC4" d="M172,119.4l-41.8,9.3c-1,0.2-1.9-0.4-2.2-1.4l-8.2-37c-0.2-1,0.4-1.9,1.4-2.2l41.8-9.3L172,119.4z"/>
		<path fill="#FDFBEF" d="M170.4,112.2l10.4-2.3c0.4-0.1,0.8,0.2,0.9,0.6l0.9,4.1c0.1,0.4-0.2,0.8-0.6,0.9l-10.4,2.3"/>
		<path fill="#EDEBE4" d="M145.3,104c0.1,0.4-0.2,0.8-0.6,0.9l-3.5,0.8c-0.4,0.1-0.8-0.2-0.9-0.6l-0.7-3.2c-0.1-0.4,0.2-0.8,0.6-0.9
			l3.5-0.8c0.4-0.1,0.8,0.2,0.9,0.6L145.3,104z"/>
		<path fill="#EDEBE4" d="M139.5,105.2c0.1,0.4-0.2,0.8-0.6,0.9l-3.5,0.8c-0.4,0.1-0.8-0.2-0.9-0.6l-0.7-3.2
			c-0.1-0.4,0.2-0.8,0.6-0.9l3.5-0.8c0.4-0.1,0.8,0.2,0.9,0.6L139.5,105.2z"/>
		<path fill="#EDEBE4" d="M133.7,106.5c0.1,0.4-0.2,0.8-0.6,0.9l-6.8,1.5c-0.4,0.1-0.8-0.2-0.9-0.6l-0.7-3.2
			c-0.1-0.4,0.2-0.8,0.6-0.9l6.8-1.5c0.4-0.1,0.8,0.2,0.9,0.6L133.7,106.5z"/>
		<path fill="#EDEBE4" d="M156.9,101.4c0.1,0.4-0.2,0.8-0.6,0.9l-3.5,0.8c-0.4,0.1-0.8-0.2-0.9-0.6l-0.7-3.2
			c-0.1-0.4,0.2-0.8,0.6-0.9l3.5-0.8c0.4-0.1,0.8,0.2,0.9,0.6L156.9,101.4z"/>
		<path fill="#EDEBE4" d="M151.1,102.7c0.1,0.4-0.2,0.8-0.6,0.9l-3.5,0.8c-0.4,0.1-0.8-0.2-0.9-0.6l-0.7-3.2
			c-0.1-0.4,0.2-0.8,0.6-0.9l3.5-0.8c0.4-0.1,0.8,0.2,0.9,0.6L151.1,102.7z"/>
		<path fill="#EDEBE4" d="M162.7,100.1c0.1,0.4-0.2,0.8-0.6,0.9l-3.5,0.8c-0.4,0.1-0.8-0.2-0.9-0.6l-0.7-3.2
			c-0.1-0.4,0.2-0.8,0.6-0.9l3.5-0.8c0.4-0.1,0.8,0.2,0.9,0.6L162.7,100.1z"/>
		<path fill="#FDFBEF" d="M180.2,96.2c0.1,0.4-0.2,0.8-0.6,0.9l-3.5,0.8c-0.4,0.1-0.8-0.2-0.9-0.6l-0.7-3.2
			c-0.1-0.4,0.2-0.8,0.6-0.9l3.5-0.8c0.4-0.1,0.8,0.2,0.9,0.6L180.2,96.2z"/>
		<path fill="#FDFBEF" d="M174.4,97.5c0.1,0.4-0.2,0.8-0.6,0.9l-3.5,0.8c-0.4,0.1-0.8-0.2-0.9-0.6l-0.7-3.2
			c-0.1-0.4,0.2-0.8,0.6-0.9l3.5-0.8c0.4-0.1,0.8,0.2,0.9,0.6L174.4,97.5z"/>
		<path fill="#FDFBEF" d="M191.8,93.7c0.1,0.4-0.2,0.8-0.6,0.9l-3.5,0.8c-0.4,0.1-0.8-0.2-0.9-0.6l-0.7-3.2
			c-0.1-0.4,0.2-0.8,0.6-0.9l3.5-0.8c0.4-0.1,0.8,0.2,0.9,0.6L191.8,93.7z"/>
		<path fill="#FDFBEF" d="M186,94.9c0.1,0.4-0.2,0.8-0.6,0.9l-3.5,0.8c-0.4,0.1-0.8-0.2-0.9-0.6l-0.7-3.2c-0.1-0.4,0.2-0.8,0.6-0.9
			l3.5-0.8c0.4-0.1,0.8,0.2,0.9,0.6L186,94.9z"/>
		<path fill="#FDFBEF" d="M203.4,91.1c0.1,0.4-0.2,0.8-0.6,0.9l-3.5,0.8c-0.4,0.1-0.8-0.2-0.9-0.6l-0.7-3.2
			c-0.1-0.4,0.2-0.8,0.6-0.9l3.5-0.8c0.4-0.1,0.8,0.2,0.9,0.6L203.4,91.1z"/>
		<path fill="#FDFBEF" d="M197.6,92.4c0.1,0.4-0.2,0.8-0.6,0.9l-3.5,0.8c-0.4,0.1-0.8-0.2-0.9-0.6l-0.7-3.2
			c-0.1-0.4,0.2-0.8,0.6-0.9l3.5-0.8c0.4-0.1,0.8,0.2,0.9,0.6L197.6,92.4z"/>
		<path fill="#FDFBEF" d="M209.3,89.8c0.1,0.4-0.2,0.8-0.6,0.9l-3.5,0.8c-0.4,0.1-0.8-0.2-0.9-0.6l-0.7-3.2
			c-0.1-0.4,0.2-0.8,0.6-0.9l3.5-0.8c0.4-0.1,0.8,0.2,0.9,0.6L209.3,89.8z"/>
		<path fill="#EDEBE4" d="M147.8,109.4c0.1,0.4-0.2,0.8-0.6,0.9l-3.5,0.8c-0.4,0.1-0.8-0.2-0.9-0.6l-0.7-3.2
			c-0.1-0.4,0.2-0.8,0.6-0.9l3.5-0.8c0.4-0.1,0.8,0.2,0.9,0.6L147.8,109.4z"/>
		<path fill="#EDEBE4" d="M141.9,110.7c0.1,0.4-0.2,0.8-0.6,0.9l-3.5,0.8c-0.4,0.1-0.8-0.2-0.9-0.6l-0.7-3.2
			c-0.1-0.4,0.2-0.8,0.6-0.9l3.5-0.8c0.4-0.1,0.8,0.2,0.9,0.6L141.9,110.7z"/>
		<path fill="#EDEBE4" d="M136.1,112c0.1,0.4-0.2,0.8-0.6,0.9l-8,1.8c-0.4,0.1-0.8-0.2-0.9-0.6l-0.7-3.2c-0.1-0.4,0.2-0.8,0.6-0.9
			l8-1.8c0.4-0.1,0.8,0.2,0.9,0.6L136.1,112z"/>
		<path fill="#EDEBE4" d="M159.4,106.8c0.1,0.4-0.2,0.8-0.6,0.9l-3.5,0.8c-0.4,0.1-0.8-0.2-0.9-0.6l-0.7-3.2
			c-0.1-0.4,0.2-0.8,0.6-0.9l3.5-0.8c0.4-0.1,0.8,0.2,0.9,0.6L159.4,106.8z"/>
		<path fill="#EDEBE4" d="M153.6,108.1c0.1,0.4-0.2,0.8-0.6,0.9l-3.5,0.8c-0.4,0.1-0.8-0.2-0.9-0.6l-0.7-3.2
			c-0.1-0.4,0.2-0.8,0.6-0.9l3.5-0.8c0.4-0.1,0.8,0.2,0.9,0.6L153.6,108.1z"/>
		<path fill="#EDEBE4" d="M165.2,105.6c0.1,0.4-0.2,0.8-0.6,0.9l-3.5,0.8c-0.4,0.1-0.8-0.2-0.9-0.6l-0.7-3.2
			c-0.1-0.4,0.2-0.8,0.6-0.9l3.5-0.8c0.4-0.1,0.8,0.2,0.9,0.6L165.2,105.6z"/>
		<path fill="#FDFBEF" d="M182.6,101.7c0.1,0.4-0.2,0.8-0.6,0.9l-3.5,0.8c-0.4,0.1-0.8-0.2-0.9-0.6l-0.7-3.2
			c-0.1-0.4,0.2-0.8,0.6-0.9l3.5-0.8c0.4-0.1,0.8,0.2,0.9,0.6L182.6,101.7z"/>
		<path fill="#FDFBEF" d="M176.8,103c0.1,0.4-0.2,0.8-0.6,0.9l-3.5,0.8c-0.4,0.1-0.8-0.2-0.9-0.6l-0.7-3.2c-0.1-0.4,0.2-0.8,0.6-0.9
			l3.5-0.8c0.4-0.1,0.8,0.2,0.9,0.6L176.8,103z"/>
		<path fill="#FDFBEF" d="M194.3,99.1c0.1,0.4-0.2,0.8-0.6,0.9l-3.5,0.8c-0.4,0.1-0.8-0.2-0.9-0.6l-0.7-3.2
			c-0.1-0.4,0.2-0.8,0.6-0.9l3.5-0.8c0.4-0.1,0.8,0.2,0.9,0.6L194.3,99.1z"/>
		<path fill="#FDFBEF" d="M188.5,100.4c0.1,0.4-0.2,0.8-0.6,0.9l-3.5,0.8c-0.4,0.1-0.8-0.2-0.9-0.6l-0.7-3.2
			c-0.1-0.4,0.2-0.8,0.6-0.9l3.5-0.8c0.4-0.1,0.8,0.2,0.9,0.6L188.5,100.4z"/>
		<path fill="#EDEBE4" d="M140.8,98.9c0.1,0.4-0.2,0.8-0.6,0.9l-3.5,0.8c-0.4,0.1-0.8-0.2-0.9-0.6l-0.7-3.2
			c-0.1-0.4,0.2-0.8,0.6-0.9l3.5-0.8c0.4-0.1,0.8,0.2,0.9,0.6L140.8,98.9z"/>
		<path fill="#EDEBE4" d="M135,100.2c0.1,0.4-0.2,0.8-0.6,0.9l-3.5,0.8c-0.4,0.1-0.8-0.2-0.9-0.6l-0.7-3.2c-0.1-0.4,0.2-0.8,0.6-0.9
			l3.5-0.8c0.4-0.1,0.8,0.2,0.9,0.6L135,100.2z"/>
		<path fill="#EDEBE4" d="M140.3,93.2c0.1,0.4-0.2,0.8-0.6,0.9l-3.8,0.8c-0.4,0.1-0.8-0.2-0.9-0.6l-0.4-1.6
			c-0.1-0.4,0.2-0.8,0.6-0.9L139,91c0.4-0.1,0.8,0.2,0.9,0.6L140.3,93.2z"/>
		<path fill="#EDEBE4" d="M134.2,94.6c0.1,0.4-0.2,0.8-0.6,0.9l-3.8,0.8c-0.4,0.1-0.8-0.2-0.9-0.6l-0.4-1.6
			c-0.1-0.4,0.2-0.8,0.6-0.9l3.8-0.8c0.4-0.1,0.8,0.2,0.9,0.6L134.2,94.6z"/>
		<path fill="#EDEBE4" d="M128.2,95.9c0.1,0.4-0.2,0.8-0.6,0.9l-3.8,0.8c-0.4,0.1-0.8-0.2-0.9-0.6l-0.4-1.6
			c-0.1-0.4,0.2-0.8,0.6-0.9l3.8-0.8c0.4-0.1,0.8,0.2,0.9,0.6L128.2,95.9z"/>
		<path fill="#EDEBE4" d="M146.3,91.9c0.1,0.4-0.2,0.8-0.6,0.9l-3.8,0.8c-0.4,0.1-0.8-0.2-0.9-0.6l-0.4-1.6
			c-0.1-0.4,0.2-0.8,0.6-0.9l3.8-0.8c0.4-0.1,0.8,0.2,0.9,0.6L146.3,91.9z"/>
		<path fill="#EDEBE4" d="M158.5,89.2c0.1,0.4-0.2,0.8-0.6,0.9l-3.8,0.8c-0.4,0.1-0.8-0.2-0.9-0.6l-0.4-1.6
			c-0.1-0.4,0.2-0.8,0.6-0.9l3.8-0.8c0.4-0.1,0.8,0.2,0.9,0.6L158.5,89.2z"/>
		<path fill="#EDEBE4" d="M152.4,90.5c0.1,0.4-0.2,0.8-0.6,0.9l-3.8,0.8c-0.4,0.1-0.8-0.2-0.9-0.6l-0.4-1.6
			c-0.1-0.4,0.2-0.8,0.6-0.9l3.8-0.8c0.4-0.1,0.8,0.2,0.9,0.6L152.4,90.5z"/>
		<path fill="#EDEBE4" d="M164.5,87.8c0.1,0.4-0.2,0.8-0.6,0.9l-3.8,0.8c-0.4,0.1-0.8-0.2-0.9-0.6l-0.4-1.6
			c-0.1-0.4,0.2-0.8,0.6-0.9l3.8-0.8c0.4-0.1,0.8,0.2,0.9,0.6L164.5,87.8z"/>
		<path fill="#FDFBEF" d="M170.4,86.5c0.1,0.4-0.2,0.8-0.6,0.9l-3.8,0.8c-0.4,0.1-0.8-0.2-0.9-0.6l-0.4-1.6
			c-0.1-0.4,0.2-0.8,0.6-0.9l3.8-0.8c0.4-0.1,0.8,0.2,0.9,0.6L170.4,86.5z"/>
		<path fill="#FDFBEF" d="M176.5,85.2c0.1,0.4-0.2,0.8-0.6,0.9l-3.8,0.8c-0.4,0.1-0.8-0.2-0.9-0.6l-0.4-1.6
			c-0.1-0.4,0.2-0.8,0.6-0.9l3.8-0.8c0.4-0.1,0.8,0.2,0.9,0.6L176.5,85.2z"/>
		<path fill="#FDFBEF" d="M188.6,82.5c0.1,0.4-0.2,0.8-0.6,0.9l-3.8,0.8c-0.4,0.1-0.8-0.2-0.9-0.6L183,82c-0.1-0.4,0.2-0.8,0.6-0.9
			l3.8-0.8c0.4-0.1,0.8,0.2,0.9,0.6L188.6,82.5z"/>
		<path fill="#FDFBEF" d="M182.6,83.8c0.1,0.4-0.2,0.8-0.6,0.9l-3.8,0.8c-0.4,0.1-0.8-0.2-0.9-0.6l-0.4-1.6
			c-0.1-0.4,0.2-0.8,0.6-0.9l3.8-0.8c0.4-0.1,0.8,0.2,0.9,0.6L182.6,83.8z"/>
		<path fill="#FDFBEF" d="M194.7,81.2c0.1,0.4-0.2,0.8-0.6,0.9l-3.8,0.8c-0.4,0.1-0.8-0.2-0.9-0.6l-0.4-1.6
			c-0.1-0.4,0.2-0.8,0.6-0.9l3.8-0.8c0.4-0.1,0.8,0.2,0.9,0.6L194.7,81.2z"/>
		<path fill="#FDFBEF" d="M201.7,110.3c0.1,0.4-0.2,0.8-0.6,0.9l-3.8,0.8c-0.4,0.1-0.8-0.2-0.9-0.6l-0.3-1.3
			c-0.1-0.4,0.2-0.8,0.6-0.9l3.8-0.8c0.4-0.1,0.8,0.2,0.9,0.6L201.7,110.3z"/>
		<path fill="#FDFBEF" d="M213.3,107.8c0.1,0.4-0.2,0.8-0.6,0.9l-3.8,0.8c-0.4,0.1-0.8-0.2-0.9-0.6l-0.3-1.3
			c-0.1-0.4,0.2-0.8,0.6-0.9l3.8-0.8c0.4-0.1,0.8,0.2,0.9,0.6L213.3,107.8z"/>
		<path fill="#FDFBEF" d="M200.8,79.8c0.1,0.4-0.2,0.8-0.6,0.9l-3.8,0.8c-0.4,0.1-0.8-0.2-0.9-0.6l-0.4-1.6
			c-0.1-0.4,0.2-0.8,0.6-0.9l3.8-0.8c0.4-0.1,0.8,0.2,0.9,0.6L200.8,79.8z"/>
		<path fill="#FDFBEF" d="M206.8,78.5c0.1,0.4-0.2,0.8-0.6,0.9l-3.8,0.8c-0.4,0.1-0.8-0.2-0.9-0.6l-0.4-1.6
			c-0.1-0.4,0.2-0.8,0.6-0.9l3.8-0.8c0.4-0.1,0.8,0.2,0.9,0.6L206.8,78.5z"/>
		<path fill="#EDEBE4" d="M129.1,101.5c0.1,0.4-0.2,0.8-0.6,0.9l-3.5,0.8c-0.4,0.1-0.8-0.2-0.9-0.6l-0.7-3.2
			c-0.1-0.4,0.2-0.8,0.6-0.9l3.5-0.8c0.4-0.1,0.8,0.2,0.9,0.6L129.1,101.5z"/>
		<path fill="#EDEBE4" d="M152.5,96.4c0.1,0.4-0.2,0.8-0.6,0.9l-3.5,0.8c-0.4,0.1-0.8-0.2-0.9-0.6l-0.7-3.2
			c-0.1-0.4,0.2-0.8,0.6-0.9l3.5-0.8c0.4-0.1,0.8,0.2,0.9,0.6L152.5,96.4z"/>
		<path fill="#EDEBE4" d="M146.6,97.7c0.1,0.4-0.2,0.8-0.6,0.9l-3.5,0.8c-0.4,0.1-0.8-0.2-0.9-0.6l-0.7-3.2
			c-0.1-0.4,0.2-0.8,0.6-0.9l3.5-0.8c0.4-0.1,0.8,0.2,0.9,0.6L146.6,97.7z"/>
		<path fill="#EDEBE4" d="M164.1,93.8c0.1,0.4-0.2,0.8-0.6,0.9l-3.5,0.8c-0.4,0.1-0.8-0.2-0.9-0.6l-0.7-3.2
			c-0.1-0.4,0.2-0.8,0.6-0.9l3.5-0.8c0.4-0.1,0.8,0.2,0.9,0.6L164.1,93.8z"/>
		<path fill="#EDEBE4" d="M158.3,95.1c0.1,0.4-0.2,0.8-0.6,0.9l-3.5,0.8c-0.4,0.1-0.8-0.2-0.9-0.6l-0.7-3.2
			c-0.1-0.4,0.2-0.8,0.6-0.9l3.5-0.8c0.4-0.1,0.8,0.2,0.9,0.6L158.3,95.1z"/>
		<path fill="#FDFBEF" d="M175.7,91.2c0.1,0.4-0.2,0.8-0.6,0.9l-3.5,0.8c-0.4,0.1-0.8-0.2-0.9-0.6l-0.7-3.2
			c-0.1-0.4,0.2-0.8,0.6-0.9l3.5-0.8c0.4-0.1,0.8,0.2,0.9,0.6L175.7,91.2z"/>
		<path fill="#FDFBEF" d="M187.4,88.6c0.1,0.4-0.2,0.8-0.6,0.9l-3.5,0.8c-0.4,0.1-0.8-0.2-0.9-0.6l-0.7-3.2
			c-0.1-0.4,0.2-0.8,0.6-0.9l3.5-0.8c0.4-0.1,0.8,0.2,0.9,0.6L187.4,88.6z"/>
		<path fill="#FDFBEF" d="M181.5,89.9c0.1,0.4-0.2,0.8-0.6,0.9l-3.5,0.8c-0.4,0.1-0.8-0.2-0.9-0.6l-0.7-3.2
			c-0.1-0.4,0.2-0.8,0.6-0.9l3.5-0.8c0.4-0.1,0.8,0.2,0.9,0.6L181.5,89.9z"/>
		<path fill="#FDFBEF" d="M199,86.1c0.1,0.4-0.2,0.8-0.6,0.9l-3.5,0.8c-0.4,0.1-0.8-0.2-0.9-0.6l-0.7-3.2c-0.1-0.4,0.2-0.8,0.6-0.9
			l3.5-0.8c0.4-0.1,0.8,0.2,0.9,0.6L199,86.1z"/>
		<path fill="#FDFBEF" d="M193.2,87.4c0.1,0.4-0.2,0.8-0.6,0.9l-3.5,0.8c-0.4,0.1-0.8-0.2-0.9-0.6l-0.7-3.2
			c-0.1-0.4,0.2-0.8,0.6-0.9l3.5-0.8c0.4-0.1,0.8,0.2,0.9,0.6L193.2,87.4z"/>
		<path fill="#FDFBEF" d="M208,84.1c0.1,0.4-0.2,0.8-0.6,0.9l-6.7,1.5c-0.4,0.1-0.8-0.2-0.9-0.6l-0.7-3.2c-0.1-0.4,0.2-0.8,0.6-0.9
			l6.7-1.5c0.4-0.1,0.8,0.2,0.9,0.6L208,84.1z"/>
		<path fill="#FDFBEF" d="M210.5,95.5c0.1,0.4-0.2,0.8-0.6,0.9l-8.1,1.8c-0.4,0.1-0.8-0.2-0.9-0.6l-0.7-3.2
			c-0.1-0.4,0.2-0.8,0.6-0.9l8.1-1.8c0.4-0.1,0.8,0.2,0.9,0.6L210.5,95.5z"/>
		<path fill="#FDFBEF" d="M200.1,97.8c0.1,0.4-0.2,0.8-0.6,0.9l-3.5,0.8c-0.4,0.1-0.8-0.2-0.9-0.6l-0.7-3.2
			c-0.1-0.4,0.2-0.8,0.6-0.9l3.5-0.8c0.4-0.1,0.8,0.2,0.9,0.6L200.1,97.8z"/>
		<path fill="#EDEBE4" d="M152,114.4c0.1,0.4-0.2,0.8-0.6,0.9l-3.5,0.8c-0.4,0.1-0.8-0.2-0.9-0.6l-0.7-3.2c-0.1-0.4,0.2-0.8,0.6-0.9
			l3.5-0.8c0.4-0.1,0.8,0.2,0.9,0.6L152,114.4z"/>
		<path fill="#EDEBE4" d="M146.2,115.7c0.1,0.4-0.2,0.8-0.6,0.9l-3.5,0.8c-0.4,0.1-0.8-0.2-0.9-0.6l-0.7-3.2
			c-0.1-0.4,0.2-0.8,0.6-0.9l3.5-0.8c0.4-0.1,0.8,0.2,0.9,0.6L146.2,115.7z"/>
		<path fill="#EDEBE4" d="M140.3,117c0.1,0.4-0.2,0.8-0.6,0.9l-10.9,2.4c-0.4,0.1-0.8-0.2-0.9-0.6l-0.7-3.2
			c-0.1-0.4,0.2-0.8,0.6-0.9l10.9-2.4c0.4-0.1,0.8,0.2,0.9,0.6L140.3,117z"/>
		<path fill="#EDEBE4" d="M163.6,111.9c0.1,0.4-0.2,0.8-0.6,0.9l-3.5,0.8c-0.4,0.1-0.8-0.2-0.9-0.6l-0.7-3.2
			c-0.1-0.4,0.2-0.8,0.6-0.9l3.5-0.8c0.4-0.1,0.8,0.2,0.9,0.6L163.6,111.9z"/>
		<path fill="#EDEBE4" d="M157.8,113.2c0.1,0.4-0.2,0.8-0.6,0.9l-3.5,0.8c-0.4,0.1-0.8-0.2-0.9-0.6l-0.7-3.2
			c-0.1-0.4,0.2-0.8,0.6-0.9l3.5-0.8c0.4-0.1,0.8,0.2,0.9,0.6L157.8,113.2z"/>
		<path fill="#FDFBEF" d="M189.9,112.9c0.1,0.4-0.2,0.8-0.6,0.9l-5.1,1.1c-0.4,0.1-0.8-0.2-0.9-0.6l-0.9-4.1
			c-0.1-0.4,0.2-0.8,0.6-0.9l5.1-1.1c0.4-0.1,0.8,0.2,0.9,0.6L189.9,112.9z"/>
		<path fill="#EDEBE4" d="M153.5,121c0.1,0.4-0.2,0.8-0.6,0.9l-5.3,1.2c-0.4,0.1-0.8-0.2-0.9-0.6l-0.9-4.1c-0.1-0.4,0.2-0.8,0.6-0.9
			l5.3-1.2c0.4-0.1,0.8,0.2,0.9,0.6L153.5,121z"/>
		<path fill="#EDEBE4" d="M134.5,125.2c0.1,0.4-0.2,0.8-0.6,0.9l-3.6,0.8c-0.4,0.1-0.8-0.2-0.9-0.6l-0.9-4.1
			c-0.1-0.4,0.2-0.8,0.6-0.9l3.6-0.8c0.4-0.1,0.8,0.2,0.9,0.6L134.5,125.2z"/>
		<path fill="#EDEBE4" d="M140.2,124c0.1,0.4-0.2,0.8-0.6,0.9l-3.6,0.8c-0.4,0.1-0.8-0.2-0.9-0.6l-0.9-4.1c-0.1-0.4,0.2-0.8,0.6-0.9
			l3.6-0.8c0.4-0.1,0.8,0.2,0.9,0.6L140.2,124z"/>
		<path fill="#FDFBEF" d="M195.8,111.6c0.1,0.4-0.2,0.8-0.6,0.9l-3.6,0.8c-0.4,0.1-0.8-0.2-0.9-0.6l-0.9-4.1
			c-0.1-0.4,0.2-0.8,0.6-0.9l3.6-0.8c0.4-0.1,0.8,0.2,0.9,0.6L195.8,111.6z"/>
		<path fill="#EDEBE4" d="M146,122.7c0.1,0.4-0.2,0.8-0.6,0.9l-3.6,0.8c-0.4,0.1-0.8-0.2-0.9-0.6l-0.9-4.1c-0.1-0.4,0.2-0.8,0.6-0.9
			l3.6-0.8c0.4-0.1,0.8,0.2,0.9,0.6L146,122.7z"/>
		<path fill="#EDEBE4" d="M169.4,110.6c0.1,0.4-0.2,0.8-0.6,0.9l-3.5,0.8c-0.4,0.1-0.8-0.2-0.9-0.6l-0.7-3.2
			c-0.1-0.4,0.2-0.8,0.6-0.9l3.5-0.8c0.4-0.1,0.8,0.2,0.9,0.6L169.4,110.6z"/>
		<path fill="#FDFBEF" d="M186.9,106.7c0.1,0.4-0.2,0.8-0.6,0.9l-3.5,0.8c-0.4,0.1-0.8-0.2-0.9-0.6l-0.7-3.2
			c-0.1-0.4,0.2-0.8,0.6-0.9l3.5-0.8c0.4-0.1,0.8,0.2,0.9,0.6L186.9,106.7z"/>
		<path fill="#FDFBEF" d="M181.1,108c0.1,0.4-0.2,0.8-0.6,0.9l-3.5,0.8c-0.4,0.1-0.8-0.2-0.9-0.6l-0.7-3.2c-0.1-0.4,0.2-0.8,0.6-0.9
			l3.5-0.8c0.4-0.1,0.8,0.2,0.9,0.6L181.1,108z"/>
		<path fill="#FDFBEF" d="M175.3,109.3c0.1,0.4-0.2,0.8-0.6,0.9l-3.5,0.8c-0.4,0.1-0.8-0.2-0.9-0.6l-0.7-3.2
			c-0.1-0.4,0.2-0.8,0.6-0.9l3.5-0.8c0.4-0.1,0.8,0.2,0.9,0.6L175.3,109.3z"/>
		<path fill="#FDFBEF" d="M198.5,104.1c0.1,0.4-0.2,0.8-0.6,0.9l-3.5,0.8c-0.4,0.1-0.8-0.2-0.9-0.6l-0.7-3.2
			c-0.1-0.4,0.2-0.8,0.6-0.9l3.5-0.8c0.4-0.1,0.8,0.2,0.9,0.6L198.5,104.1z"/>
		<path fill="#FDFBEF" d="M192.7,105.4c0.1,0.4-0.2,0.8-0.6,0.9l-3.5,0.8c-0.4,0.1-0.8-0.2-0.9-0.6l-0.7-3.2
			c-0.1-0.4,0.2-0.8,0.6-0.9l3.5-0.8c0.4-0.1,0.8,0.2,0.9,0.6L192.7,105.4z"/>
		<path fill="#FDFBEF" d="M211.8,101.2c0.1,0.4-0.2,0.8-0.6,0.9l-10.9,2.4c-0.4,0.1-0.8-0.2-0.9-0.6l-0.7-3.2
			c-0.1-0.4,0.2-0.8,0.6-0.9l10.9-2.4c0.4-0.1,0.8,0.2,0.9,0.6L211.8,101.2z"/>
		<path fill="#FDFBEF" d="M206.9,107.1l0.4,2c0.1,0.4-0.2,0.8-0.6,0.9l-3.4,0.8c-0.4,0.1-0.8-0.2-0.9-0.6l-0.4-2L206.9,107.1z"/>
		<path fill="#FDFBEF" d="M202,108l-0.4-2c-0.1-0.4,0.2-0.8,0.6-0.9l3.4-0.8c0.4-0.1,0.8,0.2,0.9,0.6l0.4,2L202,108z"/>
		<path fill="#FDFBEF" d="M166.6,95.1l0.3-0.1c0.4-0.1,0.8,0.2,0.9,0.6l0.7,3.2c0.1,0.4-0.2,0.8-0.6,0.9l-0.3,0.1"/>
		<path fill="#FDFBEF" d="M167.9,100.8l1.5-0.3c0.4-0.1,0.8,0.2,0.9,0.6l0.7,3.2c0.1,0.4-0.2,0.8-0.6,0.9l-1.5,0.3"/>
		<path fill="#FDFBEF" d="M165.4,89.3l3-0.7c0.4-0.1,0.8,0.2,0.9,0.6l0.7,3.2c0.1,0.4-0.2,0.8-0.6,0.9l-3,0.7"/>
		<path fill="#EDEBE4" d="M167.7,99.8l-3.2,0.7c-0.4,0.1-0.8-0.2-0.9-0.6l-0.7-3.2c-0.1-0.4,0.2-0.8,0.6-0.9l3.2-0.7"/>
		<path fill="#EDEBE4" d="M168.9,105.5l-2,0.4c-0.4,0.1-0.8-0.2-0.9-0.6l-0.7-3.2c-0.1-0.4,0.2-0.8,0.6-0.9l2-0.4"/>
		<path fill="#EDEBE4" d="M166.4,94.1l-0.5,0.1c-0.4,0.1-0.8-0.2-0.9-0.6l-0.7-3.2c-0.1-0.4,0.2-0.8,0.6-0.9l0.5-0.1"/>
		<path fill="#EDEBE4" d="M171.6,117.8l-16.4,3.6c-0.4,0.1-0.8-0.2-0.9-0.6l-0.9-4.1c-0.1-0.4,0.2-0.8,0.6-0.9l16.4-3.6"/>
	</g>
	<g>
		<polygon fill="#898989" points="-328.6,125.6 -341.1,105.5 -373.8,116.2 -373.7,118.3 -344.1,115.7 -335.8,125.7 -335.7,128 
			-343.7,135.2 -373.4,132.8 -373.3,134.8 -340.3,145.4 -328.5,127.9 		"/>
		<polygon fill="#A0A0A0" points="-328.6,126.7 -328.5,127.9 -340.3,145.4 -373.3,134.8 -373.4,132.8 -343.7,135.2 -335.7,128 
			-335.8,126.9 		"/>
		<path fill="#D8D8D8" d="M-319.7,122.5l50.7-15c0,0-0.9,3.4,2.1,5.5l-52.8,16.4C-319.8,129.4-317.1,126.7-319.7,122.5z"/>
		<circle fill="#898989" cx="-323.3" cy="126.1" r="3.6"/>
	</g>
	<g opacity="0.35">
		<polygon fill="#CAE0E5" points="52.6,-25.7 67.3,-113 122.6,-91.9 98,-15.4 		"/>
		<polygon fill="#B0CCD7" points="125,-89.9 100.8,-14.4 198.1,38.6 235.5,-82.8 		"/>
		<polygon fill="#9DBBC4" points="239.6,-82.7 200.5,41.8 243.9,98.4 336.2,-89.9 		"/>
		<polygon fill="none" stroke="#FFFFFF" stroke-width="0.8973" stroke-miterlimit="10" points="144,-0.5 110.4,-17.3 130.2,-81.8 
			169.8,-79.2 		"/>
		<polygon fill="none" stroke="#FFFFFF" stroke-width="0.8973" stroke-miterlimit="10" points="174.6,-79 224.4,-76.1 192.6,24.6 
			149.5,1.6 		"/>
		<line fill="none" stroke="#FFFFFF" stroke-width="0.8973" stroke-miterlimit="10" x1="124.3" y1="-62.7" x2="162" y2="-55.5"/>
		<path fill="none" stroke="#FFFFFF" stroke-width="0.8973" stroke-miterlimit="10" d="M169.8-79.2"/>
		<line fill="none" stroke="#FFFFFF" stroke-width="0.8973" stroke-miterlimit="10" x1="167" y1="-54.3" x2="214.6" y2="-45"/>
		<line fill="none" stroke="#FFFFFF" stroke-width="0.8973" stroke-miterlimit="10" x1="124.3" y1="-62.7" x2="162" y2="-55.4"/>
		<line fill="none" stroke="#FFFFFF" stroke-width="0.8973" stroke-miterlimit="10" x1="159" y1="-29.1" x2="205.3" y2="-15.4"/>
		<line fill="none" stroke="#FFFFFF" stroke-width="0.8973" stroke-miterlimit="10" x1="117.6" y1="-41.1" x2="153.8" y2="-30.6"/>
		<line fill="none" stroke="#FFFFFF" stroke-width="0.8973" stroke-miterlimit="10" x1="163.5" y1="-43.5" x2="210.5" y2="-32"/>
		<line fill="none" stroke="#FFFFFF" stroke-width="0.8973" stroke-miterlimit="10" x1="121.6" y1="-53.8" x2="158.5" y2="-44.8"/>
		<line fill="none" stroke="#FFFFFF" stroke-width="0.8973" stroke-miterlimit="10" x1="113.4" y1="-27.2" x2="148.2" y2="-13.6"/>
		<line fill="none" stroke="#FFFFFF" stroke-width="0.8973" stroke-miterlimit="10" x1="127.2" y1="-38.3" x2="130.8" y2="-51.6"/>
		<line fill="none" stroke="#FFFFFF" stroke-width="0.8973" stroke-miterlimit="10" x1="140" y1="-34.6" x2="144.3" y2="-48.3"/>
		<line fill="none" stroke="#FFFFFF" stroke-width="0.8973" stroke-miterlimit="10" x1="177.2" y1="-12.2" x2="180.2" y2="-22.8"/>
		<line fill="none" stroke="#FFFFFF" stroke-width="0.8973" stroke-miterlimit="10" x1="198.9" y1="-34.9" x2="202.4" y2="-47.4"/>
		<line fill="none" stroke="#FFFFFF" stroke-width="0.8973" stroke-miterlimit="10" x1="173.3" y1="-41.1" x2="176.6" y2="-52.5"/>
		<line fill="none" stroke="#FFFFFF" stroke-width="0.8973" stroke-miterlimit="10" x1="124.3" y1="-62.7" x2="169.8" y2="-79.2"/>
		<line fill="none" stroke="#FFFFFF" stroke-width="0.8973" stroke-miterlimit="10" x1="130.2" y1="-81.8" x2="162" y2="-55.5"/>
		<line fill="none" stroke="#FFFFFF" stroke-width="0.8973" stroke-miterlimit="10" x1="174.6" y1="-79" x2="214.6" y2="-45"/>
		<line fill="none" stroke="#FFFFFF" stroke-width="0.8973" stroke-miterlimit="10" x1="167" y1="-54.3" x2="224.4" y2="-76.1"/>
		<line fill="none" stroke="#FFFFFF" stroke-width="0.8973" stroke-miterlimit="10" x1="127.2" y1="-38.3" x2="144.3" y2="-48.3"/>
		<line fill="none" stroke="#FFFFFF" stroke-width="0.8973" stroke-miterlimit="10" x1="144.3" y1="-48.3" x2="153.8" y2="-30.6"/>
		<line fill="none" stroke="#FFFFFF" stroke-width="0.8973" stroke-miterlimit="10" x1="158.5" y1="-44.8" x2="140" y2="-34.6"/>
		<line fill="none" stroke="#FFFFFF" stroke-width="0.8973" stroke-miterlimit="10" x1="140" y1="-34.6" x2="130.8" y2="-51.6"/>
		<line fill="none" stroke="#FFFFFF" stroke-width="0.8973" stroke-miterlimit="10" x1="130.8" y1="-51.6" x2="117.6" y2="-41.1"/>
		<line fill="none" stroke="#FFFFFF" stroke-width="0.8973" stroke-miterlimit="10" x1="121.6" y1="-53.8" x2="127.2" y2="-38.3"/>
		<line fill="none" stroke="#FFFFFF" stroke-width="0.8973" stroke-miterlimit="10" x1="175" y1="-35.8" x2="194" y2="-31.3"/>
		<line fill="none" stroke="#FFFFFF" stroke-width="0.8973" stroke-miterlimit="10" x1="174" y1="-32" x2="192.6" y2="-27.2"/>
		<line fill="none" stroke="#FFFFFF" stroke-width="0.8973" stroke-miterlimit="10" x1="173.3" y1="-29.6" x2="192.6" y2="-24.5"/>
		<line fill="none" stroke="#FFFFFF" stroke-width="0.8973" stroke-miterlimit="10" x1="156.1" y1="-19.7" x2="201.5" y2="-3.5"/>
		<path fill="none" stroke="#FFFFFF" stroke-width="0.8973" stroke-miterlimit="10" d="M69.6-94.6c-0.6-0.3,10.5,3.4,10.5,3.4
			l2.2-8.5l-11-4.3L69.6-94.6z"/>
		<polygon fill="none" stroke="#FFFFFF" stroke-width="0.8973" stroke-miterlimit="10" points="95.3,-89.5 94.6,-87 103.7,-83.9 
			104.5,-86.7 		"/>
		<polygon fill="none" stroke="#FFFFFF" stroke-width="0.8973" stroke-miterlimit="10" points="96.6,-94 95.9,-91.5 105,-88.3 
			105.8,-91.2 		"/>
		<path fill="none" stroke="#FFFFFF" stroke-width="0.8973" stroke-miterlimit="10" d="M83.1-94c0,0,8.4-1.1,10.4,0.8"/>
		<path fill="none" stroke="#FFFFFF" stroke-width="0.8973" stroke-miterlimit="10" d="M90.9-92.1c0.6,0,2.6-1.1,2.6-1.1l-1.9-3"/>
		<polygon fill="none" stroke="#FFFFFF" stroke-width="0.8973" stroke-miterlimit="10" points="71.2,-83.9 94.6,-76.1 90.9,-64.3 
			68.8,-70.7 		"/>
		<polyline fill="none" stroke="#FFFFFF" stroke-width="0.8973" stroke-miterlimit="10" points="98.1,-74.1 96.8,-71.7 99.6,-71 		
			"/>
		<path fill="none" stroke="#FFFFFF" stroke-width="0.8973" stroke-miterlimit="10" d="M108.3-86.3c0,0,9.5,7.3-11.4,14.6"/>
		<polyline fill="none" stroke="#FFFFFF" stroke-width="0.8973" stroke-miterlimit="10" points="235.5,-52.5 244.2,-71 244.2,-47.4 
			259.1,-68.7 259.1,-53.8 268.4,-59.9 272.8,-59.9 282.2,-59.9 297.7,-68.7 302.2,-76.1 290.2,-37.8 314.5,-76.1 		"/>
		<polygon fill="none" stroke="#FFFFFF" stroke-width="0.8973" stroke-miterlimit="10" points="79.1,-59.9 90.3,-57 89.3,-54.2 
			78.4,-57.5 		"/>
		<path fill="none" stroke="#FFFFFF" stroke-width="0.8973" stroke-miterlimit="10" d="M67.6-67.3c0,0-5.4,4.3,5.4,7.4"/>
		<path fill="none" stroke="#FFFFFF" stroke-width="0.8973" stroke-miterlimit="10" d="M70.5-58.7c0.1-0.1,2.8-1.1,2.8-1.1l-1.1-2.1
			"/>
		<path fill="#FFFFFF" d="M239.2-24.2c-2.5,6.4-7.2,10.7-10.5,9.4c-3.3-1.2-4-7.5-1.5-14c2.5-6.4,7.2-10.7,10.5-9.4
			C241.1-37,241.7-30.6,239.2-24.2z M236.1-35.8c-2.5-0.8-6,2.4-7.7,7.4s-1,9.7,1.5,10.6c2.5,0.9,6-2.4,7.7-7.4
			C239.3-30.2,238.6-34.9,236.1-35.8z"/>
		<path fill="#FFFFFF" d="M258.6-17.5c-3.1,8-8.8,13.2-13,11.6c-4.1-1.6-4.9-9.4-1.9-17.4c3.1-8,8.8-13.2,13-11.6
			C260.9-33.3,261.7-25.5,258.6-17.5z M254.7-32c-3.1-1-7.4,3-9.6,9.2s-1.4,12.1,1.9,13.1s7.4-3,9.6-9.2
			C258.8-25,257.9-30.8,254.7-32z"/>
		<path fill="#FFFFFF" d="M284.9-8.4C280.8,2.4,273,9.3,267.6,7.1s-6.6-12.5-2.5-23.1c4.1-10.7,11.9-17.7,17.3-15.5
			S289-19.1,284.9-8.4z M279.7-27.5c-4.2-1.5-9.9,4.1-12.7,12.3c-2.8,8.2-1.8,16,2.5,17.5c4.2,1.5,9.9-4.1,12.7-12.3
			C285-18.2,283.9-26.1,279.7-27.5z"/>
		<polygon fill="none" stroke="#FFFFFF" stroke-width="0.8973" stroke-miterlimit="10" points="74.5,-52.1 99.6,-45 96.9,-34.8 
			71.9,-41.4 		"/>
		<polygon fill="none" stroke="#FFFFFF" stroke-width="0.8973" stroke-miterlimit="10" points="59,-39.5 56.7,-29.8 66.3,-27.6 
			68.8,-37.7 		"/>
	</g>
	<g>
		<polygon fill="#A0A0A0" points="28.7,-25 62.7,-6.5 100.5,-47.9 98.8,-50.8 58.8,-23.4 38.9,-30.9 37,-34.2 40.1,-55.2 
			83.5,-76.9 81.8,-79.7 27.2,-66.9 26.8,-28.3 		"/>
		<polygon fill="#898989" points="38,-32.6 37,-34.2 40.1,-55.2 83.5,-76.9 81.8,-79.7 27.2,-66.9 26.8,-28.3 27.8,-26.7 		"/>
		<path fill="#C6C6C5" d="M23.6-19.1l-65.5,96c0,0-1.4-2.8-4.9-3.4l66.1-97.9C19.3-24.5,18.9-20.7,23.6-19.1z"/>
		<circle fill="#898989" cx="24.1" cy="-24.2" r="3.6"/>
		<circle fill="#898989" cx="-46.4" cy="78.8" r="3.6"/>
	</g>
	<polygon fill="#A0A0A0" points="-183,88.8 -68.8,124 -20.8,80.3 -128.7,50.9 	"/>
	<polygon fill="#8C8C8C" points="-131.2,104.8 -83.2,63.3 -128.7,50.9 -183,88.8 	"/>
	<g>
		<g opacity="0.4">
			<polygon points="-68.8,200.5 -26.7,147.9 -20.8,81.3 -68.8,125 			"/>
			<polygon points="-183,89.8 -175.8,155.3 -68.8,200.5 -68.8,125 			"/>
			<polygon points="-131.2,174.2 -131.2,105.8 -183,89.8 -175.8,155.3 			"/>
		</g>
		<g>
			<g>
				<polygon fill="#CECECE" points="-68.8,199.5 -26.7,146.9 -20.8,80.3 -68.8,124 				"/>
				<polygon fill="#D8D8D8" points="-183,88.8 -175.8,154.3 -68.8,199.5 -68.8,124 				"/>
				<polygon fill="#CECECE" points="-131.2,173.2 -131.2,104.8 -183,88.8 -175.8,154.3 				"/>
			</g>
		</g>
	</g>
	<path fill="#3A3A3A" d="M-80.3,128.5c2.8,0.9,5.2,3.1,5.2,6.3c0,3.5-2.8,6.4-6.4,6.4c-0.4,0-1.6-0.3-2-0.4l-88.6-30.3
		c-2.2-0.7-3-3.3-3-5.6c0-2.9,2-5.7,5.8-4.5c0.5,0.2-0.5-0.1,0,0L-80.3,128.5z"/>
	<g>
		<polygon fill="#898989" points="34.7,140 44.6,87.2 122.3,82.9 123.9,87.3 59.3,106.3 50,134.2 51.8,139.2 77,154.3 138.5,126.7 
			140,131.1 78.3,178.4 36.5,144.9 		"/>
		<polygon fill="#A0A0A0" points="50.9,136.7 51.8,139.2 77,154.3 138.5,126.7 140.1,131.1 78.4,178.4 36.5,144.9 35.6,142.5 		"/>
		<path fill="#A0A0A0" d="M26.9,140.4l-62.6-5.5c0,0,1.3,2.9-0.5,6l64.5,6.2C28.4,147.1,25.2,145.1,26.9,140.4z"/>
		<circle fill="#898989" cx="31.1" cy="143.2" r="3.6"/>
		<circle fill="#898989" cx="-40.1" cy="137.2" r="3.6"/>
	</g>
	<g>
		<g>
			<path fill="#F04C23" d="M-280.1,10.1l-18.2-12.4l-3.7,1.5l-2.1-1.6l0.5-2.8l-6.1-6.1l0.1-3.8l-19.2-22.7l7.9-14.2
				c0,0,4.6,0.1,5.7,0.5s0.8,0.9,0.8,1.7s0.5,4.5,1,5.1c0.5,0.6,5.5,4.8,5.8,5.6l2.9,7.4c0,0,0.1,0.2,0.8,0.9
				c0.7,0.6,4.1,4.1,4.1,4.1s0.8,0.4-1,2.9c-1.9,2.5-3.2,4.8-3.2,4.8l5.6,3.4l6.7-9.3l-18.7-35.6l-13.4-0.8c0,0-4.1-0.7-7.4,5.7
				c-3.3,6.4-1.2,2.6-1.2,2.6l-5.6,5.8L-358-32.4l-6.1-7.6l-5.1,1.8l-2,5.4l8,5.8l-11.3,21.8l-4.1,5.4c0,0-5.9,7-3.3,9.3
				c0,0,0.9-1.1,2.8-1.4c2-0.2,23.8,3.6,23.8,3.6l13.3,8.9l3.5-0.5l5.9,5.1l2.6,0.2l1.7,1.7l-1,3.6l13.7,18
				C-315.5,48.6-283.5,45.2-280.1,10.1z"/>
			<path fill="#E03D1E" d="M-291,35.9c-10.5,11.2-24.5,12.7-24.5,12.9l-13.7-18l1-3.6l-1.7-1.7l-2.6-0.2l-5.9-5.1l-3.5,0.5
				l-13.3-8.9c0,0-21.8-3.8-23.8-3.6c-1.9,0.2-2.8,1.4-2.8,1.4c-2.6-2.3,3.3-9.3,3.3-9.3l4.1-5.4l11.3-21.8l-8-5.8l2-5.4L-291,35.9z
				"/>
			<path fill="#DC3F26" d="M-303.7-5.3c-13.9,22.5-28.8,30.5-28.8,30.5l-5.9-5.1c0,0,19.7-12.6,28.6-31.5L-303.7-5.3z"/>
			<path fill="#CE2C27" d="M-303.7-5.3c-13.9,22.5-28.8,30.5-28.8,30.5l2.6,0.2c0,0,18.1-10.4,25.7-27.9
				C-304.1-2.7-303.7-5.3-303.7-5.3z"/>
			<path fill="#CE2C27" d="M-381.7,7.2c0,0-1.5-0.1,3.5-6.6s4.6-5,4.6-5l0,0C-373.7-4.4-378.8,4.7-381.7,7.2L-381.7,7.2z"/>
			<path fill="#CE2C27" d="M-363.5-26.9c0,0,4.3-0.8,5.2-5.5l-6.1-7.6l-5.1,1.8l-2,5.4L-363.5-26.9z"/>
		</g>
		<polygon fill="#A0A0A0" points="-226.1,-129.4 -208.2,-68.1 -288.4,-21.6 -292.3,-25.3 -234.1,-80.4 -239.4,-115 -244,-119.2 
			-278.9,-121.7 -329.1,-59.3 -333.1,-62.9 -293.2,-146.5 -230.7,-133.5 		"/>
		<polygon fill="#898989" points="-228.4,-131.4 -230.7,-133.5 -293.2,-146.5 -333.1,-62.9 -329.1,-59.3 -278.9,-121.7 -244,-119.2 
			-241.7,-117.1 		"/>
		<path fill="#C6C6C5" d="M-76,37.1c-3.4-1.7-6.9,1.7-6.9,1.7l-48.3-134.2c0,0,5,0.6,5.6-4.8L-76,37.1z"/>
		<circle fill="#898989" cx="-225.4" cy="-134.8" r="3.6"/>
		<circle fill="#898989" cx="-130.8" cy="-100.2" r="3.6"/>
		<circle fill="#898989" cx="-78.7" cy="41.8" r="3.6"/>
		<path fill="#C6C6C5" d="M-133.7-104.4c-4.2,2.7-0.9,6.4-0.9,6.4l-88.7-32.2c0,0,4.2-1.8,2.5-5.6L-133.7-104.4z"/>
		<path fill="#DC3F26" d="M-336.5-41.4c-6.8,23.6-29.2,37.5-29.2,37.5s12.8-7.3,17.8-13.9C-348-17.9-338.6-29.5-336.5-41.4"/>
	</g>
	<path fill="#EDE5D6" stroke="#E0D9CA" stroke-width="0.673" stroke-miterlimit="10" d="M-68.8-43.9c0,20.5-15,31.4-33.5,31.4
		s-33.5-10.9-33.5-31.4s15-37,33.5-37S-68.8-64.4-68.8-43.9z"/>
	<path fill="#EAE0CC" stroke="#E0D9CA" stroke-width="0.673" stroke-miterlimit="10" d="M-102.3-80.9
		c-16.7,22.4-13.2,66.4-13.2,66.4c-11.9-4.1-20.3-14-20.3-29.3C-135.8-64.4-120.8-80.9-102.3-80.9z"/>
	<path fill="#0A1F26" d="M-116.8,102.4c-13.9-6.9-38.3-22-34.1-26.7c13.5-15.1,40.3-17.4,40.3-17.4c12.5,5.7,38.3,2.2,38.3,2.2
		c0.1,0.1,22.5,14.9,22.3,31.9c0.7,5.6-5.6,8-52,9.9L-116.8,102.4l6.7-14.3 M-126.1,75c0,0,10.6,12.7,17.2,13.3
		c2.4,0.2,32.2-4.7,40.5-3.4c0,0-16.9-5.6-35.2-7.2S-118.6,74.8-126.1,75z"/>
	<ellipse fill="#333333" cx="-100.1" cy="-42.8" rx="2.3" ry="3.4"/>
	<path fill="#EAE0CC" stroke="#E0D9CA" stroke-width="0.673" stroke-miterlimit="10" d="M-110.6,8.8L-121,62.4l-7.8,4
		c0,0-0.9,1.4,0.6,2.1c1.6,0.6,4.8,1.4,4.8,1.4s4.4,0.2,6.1-1.7c1.8-1.9,4.5-10.3,4.5-10.3l4-20.6l3.1-26.2L-110.6,8.8L-110.6,8.8z"
		/>
	<path fill="#ACCCBA" d="M-103.6-6.1c0,0-3.5,2.7-7.7,14.6c0,0,4.9,2.8,5.3,2.5L-103.6-6.1z"/>
	<path fill="#E5DACA" stroke="#E0D9CA" stroke-width="0.673" stroke-miterlimit="10" d="M-86.3-7.3c-4.9,4.1-17.2,3.4-16.9,1.2
		c0.3-2.2,0-6.6,0-6.6s5.5,1.4,14.1-2.1L-86.3-7.3z"/>
	<path fill="#2B366D" d="M-103.4-6.1"/>
	<polygon fill="#C6C6C5" points="-116.5,95.2 -86.3,73.5 -114.8,71.1 	"/>
	<path fill="#1E2555" d="M-103.2-6.1"/>
	<path fill="#B4D6C4" d="M-72.2,60.5c-1.2-14.9-8.2-55.1-8.2-55.1l-0.1-9.5l-5.8-3c-4.9,4-17.2,3.4-16.9,1.2c0,0-0.2-0.3-0.3-0.2
		c-0.1,0.1-1.1,4.3-1.1,4.3c-1.4,7.2-5.9,60-5.9,60C-100.2,64.6-72.2,60.5-72.2,60.5"/>
	<path fill="#ACCCBA" d="M-98.2,61.5c-4.9-0.4-9.4-1.4-12.5-3.3c0,0,4.6-52.8,5.9-60c0,0,1-4.2,1.1-4.3c0.1-0.1,0.3,0.2,0.3,0.2
		c-0.2,1.1,3,1.8,6.7,1.7L-98.2,61.5z"/>
	<path fill="#EDE5D6" stroke="#E0D9CA" stroke-width="0.673" stroke-miterlimit="10" d="M-66,36.9c0,0,1.4,7.4-0.6,8.7l-34.7,29.5
		c0,0-3.3,4-6.2,6.9c-2.9,2.9-6.1,1.2-8.3,0.1c-2.2-1.1-2.7-4.9-2.7-4.9s-2.6,8.5-3.7,9.7c-1.1,1.1-1.8-1.1-1.8-1.1s2-8.4,3.5-12.2
		c1.6-3.6,14.6-6,14.6-6l29.1-25.8c0.9-1.2,1.1-2.8,0.8-6.1l-3.2-21l10.2-2.7L-66,36.9z"/>
	<ellipse fill="#333333" cx="-127" cy="-45.6" rx="1.8" ry="2.9"/>
	<path fill="#5B461B" d="M-68.1-27.1c4.1-12.7,7.3-37.5-7.6-51c-7.9-7.1-14.2-9.4-23.2-9.9c-30-1.8-38.2,31.9-38.2,31.9
		c-4.7,29.4,2,60.7,1.2,43.5c-1.1-27.3,4.4-49.6,4.4-49.6c6.9-3.7,10-9.8,10-9.8s15,14.8,29.2,16.6c0,0,7.5,46.7,5.6,54.1
		C-86.6-1.2-72.5-13.5-68.1-27.1z"/>
	<path fill="#CCE8DB" d="M-68.4,11.9l-0.4-4C-71-4.3-80.5-4.2-80.5-4.2s-1.9,4.4-0.8,9.8c0.2,1.1,0.6,4.9,1.2,9.5L-68.4,11.9z"/>
	<polygon fill="#D8D8D8" points="-116.5,95.2 -194.6,80.3 -204.4,25.7 -112,31.8 	"/>
	
		<ellipse transform="matrix(-8.380495e-02 -0.9965 0.9965 -8.380495e-02 -235.9886 -98.2537)" fill="#FFFFFF" cx="-163.2" cy="59.4" rx="4" ry="2.9"/>
	<path fill="#4C4C4C" d="M-86.3,73.5c0,1.8-1.5,2.7-1.5,2.7s-23.7,19-26,19.9c-2.4,0.9-2.6-0.9-2.6-0.9L-86.3,73.5z"/>
	<path fill="#C6C6C5" d="M-194.6,80.3"/>
	<path fill="#C6C6C5" d="M-116.5,95.2c0,0,0.2,0.9,1.3,1.1c1.1,0.2-77.3-15.2-78.9-15.5c-0.2-0.1-0.5-0.2-0.5-0.6L-116.5,95.2z"/>
	<ellipse fill="#FFFFFF" cx="-164.7" cy="107.6" rx="2.2" ry="3.5"/>
	<ellipse fill="#FFFFFF" cx="-89.9" cy="132.3" rx="2.7" ry="4.2"/>
	<path fill="#3A3A3A" d="M-120.5,133.8c-10.9,6.1-20.5-6.5-20.5-6.5L-120.5,133.8z"/>
	<g>
		<path fill="#F04C23" d="M-86.2,184.5l-3.4,0.8l0,0l3.4,2.3l0,1.7l-5.3-3.7v-1.5l5.4-1.4L-86.2,184.5z"/>
		<path fill="#F04C23" d="M-81.8,180.9l1.4,0.7l-3.7,9.5l-1.3-0.8L-81.8,180.9z"/>
		<path fill="#F04C23" d="M-79.6,189.1l4.2-0.8l0,0l-4.1-2.5l0-1.8l6.7,4.1l-0.1,1.8l-6.8,1.1L-79.6,189.1z"/>
	</g>
	<path fill="#585959" d="M-517.5,40.2c-1.4,3.3-3.1,23.3,0.5,25.6c3.6,2.4,19.8,2.4,22.5,0c3.4-3.1,2-21.8,0.5-25.6
		C-499.1,41.7-512.1,41.9-517.5,40.2z"/>
	<circle fill="#898989" cx="-264.3" cy="109.1" r="3.6"/>
	<path fill="#693C17" d="M-377,1.1c-9.1-2.5-13.8,6.8-14.4,12.8c-0.9,8.8,2.2,16.6-0.7,23.9c-3,7.5,5.3,7.5,4.5,2.4
		c-1.2-8.8,1.5-15.2,2.8-21.1c1.1-4.9,1.5-10.7,3-11.8S-377.9,2.9-377,1.1z"/>
</g>
<g id="Layer_4_1_">
	<g id="XMLID_1_">
		<g>
			<path fill="#FFE3A6" d="M-378.4,135.5c0-0.2,0-2.6,0-5.5c0.4,0.8,5.3,0.8,4.9-5.7c-0.2-3.1-4.5-0.8-4.9,0.1c0-2.6,0-5.1,0-5.1
				c0.6,0.3,2.1-0.2,3-0.5c0.9-0.2,5.3-1.4,5.6,4.8c0.4,8.9-5.4,9.9-6.8,10.4C-378,134.4-378.4,135.1-378.4,135.5z"/>
			<path fill="#EADFBB" d="M-382.8,113.4c2.7,1.9-4,2.6-7.3,2.7v-3.8C-387,112.4-384.4,112.8-382.8,113.4L-382.8,113.4z"/>
			<path fill="#FFE3A6" d="M-380,112.7c1.5,0.6,1.7,1.9,1.7,3.4c0,0.3,0,1.5,0,3.1c0,0,0,2.5,0,5.1c0,1.9,0,3.8,0,5.6
				c0,2.9,0,5.3,0,5.5v0c0,1,0,1.8,0,2c0,2.9-0.6,3.6-1.6,4.3c-2.3,1.8-6.8,2.4-10.1,2.5v-26.8c5,0,9-1.4,9-2.9
				c0-0.4-0.6-0.9-1.7-1.2h0c-1.6-0.6-4.3-1.1-7.3-1.1v-1.5C-384.2,110.8-381.5,112.1-380,112.7z"/>
			<path fill="#C7BDB2" d="M-382.8,113.4c1.1,0.3,1.7,0.8,1.7,1.2c0,1.5-4,2.9-9,2.9v-1c5,0,8.9-0.8,8.9-1.8
				C-381.1,114.3-381.7,113.8-382.8,113.4z"/>
			<path fill="#C7BDB2" d="M-382.8,113.4c1,0.4,1.7,0.8,1.7,1.2c0,1-4,1.8-8.9,1.8v-0.4C-386.8,116.1-380.1,115.3-382.8,113.4z"/>
			<path fill="#DAD0AF" d="M-390.1,112.3v3.8c-0.1,0-0.2,0-0.3,0c-3.1,0-11-0.7-7.6-2.7c0,0,0,0,0,0c1.7-0.6,4.5-1.1,7.6-1.1
				C-390.3,112.3-390.2,112.3-390.1,112.3z"/>
			<path fill="#B8AFA6" d="M-398,113.5c-3.3,1.9,4.5,2.7,7.6,2.7c0.1,0,0.2,0,0.3,0v0.4c-0.1,0-0.2,0-0.3,0c-5.1,0-9.3-0.8-9.3-1.8
				C-399.7,114.3-399.1,113.9-398,113.5C-398.1,113.5-398,113.5-398,113.5z"/>
			<path fill="#C7BDB2" d="M-398,113.4C-398,113.4-398,113.4-398,113.4C-398,113.5-398.1,113.5-398,113.4
				C-398.1,113.5-398,113.5-398,113.4z"/>
			<path fill="#B8AFA6" d="M-390.4,117.5c-5.1,0-9.3-1.3-9.3-2.9c0-0.4,0.5-0.9,1.6-1.1c-1,0.4-1.6,0.8-1.6,1.2c0,1,4.2,1.8,9.3,1.8
				c0.1,0,0.2,0,0.3,0v1C-390.2,117.5-390.3,117.5-390.4,117.5z"/>
			<path fill="#FFD68A" d="M-399.7,114.6c0,1.6,4.2,2.9,9.3,2.9c0.1,0,0.2,0,0.3,0v26.8c-0.2,0-0.3,0-0.5,0c-5.1,0-8.8-2.1-10.2-3
				c-1.3-0.9-1.3-1.8-1.3-3.5s0-20.6,0-21.7c0-1.1-0.2-2.7,1.4-3.4c1.7-0.7,4.6-1.9,10.5-1.9v1.5c-0.1,0-0.2,0-0.3,0
				c-3.1,0-5.9,0.5-7.6,1.1c0,0,0,0-0.1,0C-399.2,113.8-399.7,114.3-399.7,114.6z"/>
		</g>
		<g>
		</g>
	</g>
</g>
</svg>
