<?xml version="1.0" encoding="utf-8"?>
<!-- Generator: Adobe Illustrator 17.1.0, SVG Export Plug-In . SVG Version: 6.00 Build 0)  -->
<!DOCTYPE svg PUBLIC "-//W3C//DTD SVG 1.1//EN" "http://www.w3.org/Graphics/SVG/1.1/DTD/svg11.dtd">
<svg version="1.1" id="Layer_1" xmlns="http://www.w3.org/2000/svg" xmlns:xlink="http://www.w3.org/1999/xlink" x="0px" y="0px"
	 viewBox="0 0 100 100" enable-background="new 0 0 100 100" xml:space="preserve">
<g>
	<path fill="#333333" d="M69.9,11.4v11.5c0,0-40.4-0.2-45.4,34.4c0,0,13.1-13.6,45.4-11.3v11.1l29.7-22.8L69.9,11.4z"/>
	<path fill="#333333" d="M82,57.3c-1.4,1.1-7.5,6.2-7.5,6.2v14.4h-63V30.5h19.8c0,0,6.4-5.3,11.5-7.4c1.8-0.8,2.9-3.7-1.3-3.7
		c-4.2,0-34.6,0.2-36.5,0.2c-1.9,0-4.5,2.1-4.5,4.3v60.2c0,1.3,1.8,4.5,4.7,4.5h75.4c1.6,0,4.8-2.4,4.8-4.5c0-2.1-0.1-24.7-0.1-25.8
		C85.2,57.3,83.3,56.3,82,57.3z"/>
</g>
</svg>
