<?xml version="1.0" encoding="utf-8"?>
<!-- Generator: Adobe Illustrator 17.1.0, SVG Export Plug-In . SVG Version: 6.00 Build 0)  -->
<!DOCTYPE svg PUBLIC "-//W3C//DTD SVG 1.1//EN" "http://www.w3.org/Graphics/SVG/1.1/DTD/svg11.dtd">
<svg version="1.1" id="Layer_1" xmlns="http://www.w3.org/2000/svg" xmlns:xlink="http://www.w3.org/1999/xlink" x="0px" y="0px"
	 viewBox="0 100 400 400" enable-background="new 0 100 400 400" xml:space="preserve">
<g>
	<path opacity="0.3" fill="#A7A9AC" enable-background="new    " d="M338.4,161.7c32.9,35.1,52.9,82.1,52.9,134
		c0,108-87.6,195.6-195.6,195.6c-51.8,0-98.9-20.1-134-52.9c35.7,38,86.5,61.6,142.7,61.6c108,0,195.6-87.6,195.6-195.6
		C400,248.1,376.3,197.5,338.4,161.7"/>
	<path fill="#F04B23" d="M391.3,295.7c0,108-87.6,195.6-195.6,195.6S0,403.7,0,295.7S87.7,100,195.7,100S391.3,187.7,391.3,295.7"/>
	<path fill="#DA3E26" d="M347.9,295.7c0,84.1-68.2,152.2-152.2,152.2S43.5,379.7,43.5,295.7s68.2-152.2,152.2-152.2
		C279.8,143.5,347.9,211.6,347.9,295.7"/>
	<path fill="#995B43" d="M276.7,227.4c15.6,18.4,25,42.3,25,68.3c0,58.4-47.3,105.6-105.6,105.6c-26.9,0-51.6-10.1-70.2-26.8
		c19.4,21.7,47.4,35.4,78.6,35.5c58.3-0.1,105.4-47.4,105.4-105.6C310,274.1,297.3,246.7,276.7,227.4"/>
	<path fill="#E9E5DC" d="M196.1,190.1c-58.4,0-105.6,47.3-105.6,105.6s47.3,105.6,105.6,105.6s105.7-47.2,105.7-105.6
		S254.5,190.1,196.1,190.1"/>
	<path fill="#FFFFFF" d="M313.7,321h59.2c4.8,0,8.7-3.9,8.7-8.7v-32.2c0-4.8-3.9-8.7-8.7-8.7h-59.2V321"/>
	<path fill="#725649" d="M275.1,225.5c0.7,0.7,1.1,1.3,1.6,2c20.5,19.3,33.3,46.6,33.3,77c0,58.3-47.3,105.5-105.4,105.6
		c0.1,0,0.2,0,0.2,0c58.4,0,105.6-47.3,105.6-105.6C310.5,273,296.8,244.8,275.1,225.5"/>
	<g>
		<g opacity="0.3">
			<path fill="#231F20" d="M332.3,304.4c0,70.6-57.3,127.9-127.9,127.9S76.5,375,76.5,304.4s57.3-127.9,127.9-127.9
				S332.3,233.8,332.3,304.4z M204.4,200.8c-57.3,0-103.6,46.4-103.6,103.6S147.2,408,204.4,408S308,361.6,308,304.4
				S261.7,200.8,204.4,200.8z"/>
		</g>
		<g>
			<path fill="#FFFFFF" d="M323.6,295.7c0,70.6-57.3,127.9-127.9,127.9S67.8,366.3,67.8,295.7s57.3-127.9,127.9-127.9
				S323.6,225.1,323.6,295.7z M195.7,192.1c-57.3,0-103.6,46.4-103.6,103.6s46.4,103.6,103.6,103.6s103.6-46.4,103.6-103.6
				S253,192.1,195.7,192.1z"/>
		</g>
	</g>
</g>
</svg>
