<?xml version="1.0" encoding="utf-8"?>
<!-- Generator: Adobe Illustrator 17.1.0, SVG Export Plug-In . SVG Version: 6.00 Build 0)  -->
<!DOCTYPE svg PUBLIC "-//W3C//DTD SVG 1.1//EN" "http://www.w3.org/Graphics/SVG/1.1/DTD/svg11.dtd">
<svg version="1.1" id="Layer_1" xmlns="http://www.w3.org/2000/svg" xmlns:xlink="http://www.w3.org/1999/xlink" x="0px" y="0px"
	 viewBox="319.9 19.9 367.3 367.3" enable-background="new 319.9 19.9 367.3 367.3" xml:space="preserve">
<g>
	<path opacity="0.3" fill="#A7A9AC" d="M630.6,76.6c30.2,32.2,48.6,75.4,48.6,123c0,99.2-80.4,179.6-179.6,179.6
		c-47.6,0-90.8-18.5-123-48.6c32.8,34.9,79.4,56.6,131,56.6c99.2,0,179.6-80.4,179.6-179.6C687.2,155.9,665.4,109.4,630.6,76.6"/>
	<path fill="#F04B23" d="M679.2,199.6c0,99.2-80.4,179.6-179.6,179.6s-179.7-80.4-179.7-179.6S400.4,19.9,499.6,19.9
		S679.2,100.4,679.2,199.6"/>
	<path fill="#DA3E26" d="M639.4,199.6c0,77.2-62.6,139.8-139.8,139.8s-139.8-62.6-139.8-139.8S422.4,59.8,499.6,59.8
		S639.4,122.4,639.4,199.6"/>
	<path fill="#995B43" d="M574,136.9c14.3,16.9,23,38.8,23,62.7c0,53.6-43.4,97-97,97c-24.7,0-47.4-9.3-64.5-24.6
		c17.8,19.9,43.5,32.5,72.2,32.6c53.5-0.1,96.8-43.5,96.8-97C604.6,179.8,592.9,154.6,574,136.9"/>
	<path fill="#E9E5DC" d="M500,102.6c-53.6,0-97,43.4-97,97s43.4,97,97,97s97-43.4,97-97S553.6,102.6,500,102.6"/>
	<path fill="#FFFFFF" d="M608,222.8h54.4c4.4,0,8-3.6,8-8v-29.6c0-4.4-3.6-8-8-8H608V222.8"/>
	<path fill="#725649" d="M572.5,135.1c0.6,0.6,1,1.2,1.5,1.8c18.8,17.7,30.6,42.8,30.6,70.7c0,53.5-43.4,96.9-96.8,97
		c0.1,0,0.2,0,0.2,0c53.6,0,97-43.4,97-97C605,178.8,592.4,152.9,572.5,135.1"/>
	<g>
		<g opacity="0.3">
			<path fill="#231F20" d="M625,207.6c0,64.8-52.6,117.4-117.4,117.4s-117.4-52.6-117.4-117.4S442.8,90.2,507.6,90.2
				S625,142.8,625,207.6z M507.6,112.5c-52.6,0-95.1,42.6-95.1,95.1s42.6,95.1,95.1,95.1s95.1-42.6,95.1-95.1
				S560.2,112.5,507.6,112.5z"/>
		</g>
		<g>
			<path fill="#FFFFFF" d="M617,199.6c0,64.8-52.6,117.4-117.4,117.4s-117.4-52.6-117.4-117.4S434.8,82.2,499.6,82.2
				S617,134.8,617,199.6z M499.6,104.5c-52.6,0-95.1,42.6-95.1,95.1s42.6,95.1,95.1,95.1s95.1-42.6,95.1-95.1
				S552.2,104.5,499.6,104.5z"/>
		</g>
	</g>
</g>
</svg>
