<?xml version="1.0" encoding="utf-8"?>
<!-- Generator: Adobe Illustrator 17.1.0, SVG Export Plug-In . SVG Version: 6.00 Build 0)  -->
<!DOCTYPE svg PUBLIC "-//W3C//DTD SVG 1.1//EN" "http://www.w3.org/Graphics/SVG/1.1/DTD/svg11.dtd">
<svg version="1.1" id="Layer_1" xmlns="http://www.w3.org/2000/svg" xmlns:xlink="http://www.w3.org/1999/xlink" x="0px" y="0px"
	 viewBox="0 0 300 300" enable-background="new 0 0 300 300" xml:space="preserve">
<path fill="#B58E50" d="M48.7,115.4c-1.4,0.6-2.8,1-4.3,1.3c-1.7,9.1-7.9,17.2-17.2,20.7c-9.2,3.5-19.1,1.7-26.4-3.8
	c-2.6,23,0.1,47.1,8.9,70.2c29.6,77.4,116.3,116.3,193.7,86.6c77.4-29.6,116.1-116.3,86.6-193.7C260.7,19.3,173.9-19.6,96.5,10.1
	c-17.3,6.5-32.6,16.2-45.8,27.8c5.2,3,9.6,7.8,11.9,13.9c2.8,7.7,2.1,15.7-1.4,22.4c1.3,1.8,2.4,3.8,3.3,6.1
	C69.9,94.3,62.8,110.2,48.7,115.4z M133.5,106.9c24-9.1,50.8,3,59.8,26.8c9.1,23.8-2.8,50.8-26.8,59.8c-24,9.1-50.8-2.8-59.8-26.8
	C97.7,142.8,109.6,116,133.5,106.9z"/>
</svg>
