<?xml version="1.0" encoding="utf-8"?>
<!-- Generator: Adobe Illustrator 17.1.0, SVG Export Plug-In . SVG Version: 6.00 Build 0)  -->
<!DOCTYPE svg PUBLIC "-//W3C//DTD SVG 1.1//EN" "http://www.w3.org/Graphics/SVG/1.1/DTD/svg11.dtd">
<svg version="1.1" xmlns="http://www.w3.org/2000/svg" xmlns:xlink="http://www.w3.org/1999/xlink" x="0px" y="0px"
	 viewBox="-300.8 -65 892.3 416" enable-background="new -300.8 -65 892.3 416" xml:space="preserve">
<g id="Layer_1" display="none">
	<g display="inline">
		<g opacity="0.3">
			<path d="M234.2-55.1c13.2,0,23.9,10.5,23.9,23.9V323c0,13.2-10.5,23.9-23.9,23.9h-471.7c-13.2,0-23.9-10.5-23.9-23.9V-31.2
				c0-13.2,10.5-23.9,23.9-23.9H234.2z"/>
			<rect x="-215.1" y="-16.2" width="426.3" height="323.7"/>
			<circle cx="-239" cy="146.2" r="4.2"/>
			<circle cx="235.4" cy="146.2" r="11.4"/>
			<path opacity="0.1" enable-background="new    " d="M234.5-55.1h-346.3L97,346.9h137.2c13.2,0,23.9-10.5,23.9-23.9V-31.5
				C258.5-44.6,248-55.1,234.5-55.1z"/>
		</g>
		<g>
			<g>
				<g enable-background="new    ">
					<g>
						<path fill="#FFFFFF" d="M232.2-57.1c13.2,0,23.9,10.5,23.9,23.9V321c0,13.2-10.5,23.9-23.9,23.9h-471.7
							c-13.2,0-23.9-10.5-23.9-23.9V-33.2c0-13.2,10.5-23.9,23.9-23.9H232.2z"/>
					</g>
				</g>
				<rect x="-217.1" y="-18.2" fill="#E2E2E2" width="426.3" height="323.7"/>
				<circle fill="#E8E8E8" cx="-241" cy="144.2" r="4.2"/>
				<circle fill="#E8E8E8" cx="233.4" cy="144.2" r="11.4"/>
				<path opacity="0.1" fill="#FFFFFF" enable-background="new    " d="M232.5-57.1h-346.3L95,344.9h137.2
					c13.2,0,23.9-10.5,23.9-23.9V-33.5C256.5-46.6,246-57.1,232.5-57.1z"/>
			</g>
		</g>
	</g>
</g>
<g id="Layer_8" display="none">
	<g display="inline">
		<defs>
			<path id="SVGID_1_" d="M-86.5,121.2c0.4,2.7-1.5,5.3-4.3,5.6l-185,26c-2.7,0.4-5.3-1.5-5.6-4.3l-16.2-115.3
				c-0.4-2.7,1.5-5.3,4.3-5.6l185-26c2.7-0.4,5.3,1.5,5.6,4.3L-86.5,121.2z"/>
		</defs>
		<clipPath id="SVGID_2_">
			<use xlink:href="#SVGID_1_"  overflow="visible"/>
		</clipPath>
		<g clip-path="url(#SVGID_2_)">
			<g>
				<g>
					
						<rect x="-290.4" y="14.1" transform="matrix(-0.9903 0.1392 -0.1392 -0.9903 -371.4077 180.5098)" fill="#FFFFFF" width="196.8" height="126.4"/>
					
						<rect x="-296" y="14.5" transform="matrix(-0.9903 0.1392 -0.1392 -0.9903 -388.0523 102.2031)" fill="#F94803" width="196.8" height="46.1"/>
					<g>
						<path fill="#FFFFFF" d="M-272.5,32.4l7.1-1l1.7,12.1l13.7-1.9l-1.7-12.1l7.1-1l4.5,32.2l-7.1,1l-2-13.9l-13.7,1.9l2,13.9
							l-7.1,1L-272.5,32.4z"/>
						<path fill="#FFFFFF" d="M-237.6,27.5l21.9-3.1l0.9,6.6l-14.8,2.1l0.8,6l13.9-2l0.9,6.6l-13.9,2l0.9,6.6l15.7-2.2l0.9,6.6
							l-22.7,3.2L-237.6,27.5z"/>
						<path fill="#FFFFFF" d="M-208.9,23.5l7.1-1l3.6,25.8l13.2-1.9l0.9,6.6l-20.3,2.9L-208.9,23.5L-208.9,23.5z"/>
						<path fill="#FFFFFF" d="M-184.4,20l7.1-1l3.6,25.8l13.2-1.9l0.9,6.6l-20.3,2.9L-184.4,20L-184.4,20z"/>
						<path fill="#FFFFFF" d="M-159.6,33c-0.4-2.6-0.2-4.9,0.3-7.3s1.4-4.3,2.8-5.8c1.4-1.5,3-2.9,5.1-4.1c2.1-1.2,4.2-1.9,6.9-2.3
							c2.4-0.3,4.9-0.2,7.3,0.3c2.3,0.6,4.3,1.4,6,2.5c1.7,1.1,3.3,2.9,4.3,4.8c1.2,1.9,1.9,4.2,2.3,6.9c0.4,2.6,0.2,4.9-0.3,7.3
							c-0.6,2.1-1.4,4.3-2.8,5.8c-1.3,1.8-2.9,3.1-5.1,4.1c-2.1,1.2-4.2,1.9-6.9,2.3s-4.9,0.2-7.2-0.1c-2.3-0.6-4.3-1.4-6-2.5
							c-1.8-1.3-3.3-2.9-4.3-4.8C-158.5,38-159.3,35.6-159.6,33z M-152.3,32c0.2,1.5,0.6,2.8,1.3,4.1c0.6,1.3,1.4,2.3,2.5,3
							s2.2,1.3,3.4,1.8c1.2,0.5,2.8,0.5,4.3,0.3c1.5-0.2,2.8-0.6,4.1-1.5c1.2-0.8,2-1.6,2.8-2.6c0.8-1,1.3-2.2,1.5-3.6
							c0.3-1.4,0.3-2.7,0.1-4.3c-0.2-1.5-0.6-2.8-1.3-4.1c-0.6-1.3-1.4-2.3-2.5-3s-2.2-1.3-3.4-1.8c-1.1-0.1-2.5-0.3-4.1-0.1
							c-1.5,0.2-2.8,0.6-4.1,1.5c-1.3,0.6-2,1.6-2.8,2.6c-0.8,1-1.3,2.2-1.5,3.6C-152.5,29.1-152.6,30.4-152.3,32z"/>
					</g>
					<g>
						<path fill="#F94803" d="M-224.1,67.9l2.4-0.3l2.2,4.4l0,0l0.9-4.9l2.4-0.3l1,7.3l-1.5,0.2l-0.8-5.5l0,0l-1,5.8l-1.3,0.2
							l-2.5-5.3l0,0l0.8,5.5l-1.5,0.2L-224.1,67.9L-224.1,67.9z"/>
						<path fill="#F94803" d="M-212,70.7l-3.5-3.8l2-0.3l1.9,2.4l1.2-2.9l1.8-0.2l-2.3,4.6l0.4,3.1l-1.5,0.2L-212,70.7L-212,70.7z"
							/>
						<path fill="#F94803" d="M-204.6,65.2l2.2-0.3l3.8,4.6l0,0l-0.7-5.1l1.5-0.2l1,7.3l-2,0.3l-3.8-4.6l0,0l0.7,5.1l-1.5,0.2
							l-1-7.3L-204.6,65.2z"/>
						<path fill="#F94803" d="M-193.8,63.7l1.3-0.2l4.1,6.9l-1.8,0.2l-0.9-1.5l-2.9,0.4l-0.4,1.6l-1.8,0.2L-193.8,63.7z
							 M-192.8,65.8l-0.6,2.3l1.8-0.2L-192.8,65.8z"/>
						<path fill="#F94803" d="M-188.5,62.9l2.4-0.3l2.2,4.4l0,0l0.9-4.9l2.4-0.3l1,7.3l-1.5,0.2l-0.8-5.5l0,0l-1,5.8l-1.3,0.2
							l-2.5-5.3l0,0l0.8,5.5l-1.5,0.2L-188.5,62.9L-188.5,62.9z"/>
						<path fill="#F94803" d="M-178.8,61.6l4.9-0.7l0.2,1.5l-3.3,0.5l0.2,1.3l3.1-0.4l0.2,1.5l-3.1,0.4l0.2,1.5l3.5-0.5l0.2,1.5
							l-5.1,0.7L-178.8,61.6L-178.8,61.6z"/>
						<path fill="#F94803" d="M-169.3,60.2l1.5-0.2l1,7.3l-1.5,0.2L-169.3,60.2z"/>
						<path fill="#F94803" d="M-162.4,61.3c0-0.2-0.3-0.2-0.5-0.4c-0.2,0-0.4,0.1-0.7,0.1l-0.2,0l-0.2,0c0,0-0.2,0-0.2,0.3l0,0.2
							c0,0.2,0.1,0.4,0.3,0.4s0.5,0.2,0.7,0.1s0.5,0.2,0.9,0.1c0.2,0,0.5,0.2,0.9,0.1c0.2,0,0.5,0.2,0.8,0.6
							c0.3,0.2,0.3,0.6,0.4,1.1c0.1,0.4,0.1,0.7-0.1,1.1c0,0.2-0.2,0.5-0.6,0.8c-0.2,0.3-0.4,0.3-0.8,0.6c-0.2,0-0.7,0.1-1.1,0.2
							c-0.4,0.1-0.9,0.1-1.4,0c-0.4,0.1-0.9-0.3-1.2-0.5l0.9-1.5c0.3,0.2,0.5,0.4,0.7,0.3c0.2,0,0.5,0.2,0.9,0.1c0,0,0.2,0,0.4-0.1
							c0.2,0,0.2,0,0.4-0.1c0,0,0.2,0,0.2-0.3l0-0.2c0-0.2-0.1-0.4-0.3-0.4s-0.5-0.2-0.7-0.1s-0.5-0.2-0.9-0.1
							c-0.2,0-0.5-0.2-0.9-0.3c-0.2,0-0.5-0.2-0.8-0.6c-0.3-0.2-0.3-0.6-0.4-1.1c-0.1-0.4-0.1-0.7,0.1-1.1c0-0.2,0.2-0.5,0.6-0.8
							c0.2-0.3,0.4-0.3,0.8-0.6c0.2,0,0.7-0.1,1.1-0.2c0.4-0.1,0.9-0.1,1.4,0c0.4-0.1,0.7,0.1,1.2,0.5L-162.4,61.3z"/>
					</g>
				</g>
			</g>
		</g>
	</g>
</g>
<g id="Layer_9" display="none">
	<g display="inline">
		<g>
			<path fill="#231F20" d="M201.7,210c0,1.2-1,2.2-2.2,2.2h-41.4c-1.2,0-2.2-1-2.2-2.2v-16.4c0-1.2,1-2.2,2.2-2.2h41.4
				c1.2,0,2.2,1,2.2,2.2V210z"/>
		</g>
	</g>
	<g display="inline">
		<path fill="#FFFFFF" d="M166.2,197.7h1.6l1.5,5.9h0l1.8-5.9h1.5l1.7,5.9h0l1.6-5.9h1.5l-2.3,8h-1.4l-1.9-6h0l-1.9,6h-1.4
			L166.2,197.7z"/>
		<path fill="#FFFFFF" d="M178.3,197.7h5.3v1.2h-3.9v2h3.7v1.2h-3.7v2.3h4.1v1.3h-5.5V197.7z"/>
		<path fill="#FFFFFF" d="M185.2,197.7h3.1c0.3,0,0.6,0,0.9,0.1c0.3,0.1,0.6,0.2,0.8,0.3c0.2,0.2,0.4,0.4,0.6,0.6
			c0.1,0.3,0.2,0.6,0.2,0.9c0,0.5-0.1,0.8-0.4,1.1c-0.3,0.3-0.6,0.5-1,0.6v0c0.5,0.1,0.9,0.3,1.2,0.6c0.3,0.3,0.5,0.8,0.5,1.3
			c0,0.4-0.1,0.8-0.3,1.1c-0.2,0.3-0.4,0.5-0.7,0.7c-0.3,0.2-0.6,0.3-1,0.4c-0.4,0.1-0.7,0.1-1.1,0.1h-2.9V197.7z M186.6,201h1.3
			c0.5,0,0.8-0.1,1.1-0.3c0.2-0.2,0.4-0.5,0.4-0.8c0-0.4-0.1-0.6-0.4-0.8c-0.3-0.2-0.7-0.2-1.2-0.2h-1.1V201z M186.6,204.5h1.3
			c0.2,0,0.4,0,0.6,0c0.2,0,0.4-0.1,0.6-0.2c0.2-0.1,0.3-0.2,0.4-0.4c0.1-0.2,0.2-0.4,0.2-0.6c0-0.4-0.1-0.7-0.4-0.9
			c-0.3-0.2-0.7-0.2-1.3-0.2h-1.3V204.5z"/>
	</g>
	<g display="inline">
		<g>
			<path fill="#231F20" d="M213.2,183.8c0,1.2-1.2,2.2-2.7,2.2h-51.7c-1.5,0-2.7-1-2.7-2.2v-16.4c0-1.2,1.2-2.2,2.7-2.2h51.7
				c1.5,0,2.7,1,2.7,2.2V183.8z"/>
		</g>
	</g>
	<g display="inline">
		<path fill="#FFFFFF" d="M165.5,171.5h2.6c0.5,0,0.9,0,1.2,0.1c0.4,0.1,0.7,0.2,0.9,0.4c0.3,0.2,0.5,0.4,0.6,0.7
			c0.1,0.3,0.2,0.6,0.2,1.1c0,0.4-0.1,0.8-0.2,1.1c-0.2,0.3-0.4,0.5-0.7,0.7c-0.3,0.2-0.6,0.3-1,0.4c-0.4,0.1-0.8,0.1-1.2,0.1h-1.1
			v3.3h-1.4V171.5z M167.9,175c0.2,0,0.5,0,0.7-0.1c0.2,0,0.4-0.1,0.6-0.2c0.2-0.1,0.3-0.2,0.4-0.4c0.1-0.2,0.1-0.3,0.1-0.6
			c0-0.2,0-0.4-0.1-0.6c-0.1-0.1-0.2-0.3-0.4-0.3c-0.2-0.1-0.3-0.1-0.6-0.2c-0.2,0-0.4,0-0.6,0h-1v2.3H167.9z"/>
		<path fill="#FFFFFF" d="M172.4,171.5h1.4v3.2h3.7v-3.2h1.4v8h-1.4V176h-3.7v3.5h-1.4V171.5z"/>
		<path fill="#FFFFFF" d="M180.3,175.5c0-0.6,0.1-1.2,0.3-1.7c0.2-0.5,0.5-1,0.9-1.3c0.4-0.4,0.8-0.6,1.4-0.8
			c0.5-0.2,1.1-0.3,1.7-0.3c0.6,0,1.2,0.1,1.7,0.3c0.5,0.2,1,0.5,1.4,0.8c0.4,0.4,0.7,0.8,0.9,1.3c0.2,0.5,0.3,1.1,0.3,1.7
			c0,0.6-0.1,1.2-0.3,1.7c-0.2,0.5-0.5,1-0.9,1.3c-0.4,0.4-0.8,0.7-1.4,0.9s-1.1,0.3-1.7,0.3c-0.6,0-1.2-0.1-1.7-0.3
			c-0.5-0.2-1-0.5-1.4-0.9c-0.4-0.4-0.7-0.8-0.9-1.3C180.4,176.7,180.3,176.1,180.3,175.5z M181.9,175.5c0,0.4,0.1,0.8,0.2,1.2
			c0.1,0.4,0.3,0.7,0.6,0.9c0.2,0.3,0.5,0.5,0.9,0.6c0.3,0.1,0.7,0.2,1.1,0.2c0.4,0,0.8-0.1,1.1-0.2c0.3-0.1,0.6-0.4,0.9-0.6
			c0.2-0.3,0.4-0.6,0.6-0.9c0.1-0.4,0.2-0.8,0.2-1.2c0-0.4-0.1-0.8-0.2-1.2c-0.1-0.4-0.3-0.7-0.6-0.9c-0.2-0.3-0.5-0.5-0.9-0.6
			c-0.3-0.2-0.7-0.2-1.1-0.2c-0.4,0-0.8,0.1-1.1,0.2c-0.3,0.2-0.6,0.4-0.9,0.6c-0.2,0.3-0.4,0.6-0.6,0.9
			C181.9,174.7,181.9,175.1,181.9,175.5z"/>
		<path fill="#FFFFFF" d="M191.6,172.8h-2.4v-1.2h6.3v1.2H193v6.8h-1.4V172.8z"/>
		<path fill="#FFFFFF" d="M195.6,175.5c0-0.6,0.1-1.2,0.3-1.7c0.2-0.5,0.5-1,0.9-1.3c0.4-0.4,0.8-0.6,1.4-0.8
			c0.5-0.2,1.1-0.3,1.7-0.3c0.6,0,1.2,0.1,1.7,0.3c0.5,0.2,1,0.5,1.4,0.8c0.4,0.4,0.7,0.8,0.9,1.3c0.2,0.5,0.3,1.1,0.3,1.7
			c0,0.6-0.1,1.2-0.3,1.7c-0.2,0.5-0.5,1-0.9,1.3c-0.4,0.4-0.8,0.7-1.4,0.9s-1.1,0.3-1.7,0.3c-0.6,0-1.2-0.1-1.7-0.3
			c-0.5-0.2-1-0.5-1.4-0.9c-0.4-0.4-0.7-0.8-0.9-1.3C195.8,176.7,195.6,176.1,195.6,175.5z M197.2,175.5c0,0.4,0.1,0.8,0.2,1.2
			c0.1,0.4,0.3,0.7,0.6,0.9c0.2,0.3,0.5,0.5,0.9,0.6c0.3,0.1,0.7,0.2,1.1,0.2c0.4,0,0.8-0.1,1.1-0.2c0.3-0.1,0.6-0.4,0.9-0.6
			c0.2-0.3,0.4-0.6,0.6-0.9c0.1-0.4,0.2-0.8,0.2-1.2c0-0.4-0.1-0.8-0.2-1.2c-0.1-0.4-0.3-0.7-0.6-0.9c-0.2-0.3-0.5-0.5-0.9-0.6
			c-0.3-0.2-0.7-0.2-1.1-0.2c-0.4,0-0.8,0.1-1.1,0.2c-0.3,0.2-0.6,0.4-0.9,0.6c-0.2,0.3-0.4,0.6-0.6,0.9
			C197.3,174.7,197.2,175.1,197.2,175.5z"/>
	</g>
	<g display="inline">
		<g>
			<path fill="#231F20" d="M273.4,183.8c0,1.2-1.1,2.2-2.5,2.2h-48.1c-1.4,0-2.5-1-2.5-2.2v-16.4c0-1.2,1.1-2.2,2.5-2.2h48.1
				c1.4,0,2.5,1,2.5,2.2V183.8z"/>
		</g>
	</g>
	<g display="inline">
		<path fill="#FFFFFF" d="M237.1,173.4c-0.2-0.3-0.5-0.5-0.8-0.6c-0.3-0.1-0.7-0.2-1-0.2c-0.4,0-0.8,0.1-1.1,0.2
			c-0.3,0.2-0.6,0.4-0.9,0.6c-0.2,0.3-0.4,0.6-0.6,0.9c-0.1,0.4-0.2,0.7-0.2,1.2c0,0.4,0.1,0.8,0.2,1.2c0.1,0.4,0.3,0.7,0.5,0.9
			c0.2,0.3,0.5,0.5,0.9,0.6c0.3,0.1,0.7,0.2,1.1,0.2c0.4,0,0.8-0.1,1.1-0.3c0.3-0.2,0.6-0.4,0.8-0.7l1.1,0.8c-0.4,0.4-0.8,0.8-1.3,1
			c-0.5,0.2-1.1,0.4-1.8,0.4c-0.6,0-1.2-0.1-1.7-0.3c-0.5-0.2-1-0.5-1.3-0.9c-0.4-0.4-0.7-0.8-0.9-1.3c-0.2-0.5-0.3-1.1-0.3-1.7
			c0-0.6,0.1-1.2,0.3-1.7c0.2-0.5,0.5-1,0.9-1.3c0.4-0.4,0.8-0.6,1.4-0.8c0.5-0.2,1.1-0.3,1.7-0.3c0.3,0,0.5,0,0.8,0.1
			c0.3,0,0.5,0.1,0.8,0.2c0.3,0.1,0.5,0.2,0.7,0.4c0.2,0.2,0.4,0.3,0.6,0.5L237.1,173.4z"/>
		<path fill="#FFFFFF" d="M238.7,175.5c0-0.6,0.1-1.2,0.3-1.7c0.2-0.5,0.5-1,0.9-1.3c0.4-0.4,0.8-0.6,1.4-0.8
			c0.5-0.2,1.1-0.3,1.7-0.3c0.6,0,1.2,0.1,1.7,0.3c0.5,0.2,1,0.5,1.4,0.8c0.4,0.4,0.7,0.8,0.9,1.3c0.2,0.5,0.3,1.1,0.3,1.7
			c0,0.6-0.1,1.2-0.3,1.7c-0.2,0.5-0.5,1-0.9,1.3c-0.4,0.4-0.8,0.7-1.4,0.9s-1.1,0.3-1.7,0.3c-0.6,0-1.2-0.1-1.7-0.3
			c-0.5-0.2-1-0.5-1.4-0.9c-0.4-0.4-0.7-0.8-0.9-1.3C238.8,176.7,238.7,176.1,238.7,175.5z M240.2,175.5c0,0.4,0.1,0.8,0.2,1.2
			c0.1,0.4,0.3,0.7,0.6,0.9c0.2,0.3,0.5,0.5,0.9,0.6c0.3,0.1,0.7,0.2,1.1,0.2c0.4,0,0.8-0.1,1.1-0.2c0.3-0.1,0.6-0.4,0.9-0.6
			c0.2-0.3,0.4-0.6,0.6-0.9c0.1-0.4,0.2-0.8,0.2-1.2c0-0.4-0.1-0.8-0.2-1.2c-0.1-0.4-0.3-0.7-0.6-0.9c-0.2-0.3-0.5-0.5-0.9-0.6
			c-0.3-0.2-0.7-0.2-1.1-0.2c-0.4,0-0.8,0.1-1.1,0.2c-0.3,0.2-0.6,0.4-0.9,0.6c-0.2,0.3-0.4,0.6-0.6,0.9
			C240.3,174.7,240.2,175.1,240.2,175.5z"/>
		<path fill="#FFFFFF" d="M248.6,171.5h2.8c0.5,0,1,0.1,1.6,0.2c0.5,0.1,1,0.4,1.4,0.7c0.4,0.3,0.8,0.7,1,1.2
			c0.3,0.5,0.4,1.1,0.4,1.9c0,0.7-0.1,1.3-0.4,1.8c-0.3,0.5-0.6,0.9-1,1.2c-0.4,0.3-0.9,0.6-1.4,0.7c-0.5,0.2-1,0.2-1.6,0.2h-2.8
			V171.5z M251.2,178.3c0.4,0,0.7,0,1.1-0.1c0.4-0.1,0.7-0.2,1-0.4c0.3-0.2,0.5-0.5,0.7-0.8c0.2-0.4,0.3-0.8,0.3-1.3
			c0-0.6-0.1-1-0.3-1.4c-0.2-0.4-0.4-0.6-0.7-0.8c-0.3-0.2-0.6-0.3-1-0.4c-0.4-0.1-0.7-0.1-1.1-0.1h-1.2v5.5H251.2z"/>
		<path fill="#FFFFFF" d="M257.3,171.5h5.3v1.2h-3.9v2h3.7v1.2h-3.7v2.3h4.1v1.3h-5.5V171.5z"/>
	</g>
	<g display="inline">
		<g>
			<path fill="#231F20" d="M128.3,232c0,1.2-1.1,2.2-2.5,2.2H77.7c-1.4,0-2.5-1-2.5-2.2v-16.4c0-1.2,1.1-2.2,2.5-2.2h48.1
				c1.4,0,2.5,1,2.5,2.2V232z"/>
		</g>
	</g>
	<g display="inline">
		<path fill="#FFFFFF" d="M86.2,219.7h2.2l2.1,5.7h0l2.1-5.7h2.2v8h-1.4v-6.4h0l-2.4,6.4h-1l-2.4-6.4h0v6.4h-1.4V219.7z"/>
		<path fill="#FFFFFF" d="M96.6,219.7H98v3.5h0l3.3-3.5h1.9l-3.7,3.7l4,4.3h-2l-3.5-4h0v4h-1.4V219.7z"/>
		<path fill="#FFFFFF" d="M105.8,220.9h-2.4v-1.2h6.3v1.2h-2.4v6.8h-1.4V220.9z"/>
		<path fill="#FFFFFF" d="M117.3,227.3c-0.4,0.2-0.9,0.3-1.3,0.5c-0.5,0.1-1,0.2-1.7,0.2c-0.6,0-1.2-0.1-1.8-0.3
			c-0.5-0.2-1-0.5-1.4-0.9c-0.4-0.4-0.7-0.8-0.9-1.3c-0.2-0.5-0.3-1.1-0.3-1.7c0-0.6,0.1-1.2,0.3-1.7c0.2-0.5,0.5-1,0.9-1.3
			c0.4-0.4,0.8-0.6,1.4-0.8c0.5-0.2,1.1-0.3,1.7-0.3c0.6,0,1.2,0.1,1.8,0.3c0.5,0.2,1,0.4,1.3,0.7l-1,1.1c-0.2-0.2-0.5-0.4-0.9-0.6
			c-0.4-0.2-0.8-0.2-1.2-0.2c-0.4,0-0.8,0.1-1.1,0.2c-0.3,0.2-0.6,0.4-0.9,0.6c-0.2,0.3-0.4,0.6-0.6,0.9c-0.1,0.4-0.2,0.7-0.2,1.2
			c0,0.4,0.1,0.8,0.2,1.2c0.1,0.4,0.3,0.7,0.6,0.9c0.2,0.3,0.5,0.5,0.9,0.6s0.7,0.2,1.2,0.2c0.6,0,1.1-0.1,1.6-0.3v-2h-1.7v-1.2h3.1
			V227.3z"/>
	</g>
	<g display="inline">
		<g>
			<path fill="#231F20" d="M267,236.4c0,1.2-1.1,2.2-2.4,2.2h-46.5c-1.3,0-2.4-1-2.4-2.2V220c0-1.2,1.1-2.2,2.4-2.2h46.5
				c1.3,0,2.4,1,2.4,2.2V236.4z"/>
		</g>
	</g>
	<g display="inline">
		<path fill="#FFFFFF" d="M226,224.1h2.6c0.5,0,0.9,0,1.2,0.1c0.4,0.1,0.7,0.2,0.9,0.4c0.3,0.2,0.5,0.4,0.6,0.7
			c0.1,0.3,0.2,0.6,0.2,1.1c0,0.4-0.1,0.8-0.2,1.1c-0.2,0.3-0.4,0.5-0.7,0.7c-0.3,0.2-0.6,0.3-1,0.4c-0.4,0.1-0.8,0.1-1.2,0.1h-1.1
			v3.3H226V224.1z M228.5,227.6c0.2,0,0.5,0,0.7-0.1c0.2,0,0.4-0.1,0.6-0.2c0.2-0.1,0.3-0.2,0.4-0.4c0.1-0.2,0.1-0.3,0.1-0.6
			c0-0.2,0-0.4-0.1-0.6c-0.1-0.1-0.2-0.3-0.4-0.3c-0.2-0.1-0.3-0.1-0.6-0.2c-0.2,0-0.4,0-0.6,0h-1v2.3H228.5z"/>
		<path fill="#FFFFFF" d="M232.9,224.1h2.8c0.4,0,0.7,0,1.1,0.1c0.4,0.1,0.7,0.2,0.9,0.4c0.3,0.2,0.5,0.4,0.7,0.7
			c0.2,0.3,0.2,0.7,0.2,1.1c0,0.6-0.2,1.1-0.5,1.4c-0.3,0.4-0.8,0.6-1.3,0.7l2.1,3.5h-1.7l-1.9-3.4h-1v3.4h-1.4V224.1z M235.5,227.5
			c0.2,0,0.4,0,0.6,0c0.2,0,0.4-0.1,0.5-0.2c0.2-0.1,0.3-0.2,0.4-0.4c0.1-0.2,0.2-0.4,0.2-0.6c0-0.2,0-0.4-0.1-0.5
			c-0.1-0.1-0.2-0.3-0.4-0.3c-0.2-0.1-0.3-0.1-0.5-0.2c-0.2,0-0.4,0-0.6,0h-1.3v2.2H235.5z"/>
		<path fill="#FFFFFF" d="M240,224.1h1.4v8H240V224.1z"/>
		<path fill="#FFFFFF" d="M243.2,224.1h1.9l3.7,6h0v-6h1.4v8h-1.8l-3.8-6.2h0v6.2h-1.4V224.1z"/>
		<path fill="#FFFFFF" d="M253.6,225.3h-2.4v-1.2h6.3v1.2h-2.4v6.8h-1.4V225.3z"/>
	</g>
	<g display="inline">
		<g>
			<path fill="#231F20" d="M70.1,232.1c0,1.2-1.5,2.2-3.3,2.2H4.2c-1.8,0-3.3-1-3.3-2.2v-16.4c0-1.2,1.5-2.2,3.3-2.2h62.6
				c1.8,0,3.3,1,3.3,2.2V232.1z"/>
		</g>
	</g>
	<g display="inline">
		<path fill="#FFFFFF" d="M18.4,227.4c-0.4,0.2-0.9,0.3-1.3,0.5c-0.5,0.1-1,0.2-1.7,0.2c-0.6,0-1.2-0.1-1.8-0.3
			c-0.5-0.2-1-0.5-1.4-0.9c-0.4-0.4-0.7-0.8-0.9-1.3c-0.2-0.5-0.3-1.1-0.3-1.7c0-0.6,0.1-1.2,0.3-1.7c0.2-0.5,0.5-1,0.9-1.3
			c0.4-0.4,0.8-0.6,1.4-0.8c0.5-0.2,1.1-0.3,1.7-0.3c0.6,0,1.2,0.1,1.8,0.3c0.5,0.2,1,0.4,1.3,0.7l-1,1.1c-0.2-0.2-0.5-0.4-0.9-0.6
			c-0.4-0.2-0.8-0.2-1.2-0.2c-0.4,0-0.8,0.1-1.1,0.2c-0.3,0.2-0.6,0.4-0.9,0.6c-0.2,0.3-0.4,0.6-0.6,0.9c-0.1,0.4-0.2,0.7-0.2,1.2
			c0,0.4,0.1,0.8,0.2,1.2c0.1,0.4,0.3,0.7,0.6,0.9c0.2,0.3,0.5,0.5,0.9,0.6c0.3,0.1,0.7,0.2,1.2,0.2c0.6,0,1.1-0.1,1.6-0.3v-2h-1.7
			v-1.2h3.1V227.4z"/>
		<path fill="#FFFFFF" d="M20.1,219.8h2.8c0.4,0,0.7,0,1.1,0.1c0.4,0.1,0.7,0.2,0.9,0.4c0.3,0.2,0.5,0.4,0.7,0.7
			c0.2,0.3,0.2,0.7,0.2,1.1c0,0.6-0.2,1.1-0.5,1.4c-0.3,0.4-0.8,0.6-1.3,0.7l2.1,3.5h-1.7l-1.9-3.4h-1v3.4h-1.4V219.8z M22.7,223.2
			c0.2,0,0.4,0,0.6,0c0.2,0,0.4-0.1,0.5-0.2c0.2-0.1,0.3-0.2,0.4-0.4c0.1-0.2,0.2-0.4,0.2-0.6c0-0.2,0-0.4-0.1-0.5
			c-0.1-0.1-0.2-0.3-0.4-0.3c-0.2-0.1-0.3-0.1-0.5-0.2c-0.2,0-0.4,0-0.6,0h-1.3v2.2H22.7z"/>
		<path fill="#FFFFFF" d="M29.7,219.8h1.2l3.4,8h-1.6L32,226h-3.5l-0.7,1.8h-1.6L29.7,219.8z M31.5,224.7l-1.2-3.3l-1.3,3.3H31.5z"
			/>
		<path fill="#FFFFFF" d="M35.2,219.8h2.6c0.5,0,0.9,0,1.2,0.1c0.4,0.1,0.7,0.2,0.9,0.4c0.3,0.2,0.5,0.4,0.6,0.7
			c0.1,0.3,0.2,0.6,0.2,1.1c0,0.4-0.1,0.8-0.2,1.1c-0.2,0.3-0.4,0.5-0.7,0.7c-0.3,0.2-0.6,0.3-1,0.4c-0.4,0.1-0.8,0.1-1.2,0.1h-1.1
			v3.3h-1.4V219.8z M37.6,223.3c0.2,0,0.5,0,0.7-0.1c0.2,0,0.4-0.1,0.6-0.2c0.2-0.1,0.3-0.2,0.4-0.4c0.1-0.2,0.1-0.3,0.1-0.6
			c0-0.2,0-0.4-0.1-0.6c-0.1-0.1-0.2-0.3-0.4-0.3c-0.2-0.1-0.3-0.1-0.6-0.2c-0.2,0-0.4,0-0.6,0h-1v2.3H37.6z"/>
		<path fill="#FFFFFF" d="M42,219.8h1.4v3.2h3.7v-3.2h1.4v8h-1.4v-3.5h-3.7v3.5H42V219.8z"/>
		<path fill="#FFFFFF" d="M50.4,219.8h1.4v8h-1.4V219.8z"/>
		<path fill="#FFFFFF" d="M59.3,221.7c-0.2-0.3-0.5-0.5-0.8-0.6c-0.3-0.1-0.7-0.2-1-0.2c-0.4,0-0.8,0.1-1.1,0.2
			c-0.3,0.2-0.6,0.4-0.9,0.6c-0.2,0.3-0.4,0.6-0.6,0.9c-0.1,0.4-0.2,0.7-0.2,1.2c0,0.4,0.1,0.8,0.2,1.2c0.1,0.4,0.3,0.7,0.5,0.9
			c0.2,0.3,0.5,0.5,0.9,0.6c0.3,0.1,0.7,0.2,1.1,0.2c0.4,0,0.8-0.1,1.1-0.3c0.3-0.2,0.6-0.4,0.8-0.7l1.1,0.8c-0.4,0.4-0.8,0.8-1.3,1
			c-0.5,0.2-1.1,0.4-1.8,0.4c-0.6,0-1.2-0.1-1.7-0.3c-0.5-0.2-1-0.5-1.3-0.9c-0.4-0.4-0.7-0.8-0.9-1.3c-0.2-0.5-0.3-1.1-0.3-1.7
			c0-0.6,0.1-1.2,0.3-1.7c0.2-0.5,0.5-1,0.9-1.3c0.4-0.4,0.8-0.6,1.4-0.8c0.5-0.2,1.1-0.3,1.7-0.3c0.3,0,0.5,0,0.8,0.1
			c0.3,0,0.5,0.1,0.8,0.2s0.5,0.2,0.7,0.4c0.2,0.2,0.4,0.3,0.6,0.5L59.3,221.7z"/>
	</g>
	<g display="inline">
		<g>
			<path fill="#231F20" d="M281.4,210c0,1.2-1.5,2.2-3.3,2.2h-62.6c-1.8,0-3.3-1-3.3-2.2v-16.4c0-1.2,1.5-2.2,3.3-2.2h62.6
				c1.8,0,3.3,1,3.3,2.2V210z"/>
		</g>
	</g>
	<g display="inline">
		<path fill="#FFFFFF" d="M222.4,197.7h1.4v8h-1.4V197.7z"/>
		<path fill="#FFFFFF" d="M225.6,197.7h2.8c0.5,0,1,0.1,1.6,0.2c0.5,0.1,1,0.4,1.4,0.7c0.4,0.3,0.8,0.7,1,1.2
			c0.3,0.5,0.4,1.1,0.4,1.9c0,0.7-0.1,1.3-0.4,1.8c-0.3,0.5-0.6,0.9-1,1.2c-0.4,0.3-0.9,0.6-1.4,0.7c-0.5,0.2-1,0.2-1.6,0.2h-2.8
			V197.7z M228.2,204.5c0.4,0,0.7,0,1.1-0.1c0.4-0.1,0.7-0.2,1-0.4c0.3-0.2,0.5-0.5,0.7-0.8c0.2-0.4,0.3-0.8,0.3-1.3
			c0-0.6-0.1-1-0.3-1.4c-0.2-0.4-0.4-0.6-0.7-0.8c-0.3-0.2-0.6-0.3-1-0.4c-0.4-0.1-0.7-0.1-1.1-0.1H227v5.5H228.2z"/>
		<path fill="#FFFFFF" d="M234.2,197.7h5.3v1.2h-3.9v2h3.7v1.2h-3.7v2.3h4.1v1.3h-5.5V197.7z"/>
		<path fill="#FFFFFF" d="M241.1,197.7h1.9l3.7,6h0v-6h1.4v8h-1.8l-3.8-6.2h0v6.2h-1.4V197.7z"/>
		<path fill="#FFFFFF" d="M251.5,199h-2.4v-1.2h6.3v1.2h-2.4v6.8h-1.4V199z"/>
		<path fill="#FFFFFF" d="M256.3,197.7h1.4v8h-1.4V197.7z"/>
		<path fill="#FFFFFF" d="M261.1,199h-2.4v-1.2h6.3v1.2h-2.4v6.8h-1.4V199z"/>
		<path fill="#FFFFFF" d="M267.7,202.2l-3-4.5h1.7l2,3.4l2-3.4h1.6l-3,4.5v3.5h-1.4V202.2z"/>
	</g>
</g>
<g id="Layer_2_1_" display="none">
	<g display="inline">
		<path fill="#333333" d="M-255.5,100.7l3,21.4c0.6,4.5-1.6,7.6-6.1,8.3c-0.9,0.1-2.4,0.1-2.4,0.1l-0.1-2.8l1.9-0.3
			c2.4-0.3,3.2-1.8,2.9-4l-3.1-22.1l-3.3-0.3l-0.3-2l10.2-1.6l0.3,2.2L-255.5,100.7z"/>
		<path fill="#333333" d="M-229.4,110.1c0.9,6.3-2.2,11.1-7.8,11.9c-5.6,0.8-9.4-2.1-10.3-8.8c-0.9-6.3,2.4-11,8-11.8
			C-233.9,100.6-230.2,104.1-229.4,110.1z M-243.6,112.5c0.6,4.5,2.5,7,6.2,6.5c3.7-0.5,4.8-3.3,4.2-8.2c-0.6-4.1-2.3-6.9-6-6.4
			C-243,105-244.3,107.6-243.6,112.5z"/>
		<path fill="#333333" d="M-221.1,101.6c1-1.1,3.4-3.2,6.1-3.6c4.1-0.6,6.3,1.8,6.9,5.9l1.5,10.4l2.9,0.5l0.3,2l-8.9,1.3l-0.3-2
			l2.3-1.2l-1.4-10.1c-0.4-2.6-1.4-3.8-3.8-3.5c-3.2,0.4-5.1,3.8-5.1,3.8l1.5,11l2.5,0.6l0.3,2l-9.3,1.3l-0.3-2l3-1.4l-3.2-22.7
			l-3.3-0.3l-0.3-2l6.9-1.2L-221.1,101.6z"/>
		<path fill="#333333" d="M-202.1,97.7c0,0,3.9-2.1,7-2.5c4.3-0.6,7.1,0.5,7.7,4.8l1.6,11.3l3.1,0.3l0.3,2l-5.7,1l-1.1-2.5
			c-1.1,1.4-3.1,3.5-5.7,3.8c-3.5,0.5-5.9-1.3-6.4-4.8c-0.6-4.3,2.5-6.2,7.7-7l3-0.4l-0.4-3c-0.3-2.2-1.8-3.2-4-2.9
			c-2.2,0.3-3.7,1.1-3.7,1.1l-0.1,2.9l-2.4,0.3L-202.1,97.7z M-192.8,106.6c-3.7,0.5-5,1.7-4.7,3.9c0.2,1.7,1.4,2.6,3.1,2.4
			c2.8-0.4,4.6-3.7,4.6-3.7l-0.4-3L-192.8,106.6z"/>
		<path fill="#333333" d="M-175.7,95.5c0.8-0.9,3.4-3.6,6.5-4c4.1-0.6,6.3,1.8,6.9,5.9l1.5,10.4l2.9,0.5l0.3,2l-8.9,1.3l-0.3-2
			l2.3-1.3l-1.4-10c-0.4-2.6-1.5-3.8-3.9-3.4c-3.2,0.4-5,3.7-5,3.7l1.5,11l2.5,0.6l0.3,2l-9.3,1.3l-0.3-2l3-1.4l-1.9-13.8l-3.3-0.3
			l-0.3-2l6.1-1L-175.7,95.5z"/>
		<path fill="#333333" d="M-150.9,92.1c0.8-0.9,3.4-3.6,6.5-4c4.1-0.6,6.3,1.8,6.9,5.9l1.5,10.4l2.9,0.5l0.3,2l-8.9,1.3l-0.3-2
			l2.3-1.3l-1.4-10c-0.4-2.6-1.5-3.8-3.9-3.4c-3.2,0.4-5,3.7-5,3.7l1.5,11l2.6,0.6l0.3,2l-9.3,1.3l-0.3-2l3-1.4l-1.9-13.8l-3.3-0.3
			l-0.3-2l6.1-1L-150.9,92.1z"/>
		<path fill="#333333" d="M-131.5,87.8c0,0,3.9-2.1,7-2.5c4.3-0.6,7.1,0.5,7.7,4.8l1.6,11.3l3.1,0.3l0.3,2l-5.7,1l-1.1-2.5
			c-1.1,1.4-3.1,3.5-5.7,3.8c-3.5,0.5-5.9-1.3-6.4-4.8c-0.6-4.3,2.5-6.2,7.7-7l3-0.4l-0.4-3c-0.3-2.2-1.8-3.2-4-2.9
			c-2.2,0.3-3.7,1.1-3.7,1.1l-0.1,2.9l-2.4,0.3L-131.5,87.8z M-122.3,96.7c-3.7,0.5-5,1.7-4.7,3.9c0.2,1.7,1.4,2.6,3.1,2.4
			c2.8-0.4,4.6-3.7,4.6-3.7l-0.4-3L-122.3,96.7z"/>
	</g>
</g>
<g id="Layer_3" display="none">
	<g display="inline">
		<path fill="#333333" d="M-250.6,119.9c0,0,1.7,0.7,4,0.3c2.6-0.4,5.2-2,4.8-4.5c-0.8-5.4-13.1-1.4-14.3-9.8
			c-0.7-4.9,2.9-7.5,7.3-8.1c3.3-0.5,7.6,0.4,7.6,0.4l0.7,6l-2.3,0.3l-1.7-3.6c0,0-1.9-0.4-3.8-0.1c-3.2,0.4-4.4,2.3-4.2,4.1
			c0.7,5.3,13.1,1.5,14.2,9.4c0.7,5.3-3.2,8.3-8.1,9c-3.7,0.5-7.4-0.4-7.4-0.4l-0.9-6.1l2.8-0.4L-250.6,119.9z"/>
		<path fill="#333333" d="M-235,103.4c0,0,3.7-1.9,6.6-2.4c4.1-0.6,6.7,0.5,7.2,4.5l1.5,10.7l2.9,0.3l0.3,1.9l-5.4,0.9l-1.1-2.4
			c-1,1.4-2.9,3.3-5.4,3.6c-3.3,0.5-5.5-1.2-6-4.5c-0.6-4,2.4-5.9,7.3-6.6l2.8-0.4l-0.4-2.8c-0.3-2.1-1.7-3-3.8-2.7
			c-2.1,0.3-3.5,1-3.5,1l-0.1,2.7l-2.3,0.3L-235,103.4z M-226.3,111.8c-3.5,0.5-4.7,1.6-4.4,3.7c0.2,1.6,1.4,2.5,2.9,2.3
			c2.6-0.4,4.3-3.5,4.3-3.5l-0.4-2.8L-226.3,111.8z"/>
		<path fill="#333333" d="M-210.1,101.5c0.7-1.1,2.5-3.3,4.9-3.7c1.8-0.2,3.2,0.1,3.2,0.1l0.5,5.1l-2.3,0.3l-0.9-2.6
			c-2.6,0.4-4.1,2.3-4.7,3.4l1.5,10.4l3.6,0.4l0.3,1.9l-10,1.4l-0.3-1.9l2.9-1.3l-1.8-13l-3.1-0.3l-0.3-1.9l5.8-1L-210.1,101.5z"/>
		<path fill="#333333" d="M-199.2,98.4c0,0,3.7-1.9,6.6-2.4c4.1-0.6,6.7,0.5,7.2,4.5l1.5,10.7l2.9,0.3l0.3,1.9l-5.4,0.9l-1.1-2.4
			c-1,1.4-2.9,3.3-5.4,3.6c-3.3,0.5-5.5-1.2-6-4.5c-0.6-4,2.4-5.9,7.3-6.6l2.8-0.4l-0.4-2.8c-0.3-2.1-1.7-3-3.8-2.7
			c-2.1,0.3-3.5,1-3.5,1l-0.1,2.7l-2.3,0.3L-199.2,98.4z M-190.5,106.8c-3.5,0.5-4.7,1.6-4.4,3.7c0.2,1.6,1.4,2.5,2.9,2.3
			c2.6-0.4,4.3-3.5,4.3-3.5l-0.4-2.8L-190.5,106.8z"/>
		<path fill="#333333" d="M-174.5,96.1c1-1.1,3.2-3,5.8-3.4c3.9-0.5,6,1.7,6.5,5.5l1.4,9.8l2.8,0.5l0.3,1.9l-8.4,1.2l-0.3-1.9
			l2.2-1.2l-1.3-9.5c-0.3-2.5-1.3-3.6-3.6-3.3c-3,0.4-4.8,3.5-4.8,3.5l1.5,10.3l2.4,0.6l0.3,1.9l-8.8,1.2l-0.3-1.9l2.9-1.3l-3-21.4
			l-3.1-0.3l-0.3-1.9l6.5-1.1L-174.5,96.1z"/>
		<path fill="#333333" d="M-147.4,86.8l-3.1-0.3l-0.3-1.9l6.5-1.1l4-0.6c4.4-0.6,7.8,0.9,8.4,5.1c0.4,3.2-0.9,5.2-3.8,6.3
			c3.8,0.3,5.8,2.1,6.2,5c0.7,4.9-2.2,7.5-8,8.3l-10,1.4l-0.3-2.1l2.9-1.1L-147.4,86.8z M-140.2,93.7c3.2-0.4,5.1-2,4.7-4.8
			c-0.3-2.5-2.3-3.4-4.5-3.1l-3.9,0.5l1.1,7.7L-140.2,93.7z M-137.5,104.7c3.3-0.5,4.9-2.1,4.5-4.7c-0.5-3.5-2.9-4.2-6.8-3.7
			l-2.6,0.4l1.2,8.6L-137.5,104.7z"/>
		<path fill="#333333" d="M-122.7,100.9c1.4-0.2,2.4,0.6,2.6,2.1s-0.7,2.6-1.9,2.8c-1.4,0.2-2.4-0.6-2.6-2.1S-123.9,101-122.7,100.9
			z"/>
	</g>
</g>
<g id="Layer_4" display="none">
	<g display="inline">
		<path fill="#333333" d="M-266.5,122.1c0,0,1.7,0.6,3.9,0.3c2.5-0.4,5.1-2,4.8-4.4c-0.7-5.3-12.9-1.4-14.1-9.6
			c-0.7-4.8,2.9-7.4,7.2-8c3.3-0.5,7.5,0.4,7.5,0.4l0.7,5.9l-2.2,0.3l-1.7-3.5c0,0-1.9-0.4-3.8-0.1c-3.1,0.4-4.4,2.3-4.1,4
			c0.7,5.3,12.9,1.5,14,9.3c0.7,5.2-3.1,8.2-8,8.8c-3.6,0.5-7.3-0.4-7.3-0.4l-0.9-6l2.8-0.4L-266.5,122.1z"/>
		<path fill="#333333" d="M-240.9,106.2l-5,0.7l1.6,11.1c0.2,1.6,1.1,2,2,1.9c0.8-0.1,1.7-0.6,2.6-1.2l1.2,1.7
			c-1.4,1.4-2.9,2.2-4.6,2.4c-2.1,0.3-4.1-0.6-4.7-4.5l-1.5-10.9l-3.5,0.5l-0.3-2.2l3.4-0.8l-0.6-4.4l3.4-1.2l0.7,5l5-0.7
			L-240.9,106.2z"/>
		<path fill="#333333" d="M-233.9,112.3c0.5,3.8,2.9,5.9,5.9,5.5c3.5-0.5,5.5-2.7,5.5-2.7l1.5,1.6c0,0-2.8,3.3-7,3.9
			c-5.5,0.8-8.8-2.5-9.6-8.2c-0.8-5.5,2.1-10.2,7.1-10.9c5-0.7,7.7,1.9,8.4,7.1c0.1,0.9,0.1,1.9,0.1,1.9L-233.9,112.3z
			 M-225.8,108.5c-0.4-2.6-1.7-4.6-4.4-4.2c-2.8,0.4-4,2.8-3.9,5.4L-225.8,108.5z"/>
		<path fill="#333333" d="M-214.3,101.6c0.9-1.1,2.5-2.7,4.9-3c5-0.7,7.9,2.6,8.7,7.9c0.8,5.9-1.5,10.4-7.9,11.3
			c-1.1,0.2-2.2,0.1-3.2,0l0.8,5.5l3.7,0.2l0.3,1.9l-9.9,1.4l-0.3-1.9l2.7-1.1l-2.9-20.9l-3-0.3l-0.3-1.9l5.9-1L-214.3,101.6z
			 M-212.2,114.8c0,0,1.1,0.5,3.7,0.2c4-0.6,4.7-3.8,4.2-7.6c-0.5-3.8-2.3-6.4-5.4-5.9c-3.1,0.4-4,3-4,3L-212.2,114.8z"/>
		<path fill="#333333" d="M-192.7,98.8c0.9-1,3.1-3,5.7-3.3c3.8-0.5,5.9,1.6,6.4,5.4l1.4,9.7l2.7,0.5l0.3,1.9l-8.3,1.2l-0.3-1.9
			l2.1-1.1l-1.3-9.4c-0.3-2.4-1.3-3.5-3.5-3.2c-2.9,0.4-4.7,3.5-4.7,3.5l1.4,10.2l2.4,0.5l0.3,1.9l-8.6,1.2l-0.3-1.9l2.8-1.3
			l-3-21.1l-3-0.3l-0.3-1.9l6.4-1.1L-192.7,98.8z"/>
		<path fill="#333333" d="M-175.1,95.2c0,0,3.6-1.9,6.5-2.3c4-0.6,6.6,0.5,7.1,4.5l1.5,10.5l2.9,0.3l0.3,1.9l-5.3,0.9l-1.1-2.3
			c-1,1.3-2.9,3.2-5.3,3.6c-3.3,0.5-5.5-1.2-5.9-4.5c-0.6-4,2.4-5.8,7.2-6.5l2.8-0.4l-0.4-2.8c-0.3-2.1-1.6-2.9-3.7-2.6
			s-3.4,1-3.4,1l-0.1,2.7l-2.2,0.3L-175.1,95.2z M-166.5,103.5c-3.5,0.5-4.6,1.5-4.4,3.6c0.2,1.6,1.3,2.5,2.9,2.2
			c2.6-0.4,4.3-3.4,4.3-3.4l-0.4-2.8L-166.5,103.5z"/>
		<path fill="#333333" d="M-150.6,93.2c0.7-0.8,3.2-3.3,6-3.7c3.8-0.5,5.9,1.6,6.4,5.4l1.4,9.7l2.7,0.5l0.3,1.9l-8.3,1.2l-0.3-1.9
			l2.1-1.2l-1.3-9.3c-0.3-2.4-1.4-3.5-3.6-3.2c-2.9,0.4-4.6,3.5-4.6,3.5l1.4,10.2l2.4,0.5l0.3,1.9l-8.6,1.2l-0.3-1.9l2.8-1.3
			l-1.8-12.8l-3-0.3l-0.3-1.9l5.7-1L-150.6,93.2z"/>
		<path fill="#333333" d="M-122.4,105.4l-9,1.3l-0.3-1.9l2.8-1.3l-1.8-12.8l-3-0.3l-0.3-1.9l6.4-1.1l2.2,15.6l2.7,0.5L-122.4,105.4z
			 M-130.6,79.6c1.4-0.2,2.3,0.4,2.6,2.1c0.2,1.6-0.9,2.6-1.9,2.7c-1.4,0.2-2.4-0.5-2.6-2.1C-132.7,80.8-131.8,79.8-130.6,79.6z"/>
		<path fill="#333333" d="M-117.4,95.9c0.5,3.8,2.9,5.9,5.9,5.5c3.5-0.5,5.5-2.7,5.5-2.7l1.5,1.6c0,0-2.8,3.3-7,3.9
			c-5.5,0.8-8.8-2.5-9.6-8.2c-0.8-5.5,2.1-10.2,7.1-10.9c5-0.7,7.7,1.9,8.4,7.1c0.1,0.9,0.1,1.9,0.1,1.9L-117.4,95.9z M-109.3,92.1
			c-0.4-2.6-1.7-4.6-4.4-4.2c-2.8,0.4-4,2.8-3.9,5.4L-109.3,92.1z"/>
	</g>
</g>
<g id="Layer_5" display="none">
	<g display="inline">
		<path fill="#333333" d="M-250.5,119.9c0,0,1.7,0.7,4,0.3c2.6-0.4,5.2-2,4.8-4.5c-0.8-5.4-13.1-1.4-14.2-9.7
			c-0.7-4.9,2.9-7.5,7.3-8.1c3.3-0.5,7.6,0.4,7.6,0.4l0.7,6l-2.3,0.3l-1.7-3.6c0,0-1.9-0.4-3.8-0.1c-3.1,0.4-4.4,2.3-4.2,4
			c0.7,5.3,13.1,1.5,14.2,9.4c0.7,5.2-3.2,8.3-8.1,8.9c-3.7,0.5-7.4-0.4-7.4-0.4l-0.9-6.1l2.8-0.4L-250.5,119.9z"/>
		<path fill="#333333" d="M-234.9,103.4c0,0,3.7-1.9,6.6-2.4c4.1-0.6,6.7,0.5,7.2,4.5l1.5,10.7l2.9,0.3l0.3,1.9l-5.4,0.9l-1.1-2.3
			c-1,1.4-2.9,3.3-5.3,3.6c-3.3,0.5-5.5-1.2-6-4.5c-0.6-4,2.4-5.9,7.3-6.6l2.8-0.4l-0.4-2.8c-0.3-2.1-1.7-3-3.8-2.7s-3.5,1-3.5,1
			l-0.1,2.7l-2.3,0.3L-234.9,103.4z M-226.2,111.9c-3.5,0.5-4.7,1.6-4.4,3.7c0.2,1.6,1.3,2.5,2.9,2.3c2.6-0.4,4.3-3.5,4.3-3.5
			l-0.4-2.8L-226.2,111.9z"/>
		<path fill="#333333" d="M-210.1,101.5c0.7-1.1,2.5-3.3,4.9-3.6c1.7-0.2,3.2,0.1,3.2,0.1l0.5,5.1l-2.3,0.3l-0.9-2.5
			c-2.6,0.4-4.1,2.3-4.7,3.4l1.5,10.4l3.6,0.4l0.3,1.9l-10,1.4l-0.3-1.9l2.8-1.3l-1.8-12.9l-3.1-0.3l-0.3-1.9l5.7-1L-210.1,101.5z"
			/>
		<path fill="#333333" d="M-199.2,98.4c0,0,3.7-1.9,6.6-2.4c4.1-0.6,6.7,0.5,7.2,4.5l1.5,10.7l2.9,0.3l0.3,1.9l-5.4,0.9l-1.1-2.3
			c-1,1.4-2.9,3.3-5.3,3.6c-3.3,0.5-5.5-1.2-6-4.5c-0.6-4,2.4-5.9,7.3-6.6l2.8-0.4l-0.4-2.8c-0.3-2.1-1.7-3-3.8-2.7s-3.5,1-3.5,1
			l-0.1,2.7l-2.3,0.3L-199.2,98.4z M-190.6,106.8c-3.5,0.5-4.7,1.6-4.4,3.7c0.2,1.6,1.3,2.5,2.9,2.3c2.6-0.4,4.3-3.5,4.3-3.5
			l-0.4-2.8L-190.6,106.8z"/>
		<path fill="#333333" d="M-174.6,96.1c1-1.1,3.2-3,5.8-3.4c3.8-0.5,5.9,1.7,6.5,5.5l1.4,9.8l2.7,0.5l0.3,1.9l-8.4,1.2l-0.3-1.9
			l2.2-1.2l-1.3-9.5c-0.3-2.4-1.3-3.6-3.6-3.2c-3,0.4-4.8,3.5-4.8,3.5l1.4,10.3l2.4,0.6l0.3,1.9l-8.7,1.2l-0.3-1.9l2.8-1.3l-3-21.3
			l-3.1-0.3l-0.3-1.9l6.4-1.1L-174.6,96.1z"/>
		<path fill="#333333" d="M-133.9,85.5c0,0-2-0.4-4.6-0.1c-4.7,0.7-6.9,4.5-5.9,11c0.9,6.3,4.4,8.7,8.8,8c3.7-0.5,6.6-3.8,6.6-3.8
			l1.7,2.1c0,0-3,4.2-8.2,4.9c-7,1-11.8-2.6-12.9-10.5c-1.1-8,2.7-13.8,9.9-14.8c3.8-0.5,8.1,0.6,8.1,0.6l0.7,6l-2.6,0.4
			L-133.9,85.5z"/>
		<path fill="#333333" d="M-121.7,100.7c1.4-0.2,2.4,0.6,2.6,2.1s-0.7,2.6-1.9,2.8c-1.4,0.2-2.4-0.6-2.6-2.1
			C-123.8,101.9-122.9,100.9-121.7,100.7z"/>
	</g>
</g>
<g id="Layer_6">
	<g>
		<path fill="#333333" d="M-227.8,97.2l-3.2-0.3l-0.3-2l6.9-1.2l4.6-0.6c7.1-1,12.1,2.8,13.2,10.8c1.1,8-2.9,13.8-10.2,14.8l-11,1.5
			l-0.3-2.2l3-1.2L-227.8,97.2z M-217,115.8c4.6-0.6,7.2-4.2,6.3-11.1c-0.9-6.8-4.3-9.3-8.8-8.6l-4.4,0.6l2.8,19.7L-217,115.8z"/>
		<path fill="#333333" d="M-184.8,104c0.9,6.2-2.2,10.9-7.7,11.7s-9.2-2.1-10.1-8.6c-0.9-6.2,2.4-10.8,7.9-11.5
			C-189.3,94.8-185.6,98.2-184.8,104z M-198.8,106.3c0.6,4.4,2.5,6.9,6.1,6.4s4.8-3.3,4.1-8c-0.6-4-2.3-6.8-5.9-6.2
			C-198.2,99-199.5,101.6-198.8,106.3z"/>
		<path fill="#333333" d="M-176.5,96.1c0.8-1.1,2.6-3.5,5.1-3.8c1.8-0.3,3.4,0.1,3.4,0.1l0.6,5.3l-2.4,0.3l-0.9-2.7
			c-2.7,0.4-4.2,2.4-4.9,3.6l1.5,10.8l3.8,0.4l0.3,2l-10.4,1.5l-0.3-2l3-1.3l-1.9-13.5l-3.2-0.3l-0.3-2l6-1L-176.5,96.1z"/>
		<path fill="#333333" d="M-165.2,92.9c0,0,3.8-2,6.9-2.5c4.2-0.6,7,0.5,7.6,4.7l1.6,11.1l3,0.3l0.3,2l-5.6,1l-1.1-2.4
			c-1.1,1.4-3,3.4-5.6,3.8c-3.5,0.5-5.8-1.2-6.2-4.7c-0.6-4.2,2.5-6.1,7.6-6.8l2.9-0.4l-0.4-2.9c-0.3-2.2-1.7-3.1-3.9-2.8
			c-2.2,0.3-3.6,1.1-3.6,1.1l-0.1,2.8l-2.4,0.3L-165.2,92.9z M-156.1,101.6c-3.7,0.5-4.9,1.6-4.6,3.8c0.2,1.6,1.4,2.6,3.1,2.4
			c2.7-0.4,4.5-3.6,4.5-3.6l-0.4-2.9L-156.1,101.6z"/>
	</g>
</g>
<g id="Layer_7" display="none">
	
		<rect x="-290.4" y="14.1" transform="matrix(0.9903 -0.1392 0.1392 0.9903 -12.6225 -25.9714)" display="inline" fill="none" stroke="#000000" stroke-miterlimit="10" width="196.8" height="126.4"/>
</g>
</svg>
