<?xml version="1.0" encoding="utf-8"?>
<!-- Generator: Adobe Illustrator 17.1.0, SVG Export Plug-In . SVG Version: 6.00 Build 0)  -->
<!DOCTYPE svg PUBLIC "-//W3C//DTD SVG 1.1//EN" "http://www.w3.org/Graphics/SVG/1.1/DTD/svg11.dtd">
<svg version="1.1" id="Layer_1" xmlns="http://www.w3.org/2000/svg" xmlns:xlink="http://www.w3.org/1999/xlink" x="0px" y="0px"
	 viewBox="0 0 202 62.4" enable-background="new 0 0 202 62.4" xml:space="preserve">
<path fill="#3A3A3A" d="M202,0H0v62.4h202V0z M12.4,50.8l5.5-2.2V14.1l-5.5-2.2V5.6l16.9-0.4h20.6v14h-6.8l-1.8-5.1H29.3v12.9h15.2
	V35H29.3v13.6l6.8,2.2v6.2H12.4V50.8z M54.3,50.8l5.5-2.2V14.1l-5.5-2.2V5.6l16.9-0.4h5.6c12.1,0,19.1,5,19.1,15
	c0,6.9-3.3,11.4-8.3,13.9c0.8,1,1.9,2.4,3.1,4.8L95.7,49l5,1.8v6.2H87.1l-6.2-13.6c-2.5-5.6-3.2-6.8-7.1-6.8h-2.6v11.9l5.3,2.2v6.2
	H54.3V50.8z M75.5,29c5.8,0,9.2-2.8,9.2-7.7c0-4.2-2.8-7.2-7.4-7.2h-6V29H75.5z M136.5,34.3h-14.9v14h13.2l1.7-6h6.6v14.9h-38.4
	v-6.2l5.5-2.2V14.1l-5.5-2.2V5.6l16.9-0.4h20.6v14.2h-6.6l-1.8-5.4h-12.1v12.1h14.9V34.3z M182.2,34.3h-14.9v14h13.2l1.7-6h6.6v14.9
	h-38.4v-6.2l5.5-2.2V14.1l-5.5-2.2V5.6l16.9-0.4h20.6v14.2h-6.6l-1.8-5.4h-12.1v12.1h14.9V34.3z"/>
</svg>
