<?xml version="1.0" encoding="utf-8"?>
<!-- Generator: Adobe Illustrator 17.1.0, SVG Export Plug-In . SVG Version: 6.00 Build 0)  -->
<!DOCTYPE svg PUBLIC "-//W3C//DTD SVG 1.1//EN" "http://www.w3.org/Graphics/SVG/1.1/DTD/svg11.dtd">
<svg version="1.1" id="Layer_1" xmlns="http://www.w3.org/2000/svg" xmlns:xlink="http://www.w3.org/1999/xlink" x="0px" y="0px"
	 viewBox="0 0 100 100" enable-background="new 0 0 100 100" xml:space="preserve">
<path fill-rule="evenodd" clip-rule="evenodd" fill="#333333" d="M62.7,57.1c10.9-13.7,10-33.9-2.6-46.5
	c-13.5-13.5-35.7-13.5-49.3,0C-2.9,24.2-2.9,46.4,10.8,60c12.6,12.8,32.7,13.5,46.3,2.6l5.5,5.5c-1.3,2.1-1.1,4.9,0.8,6.8l23.1,23.1
	c2.1,2.1,5.5,2.1,7.7,0l3.8-3.9c2.1-2.1,2.1-5.5,0-7.7l-23.1-23c-1.7-1.9-4.5-2.1-6.8-0.8L62.7,57.1L62.7,57.1z M54.1,53.9
	L54.1,53.9c-10.3,10.3-27.1,10.3-37.4,0C6.5,43.8,6.5,27,16.6,16.7C27,6.3,43.7,6.3,54.1,16.7C64.3,27,64.3,43.8,54.1,53.9
	L54.1,53.9z"/>
</svg>
