<?xml version="1.0" encoding="utf-8"?>
<!-- Generator: Adobe Illustrator 17.1.0, SVG Export Plug-In . SVG Version: 6.00 Build 0)  -->
<!DOCTYPE svg PUBLIC "-//W3C//DTD SVG 1.1//EN" "http://www.w3.org/Graphics/SVG/1.1/DTD/svg11.dtd">
<svg version="1.1" xmlns="http://www.w3.org/2000/svg" xmlns:xlink="http://www.w3.org/1999/xlink" x="0px" y="0px"
	 viewBox="-300.8 -121.1 892.3 472" enable-background="new -300.8 -121.1 892.3 472" xml:space="preserve">
<g id="Layer_1" display="none">
	<g display="inline">
		<g opacity="0.3">
			<path d="M-271.8-110.1h7.1v12.3h13.8v-12.3h7.1v32.5h-7.1v-14h-13.8v14h-7.1V-110.1z"/>
			<path d="M-236.5-110.1h22.1v6.7h-14.9v6h14.3v6.7h-14v6.7h15.8v6.7h-23.2V-110.1z"/>
			<path d="M-207.5-110.1h7.1V-84h13.4v6.7h-20.5V-110.1L-207.5-110.1z"/>
			<path d="M-182.8-110.1h7.1V-84h13.4v6.7h-20.5V-110.1L-182.8-110.1z"/>
			<path d="M-160.1-93.8c0-2.7,0.4-4.9,1.3-7.1c0.9-2,2-4,3.6-5.4c1.6-1.6,3.3-2.7,5.6-3.3c2.2-0.9,4.5-1.3,7.1-1.3
				c2.5,0,4.9,0.4,7.1,1.3c2.2,0.9,4,2,5.6,3.3c1.6,1.3,2.7,3.3,3.6,5.6c0.9,2,1.3,4.5,1.3,7.1c0,2.7-0.4,4.9-1.3,7.1
				c-0.9,2-2,4-3.6,5.4c-1.6,1.6-3.3,2.7-5.6,3.3c-2.2,0.7-4.5,1.3-7.1,1.3s-4.9-0.4-7.1-1.3c-2.2-0.9-4-2-5.6-3.3
				c-1.6-1.3-2.9-3.3-3.6-5.4C-159.6-88.7-160.1-91.1-160.1-93.8z M-152.7-93.8c0,1.6,0.2,2.9,0.7,4.2c0.4,1.3,1.1,2.5,2,3.3
				c0.9,0.9,2,1.6,3.1,2.2c1.3,0.4,2.7,0.9,4.2,0.9c1.6,0,2.9-0.2,4.2-0.9c1.3-0.4,2.2-1.3,3.1-2.2c0.9-0.9,1.6-2,2-3.3
				c0.4-1.3,0.7-2.7,0.7-4.2s-0.2-2.9-0.7-4.2c-0.4-1.3-1.1-2.5-2-3.3c-0.9-0.9-2-1.6-3.1-2.2c-1.3-0.4-2.7-0.9-4.2-0.9
				c-1.6,0-2.9,0.2-4.2,0.9s-2.2,1.3-3.1,2.2c-0.9,0.9-1.6,2-2,3.3C-152.5-96.7-152.7-95.4-152.7-93.8z"/>
			<path d="M-228.7-68.2h2.5l1.6,4.7l0,0l1.6-4.7h2.5v7.6h-1.6v-5.6l0,0l-1.8,5.6h-1.3l-1.8-5.6l0,0v5.6h-1.6L-228.7-68.2
				L-228.7-68.2z"/>
			<path d="M-217.1-63.7L-220-68h2l1.6,2.7l1.6-2.7h2l-2.9,4.2v3.1h-1.6L-217.1-63.7L-217.1-63.7z"/>
			<path d="M-209.1-68.2h2.2l3.1,5.1l0,0v-5.1h1.6v7.6h-2l-3.1-5.1l0,0v5.1h-1.6v-7.6H-209.1z"/>
			<path d="M-198.2-68.2h1.3l3.1,7.4h-1.8l-0.7-1.6h-2.9l-0.4,1.8h-1.8L-198.2-68.2z M-197.5-65.9l-0.9,2.2h1.8L-197.5-65.9z"/>
			<path d="M-192.8-68.2h2.5l1.6,4.7l0,0l1.6-4.7h2.5v7.6h-1.6v-5.6l0,0l-1.8,5.6h-1.3l-1.8-5.6l0,0v5.6h-1.6V-68.2L-192.8-68.2z"/>
			<path d="M-183-68.2h4.9v1.6h-3.3v1.3h3.1v1.6h-3.1v1.6h3.6v1.6h-5.1V-68.2L-183-68.2z"/>
			<path d="M-173.4-68.2h1.6v7.6h-1.6V-68.2z"/>
			<path d="M-166.8-66.2c0-0.2-0.2-0.2-0.4-0.4c-0.2,0-0.4,0-0.7,0h-0.2h-0.2c0,0-0.2,0-0.2,0.2v0.2c0,0.2,0,0.4,0.2,0.4
				s0.4,0.2,0.7,0.2s0.4,0.2,0.9,0.2c0.2,0,0.4,0.2,0.9,0.2c0.2,0,0.4,0.2,0.7,0.7c0.2,0.2,0.2,0.7,0.2,1.1s0,0.7-0.2,1.1
				c0,0.2-0.2,0.4-0.7,0.7c-0.2,0.2-0.4,0.2-0.9,0.4c-0.2,0-0.7,0-1.1,0s-0.9,0-1.3-0.2c-0.4,0-0.9-0.4-1.1-0.7l1.1-1.3
				c0.2,0.2,0.4,0.4,0.7,0.4s0.4,0.2,0.9,0.2c0,0,0.2,0,0.4,0c0.2,0,0.2,0,0.4,0c0,0,0.2,0,0.2-0.2V-63c0-0.2,0-0.4-0.2-0.4
				c-0.2,0-0.4-0.2-0.7-0.2c-0.2,0-0.4-0.2-0.9-0.2c-0.2,0-0.4-0.2-0.9-0.4c-0.2,0-0.4-0.2-0.7-0.7c-0.2-0.2-0.2-0.7-0.2-1.1
				s0-0.7,0.2-1.1c0-0.2,0.2-0.4,0.7-0.7c0.2-0.2,0.4-0.2,0.9-0.4c0.2,0,0.7,0,1.1,0c0.4,0,0.9,0,1.3,0.2c0.4,0,0.7,0.2,1.1,0.7
				L-166.8-66.2z"/>
			<rect x="-299.8" y="-120.8" width="196.8" height="126.4"/>
			<rect x="-299.8" y="-120.8" width="196.8" height="46.1"/>
			<path d="M-274.9-113.2h7.1v12.3h13.8v-12.3h7.1v32.5h-7.1v-14h-13.8v14h-7.1V-113.2z"/>
			<path d="M-239.7-113.2h22.1v6.7h-14.9v6h14v6.7h-14v6.7h15.8v6.7h-23V-113.2z"/>
			<path d="M-210.7-113.2h7.1v26.1h13.4v6.7h-20.5V-113.2L-210.7-113.2z"/>
			<path d="M-185.9-113.2h7.1v26.1h13.4v6.7h-20.5V-113.2L-185.9-113.2z"/>
			<path d="M-163.2-96.9c0-2.7,0.4-4.9,1.3-7.1s2-4,3.6-5.4c1.6-1.3,3.3-2.5,5.6-3.3c2.2-0.9,4.5-1.3,7.1-1.3c2.5,0,4.9,0.4,7.1,1.3
				c2.2,0.9,4,2,5.6,3.3c1.6,1.3,2.9,3.3,3.6,5.4c0.9,2,1.3,4.5,1.3,7.1s-0.4,4.9-1.3,7.1c-0.9,2-2,4-3.6,5.4
				c-1.6,1.6-3.3,2.7-5.6,3.3c-2.2,0.9-4.5,1.3-7.1,1.3c-2.7,0-4.9-0.4-7.1-1.1c-2.2-0.9-4-2-5.6-3.3c-1.6-1.6-2.9-3.3-3.6-5.4
				C-162.7-91.8-163.2-94.3-163.2-96.9z M-155.8-96.9c0,1.6,0.2,2.9,0.7,4.2c0.4,1.3,1.1,2.5,2,3.3c0.9,0.9,2,1.6,3.1,2.2
				c1.1,0.7,2.7,0.9,4.2,0.9c1.6,0,2.9-0.2,4.2-0.9s2.2-1.3,3.1-2.2c0.9-0.9,1.6-2,2-3.3c0.4-1.3,0.7-2.7,0.7-4.2s-0.2-2.9-0.7-4.2
				c-0.4-1.3-1.1-2.5-2-3.3c-0.9-0.9-2-1.6-3.1-2.2c-1.1-0.2-2.5-0.7-4-0.7c-1.6,0-2.9,0.2-4.2,0.9c-1.3,0.4-2.2,1.3-3.1,2.2
				c-0.9,0.9-1.6,2-2,3.3C-155.6-99.8-155.8-98.5-155.8-96.9z"/>
			<path d="M-231.8-71.3h2.5l1.6,4.7l0,0l1.6-4.7h2.5v7.4h-1.6v-5.6l0,0l-1.8,5.6h-1.3l-1.8-5.6l0,0v5.6h-1.6V-71.3L-231.8-71.3z"/>
			<path d="M-220.3-66.8l-2.9-4.2h2l1.6,2.7l1.6-2.7h1.8l-2.9,4.2v3.1h-1.6L-220.3-66.8L-220.3-66.8z"/>
			<path d="M-212.2-71.3h2.2l3.1,5.1l0,0v-5.1h1.6v7.4h-2l-3.1-5.1l0,0v5.1h-1.6v-7.4H-212.2z"/>
			<path d="M-201.3-71.3h1.3l3.1,7.4h-1.8l-0.7-1.6h-2.9l-0.7,1.6h-1.8L-201.3-71.3z M-200.6-69.1l-0.9,2.2h1.8L-200.6-69.1z"/>
			<path d="M-196-71.3h2.5l1.6,4.7l0,0l1.6-4.7h2.5v7.4h-1.6v-5.6l0,0l-1.8,5.6h-1.3l-1.8-5.6l0,0v5.6h-1.6V-71.3L-196-71.3z"/>
			<path d="M-186.1-71.3h4.9v1.6h-3.3v1.3h3.1v1.6h-3.1v1.6h3.6v1.6h-5.1V-71.3L-186.1-71.3z"/>
			<path d="M-176.6-71.3h1.6v7.4h-1.6V-71.3z"/>
			<path d="M-169.9-69.3c0-0.2-0.2-0.2-0.4-0.4c-0.2,0-0.4,0-0.7,0h-0.2h-0.2c0,0-0.2,0-0.2,0.2v0.2c0,0.2,0,0.4,0.2,0.4
				s0.4,0.2,0.7,0.2s0.4,0.2,0.9,0.2c0.2,0,0.4,0.2,0.9,0.2c0.2,0,0.4,0.2,0.7,0.7c0.2,0.2,0.2,0.7,0.2,1.1c0,0.4,0,0.7-0.2,1.1
				c0,0.2-0.2,0.4-0.7,0.7c-0.2,0.2-0.4,0.2-0.9,0.4c-0.2,0-0.7,0-1.1,0s-0.9,0-1.3-0.2c-0.4,0-0.9-0.4-1.1-0.7l1.1-1.3
				c0.2,0.2,0.4,0.4,0.7,0.4s0.4,0.2,0.9,0.2c0,0,0.2,0,0.4,0c0.2,0,0.2,0,0.4,0c0,0,0.2,0,0.2-0.2v-0.2c0-0.2,0-0.4-0.2-0.4
				s-0.4-0.2-0.7-0.2s-0.4-0.2-0.9-0.2c-0.2,0-0.4-0.2-0.9-0.4c-0.2,0-0.4-0.2-0.7-0.7c-0.2-0.2-0.2-0.7-0.2-1.1s0-0.7,0.2-1.1
				c0-0.2,0.2-0.4,0.7-0.7c0.2-0.2,0.4-0.2,0.9-0.4c0.2,0,0.7,0,1.1,0c0.4,0,0.9,0,1.3,0.2c0.4,0,0.7,0.2,1.1,0.7L-169.9-69.3z"/>
		</g>
		<g>
			<g>
				<g opacity="0.3">
					<path d="M-272.8-111.1h7.1v12.3h13.8v-12.3h7.1v32.5h-7.1v-14h-13.8v14h-7.1V-111.1z"/>
					<path d="M-237.5-111.1h22.1v6.7h-14.9v6h14.3v6.7h-14v6.7h15.8v6.7h-23.2V-111.1z"/>
					<path d="M-208.5-111.1h7.1V-85h13.4v6.7h-20.5V-111.1L-208.5-111.1z"/>
					<path d="M-183.8-111.1h7.1V-85h13.4v6.7h-20.5V-111.1L-183.8-111.1z"/>
					<path d="M-161.1-94.8c0-2.7,0.4-4.9,1.3-7.1c0.9-2,2-4,3.6-5.4c1.6-1.6,3.3-2.7,5.6-3.3c2.2-0.9,4.5-1.3,7.1-1.3
						c2.5,0,4.9,0.4,7.1,1.3c2.2,0.9,4,2,5.6,3.3c1.6,1.3,2.7,3.3,3.6,5.6c0.9,2,1.3,4.5,1.3,7.1c0,2.7-0.4,4.9-1.3,7.1
						c-0.9,2-2,4-3.6,5.4c-1.6,1.6-3.3,2.7-5.6,3.3c-2.2,0.7-4.5,1.3-7.1,1.3s-4.9-0.4-7.1-1.3c-2.2-0.9-4-2-5.6-3.3
						c-1.6-1.3-2.9-3.3-3.6-5.4C-160.6-89.7-161.1-92.1-161.1-94.8z M-153.7-94.8c0,1.6,0.2,2.9,0.7,4.2c0.4,1.3,1.1,2.5,2,3.3
						c0.9,0.9,2,1.6,3.1,2.2c1.3,0.4,2.7,0.9,4.2,0.9c1.6,0,2.9-0.2,4.2-0.9c1.3-0.4,2.2-1.3,3.1-2.2c0.9-0.9,1.6-2,2-3.3
						c0.4-1.3,0.7-2.7,0.7-4.2s-0.2-2.9-0.7-4.2c-0.4-1.3-1.1-2.5-2-3.3c-0.9-0.9-2-1.6-3.1-2.2c-1.3-0.4-2.7-0.9-4.2-0.9
						c-1.6,0-2.9,0.2-4.2,0.9s-2.2,1.3-3.1,2.2c-0.9,0.9-1.6,2-2,3.3C-153.5-97.7-153.7-96.4-153.7-94.8z"/>
					<path d="M-229.7-69.2h2.5l1.6,4.7l0,0l1.6-4.7h2.5v7.6h-1.6v-5.6l0,0l-1.8,5.6h-1.3l-1.8-5.6l0,0v5.6h-1.6L-229.7-69.2
						L-229.7-69.2z"/>
					<path d="M-218.1-64.7L-221-69h2l1.6,2.7l1.6-2.7h2l-2.9,4.2v3.1h-1.6L-218.1-64.7L-218.1-64.7z"/>
					<path d="M-210.1-69.2h2.2l3.1,5.1l0,0v-5.1h1.6v7.6h-2l-3.1-5.1l0,0v5.1h-1.6v-7.6H-210.1z"/>
					<path d="M-199.2-69.2h1.3l3.1,7.4h-1.8l-0.7-1.6h-2.9l-0.4,1.8h-1.8L-199.2-69.2z M-198.5-66.9l-0.9,2.2h1.8L-198.5-66.9z"/>
					<path d="M-193.8-69.2h2.5l1.6,4.7l0,0l1.6-4.7h2.5v7.6h-1.6v-5.6l0,0l-1.8,5.6h-1.3l-1.8-5.6l0,0v5.6h-1.6V-69.2L-193.8-69.2z"
						/>
					<path d="M-184-69.2h4.9v1.6h-3.3v1.3h3.1v1.6h-3.1v1.6h3.6v1.6h-5.1V-69.2L-184-69.2z"/>
					<path d="M-174.4-69.2h1.6v7.6h-1.6V-69.2z"/>
					<path d="M-167.8-67.2c0-0.2-0.2-0.2-0.4-0.4c-0.2,0-0.4,0-0.7,0h-0.2h-0.2c0,0-0.2,0-0.2,0.2v0.2c0,0.2,0,0.4,0.2,0.4
						s0.4,0.2,0.7,0.2s0.4,0.2,0.9,0.2c0.2,0,0.4,0.2,0.9,0.2c0.2,0,0.4,0.2,0.7,0.7c0.2,0.2,0.2,0.7,0.2,1.1c0,0.4,0,0.7-0.2,1.1
						c0,0.2-0.2,0.4-0.7,0.7c-0.2,0.2-0.4,0.2-0.9,0.4c-0.2,0-0.7,0-1.1,0s-0.9,0-1.3-0.2c-0.4,0-0.9-0.4-1.1-0.7l1.1-1.3
						c0.2,0.2,0.4,0.4,0.7,0.4s0.4,0.2,0.9,0.2c0,0,0.2,0,0.4,0c0.2,0,0.2,0,0.4,0c0,0,0.2,0,0.2-0.2V-64c0-0.2,0-0.4-0.2-0.4
						c-0.2,0-0.4-0.2-0.7-0.2c-0.2,0-0.4-0.2-0.9-0.2c-0.2,0-0.4-0.2-0.9-0.4c-0.2,0-0.4-0.2-0.7-0.7c-0.2-0.2-0.2-0.7-0.2-1.1
						s0-0.7,0.2-1.1c0-0.2,0.2-0.4,0.7-0.7c0.2-0.2,0.4-0.2,0.9-0.4c0.2,0,0.7,0,1.1,0c0.4,0,0.9,0,1.3,0.2c0.4,0,0.7,0.2,1.1,0.7
						L-167.8-67.2z"/>
				</g>
				<g>
					<g>
						<rect x="-300.8" y="-121.8" fill="#FFFFFF" width="196.8" height="126.4"/>
						<rect x="-300.8" y="-121.8" fill="#B0CDD7" width="196.8" height="46.1"/>
						<g>
							<path fill="#FFFFFF" d="M-275.9-114.2h7.1v12.3h13.8v-12.3h7.1v32.5h-7.1v-14h-13.8v14h-7.1V-114.2z"/>
							<path fill="#FFFFFF" d="M-240.7-114.2h22.1v6.7h-14.9v6h14v6.7h-14v6.7h15.8v6.7h-23V-114.2z"/>
							<path fill="#FFFFFF" d="M-211.7-114.2h7.1v26.1h13.4v6.7h-20.5V-114.2L-211.7-114.2z"/>
							<path fill="#FFFFFF" d="M-186.9-114.2h7.1v26.1h13.4v6.7h-20.5V-114.2L-186.9-114.2z"/>
							<path fill="#FFFFFF" d="M-164.2-97.9c0-2.7,0.4-4.9,1.3-7.1s2-4,3.6-5.4c1.6-1.3,3.3-2.5,5.6-3.3c2.2-0.9,4.5-1.3,7.1-1.3
								c2.5,0,4.9,0.4,7.1,1.3c2.2,0.9,4,2,5.6,3.3c1.6,1.3,2.9,3.3,3.6,5.4c0.9,2,1.3,4.5,1.3,7.1s-0.4,4.9-1.3,7.1
								c-0.9,2-2,4-3.6,5.4c-1.6,1.6-3.3,2.7-5.6,3.3c-2.2,0.9-4.5,1.3-7.1,1.3c-2.7,0-4.9-0.4-7.1-1.1c-2.2-0.9-4-2-5.6-3.3
								c-1.6-1.6-2.9-3.3-3.6-5.4C-163.7-92.8-164.2-95.3-164.2-97.9z M-156.8-97.9c0,1.6,0.2,2.9,0.7,4.2c0.4,1.3,1.1,2.5,2,3.3
								c0.9,0.9,2,1.6,3.1,2.2c1.1,0.7,2.7,0.9,4.2,0.9c1.6,0,2.9-0.2,4.2-0.9s2.2-1.3,3.1-2.2c0.9-0.9,1.6-2,2-3.3
								c0.4-1.3,0.7-2.7,0.7-4.2s-0.2-2.9-0.7-4.2c-0.4-1.3-1.1-2.5-2-3.3c-0.9-0.9-2-1.6-3.1-2.2c-1.1-0.2-2.5-0.7-4-0.7
								c-1.6,0-2.9,0.2-4.2,0.9c-1.3,0.4-2.2,1.3-3.1,2.2c-0.9,0.9-1.6,2-2,3.3C-156.6-100.8-156.8-99.5-156.8-97.9z"/>
						</g>
						<g>
							<path fill="#B0CDD7" d="M-232.8-72.3h2.5l1.6,4.7l0,0l1.6-4.7h2.5v7.4h-1.6v-5.6l0,0l-1.8,5.6h-1.3l-1.8-5.6l0,0v5.6h-1.6
								V-72.3L-232.8-72.3z"/>
							<path fill="#B0CDD7" d="M-221.3-67.8l-2.9-4.2h2l1.6,2.7l1.6-2.7h1.8l-2.9,4.2v3.1h-1.6L-221.3-67.8L-221.3-67.8z"/>
							<path fill="#B0CDD7" d="M-213.2-72.3h2.2l3.1,5.1l0,0v-5.1h1.6v7.4h-2l-3.1-5.1l0,0v5.1h-1.6v-7.4H-213.2z"/>
							<path fill="#B0CDD7" d="M-202.3-72.3h1.3l3.1,7.4h-1.8l-0.7-1.6h-2.9l-0.7,1.6h-1.8L-202.3-72.3z M-201.6-70.1l-0.9,2.2h1.8
								L-201.6-70.1z"/>
							<path fill="#B0CDD7" d="M-197-72.3h2.5l1.6,4.7l0,0l1.6-4.7h2.5v7.4h-1.6v-5.6l0,0l-1.8,5.6h-1.3l-1.8-5.6l0,0v5.6h-1.6
								V-72.3L-197-72.3z"/>
							<path fill="#B0CDD7" d="M-187.1-72.3h4.9v1.6h-3.3v1.3h3.1v1.6h-3.1v1.6h3.6v1.6h-5.1V-72.3L-187.1-72.3z"/>
							<path fill="#B0CDD7" d="M-177.6-72.3h1.6v7.4h-1.6V-72.3z"/>
							<path fill="#B0CDD7" d="M-170.9-70.3c0-0.2-0.2-0.2-0.4-0.4c-0.2,0-0.4,0-0.7,0h-0.2h-0.2c0,0-0.2,0-0.2,0.2v0.2
								c0,0.2,0,0.4,0.2,0.4s0.4,0.2,0.7,0.2s0.4,0.2,0.9,0.2c0.2,0,0.4,0.2,0.9,0.2c0.2,0,0.4,0.2,0.7,0.7c0.2,0.2,0.2,0.7,0.2,1.1
								c0,0.4,0,0.7-0.2,1.1c0,0.2-0.2,0.4-0.7,0.7c-0.2,0.2-0.4,0.2-0.9,0.4c-0.2,0-0.7,0-1.1,0s-0.9,0-1.3-0.2
								c-0.4,0-0.9-0.4-1.1-0.7l1.1-1.3c0.2,0.2,0.4,0.4,0.7,0.4s0.4,0.2,0.9,0.2c0,0,0.2,0,0.4,0c0.2,0,0.2,0,0.4,0
								c0,0,0.2,0,0.2-0.2v-0.2c0-0.2,0-0.4-0.2-0.4s-0.4-0.2-0.7-0.2s-0.4-0.2-0.9-0.2c-0.2,0-0.4-0.2-0.9-0.4
								c-0.2,0-0.4-0.2-0.7-0.7c-0.2-0.2-0.2-0.7-0.2-1.1s0-0.7,0.2-1.1c0-0.2,0.2-0.4,0.7-0.7c0.2-0.2,0.4-0.2,0.9-0.4
								c0.2,0,0.7,0,1.1,0c0.4,0,0.9,0,1.3,0.2c0.4,0,0.7,0.2,1.1,0.7L-170.9-70.3z"/>
						</g>
					</g>
				</g>
			</g>
		</g>
	</g>
	<g display="inline">
		<g opacity="0.3">
			<path d="M563.6-55.1c13.2,0,23.9,10.5,23.9,23.9V323c0,13.2-10.5,23.9-23.9,23.9H91.8c-13.2,0-23.9-10.5-23.9-23.9V-31.2
				c0-13.2,10.5-23.9,23.9-23.9H563.6z"/>
			<rect x="114.3" y="-16.2" width="426.3" height="323.7"/>
			<circle cx="90.3" cy="146.2" r="4.2"/>
			<circle cx="564.8" cy="146.2" r="11.4"/>
			<path opacity="0.1" enable-background="new    " d="M563.9-55.1H217.6l208.8,402h137.2c13.2,0,23.9-10.5,23.9-23.9V-31.5
				C587.8-44.6,577.3-55.1,563.9-55.1z"/>
		</g>
		<g>
			<g>
				<g enable-background="new    ">
					<g>
						<path fill="#FFFFFF" d="M561.6-57.1c13.2,0,23.9,10.5,23.9,23.9V321c0,13.2-10.5,23.9-23.9,23.9H89.8
							c-13.2,0-23.9-10.5-23.9-23.9V-33.2c0-13.2,10.5-23.9,23.9-23.9H561.6z"/>
					</g>
				</g>
				<rect x="112.3" y="-18.2" fill="#E2E2E2" width="426.3" height="323.7"/>
				<circle fill="#E8E8E8" cx="88.3" cy="144.2" r="4.2"/>
				<circle fill="#E8E8E8" cx="562.8" cy="144.2" r="11.4"/>
				<path opacity="0.1" fill="#FFFFFF" enable-background="new    " d="M561.9-57.1H215.6l208.8,402h137.2
					c13.2,0,23.9-10.5,23.9-23.9V-33.5C585.8-46.6,575.3-57.1,561.9-57.1z"/>
			</g>
		</g>
	</g>
	<g display="inline">
		<g opacity="0.3">
			<path d="M56,224.5c0.9,10.2-6.6,18.8-16.8,19.7l-107.1,9c-10.2,0.9-18.8-6.6-19.7-16.8L-111-41.7c-0.9-10.2,6.6-18.8,16.8-19.7
				l107.1-9c10.2-0.9,18.8,6.6,19.7,16.8L56,224.5z"/>
			<circle cx="-16.4" cy="225.4" r="11.4"/>
			
				<rect x="-93.6" y="-26.2" transform="matrix(-0.9965 8.330660e-02 -8.330660e-02 -0.9965 -48.9249 175.237)" width="131" height="225.5"/>
			<path d="M-16.7-44.4c0,2.1-1.5,3.9-3.6,4.2l-36.8,3c-2.1,0-3.9-1.5-4.2-3.6l0,0c0-2.1,1.5-3.9,3.6-4.2l36.8-3
				C-18.5-48-16.7-46.5-16.7-44.4L-16.7-44.4z"/>
			<path opacity="0.1" enable-background="new    " d="M12.6-70.4L-78.7-63L53.6,200L32.3-54C31.7-63.9,22.8-71.3,12.6-70.4z"/>
			<path fill="none" stroke="#000000" stroke-width="6" stroke-miterlimit="10" d="M56,224.5c0.9,10.2-6.6,18.8-16.8,19.7l-107.1,9
				c-10.2,0.9-18.8-6.6-19.7-16.8L-111-41.7c-0.9-10.2,6.6-18.8,16.8-19.7l107.1-9c10.2-0.9,18.8,6.6,19.7,16.8L56,224.5z"/>
		</g>
		<g>
			<g>
				<g>
					<g>
						<path fill="#FFFFFF" d="M54,222.5c0.9,10.2-6.6,18.8-16.8,19.7l-107.1,9c-10.2,0.9-18.8-6.6-19.7-16.8L-113-43.7
							c-0.9-10.2,6.6-18.8,16.8-19.7l107.1-9c10.2-0.9,18.8,6.6,19.7,16.8L54,222.5z"/>
					</g>
				</g>
				<circle fill="#E8E8E8" cx="-18.4" cy="223.4" r="11.4"/>
				
					<rect x="-95.6" y="-28.2" transform="matrix(-0.9965 8.330660e-02 -8.330660e-02 -0.9965 -53.0845 171.4105)" fill="#E2E2E2" width="131" height="225.5"/>
				<path fill="#E8E8E8" d="M-18.7-46.4c0,2.1-1.5,3.9-3.6,4.2l-36.8,3c-2.1,0-3.9-1.5-4.2-3.6l0,0c0-2.1,1.5-3.9,3.6-4.2l36.8-3
					C-20.5-50-18.7-48.5-18.7-46.4L-18.7-46.4z"/>
				<path opacity="0.1" fill="#FFFFFF" enable-background="new    " d="M10.6-72.4L-80.7-65L51.6,198L30.3-56
					C29.7-65.9,20.8-73.3,10.6-72.4z"/>
				<g>
					<g>
						<path fill="none" stroke="#EF4B22" stroke-width="6" stroke-miterlimit="10" d="M54,222.5c0.9,10.2-6.6,18.8-16.8,19.7
							l-107.1,9c-10.2,0.9-18.8-6.6-19.7-16.8L-113-43.7c-0.9-10.2,6.6-18.8,16.8-19.7l107.1-9c10.2-0.9,18.8,6.6,19.7,16.8
							L54,222.5z"/>
					</g>
				</g>
			</g>
		</g>
	</g>
</g>
<g id="Layer_2_1_">
	<g>
		<path fill="#333333" d="M-277.1-48.3v13.5c0,2.8-1.6,4.6-4.5,4.6c-0.6,0-1.5-0.1-1.5-0.1l0.2-1.8h1.2c1.5,0,2.1-0.8,2.1-2.2v-14
			l-2-0.5v-1.3l6.5-0.1v1.4L-277.1-48.3z"/>
		<path fill="#333333" d="M-261.7-40.2c0,4-2.4,6.7-5.9,6.7c-3.5,0-5.6-2.1-5.6-6.4c0-4,2.5-6.6,6-6.6
			C-263.7-46.4-261.7-44-261.7-40.2z M-270.8-40c0,2.8,0.9,4.6,3.3,4.6c2.4,0,3.3-1.6,3.3-4.7c0-2.6-0.8-4.5-3.2-4.5
			C-269.7-44.5-270.8-43-270.8-40z"/>
		<path fill="#333333" d="M-255.8-44.7c0.7-0.6,2.4-1.7,4.1-1.7c2.6,0,3.8,1.6,3.8,4.2v6.6l1.8,0.6v1.3h-5.6V-35l1.5-0.6V-42
			c0-1.6-0.5-2.5-2-2.5c-2,0-3.5,1.9-3.5,1.9v6.9l1.5,0.6v1.3h-5.9V-35l2-0.6V-50l-2-0.5v-1.3l4.4-0.1V-44.7z"/>
		<path fill="#333333" d="M-243.7-45.5c0,0,2.6-0.9,4.6-0.9c2.7,0,4.4,0.9,4.4,3.6v7.2l1.9,0.5v1.3l-3.6,0.1l-0.5-1.6
			c-0.8,0.8-2.2,1.9-3.9,1.9c-2.2,0-3.5-1.3-3.5-3.5c0-2.7,2.1-3.6,5.4-3.6h1.9v-1.9c0-1.4-0.8-2.1-2.2-2.1c-1.4,0-2.4,0.4-2.4,0.4
			l-0.3,1.8h-1.5L-243.7-45.5z M-238.8-39.1c-2.4,0-3.2,0.6-3.2,2c0,1.1,0.7,1.8,1.7,1.8c1.8,0,3.2-1.9,3.2-1.9v-1.9H-238.8z"/>
		<path fill="#333333" d="M-227.1-44.5c0.6-0.5,2.4-1.9,4.4-1.9c2.6,0,3.8,1.6,3.8,4.2v6.6l1.8,0.6v1.3h-5.6V-35l1.5-0.6V-42
			c0-1.6-0.6-2.5-2.1-2.5c-2,0-3.4,1.9-3.4,1.9v6.9l1.5,0.6v1.3h-5.9V-35l2-0.6v-8.7l-2-0.5v-1.3l3.9-0.1L-227.1-44.5z"/>
		<path fill="#333333" d="M-211.5-44.5c0.6-0.5,2.4-1.9,4.4-1.9c2.6,0,3.8,1.6,3.8,4.2v6.6l1.8,0.6v1.3h-5.6V-35l1.5-0.6V-42
			c0-1.6-0.6-2.5-2.1-2.5c-2,0-3.4,1.9-3.4,1.9v6.9l1.5,0.6v1.3h-5.9V-35l2-0.6v-8.7l-2-0.5v-1.3l3.9-0.1L-211.5-44.5z"/>
		<path fill="#333333" d="M-199.1-45.5c0,0,2.6-0.9,4.6-0.9c2.7,0,4.4,0.9,4.4,3.6v7.2l1.9,0.5v1.3l-3.6,0.1l-0.5-1.6
			c-0.8,0.8-2.2,1.9-3.9,1.9c-2.2,0-3.5-1.3-3.5-3.5c0-2.7,2.1-3.6,5.4-3.6h1.9v-1.9c0-1.4-0.8-2.1-2.2-2.1c-1.4,0-2.4,0.4-2.4,0.4
			l-0.3,1.8h-1.5L-199.1-45.5z M-194.2-39.1c-2.4,0-3.2,0.6-3.2,2c0,1.1,0.7,1.8,1.7,1.8c1.8,0,3.2-1.9,3.2-1.9v-1.9H-194.2z"/>
		<path fill="#333333" d="M-178.2-36.1c0,0,1.1,0.6,2.6,0.6c1.7,0,3.6-0.8,3.6-2.5c0-3.6-8.5-2.1-8.5-7.7c0-3.3,2.6-4.7,5.6-4.7
			c2.2,0,5,0.9,5,0.9l-0.1,4h-1.5l-0.8-2.5c0,0-1.2-0.4-2.5-0.4c-2.1,0-3.1,1.1-3.1,2.3c0,3.6,8.5,2.2,8.5,7.5
			c0,3.5-2.8,5.2-6.1,5.2c-2.5,0-4.8-0.9-4.8-0.9v-4.1h1.9L-178.2-36.1z"/>
		<path fill="#333333" d="M-159.5-44.3h-3.4v7.6c0,1.1,0.5,1.4,1.2,1.4c0.6,0,1.2-0.3,1.8-0.6l0.6,1.2c-1.1,0.8-2.1,1.2-3.3,1.2
			c-1.4,0-2.7-0.8-2.7-3.4v-7.4h-2.4v-1.5l2.4-0.2v-3l2.4-0.5v3.4h3.4V-44.3z"/>
		<path fill="#333333" d="M-155.4-39.6c0,2.6,1.4,4.2,3.4,4.2c2.4,0,4-1.3,4-1.3l0.8,1.2c0,0-2.2,2-5,2c-3.8,0-5.6-2.5-5.6-6.4
			c0-3.8,2.4-6.6,5.8-6.6c3.4,0,4.9,2,4.9,5.5c0,0.6-0.1,1.2-0.1,1.3H-155.4z M-149.7-41.4c0-1.8-0.7-3.2-2.6-3.2
			c-1.9,0-2.9,1.5-3.1,3.2H-149.7z"/>
		<path fill="#333333" d="M-139.1-33.7h-6.1V-35l2-0.6v-8.7l-2-0.5v-1.3l4.4-0.1v10.6l1.8,0.6V-33.7z M-142.1-51.7
			c0.9,0,1.5,0.5,1.5,1.6c0,1.1-0.8,1.6-1.5,1.6c-0.9,0-1.5-0.6-1.5-1.6C-143.6-51.1-142.9-51.7-142.1-51.7z"/>
		<path fill="#333333" d="M-133.2-44.5c0.6-0.5,2.4-1.9,4.4-1.9c2.6,0,3.8,1.6,3.8,4.2v6.6l1.8,0.6v1.3h-5.6V-35l1.5-0.6V-42
			c0-1.6-0.6-2.5-2.1-2.5c-2,0-3.4,1.9-3.4,1.9v6.9l1.5,0.6v1.3h-5.9V-35l2-0.6v-8.7l-2-0.5v-1.3l3.9-0.1L-133.2-44.5z"/>
	</g>
	<g>
		<path fill="#333333" d="M-276.7-13.8c-0.2,0.3-0.4,0.6-0.7,0.8c-0.3,0.3-0.6,0.5-1,0.7c-0.4,0.2-0.8,0.3-1.2,0.5
			c-0.4,0.1-0.9,0.2-1.4,0.2c-0.9,0-1.7-0.2-2.4-0.5c-0.7-0.3-1.4-0.7-1.9-1.3c-0.5-0.5-1-1.2-1.3-1.9c-0.3-0.7-0.5-1.6-0.5-2.5
			c0-0.9,0.2-1.7,0.5-2.5c0.3-0.7,0.7-1.4,1.3-1.9c0.5-0.5,1.2-1,1.9-1.3c0.7-0.3,1.5-0.5,2.4-0.5c0.7,0,1.5,0.1,2.2,0.4
			c0.7,0.3,1.3,0.8,1.9,1.4l-1,0.8c-0.1-0.2-0.3-0.4-0.5-0.6c-0.2-0.2-0.4-0.4-0.7-0.5c-0.3-0.1-0.6-0.3-0.9-0.3
			c-0.3-0.1-0.6-0.1-0.9-0.1c-0.7,0-1.4,0.1-2,0.4c-0.6,0.3-1.1,0.6-1.5,1.1c-0.4,0.5-0.7,1-0.9,1.6c-0.2,0.6-0.3,1.3-0.3,1.9
			c0,0.7,0.1,1.3,0.3,1.9c0.2,0.6,0.5,1.1,0.9,1.6c0.4,0.5,0.9,0.8,1.5,1.1c0.6,0.3,1.3,0.4,2,0.4c0.3,0,0.6,0,0.9-0.1
			c0.3-0.1,0.6-0.1,0.9-0.3c0.3-0.1,0.6-0.3,0.8-0.5c0.3-0.2,0.5-0.5,0.7-0.9L-276.7-13.8z"/>
		<path fill="#333333" d="M-275.1-24.5h1.1v6h0c0.1-0.2,0.3-0.4,0.5-0.6c0.2-0.2,0.4-0.3,0.6-0.5c0.2-0.1,0.5-0.2,0.7-0.3
			c0.3-0.1,0.5-0.1,0.8-0.1c1,0,1.7,0.3,2.2,0.8c0.5,0.5,0.7,1.3,0.7,2.2v4.9h-1.1v-4.3c0-0.9-0.1-1.5-0.4-2
			c-0.3-0.5-0.8-0.7-1.7-0.7c-0.1,0-0.2,0-0.5,0.1c-0.3,0-0.5,0.2-0.8,0.4c-0.3,0.2-0.5,0.5-0.8,0.9c-0.2,0.4-0.3,0.9-0.3,1.7v4
			h-1.1V-24.5z"/>
		<path fill="#333333" d="M-264.3-22.7c0,0.2-0.1,0.4-0.2,0.6c-0.2,0.1-0.3,0.2-0.5,0.2s-0.4-0.1-0.5-0.2c-0.2-0.1-0.2-0.3-0.2-0.6
			c0-0.2,0.1-0.4,0.2-0.6c0.2-0.1,0.3-0.2,0.5-0.2s0.4,0.1,0.5,0.2C-264.4-23.1-264.3-22.9-264.3-22.7z M-264.6-12h-1.1v-7.7h1.1
			V-12z"/>
		<path fill="#333333" d="M-261.2-15.5c0,0.4,0.1,0.7,0.3,1.1c0.2,0.3,0.4,0.6,0.6,0.9c0.3,0.2,0.5,0.4,0.9,0.6
			c0.3,0.1,0.7,0.2,1.1,0.2c0.6,0,1.1-0.1,1.5-0.4c0.4-0.3,0.7-0.6,1-0.9l0.8,0.7c-0.5,0.6-1,1-1.5,1.3c-0.6,0.3-1.2,0.4-1.8,0.4
			c-0.6,0-1.1-0.1-1.6-0.3s-0.9-0.5-1.3-0.9s-0.6-0.8-0.8-1.3c-0.2-0.5-0.3-1-0.3-1.6c0-0.6,0.1-1.1,0.3-1.6
			c0.2-0.5,0.5-0.9,0.8-1.3s0.8-0.6,1.2-0.9c0.5-0.2,1-0.3,1.5-0.3c0.6,0,1.1,0.1,1.6,0.3s0.8,0.5,1.2,0.8c0.3,0.3,0.6,0.8,0.7,1.2
			c0.2,0.5,0.2,1,0.2,1.5v0.5H-261.2z M-255.9-16.4c0-0.7-0.2-1.3-0.7-1.8c-0.4-0.5-1.1-0.7-1.8-0.7c-0.4,0-0.7,0.1-1,0.2
			c-0.3,0.1-0.6,0.3-0.9,0.6c-0.2,0.2-0.4,0.5-0.6,0.8c-0.1,0.3-0.2,0.6-0.2,0.9H-255.9z"/>
		<path fill="#333333" d="M-249.2-18.7h-1.8v6.7h-1.1v-6.7h-1.6v-1h1.6v-2.1c0-1,0.2-1.8,0.7-2.2c0.5-0.4,1.1-0.7,1.9-0.7
			c0.2,0,0.3,0,0.5,0c0.2,0,0.3,0,0.5,0.1l-0.2,1c-0.1,0-0.3-0.1-0.4-0.1c-0.1,0-0.3,0-0.4,0c-0.3,0-0.5,0-0.7,0.1
			c-0.2,0.1-0.3,0.2-0.4,0.4c-0.1,0.2-0.2,0.4-0.2,0.6c0,0.2,0,0.5,0,0.8v2h1.8V-18.7z"/>
		<path fill="#333333" d="M-241.7-13.1h6.3v1.1h-7.4v-11.7h7.2v1.1h-6.1v4h5.7v1.1h-5.7V-13.1z"/>
		<path fill="#333333" d="M-231.5-16.1l-2.8-3.6h1.5l2.1,2.9l2-2.9h1.4l-2.7,3.6l3.2,4.1h-1.5l-2.6-3.4l-2.5,3.4h-1.4L-231.5-16.1z"
			/>
		<path fill="#333333" d="M-224.8-15.5c0,0.4,0.1,0.7,0.3,1.1c0.2,0.3,0.4,0.6,0.6,0.9c0.3,0.2,0.5,0.4,0.9,0.6
			c0.3,0.1,0.7,0.2,1.1,0.2c0.6,0,1.1-0.1,1.5-0.4c0.4-0.3,0.7-0.6,1-0.9l0.8,0.7c-0.5,0.6-1,1-1.5,1.3c-0.6,0.3-1.2,0.4-1.8,0.4
			c-0.6,0-1.1-0.1-1.6-0.3s-0.9-0.5-1.3-0.9s-0.6-0.8-0.8-1.3c-0.2-0.5-0.3-1-0.3-1.6c0-0.6,0.1-1.1,0.3-1.6
			c0.2-0.5,0.5-0.9,0.8-1.3c0.4-0.4,0.8-0.6,1.2-0.9c0.5-0.2,1-0.3,1.5-0.3c0.6,0,1.1,0.1,1.6,0.3s0.8,0.5,1.2,0.8
			c0.3,0.3,0.6,0.8,0.7,1.2c0.2,0.5,0.2,1,0.2,1.5v0.5H-224.8z M-219.5-16.4c0-0.7-0.2-1.3-0.7-1.8c-0.4-0.5-1.1-0.7-1.8-0.7
			c-0.4,0-0.7,0.1-1,0.2c-0.3,0.1-0.6,0.3-0.9,0.6c-0.2,0.2-0.4,0.5-0.6,0.8c-0.1,0.3-0.2,0.6-0.2,0.9H-219.5z"/>
		<path fill="#333333" d="M-210.7-17.9c-0.2-0.3-0.4-0.5-0.8-0.7c-0.3-0.2-0.7-0.3-1.1-0.3c-0.5,0-0.9,0.1-1.2,0.2
			c-0.4,0.2-0.7,0.4-0.9,0.6c-0.3,0.3-0.4,0.6-0.6,1c-0.1,0.4-0.2,0.8-0.2,1.2s0.1,0.8,0.2,1.2c0.1,0.4,0.3,0.7,0.6,1
			c0.3,0.3,0.6,0.5,0.9,0.6c0.4,0.2,0.8,0.2,1.2,0.2c0.4,0,0.8-0.1,1.1-0.3c0.3-0.2,0.6-0.4,0.8-0.7l0.9,0.7c-0.4,0.5-0.8,0.8-1.3,1
			c-0.5,0.2-1,0.3-1.5,0.3c-0.6,0-1.2-0.1-1.7-0.3c-0.5-0.2-0.9-0.5-1.3-0.9c-0.4-0.4-0.6-0.8-0.8-1.3c-0.2-0.5-0.3-1-0.3-1.6
			c0-0.6,0.1-1.1,0.3-1.6c0.2-0.5,0.5-0.9,0.8-1.3c0.4-0.4,0.8-0.6,1.3-0.9c0.5-0.2,1.1-0.3,1.7-0.3c0.5,0,1,0.1,1.5,0.3
			c0.5,0.2,0.9,0.5,1.3,1L-210.7-17.9z"/>
		<path fill="#333333" d="M-202.8-12c0-0.2,0-0.4,0-0.6c0-0.2,0-0.4,0-0.6h0c-0.1,0.2-0.3,0.4-0.5,0.6c-0.2,0.2-0.4,0.3-0.6,0.5
			c-0.2,0.1-0.5,0.2-0.7,0.3c-0.3,0.1-0.5,0.1-0.8,0.1c-1,0-1.7-0.3-2.2-0.8c-0.5-0.5-0.7-1.3-0.7-2.2v-4.9h1.1v4.3
			c0,0.4,0,0.8,0.1,1.1c0.1,0.3,0.2,0.6,0.3,0.8c0.2,0.2,0.4,0.4,0.6,0.5c0.3,0.1,0.6,0.2,1,0.2c0.1,0,0.2,0,0.5-0.1
			c0.3,0,0.5-0.2,0.8-0.4c0.3-0.2,0.5-0.5,0.8-0.9c0.2-0.4,0.3-0.9,0.3-1.7v-4h1.1v6c0,0.2,0,0.5,0,0.8c0,0.3,0,0.6,0.1,0.9H-202.8z
			"/>
		<path fill="#333333" d="M-195.2-18.7h-2.2v4.6c0,0.3,0,0.5,0.1,0.7c0.1,0.2,0.1,0.3,0.2,0.4s0.2,0.2,0.4,0.2
			c0.1,0,0.3,0.1,0.5,0.1c0.2,0,0.4,0,0.6-0.1c0.2-0.1,0.4-0.1,0.5-0.2l0,1c-0.4,0.2-0.9,0.3-1.5,0.3c-0.2,0-0.4,0-0.7-0.1
			c-0.2-0.1-0.4-0.2-0.6-0.3c-0.2-0.2-0.3-0.4-0.5-0.6c-0.1-0.3-0.2-0.6-0.2-1v-4.9h-1.6v-1h1.6v-2.2h1.1v2.2h2.2V-18.7z"/>
		<path fill="#333333" d="M-192.2-22.7c0,0.2-0.1,0.4-0.2,0.6c-0.2,0.1-0.3,0.2-0.5,0.2s-0.4-0.1-0.5-0.2c-0.2-0.1-0.2-0.3-0.2-0.6
			c0-0.2,0.1-0.4,0.2-0.6c0.2-0.1,0.3-0.2,0.5-0.2s0.4,0.1,0.5,0.2C-192.3-23.1-192.2-22.9-192.2-22.7z M-192.4-12h-1.1v-7.7h1.1
			V-12z"/>
		<path fill="#333333" d="M-186.4-12h-1.2l-3.1-7.7h1.3l2.5,6.5h0l2.5-6.5h1.2L-186.4-12z"/>
		<path fill="#333333" d="M-181.1-15.5c0,0.4,0.1,0.7,0.3,1.1c0.2,0.3,0.4,0.6,0.6,0.9c0.3,0.2,0.5,0.4,0.9,0.6
			c0.3,0.1,0.7,0.2,1.1,0.2c0.6,0,1.1-0.1,1.5-0.4c0.4-0.3,0.7-0.6,1-0.9l0.8,0.7c-0.5,0.6-1,1-1.5,1.3c-0.6,0.3-1.2,0.4-1.8,0.4
			c-0.6,0-1.1-0.1-1.6-0.3s-0.9-0.5-1.3-0.9s-0.6-0.8-0.8-1.3c-0.2-0.5-0.3-1-0.3-1.6c0-0.6,0.1-1.1,0.3-1.6
			c0.2-0.5,0.5-0.9,0.8-1.3s0.8-0.6,1.2-0.9c0.5-0.2,1-0.3,1.5-0.3c0.6,0,1.1,0.1,1.6,0.3s0.8,0.5,1.2,0.8c0.3,0.3,0.6,0.8,0.7,1.2
			c0.2,0.5,0.2,1,0.2,1.5v0.5H-181.1z M-175.8-16.4c0-0.7-0.2-1.3-0.7-1.8c-0.4-0.5-1.1-0.7-1.8-0.7c-0.4,0-0.7,0.1-1,0.2
			c-0.3,0.1-0.6,0.3-0.9,0.6c-0.2,0.2-0.4,0.5-0.6,0.8c-0.1,0.3-0.2,0.6-0.2,0.9H-175.8z"/>
		<path fill="#333333" d="M-156.3-17.8c0,0.9-0.2,1.7-0.5,2.5c-0.3,0.7-0.7,1.4-1.3,1.9c-0.5,0.5-1.2,1-1.9,1.3
			c-0.7,0.3-1.5,0.5-2.4,0.5s-1.7-0.2-2.4-0.5c-0.7-0.3-1.4-0.7-1.9-1.3c-0.5-0.5-1-1.2-1.3-1.9c-0.3-0.7-0.5-1.6-0.5-2.5
			c0-0.9,0.2-1.7,0.5-2.5c0.3-0.7,0.7-1.4,1.3-1.9c0.5-0.5,1.2-1,1.9-1.3c0.7-0.3,1.5-0.5,2.4-0.5s1.7,0.2,2.4,0.5
			c0.7,0.3,1.4,0.7,1.9,1.3c0.5,0.5,1,1.2,1.3,1.9C-156.4-19.5-156.3-18.7-156.3-17.8z M-157.6-17.8c0-0.7-0.1-1.3-0.3-1.9
			c-0.2-0.6-0.5-1.1-0.9-1.6c-0.4-0.5-0.9-0.8-1.5-1.1c-0.6-0.3-1.3-0.4-2-0.4c-0.7,0-1.4,0.1-2,0.4c-0.6,0.3-1.1,0.6-1.5,1.1
			c-0.4,0.5-0.7,1-0.9,1.6c-0.2,0.6-0.3,1.3-0.3,1.9c0,0.7,0.1,1.3,0.3,1.9c0.2,0.6,0.5,1.1,0.9,1.6c0.4,0.5,0.9,0.8,1.5,1.1
			c0.6,0.3,1.3,0.4,2,0.4c0.7,0,1.4-0.1,2-0.4c0.6-0.3,1.1-0.6,1.5-1.1c0.4-0.5,0.7-1,0.9-1.6C-157.7-16.5-157.6-17.2-157.6-17.8z"
			/>
		<path fill="#333333" d="M-150.7-18.7h-1.8v6.7h-1.1v-6.7h-1.6v-1h1.6v-2.1c0-1,0.2-1.8,0.7-2.2c0.5-0.4,1.1-0.7,1.9-0.7
			c0.2,0,0.3,0,0.5,0c0.2,0,0.3,0,0.5,0.1l-0.2,1c-0.1,0-0.3-0.1-0.4-0.1c-0.1,0-0.3,0-0.4,0c-0.3,0-0.5,0-0.7,0.1
			c-0.2,0.1-0.3,0.2-0.4,0.4c-0.1,0.2-0.2,0.4-0.2,0.6c0,0.2,0,0.5,0,0.8v2h1.8V-18.7z"/>
		<path fill="#333333" d="M-146.1-18.7h-1.8v6.7h-1.1v-6.7h-1.6v-1h1.6v-2.1c0-1,0.2-1.8,0.7-2.2c0.5-0.4,1.1-0.7,1.9-0.7
			c0.2,0,0.3,0,0.5,0c0.2,0,0.3,0,0.5,0.1l-0.2,1c-0.1,0-0.3-0.1-0.4-0.1c-0.1,0-0.3,0-0.4,0c-0.3,0-0.5,0-0.7,0.1
			c-0.2,0.1-0.3,0.2-0.4,0.4c-0.1,0.2-0.2,0.4-0.2,0.6c0,0.2,0,0.5,0,0.8v2h1.8V-18.7z"/>
		<path fill="#333333" d="M-143.3-22.7c0,0.2-0.1,0.4-0.2,0.6c-0.2,0.1-0.3,0.2-0.5,0.2c-0.2,0-0.4-0.1-0.5-0.2
			c-0.2-0.1-0.2-0.3-0.2-0.6c0-0.2,0.1-0.4,0.2-0.6c0.2-0.1,0.3-0.2,0.5-0.2c0.2,0,0.4,0.1,0.5,0.2
			C-143.3-23.1-143.3-22.9-143.3-22.7z M-143.5-12h-1.1v-7.7h1.1V-12z"/>
		<path fill="#333333" d="M-135.2-17.9c-0.2-0.3-0.4-0.5-0.8-0.7c-0.3-0.2-0.7-0.3-1.1-0.3c-0.5,0-0.9,0.1-1.2,0.2
			c-0.4,0.2-0.7,0.4-0.9,0.6c-0.3,0.3-0.4,0.6-0.6,1c-0.1,0.4-0.2,0.8-0.2,1.2s0.1,0.8,0.2,1.2s0.3,0.7,0.6,1
			c0.3,0.3,0.6,0.5,0.9,0.6c0.4,0.2,0.8,0.2,1.2,0.2c0.4,0,0.8-0.1,1.1-0.3c0.3-0.2,0.6-0.4,0.8-0.7l0.9,0.7c-0.4,0.5-0.8,0.8-1.3,1
			c-0.5,0.2-1,0.3-1.5,0.3c-0.6,0-1.2-0.1-1.7-0.3c-0.5-0.2-0.9-0.5-1.3-0.9c-0.4-0.4-0.6-0.8-0.8-1.3c-0.2-0.5-0.3-1-0.3-1.6
			c0-0.6,0.1-1.1,0.3-1.6c0.2-0.5,0.5-0.9,0.8-1.3c0.4-0.4,0.8-0.6,1.3-0.9c0.5-0.2,1.1-0.3,1.7-0.3c0.5,0,1,0.1,1.5,0.3
			c0.5,0.2,0.9,0.5,1.3,1L-135.2-17.9z"/>
		<path fill="#333333" d="M-132.2-15.5c0,0.4,0.1,0.7,0.3,1.1c0.2,0.3,0.4,0.6,0.6,0.9c0.3,0.2,0.5,0.4,0.9,0.6
			c0.3,0.1,0.7,0.2,1.1,0.2c0.6,0,1.1-0.1,1.5-0.4c0.4-0.3,0.7-0.6,1-0.9l0.8,0.7c-0.5,0.6-1,1-1.5,1.3c-0.6,0.3-1.2,0.4-1.8,0.4
			c-0.6,0-1.1-0.1-1.6-0.3s-0.9-0.5-1.3-0.9s-0.6-0.8-0.8-1.3c-0.2-0.5-0.3-1-0.3-1.6c0-0.6,0.1-1.1,0.3-1.6
			c0.2-0.5,0.5-0.9,0.8-1.3s0.8-0.6,1.2-0.9c0.5-0.2,1-0.3,1.5-0.3c0.6,0,1.1,0.1,1.6,0.3s0.8,0.5,1.2,0.8c0.3,0.3,0.6,0.8,0.7,1.2
			c0.2,0.5,0.2,1,0.2,1.5v0.5H-132.2z M-126.9-16.4c0-0.7-0.2-1.3-0.7-1.8c-0.4-0.5-1.1-0.7-1.8-0.7c-0.4,0-0.7,0.1-1,0.2
			c-0.3,0.1-0.6,0.3-0.9,0.6c-0.2,0.2-0.4,0.5-0.6,0.8c-0.1,0.3-0.2,0.6-0.2,0.9H-126.9z"/>
		<path fill="#333333" d="M-123.6-17.3c0-0.3,0-0.7,0-1c0-0.4,0-0.8,0-1.4h1.1v1.4h0c0.1-0.2,0.2-0.4,0.3-0.6
			c0.1-0.2,0.3-0.4,0.5-0.5c0.2-0.2,0.4-0.3,0.7-0.4s0.6-0.1,0.9-0.1c0.3,0,0.6,0,0.8,0.1l-0.2,1.1c-0.1-0.1-0.4-0.1-0.6-0.1
			c-0.4,0-0.8,0.1-1.1,0.2c-0.3,0.2-0.5,0.4-0.7,0.6c-0.2,0.2-0.3,0.5-0.4,0.8c-0.1,0.3-0.1,0.6-0.1,0.8v4.4h-1.1V-17.3z"/>
	</g>
</g>
<g id="Layer_3">
</g>
<g id="Layer_4">
</g>
<g id="Layer_5">
</g>
<g id="Layer_6">
</g>
<g id="Layer_7">
</g>
</svg>
