<?xml version="1.0" encoding="utf-8"?>
<!-- Generator: Adobe Illustrator 17.1.0, SVG Export Plug-In . SVG Version: 6.00 Build 0)  -->
<!DOCTYPE svg PUBLIC "-//W3C//DTD SVG 1.1//EN" "http://www.w3.org/Graphics/SVG/1.1/DTD/svg11.dtd">
<svg version="1.1" id="old_logo" xmlns="http://www.w3.org/2000/svg" xmlns:xlink="http://www.w3.org/1999/xlink" x="0px" y="0px"
	 viewBox="0 0 2964 1144" enable-background="new 0 0 2964 1144" xml:space="preserve">
<g>
	<path fill="#F94803" d="M1195.8,672.8c7.2,0,13.1,5.9,13.1,13.1c-0.4,86-8,153-167,153c-159,0-166.6-67-167-153
		c0-7.2,5.8-13.1,13.1-13.1H1195.8z"/>
	<path fill="#B0CDD7" d="M1245.8,129.8c-6.3,27.1-33.3,44.1-60.5,37.8l-207.9-47.8c-27.1-6.3-44.1-33.3-37.8-60.5
		c6.3-27.1,33.3-44.1,60.5-37.8L1208,69.3C1235.1,75.6,1252,102.7,1245.8,129.8z"/>
	<path fill="#B0CDD7" d="M1111.7,627c-4.1,1.5-7-1-6.2-4.5c1.2-4.7,8.3-20.5-0.8-32.5c-8.7-11.3-24.7-19-41.7-23.5l-205.5-47.3
		c-27.1-6.3-44.1-33.3-37.8-60.5c6.3-27.1,33.3-44.1,60.5-37.8l260.6,59.9c27.1,6.3,43.7,33.4,37.8,60.5
		C1170,581,1139.3,616.7,1111.7,627z"/>
	<path fill="#B0CDD7" d="M1329.2,291.4c-6.3,27.1-33.3,44.1-60.5,37.8L831.6,228.5c-27.1-6.3-44.1-33.3-37.8-60.5
		c6.3-27.1,33.3-44.1,60.5-37.8l437.1,100.6C1318.5,237.2,1335.4,264.2,1329.2,291.4z"/>
	<path fill="#B0CDD7" d="M1287.2,424.1c-6.3,27.1-33.3,44.1-60.5,37.8l-415.6-95.7c-27.1-6.3-44.1-33.3-37.8-60.5
		c6.3-27.1,33.3-44.1,60.5-37.8l415.6,95.7C1276.6,369.9,1293.5,397,1287.2,424.1z"/>
	<path fill="#636464" d="M819.8,949.4c55.9,0,83.9,42.7,83.9,85.4s-28.1,85.2-83.9,85.2h-59.3c-1.1,0-2-0.9-2-2V951.4
		c0-1.1,0.9-2,2-2H819.8z M819.8,1095.4c39.5,0,59.5-30.3,59.5-60.5s-20-60.8-59.5-60.8h-34.6c-1.1,0-2,0.9-2,2v117.3
		c0,1.1,0.9,2,2,2H819.8z"/>
	<path fill="#636464" d="M1080,1095.4h75.4c1.1,0,2,0.9,2,2v20.7c0,1.1-0.9,2-2,2h-100.2c-1.1,0-2-0.9-2-2V951.4c0-1.1,0.9-2,2-2
		h100c1.1,0,2,0.9,2,2v20.7c0,1.1-0.9,2-2,2H1080c-1.1,0-2,0.9-2,2v44.1c0,1.1,0.9,2,2,2h73.4c1.1,0,2,0.9,2,2v20.9c0,1.1-0.9,2-2,2
		H1080c-1.1,0-2,0.9-2,2v44.4C1078,1094.5,1078.9,1095.4,1080,1095.4z"/>
	<path fill="#636464" d="M1408,993.3c-0.9,0-1.7-0.5-2-1.4c-4.1-14.3-20.1-20.5-34.5-20.3c-11.5,0.2-24.2,4.1-31,12.9
		c-3.4,4.4-4.6,10-4.1,15.9c1.2,17.6,20.5,19.8,38.8,21.5c23.4,2.9,52.5,9,59,36.4c0.7,3.7,1.2,7.8,1.2,11.2c0,32.9-32.7,52-63.4,52
		c-26.4,0-58.3-15.6-61.5-46.1l-0.1-2.6c-0.1-1.1,0.8-2.1,1.9-2.1l21-0.4c1.1,0,1.9,0.8,2,1.8l0.1,1.8v-1
		c1.7,15.9,21,24.2,36.8,24.2c18.3,0,38.3-10.2,38.3-27.8c0-1.7-0.2-3.7-0.7-5.9c-2.9-12.9-20.5-15.1-37.6-16.8
		c-26.6-2.7-57.8-8.5-60.5-44.2v0.2c-1-11.5,2-22.9,9.3-32.5c11.5-14.9,32-22.7,51.7-22.7c25.7,0,52.3,13,57.7,42.6
		c0.2,1.2-0.7,2.3-1.9,2.3L1408,993.3z"/>
	<path fill="#636464" d="M1614.3,951.4V1118c0,1.1-0.9,2-2,2h-20.7c-1.1,0-2-0.9-2-2V951.4c0-1.1,0.9-2,2-2h20.7
		C1613.4,949.4,1614.3,950.3,1614.3,951.4z"/>
	<path fill="#636464" d="M1907.3,1010.4c-0.9,0-1.7-0.6-1.9-1.5c-7.4-26.5-33.2-36.1-54.5-36.1c-33.4,0-59.3,26.1-59.3,62
		c0,36.1,25.9,62.7,59.3,62.7c20.2,0,41.7-9,52.4-31.8c0.6-1.3-0.3-2.8-1.8-2.8h-58.2c-1.1,0-2-0.9-2-2v-20.7c0-1.1,0.9-2,2-2h87.9
		c1.2,0,2.1,1,2,2.1c-1.2,13.2-2.4,22-4.5,27.4v-0.2c-11.7,32.7-46.8,53.7-77.8,53.7c-47.8,0-83.9-36.1-83.9-86.4
		c0-50.5,36.8-86.6,83.9-86.6c32.1,0,70.8,16.2,80.7,59.8c0.3,1.2-0.7,2.4-1.9,2.4H1907.3z"/>
	<path fill="#636464" d="M2087.9,1118V951c0-1.1,0.9-2,2-2l16,0.2c0.6,0,1.2,0.3,1.6,0.9l79,114.3c1.1,1.6,3.6,0.8,3.6-1.1v-112
		c0-1.1,0.9-2,2-2h20.5c1.1,0,2,0.9,2,2V1118c0,1.1-0.9,2-2,2h-16.5c-0.6,0-1.3-0.3-1.6-0.9l-78.3-113.3c-1.1-1.6-3.6-0.8-3.6,1.1
		v111c0,1.1-0.9,2-2,2h-20.7C2088.8,1120,2087.9,1119.1,2087.9,1118z"/>
	<path fill="#636464" d="M1668.2,110.9c226.4,0,340.1,169.6,340.1,339.3s-113.7,338.3-340.1,338.3h-241c-3.9,0-7.1-3.2-7.1-7.1V118
		c0-3.9,3.2-7.1,7.1-7.1H1668.2z M1668.2,690.6c160.1,0,241.2-120.2,241.2-240.4s-81.1-241.4-241.2-241.4h-141.2
		c-3.9,0-7.1,3.2-7.1,7.1v467.6c0,3.9,3.2,7.1,7.1,7.1H1668.2z"/>
	<path fill="#636464" d="M2751.4,588.8H2513c-2.9,0-5.6,1.7-6.7,4.4c-25.7,59.7-58,136-79.3,190.6c-1.1,2.8-3.8,4.6-6.8,4.6h-91.9
		c-5.2,0-8.7-5.2-6.8-10l271.9-672.7c1.1-2.8,3.8-4.6,6.8-4.6h63.3c3,0,5.7,1.8,6.8,4.6L2942,778.5c1.9,4.8-1.6,10-6.8,10h-91
		c-3,0-5.6-1.8-6.7-4.5l-79.3-190.7C2757,590.6,2754.4,588.8,2751.4,588.8z M2556.2,496.7h151.2c5,0,8.6-5,6.9-9.8l-74.7-210.5
		c-2.3-6.5-11.4-6.5-13.8-0.1l-76.5,210.5C2547.6,491.7,2551.1,496.7,2556.2,496.7z"/>
	<path fill="#636464" d="M2209.8,788.5h-84.8c-4.2,0-7.5-3.4-7.5-7.5V118.5c0-4.2,3.4-7.5,7.5-7.5h84.8c4.2,0,7.5,3.4,7.5,7.5V781
		C2217.4,785.1,2214,788.5,2209.8,788.5z"/>
	<path fill="#636464" d="M130.5,207.9C190.8,146.8,275.8,107,369.7,107c154.8,0,277.4,92.9,319.6,240.4c1.4,4.8-2.2,9.7-7.2,9.7
		h-83.7c-3.1,0-5.9-1.9-7-4.8C553.8,253.7,469.9,204,369.7,204c-66.2,0-126.5,28.1-170,72.7c-43.5,44.6-71.2,104.7-71.2,174.5
		c0,67.9,27.7,128,71.2,172.6c43.5,44.6,103.8,72.7,170,72.7c103.1,0,190.9-57.2,227.6-157c1.1-3,3.9-4.9,7.1-4.9h82.7
		c5,0,8.6,4.8,7.3,9.6C652.1,693,527.5,793.4,369.7,793.4c-93.9,0-178.9-38.8-239.2-100.8c-59.3-62-98.9-147.3-98.9-241.4
		C31.6,355.2,71.2,269.9,130.5,207.9z"/>
</g>
</svg>
