<?xml version="1.0" encoding="utf-8"?>
<!-- Generator: Adobe Illustrator 17.1.0, SVG Export Plug-In . SVG Version: 6.00 Build 0)  -->
<!DOCTYPE svg PUBLIC "-//W3C//DTD SVG 1.1//EN" "http://www.w3.org/Graphics/SVG/1.1/DTD/svg11.dtd">
<svg version="1.1" xmlns="http://www.w3.org/2000/svg" xmlns:xlink="http://www.w3.org/1999/xlink" x="0px" y="0px"
	 viewBox="0 0 669.7 300" enable-background="new 0 0 669.7 300" xml:space="preserve">
<g id="Layer_3">
</g>
<g id="Layer_1">
</g>
<g id="Layer_2">
	<g>
		<g opacity="0.3">
			<path d="M3,291.8h652.5c4.4,0,8-3.6,8-8V16.2c0-4.4-3.6-8-8-8H3V291.8z"/>
			<line fill="none" stroke="#000000" stroke-width="0.5" stroke-miterlimit="10" x1="663.5" y1="37" x2="3" y2="37"/>
			<line fill="none" stroke="#000000" stroke-width="0.5" stroke-miterlimit="10" x1="663.5" y1="22.9" x2="3" y2="22.9"/>
			<line fill="none" stroke="#000000" stroke-width="0.5" stroke-miterlimit="10" x1="663.5" y1="65.3" x2="3" y2="65.3"/>
			<line fill="none" stroke="#000000" stroke-width="0.5" stroke-miterlimit="10" x1="663.5" y1="51.2" x2="3" y2="51.2"/>
			<line fill="none" stroke="#000000" stroke-width="0.5" stroke-miterlimit="10" x1="663.5" y1="93.5" x2="3" y2="93.5"/>
			<line fill="none" stroke="#000000" stroke-width="0.5" stroke-miterlimit="10" x1="663.5" y1="79.4" x2="3" y2="79.4"/>
			<line fill="none" stroke="#000000" stroke-width="0.5" stroke-miterlimit="10" x1="663.5" y1="121.8" x2="3" y2="121.8"/>
			<line fill="none" stroke="#000000" stroke-width="0.5" stroke-miterlimit="10" x1="663.5" y1="107.6" x2="3" y2="107.6"/>
			<line fill="none" stroke="#000000" stroke-width="0.5" stroke-miterlimit="10" x1="663.5" y1="150" x2="3" y2="150"/>
			<line fill="none" stroke="#000000" stroke-width="0.5" stroke-miterlimit="10" x1="663.5" y1="135.9" x2="3" y2="135.9"/>
			<line fill="none" stroke="#000000" stroke-width="0.5" stroke-miterlimit="10" x1="663.5" y1="178.2" x2="3" y2="178.2"/>
			<line fill="none" stroke="#000000" stroke-width="0.5" stroke-miterlimit="10" x1="663.5" y1="164.1" x2="3" y2="164.1"/>
			<line fill="none" stroke="#000000" stroke-width="0.5" stroke-miterlimit="10" x1="663.5" y1="206.5" x2="3" y2="206.5"/>
			<line fill="none" stroke="#000000" stroke-width="0.5" stroke-miterlimit="10" x1="663.5" y1="192.4" x2="3" y2="192.4"/>
			<line fill="none" stroke="#000000" stroke-width="0.5" stroke-miterlimit="10" x1="663.5" y1="234.7" x2="3" y2="234.7"/>
			<line fill="none" stroke="#000000" stroke-width="0.5" stroke-miterlimit="10" x1="663.5" y1="220.6" x2="3" y2="220.6"/>
			<line fill="none" stroke="#000000" stroke-width="0.5" stroke-miterlimit="10" x1="663.5" y1="248.8" x2="3" y2="248.8"/>
			<line fill="none" stroke="#000000" stroke-width="0.5" stroke-miterlimit="10" x1="663.5" y1="277.1" x2="3" y2="277.1"/>
			<line fill="none" stroke="#000000" stroke-width="0.5" stroke-miterlimit="10" x1="663.5" y1="263" x2="3" y2="263"/>
			<line fill="none" stroke="#000000" stroke-width="0.5" stroke-miterlimit="10" x1="635.2" y1="291.8" x2="635.2" y2="8.2"/>
			<line fill="none" stroke="#000000" stroke-width="0.5" stroke-miterlimit="10" x1="649.3" y1="291.8" x2="649.3" y2="8.2"/>
			<line fill="none" stroke="#000000" stroke-width="0.5" stroke-miterlimit="10" x1="607" y1="291.8" x2="607" y2="8.2"/>
			<line fill="none" stroke="#000000" stroke-width="0.5" stroke-miterlimit="10" x1="621.1" y1="291.8" x2="621.1" y2="8.2"/>
			<line fill="none" stroke="#000000" stroke-width="0.5" stroke-miterlimit="10" x1="578.7" y1="291.8" x2="578.7" y2="8.2"/>
			<line fill="none" stroke="#000000" stroke-width="0.5" stroke-miterlimit="10" x1="592.9" y1="291.8" x2="592.9" y2="8.2"/>
			<line fill="none" stroke="#000000" stroke-width="0.5" stroke-miterlimit="10" x1="550.5" y1="291.8" x2="550.5" y2="8.2"/>
			<line fill="none" stroke="#000000" stroke-width="0.5" stroke-miterlimit="10" x1="564.6" y1="291.8" x2="564.6" y2="8.2"/>
			<line fill="none" stroke="#000000" stroke-width="0.5" stroke-miterlimit="10" x1="522.3" y1="291.8" x2="522.3" y2="8.2"/>
			<line fill="none" stroke="#000000" stroke-width="0.5" stroke-miterlimit="10" x1="536.4" y1="291.8" x2="536.4" y2="8.2"/>
			<line fill="none" stroke="#000000" stroke-width="0.5" stroke-miterlimit="10" x1="494" y1="291.8" x2="494" y2="8.2"/>
			<line fill="none" stroke="#000000" stroke-width="0.5" stroke-miterlimit="10" x1="508.1" y1="291.8" x2="508.1" y2="8.2"/>
			<line fill="none" stroke="#000000" stroke-width="0.5" stroke-miterlimit="10" x1="465.8" y1="291.8" x2="465.8" y2="8.2"/>
			<line fill="none" stroke="#000000" stroke-width="0.5" stroke-miterlimit="10" x1="479.9" y1="291.8" x2="479.9" y2="8.2"/>
			<line fill="none" stroke="#000000" stroke-width="0.5" stroke-miterlimit="10" x1="437.5" y1="291.8" x2="437.5" y2="8.2"/>
			<line fill="none" stroke="#000000" stroke-width="0.5" stroke-miterlimit="10" x1="451.7" y1="291.8" x2="451.7" y2="8.2"/>
			<line fill="none" stroke="#000000" stroke-width="0.5" stroke-miterlimit="10" x1="423.4" y1="291.8" x2="423.4" y2="8.2"/>
			<line fill="none" stroke="#000000" stroke-width="0.5" stroke-miterlimit="10" x1="395.2" y1="291.8" x2="395.2" y2="8.2"/>
			<line fill="none" stroke="#000000" stroke-width="0.5" stroke-miterlimit="10" x1="409.3" y1="291.8" x2="409.3" y2="8.2"/>
			<line fill="none" stroke="#000000" stroke-width="0.5" stroke-miterlimit="10" x1="381.1" y1="291.8" x2="381.1" y2="8.2"/>
			<line fill="none" stroke="#000000" stroke-width="0.5" stroke-miterlimit="10" x1="352.8" y1="291.8" x2="352.8" y2="8.2"/>
			<line fill="none" stroke="#000000" stroke-width="0.5" stroke-miterlimit="10" x1="366.9" y1="291.8" x2="366.9" y2="8.2"/>
			<line fill="none" stroke="#000000" stroke-width="0.5" stroke-miterlimit="10" x1="324.6" y1="291.8" x2="324.6" y2="8.2"/>
			<line fill="none" stroke="#000000" stroke-width="0.5" stroke-miterlimit="10" x1="338.7" y1="291.8" x2="338.7" y2="8.2"/>
			<line fill="none" stroke="#000000" stroke-width="0.5" stroke-miterlimit="10" x1="296.3" y1="291.8" x2="296.3" y2="8.2"/>
			<line fill="none" stroke="#000000" stroke-width="0.5" stroke-miterlimit="10" x1="310.5" y1="291.8" x2="310.5" y2="8.2"/>
			<line fill="none" stroke="#000000" stroke-width="0.5" stroke-miterlimit="10" x1="268.1" y1="291.8" x2="268.1" y2="8.2"/>
			<line fill="none" stroke="#000000" stroke-width="0.5" stroke-miterlimit="10" x1="282.2" y1="291.8" x2="282.2" y2="8.2"/>
			<line fill="none" stroke="#000000" stroke-width="0.5" stroke-miterlimit="10" x1="254" y1="291.8" x2="254" y2="8.2"/>
			<line fill="none" stroke="#000000" stroke-width="0.5" stroke-miterlimit="10" x1="239.9" y1="291.8" x2="239.9" y2="8.2"/>
			<line fill="none" stroke="#000000" stroke-width="0.5" stroke-miterlimit="10" x1="211.6" y1="291.8" x2="211.6" y2="8.2"/>
			<line fill="none" stroke="#000000" stroke-width="0.75" stroke-miterlimit="10" x1="225.7" y1="291.8" x2="225.7" y2="8.2"/>
			<line fill="none" stroke="#000000" stroke-width="0.5" stroke-miterlimit="10" x1="197.5" y1="291.8" x2="197.5" y2="8.2"/>
			<line fill="none" stroke="#000000" stroke-width="0.5" stroke-miterlimit="10" x1="183.4" y1="291.8" x2="183.4" y2="8.2"/>
			<line fill="none" stroke="#000000" stroke-width="0.5" stroke-miterlimit="10" x1="155.1" y1="291.8" x2="155.1" y2="8.2"/>
			<line fill="none" stroke="#000000" stroke-width="0.5" stroke-miterlimit="10" x1="169.3" y1="291.8" x2="169.3" y2="8.2"/>
			<line fill="none" stroke="#000000" stroke-width="0.5" stroke-miterlimit="10" x1="141" y1="291.8" x2="141" y2="8.2"/>
			<line fill="none" stroke="#000000" stroke-width="0.5" stroke-miterlimit="10" x1="126.9" y1="291.8" x2="126.9" y2="8.2"/>
			<line fill="none" stroke="#000000" stroke-width="0.5" stroke-miterlimit="10" x1="98.7" y1="291.8" x2="98.7" y2="8.2"/>
			<line fill="none" stroke="#000000" stroke-width="0.5" stroke-miterlimit="10" x1="112.8" y1="291.8" x2="112.8" y2="8.2"/>
			<line fill="none" stroke="#000000" stroke-width="0.5" stroke-miterlimit="10" x1="84.6" y1="291.8" x2="84.6" y2="8.2"/>
			<line fill="none" stroke="#000000" stroke-width="0.5" stroke-miterlimit="10" x1="70.4" y1="291.8" x2="70.4" y2="8.2"/>
			<line fill="none" stroke="#000000" stroke-width="0.5" stroke-miterlimit="10" x1="56.3" y1="291.8" x2="56.3" y2="8.2"/>
			<line fill="none" stroke="#000000" stroke-width="0.5" stroke-miterlimit="10" x1="28.1" y1="291.8" x2="28.1" y2="8.2"/>
			<line fill="none" stroke="#000000" stroke-width="0.5" stroke-miterlimit="10" x1="42.2" y1="291.8" x2="42.2" y2="8.2"/>
			<line fill="none" stroke="#000000" stroke-width="0.5" stroke-miterlimit="10" x1="14" y1="291.8" x2="14" y2="8.2"/>
			<path d="M3,291.8h652.5c4.4,0,8-3.6,8-8V16.2c0-4.4-3.6-8-8-8H3V5h653.3c5.5,0,10,4.5,10,10v270c0,5.5-4.5,10-10,10H3V291.8z"/>
		</g>
		<g>
			<g>
				<path fill="#FFFFFF" d="M0,288.8h652.5c4.4,0,8-3.6,8-8V13.2c0-4.4-3.6-8-8-8H0L0,288.8z"/>
				<line fill="none" stroke="#AFCCD6" stroke-width="0.5" stroke-miterlimit="10" x1="660.5" y1="34" x2="0" y2="34"/>
				<line fill="none" stroke="#AFCCD6" stroke-width="0.5" stroke-miterlimit="10" x1="660.5" y1="19.9" x2="0" y2="19.9"/>
				<line fill="none" stroke="#AFCCD6" stroke-width="0.5" stroke-miterlimit="10" x1="660.5" y1="62.3" x2="0" y2="62.3"/>
				<line fill="none" stroke="#AFCCD6" stroke-width="0.5" stroke-miterlimit="10" x1="660.5" y1="48.2" x2="0" y2="48.2"/>
				<line fill="none" stroke="#AFCCD6" stroke-width="0.5" stroke-miterlimit="10" x1="660.5" y1="90.5" x2="0" y2="90.5"/>
				<line fill="none" stroke="#AFCCD6" stroke-width="0.5" stroke-miterlimit="10" x1="660.5" y1="76.4" x2="0" y2="76.4"/>
				<line fill="none" stroke="#AFCCD6" stroke-width="0.5" stroke-miterlimit="10" x1="660.5" y1="118.8" x2="0" y2="118.8"/>
				<line fill="none" stroke="#AFCCD6" stroke-width="0.5" stroke-miterlimit="10" x1="660.5" y1="104.6" x2="0" y2="104.6"/>
				<line fill="none" stroke="#AFCCD6" stroke-width="0.5" stroke-miterlimit="10" x1="660.5" y1="147" x2="0" y2="147"/>
				<line fill="none" stroke="#AFCCD6" stroke-width="0.5" stroke-miterlimit="10" x1="660.5" y1="132.9" x2="0" y2="132.9"/>
				<line fill="none" stroke="#AFCCD6" stroke-width="0.5" stroke-miterlimit="10" x1="660.5" y1="175.2" x2="0" y2="175.2"/>
				<line fill="none" stroke="#AFCCD6" stroke-width="0.5" stroke-miterlimit="10" x1="660.5" y1="161.1" x2="0" y2="161.1"/>
				<line fill="none" stroke="#AFCCD6" stroke-width="0.5" stroke-miterlimit="10" x1="660.5" y1="203.5" x2="0" y2="203.5"/>
				<line fill="none" stroke="#AFCCD6" stroke-width="0.5" stroke-miterlimit="10" x1="660.5" y1="189.4" x2="0" y2="189.4"/>
				<line fill="none" stroke="#AFCCD6" stroke-width="0.5" stroke-miterlimit="10" x1="660.5" y1="231.7" x2="0" y2="231.7"/>
				<line fill="none" stroke="#AFCCD6" stroke-width="0.5" stroke-miterlimit="10" x1="660.5" y1="217.6" x2="0" y2="217.6"/>
				<line fill="none" stroke="#AFCCD6" stroke-width="0.5" stroke-miterlimit="10" x1="660.5" y1="245.8" x2="0" y2="245.8"/>
				<line fill="none" stroke="#AFCCD6" stroke-width="0.5" stroke-miterlimit="10" x1="660.5" y1="274.1" x2="0" y2="274.1"/>
				<line fill="none" stroke="#AFCCD6" stroke-width="0.5" stroke-miterlimit="10" x1="660.5" y1="260" x2="0" y2="260"/>
				<line fill="none" stroke="#AFCCD6" stroke-width="0.5" stroke-miterlimit="10" x1="632.2" y1="288.8" x2="632.2" y2="5.2"/>
				<line fill="none" stroke="#AFCCD6" stroke-width="0.5" stroke-miterlimit="10" x1="646.3" y1="288.8" x2="646.3" y2="5.2"/>
				<line fill="none" stroke="#AFCCD6" stroke-width="0.5" stroke-miterlimit="10" x1="604" y1="288.8" x2="604" y2="5.2"/>
				<line fill="none" stroke="#AFCCD6" stroke-width="0.5" stroke-miterlimit="10" x1="618.1" y1="288.8" x2="618.1" y2="5.2"/>
				<line fill="none" stroke="#AFCCD6" stroke-width="0.5" stroke-miterlimit="10" x1="575.7" y1="288.8" x2="575.7" y2="5.2"/>
				<line fill="none" stroke="#AFCCD6" stroke-width="0.5" stroke-miterlimit="10" x1="589.9" y1="288.8" x2="589.9" y2="5.2"/>
				<line fill="none" stroke="#AFCCD6" stroke-width="0.5" stroke-miterlimit="10" x1="547.5" y1="288.8" x2="547.5" y2="5.2"/>
				<line fill="none" stroke="#AFCCD6" stroke-width="0.5" stroke-miterlimit="10" x1="561.6" y1="288.8" x2="561.6" y2="5.2"/>
				<line fill="none" stroke="#AFCCD6" stroke-width="0.5" stroke-miterlimit="10" x1="519.3" y1="288.8" x2="519.3" y2="5.2"/>
				<line fill="none" stroke="#AFCCD6" stroke-width="0.5" stroke-miterlimit="10" x1="533.4" y1="288.8" x2="533.4" y2="5.2"/>
				<line fill="none" stroke="#AFCCD6" stroke-width="0.5" stroke-miterlimit="10" x1="491" y1="288.8" x2="491" y2="5.2"/>
				<line fill="none" stroke="#AFCCD6" stroke-width="0.5" stroke-miterlimit="10" x1="505.1" y1="288.8" x2="505.1" y2="5.2"/>
				<line fill="none" stroke="#AFCCD6" stroke-width="0.5" stroke-miterlimit="10" x1="462.8" y1="288.8" x2="462.8" y2="5.2"/>
				<line fill="none" stroke="#AFCCD6" stroke-width="0.5" stroke-miterlimit="10" x1="476.9" y1="288.8" x2="476.9" y2="5.2"/>
				<line fill="none" stroke="#AFCCD6" stroke-width="0.5" stroke-miterlimit="10" x1="434.5" y1="288.8" x2="434.5" y2="5.2"/>
				<line fill="none" stroke="#AFCCD6" stroke-width="0.5" stroke-miterlimit="10" x1="448.7" y1="288.8" x2="448.7" y2="5.2"/>
				<line fill="none" stroke="#AFCCD6" stroke-width="0.5" stroke-miterlimit="10" x1="420.4" y1="288.8" x2="420.4" y2="5.2"/>
				<line fill="none" stroke="#AFCCD6" stroke-width="0.5" stroke-miterlimit="10" x1="392.2" y1="288.8" x2="392.2" y2="5.2"/>
				<line fill="none" stroke="#AFCCD6" stroke-width="0.5" stroke-miterlimit="10" x1="406.3" y1="288.8" x2="406.3" y2="5.2"/>
				<line fill="none" stroke="#AFCCD6" stroke-width="0.5" stroke-miterlimit="10" x1="378.1" y1="288.8" x2="378.1" y2="5.2"/>
				<line fill="none" stroke="#AFCCD6" stroke-width="0.5" stroke-miterlimit="10" x1="349.8" y1="288.8" x2="349.8" y2="5.2"/>
				<line fill="none" stroke="#AFCCD6" stroke-width="0.5" stroke-miterlimit="10" x1="363.9" y1="288.8" x2="363.9" y2="5.2"/>
				<line fill="none" stroke="#AFCCD6" stroke-width="0.5" stroke-miterlimit="10" x1="321.6" y1="288.8" x2="321.6" y2="5.2"/>
				<line fill="none" stroke="#AFCCD6" stroke-width="0.5" stroke-miterlimit="10" x1="335.7" y1="288.8" x2="335.7" y2="5.2"/>
				<line fill="none" stroke="#AFCCD6" stroke-width="0.5" stroke-miterlimit="10" x1="293.3" y1="288.8" x2="293.3" y2="5.2"/>
				<line fill="none" stroke="#AFCCD6" stroke-width="0.5" stroke-miterlimit="10" x1="307.5" y1="288.8" x2="307.5" y2="5.2"/>
				<line fill="none" stroke="#AFCCD6" stroke-width="0.5" stroke-miterlimit="10" x1="265.1" y1="288.8" x2="265.1" y2="5.2"/>
				<line fill="none" stroke="#AFCCD6" stroke-width="0.5" stroke-miterlimit="10" x1="279.2" y1="288.8" x2="279.2" y2="5.2"/>
				<line fill="none" stroke="#AFCCD6" stroke-width="0.5" stroke-miterlimit="10" x1="251" y1="288.8" x2="251" y2="5.2"/>
				<line fill="none" stroke="#AFCCD6" stroke-width="0.5" stroke-miterlimit="10" x1="236.9" y1="288.8" x2="236.9" y2="5.2"/>
				<line fill="none" stroke="#AFCCD6" stroke-width="0.5" stroke-miterlimit="10" x1="208.6" y1="288.8" x2="208.6" y2="5.2"/>
				<line fill="none" stroke="#000000" stroke-width="0.75" stroke-miterlimit="10" x1="222.7" y1="288.8" x2="222.7" y2="5.2"/>
				<line fill="none" stroke="#AFCCD6" stroke-width="0.5" stroke-miterlimit="10" x1="194.5" y1="288.8" x2="194.5" y2="5.2"/>
				<line fill="none" stroke="#AFCCD6" stroke-width="0.5" stroke-miterlimit="10" x1="180.4" y1="288.8" x2="180.4" y2="5.2"/>
				<line fill="none" stroke="#AFCCD6" stroke-width="0.5" stroke-miterlimit="10" x1="152.1" y1="288.8" x2="152.1" y2="5.2"/>
				<line fill="none" stroke="#AFCCD6" stroke-width="0.5" stroke-miterlimit="10" x1="166.3" y1="288.8" x2="166.3" y2="5.2"/>
				<line fill="none" stroke="#AFCCD6" stroke-width="0.5" stroke-miterlimit="10" x1="138" y1="288.8" x2="138" y2="5.2"/>
				<line fill="none" stroke="#AFCCD6" stroke-width="0.5" stroke-miterlimit="10" x1="123.9" y1="288.8" x2="123.9" y2="5.2"/>
				<line fill="none" stroke="#AFCCD6" stroke-width="0.5" stroke-miterlimit="10" x1="95.7" y1="288.8" x2="95.7" y2="5.2"/>
				<line fill="none" stroke="#AFCCD6" stroke-width="0.5" stroke-miterlimit="10" x1="109.8" y1="288.8" x2="109.8" y2="5.2"/>
				<line fill="none" stroke="#AFCCD6" stroke-width="0.5" stroke-miterlimit="10" x1="81.6" y1="288.8" x2="81.6" y2="5.2"/>
				<line fill="none" stroke="#AFCCD6" stroke-width="0.5" stroke-miterlimit="10" x1="67.4" y1="288.8" x2="67.4" y2="5.2"/>
				<line fill="none" stroke="#AFCCD6" stroke-width="0.5" stroke-miterlimit="10" x1="53.3" y1="288.8" x2="53.3" y2="5.2"/>
				<line fill="none" stroke="#AFCCD6" stroke-width="0.5" stroke-miterlimit="10" x1="25.1" y1="288.8" x2="25.1" y2="5.2"/>
				<line fill="none" stroke="#AFCCD6" stroke-width="0.5" stroke-miterlimit="10" x1="39.2" y1="288.8" x2="39.2" y2="5.2"/>
				<line fill="none" stroke="#AFCCD6" stroke-width="0.5" stroke-miterlimit="10" x1="11" y1="288.8" x2="11" y2="5.2"/>
				<path d="M0,288.8h652.5c4.4,0,8-3.6,8-8V13.2c0-4.4-3.6-8-8-8H0L0,2h653.3c5.5,0,10,4.5,10,10v270c0,5.5-4.5,10-10,10H0L0,288.8
					z"/>
			</g>
		</g>
	</g>
</g>
</svg>
