<?xml version="1.0" encoding="utf-8"?>
<!-- Generator: Adobe Illustrator 17.1.0, SVG Export Plug-In . SVG Version: 6.00 Build 0)  -->
<!DOCTYPE svg PUBLIC "-//W3C//DTD SVG 1.1//EN" "http://www.w3.org/Graphics/SVG/1.1/DTD/svg11.dtd">
<svg version="1.1" id="Layer_1" xmlns="http://www.w3.org/2000/svg" xmlns:xlink="http://www.w3.org/1999/xlink" x="0px" y="0px"
	 viewBox="66 0 166.5 200" enable-background="new 66 0 166.5 200" xml:space="preserve">
<g>
	<g opacity="0.3">
		<path d="M158.1,197.3l-89.4-40.5l70.6-156l89.4,40.5c3.2,1.4,4.7,5.3,3.2,8.6l-65.2,144.2C165.3,197.4,161.4,198.8,158.1,197.3z"
			/>
		<rect x="181.5" y="28" transform="matrix(-0.9111 -0.4122 0.4122 -0.9111 304.9037 299.6947)" width="6.6" height="177.9"/>
		<polygon points="73.9,169.6 71.6,167.2 68.3,167.1 72.3,158.5 77.8,160.9 		"/>
	</g>
	<g>
		<g>
			<g>
				<g>
					<path fill="#3A3A3A" d="M157.3,196.5L67.9,156L138.5,0l89.4,40.5c3.2,1.4,4.7,5.3,3.2,8.6l-65.2,144.2
						C164.5,196.6,160.6,198,157.3,196.5z"/>
					
						<rect x="180.7" y="27.2" transform="matrix(-0.9111 -0.4122 0.4122 -0.9111 303.7046 297.8361)" fill="#282828" width="6.6" height="177.9"/>
					<polygon fill="#FFFFFF" points="73.1,168.8 70.8,166.4 67.5,166.3 71.5,157.7 77,160.1 					"/>
				</g>
			</g>
		</g>
	</g>
</g>
</svg>
