<?xml version="1.0" encoding="utf-8"?>
<!-- Generator: Adobe Illustrator 17.1.0, SVG Export Plug-In . SVG Version: 6.00 Build 0)  -->
<!DOCTYPE svg PUBLIC "-//W3C//DTD SVG 1.1//EN" "http://www.w3.org/Graphics/SVG/1.1/DTD/svg11.dtd">
<svg version="1.1" id="Layer_1" xmlns="http://www.w3.org/2000/svg" xmlns:xlink="http://www.w3.org/1999/xlink" x="0px" y="0px"
	 viewBox="0 0 412.5 500" enable-background="new 0 0 412.5 500" xml:space="preserve">
<g>
	<g opacity="0.3">
		<path d="M226.6,493.2L3.1,392L179.6,2l223.5,101.2c8,3.6,11.7,13.2,8,21.4L248,485.2C244.4,493.4,234.8,497,226.6,493.2z"/>
		<rect x="284.9" y="70" transform="matrix(0.9111 0.4122 -0.4122 0.9111 146.5726 -94.8488)" width="16.6" height="444.8"/>
		<polygon points="15.9,424.1 10.2,418 2,417.8 11.9,396.2 25.7,402.3 		"/>
	</g>
	<g>
		<g>
			<g>
				<g>
					<path fill="#B0CDD7" d="M224.6,491.2L1.1,390L177.6,0l223.5,101.2c8,3.6,11.7,13.2,8,21.4L246,483.2
						C242.4,491.4,232.8,495,224.6,491.2z"/>
					
						<rect x="282.9" y="68" transform="matrix(0.9111 0.4122 -0.4122 0.9111 145.5704 -94.2022)" fill="#8CACB5" width="16.6" height="444.8"/>
					<polygon fill="#FFFFFF" points="13.9,422.1 8.2,416 0,415.8 9.9,394.2 23.7,400.3 					"/>
				</g>
			</g>
		</g>
	</g>
</g>
</svg>
