<?xml version="1.0" encoding="utf-8"?>
<!-- Generator: Adobe Illustrator 17.1.0, SVG Export Plug-In . SVG Version: 6.00 Build 0)  -->
<!DOCTYPE svg PUBLIC "-//W3C//DTD SVG 1.1//EN" "http://www.w3.org/Graphics/SVG/1.1/DTD/svg11.dtd">
<svg version="1.1" id="Layer_1" xmlns="http://www.w3.org/2000/svg" xmlns:xlink="http://www.w3.org/1999/xlink" x="0px" y="0px"
	 viewBox="0 0 400 269" enable-background="new 0 0 400 269" xml:space="preserve">
<g>
	<path fill="#333333" d="M5,3h78.4v23.8H30.8v23.8h48.7v23.8H30.8v45.6H5V3z"/>
	<path fill="#333333" d="M101.9,3h45.2c5.9,0,11.6,0.6,16.9,1.7c5.3,1.2,10,3.1,14,5.8c4,2.7,7.2,6.3,9.6,10.9
		c2.4,4.6,3.5,10.3,3.5,17.1c0,8.3-2.1,15.3-6.4,21c-4.3,5.8-10.6,9.4-18.8,11l29.7,49.4h-30.9l-24.4-46.7h-12.7v46.7h-25.8V3z
		 M127.7,51.4h15.2c2.3,0,4.8-0.1,7.3-0.2c2.6-0.2,4.9-0.7,7-1.5c2.1-0.8,3.8-2.1,5.2-3.9c1.4-1.8,2.1-4.2,2.1-7.4
		c0-3-0.6-5.3-1.8-7.1c-1.2-1.8-2.8-3.1-4.6-4c-1.9-0.9-4-1.6-6.4-1.9c-2.4-0.3-4.8-0.5-7.1-0.5h-16.8V51.4z"/>
	<path fill="#333333" d="M209.9,3h79.4v23.8h-53.7v21.8h50.7v23.8h-50.7v23.8h56.6v23.8h-82.4V3z"/>
	<path fill="#333333" d="M313.9,3h79.4v23.8h-53.7v21.8h50.7v23.8h-50.7v23.8h56.6v23.8h-82.4V3z"/>
</g>
<g>
	<path fill="#333333" d="M3.3,131.9h22.8c4.3,0,8.6,0.7,12.9,2.1c4.3,1.4,8.2,3.6,11.7,6.5c3.5,2.9,6.3,6.5,8.4,10.8
		c2.1,4.3,3.2,9.3,3.2,15c0,5.8-1.1,10.8-3.2,15.1c-2.1,4.3-4.9,7.9-8.4,10.7c-3.5,2.9-7.4,5-11.7,6.5c-4.3,1.4-8.6,2.1-12.9,2.1
		H3.3V131.9z M10.3,194.3h13.6c5.2,0,9.8-0.8,13.7-2.4c3.9-1.6,7.1-3.7,9.6-6.3c2.6-2.6,4.5-5.6,5.7-8.9c1.2-3.3,1.8-6.8,1.8-10.3
		c0-3.6-0.6-7-1.8-10.3c-1.2-3.3-3.1-6.3-5.7-8.9c-2.6-2.6-5.8-4.7-9.6-6.3c-3.9-1.6-8.4-2.4-13.7-2.4H10.3V194.3z"/>
	<path fill="#333333" d="M83.2,194.3h36.8v6.4H76.2v-68.8h42.7v6.4H83.2v23.4h33.3v6.4H83.2V194.3z"/>
	<path fill="#333333" d="M166.4,143.3c-3-4.5-7.5-6.7-13.3-6.7c-1.8,0-3.6,0.2-5.3,0.7c-1.7,0.5-3.3,1.2-4.7,2.2
		c-1.4,1-2.5,2.3-3.4,3.9c-0.8,1.6-1.3,3.4-1.3,5.6c0,3.1,0.9,5.5,2.6,7.2c1.7,1.7,3.9,3.1,6.5,4.2c2.6,1.1,5.4,2.1,8.5,3
		c3.1,0.9,5.9,2,8.5,3.5c2.6,1.5,4.8,3.4,6.5,5.8c1.7,2.4,2.6,5.7,2.6,9.8c0,3.1-0.7,5.9-2,8.4c-1.3,2.5-3.1,4.6-5.2,6.3
		c-2.2,1.7-4.6,3-7.3,3.9c-2.7,0.9-5.4,1.4-8.1,1.4c-4.2,0-8.2-0.8-12-2.4c-3.8-1.6-7-4.2-9.7-7.8l6.4-4.6c1.5,2.5,3.6,4.6,6.2,6.1
		c2.6,1.5,5.8,2.3,9.4,2.3c1.7,0,3.5-0.3,5.2-0.8c1.7-0.5,3.3-1.4,4.7-2.4c1.4-1.1,2.5-2.4,3.4-3.9c0.9-1.6,1.4-3.3,1.4-5.3
		c0-2.4-0.5-4.4-1.5-6c-1-1.6-2.3-2.9-4-4s-3.5-2-5.6-2.7c-2.1-0.7-4.3-1.4-6.5-2.1c-2.2-0.7-4.4-1.5-6.5-2.4
		c-2.1-0.9-4-2.1-5.6-3.4c-1.7-1.4-3-3.1-4-5.2c-1-2.1-1.5-4.7-1.5-7.9c0-3.3,0.6-6.2,1.9-8.6c1.3-2.5,2.9-4.5,5.1-6.1
		c2.1-1.6,4.5-2.8,7.1-3.6c2.7-0.8,5.4-1.2,8.2-1.2c3.9,0,7.4,0.6,10.6,1.8c3.2,1.2,6.1,3.4,8.8,6.5L166.4,143.3z"/>
	<path fill="#333333" d="M194.9,200.7h-7v-68.8h7V200.7z"/>
	<path fill="#333333" d="M264.4,144.6c-2.3-2.5-5.1-4.4-8.4-5.8c-3.2-1.4-7-2.1-11.3-2.1c-4.4,0-8.4,0.8-11.9,2.4
		c-3.5,1.6-6.5,3.8-8.9,6.5c-2.4,2.7-4.3,5.9-5.6,9.5c-1.3,3.6-1.9,7.4-1.9,11.3c0,4,0.6,7.7,1.9,11.3c1.3,3.6,3.2,6.8,5.6,9.5
		c2.4,2.7,5.4,4.9,8.9,6.5c3.5,1.6,7.4,2.4,11.9,2.4c3.6,0,7-0.4,10.3-1.3c3.3-0.9,6.2-2.1,8.8-3.5v-23h-16.4v-6.4h23.4v33.7
		c-3.9,2.3-8.1,4-12.8,5.2c-4.6,1.2-9.1,1.8-13.3,1.8c-5.1,0-9.9-0.9-14.2-2.7c-4.4-1.8-8.2-4.3-11.4-7.5c-3.2-3.2-5.7-7-7.5-11.4
		c-1.8-4.4-2.7-9.2-2.7-14.5c0-5.2,0.9-10.1,2.7-14.5c1.8-4.4,4.3-8.2,7.5-11.4c3.2-3.2,7-5.7,11.4-7.5c4.4-1.8,9.1-2.7,14.2-2.7
		c5.5,0,10.3,0.8,14.2,2.3c4,1.5,7.5,3.8,10.6,6.9L264.4,144.6z"/>
	<path fill="#333333" d="M338.9,190.2h0.2v-58.3h7v68.8h-8.7l-41-58.9h-0.2v58.9h-7v-68.8h8.7L338.9,190.2z"/>
	<path fill="#333333" d="M382.3,182.1h-7V174c0-1.8,0.4-3.4,1.2-4.8c0.8-1.5,1.8-2.8,3-4.1c1.2-1.3,2.4-2.5,3.8-3.6
		c1.4-1.2,2.6-2.4,3.7-3.7c1.1-1.3,2.1-2.7,2.9-4.2c0.8-1.5,1.2-3.2,1.2-5.2c0-3.3-1.1-6-3.2-8.1c-2.1-2.1-4.8-3.1-8.2-3.1
		c-3.3,0-6,1-8.2,2.9c-2.2,1.9-3.5,4.5-4.1,7.7l-7.3-0.9c0.4-2.5,1.1-4.8,2.3-6.8c1.1-2,2.6-3.7,4.3-5.1c1.7-1.4,3.7-2.4,5.9-3.2
		c2.2-0.7,4.6-1.1,7.1-1.1c2.6,0,5,0.4,7.3,1.1c2.3,0.7,4.2,1.8,5.9,3.3c1.7,1.4,2.9,3.2,3.9,5.3c0.9,2.1,1.4,4.6,1.4,7.3
		c0,2.7-0.4,5-1.2,6.9c-0.8,1.9-1.7,3.5-2.9,4.9c-1.2,1.4-2.4,2.6-3.8,3.7c-1.4,1.1-2.6,2.3-3.8,3.5c-1.2,1.3-2.1,2.7-2.9,4.3
		c-0.8,1.6-1.2,3.6-1.2,5.9V182.1z M384.6,196.1c0,1.4-0.5,2.6-1.5,3.6c-1,1.1-2.2,1.6-3.8,1.6c-1.6,0-2.8-0.5-3.8-1.6
		c-1-1.1-1.5-2.3-1.5-3.6c0-1.4,0.5-2.6,1.5-3.6c1-1.1,2.2-1.6,3.8-1.6c1.6,0,2.8,0.5,3.8,1.6C384.1,193.5,384.6,194.7,384.6,196.1z
		"/>
</g>
<g>
	<path fill="#333333" d="M19.2,240.2L2.9,215.4h11.9l9.2,16.2l9.7-16.2H45l-16.3,24.8v18.5h-9.5V240.2z"/>
	<path fill="#333333" d="M48.6,215.4H78v8.8H58.1v8.1h18.8v8.8H58.1v8.8h21v8.8H48.6V215.4z"/>
	<path fill="#333333" d="M108.2,225.9c-0.8-1-1.8-1.7-3.2-2.2c-1.3-0.5-2.6-0.7-3.8-0.7c-0.7,0-1.4,0.1-2.1,0.2
		c-0.7,0.2-1.4,0.4-2.1,0.8c-0.7,0.3-1.2,0.8-1.6,1.4c-0.4,0.6-0.6,1.3-0.6,2.1c0,1.3,0.5,2.3,1.5,3c1,0.7,2.2,1.3,3.7,1.8
		c1.5,0.5,3.1,1,4.8,1.5c1.7,0.5,3.3,1.2,4.8,2.1c1.5,0.9,2.7,2.1,3.7,3.6c1,1.5,1.5,3.5,1.5,6.1c0,2.4-0.4,4.5-1.3,6.3
		c-0.9,1.8-2.1,3.3-3.6,4.5c-1.5,1.2-3.3,2.1-5.3,2.6c-2,0.6-4.2,0.9-6.4,0.9c-2.8,0-5.4-0.4-7.8-1.3c-2.4-0.9-4.7-2.2-6.7-4.2
		l6.8-7.5c1,1.3,2.2,2.3,3.7,3c1.5,0.7,3,1.1,4.6,1.1c0.8,0,1.6-0.1,2.4-0.3c0.8-0.2,1.5-0.5,2.1-0.8c0.6-0.4,1.1-0.8,1.5-1.4
		c0.4-0.6,0.6-1.2,0.6-2c0-1.3-0.5-2.3-1.5-3.1c-1-0.8-2.3-1.4-3.8-1.9c-1.5-0.5-3.1-1.1-4.9-1.6c-1.8-0.5-3.4-1.2-4.9-2.1
		c-1.5-0.9-2.8-2.1-3.8-3.6c-1-1.5-1.5-3.4-1.5-5.8c0-2.3,0.5-4.4,1.4-6.1c0.9-1.8,2.1-3.2,3.7-4.4c1.5-1.2,3.3-2.1,5.3-2.7
		c2-0.6,4.1-0.9,6.2-0.9c2.4,0,4.8,0.3,7.1,1c2.3,0.7,4.3,1.9,6.2,3.5L108.2,225.9z"/>
	<path fill="#333333" d="M123.1,248.8h8.8l-5.5,17.3h-7.8L123.1,248.8z"/>
	<path fill="#333333" d="M158.1,215.4h16.1c2.2,0,4.4,0.2,6.4,0.6c2,0.4,3.7,1.1,5.2,2.1c1.5,1,2.7,2.3,3.5,4
		c0.9,1.7,1.3,3.8,1.3,6.4c0,2.5-0.4,4.7-1.2,6.4c-0.8,1.7-1.9,3.1-3.4,4.1c-1.4,1-3.1,1.7-5.1,2.2c-2,0.4-4.1,0.6-6.4,0.6h-7v16.9
		h-9.5V215.4z M167.7,233.7h6.4c0.9,0,1.7-0.1,2.5-0.2c0.8-0.2,1.5-0.4,2.1-0.8c0.6-0.4,1.1-0.9,1.5-1.6c0.4-0.7,0.6-1.5,0.6-2.5
		c0-1.1-0.3-2-0.8-2.7c-0.5-0.7-1.2-1.2-2-1.6c-0.8-0.4-1.7-0.6-2.7-0.7c-1-0.1-1.9-0.2-2.8-0.2h-4.9V233.7z"/>
	<path fill="#333333" d="M197.1,215.4h9.5v34.5h17.7v8.8h-27.2V215.4z"/>
	<path fill="#333333" d="M229.9,215.4h29.4v8.8h-19.9v8.1h18.8v8.8h-18.8v8.8h21v8.8h-30.5V215.4z"/>
	<path fill="#333333" d="M282.4,215.4h7.9l18.9,43.3h-10.8l-3.7-9.2h-16.8l-3.6,9.2h-10.5L282.4,215.4z M286.1,228l-5.3,13.5h10.6
		L286.1,228z"/>
	<path fill="#333333" d="M334.9,225.9c-0.8-1-1.8-1.7-3.2-2.2c-1.3-0.5-2.6-0.7-3.8-0.7c-0.7,0-1.4,0.1-2.1,0.2
		c-0.7,0.2-1.4,0.4-2.1,0.8c-0.7,0.3-1.2,0.8-1.6,1.4c-0.4,0.6-0.6,1.3-0.6,2.1c0,1.3,0.5,2.3,1.5,3c1,0.7,2.2,1.3,3.7,1.8
		c1.5,0.5,3.1,1,4.8,1.5c1.7,0.5,3.3,1.2,4.8,2.1c1.5,0.9,2.7,2.1,3.7,3.6c1,1.5,1.5,3.5,1.5,6.1c0,2.4-0.4,4.5-1.3,6.3
		c-0.9,1.8-2.1,3.3-3.6,4.5c-1.5,1.2-3.3,2.1-5.3,2.6c-2,0.6-4.2,0.9-6.4,0.9c-2.8,0-5.4-0.4-7.8-1.3c-2.4-0.9-4.7-2.2-6.7-4.2
		l6.8-7.5c1,1.3,2.2,2.3,3.7,3s3,1.1,4.6,1.1c0.8,0,1.6-0.1,2.4-0.3c0.8-0.2,1.5-0.5,2.1-0.8c0.6-0.4,1.1-0.8,1.5-1.4
		c0.4-0.6,0.6-1.2,0.6-2c0-1.3-0.5-2.3-1.5-3.1c-1-0.8-2.3-1.4-3.8-1.9c-1.5-0.5-3.1-1.1-4.9-1.6c-1.8-0.5-3.4-1.2-4.9-2.1
		c-1.5-0.9-2.8-2.1-3.8-3.6c-1-1.5-1.5-3.4-1.5-5.8c0-2.3,0.5-4.4,1.4-6.1c0.9-1.8,2.1-3.2,3.7-4.4c1.5-1.2,3.3-2.1,5.3-2.7
		c2-0.6,4.1-0.9,6.2-0.9c2.4,0,4.8,0.3,7.1,1c2.3,0.7,4.3,1.9,6.2,3.5L334.9,225.9z"/>
	<path fill="#333333" d="M349,215.4h29.4v8.8h-19.9v8.1h18.8v8.8h-18.8v8.8h21v8.8H349V215.4z"/>
	<path fill="#333333" d="M386.2,253.4c0-0.8,0.1-1.5,0.4-2.2c0.3-0.7,0.7-1.3,1.2-1.8c0.5-0.5,1.1-0.9,1.8-1.2
		c0.7-0.3,1.4-0.4,2.2-0.4c0.8,0,1.5,0.1,2.2,0.4c0.7,0.3,1.3,0.7,1.8,1.2c0.5,0.5,0.9,1.1,1.2,1.8c0.3,0.7,0.4,1.4,0.4,2.2
		c0,0.8-0.1,1.5-0.4,2.2c-0.3,0.7-0.7,1.3-1.2,1.8c-0.5,0.5-1.1,0.9-1.8,1.2c-0.7,0.3-1.4,0.4-2.2,0.4c-0.8,0-1.5-0.1-2.2-0.4
		c-0.7-0.3-1.3-0.7-1.8-1.2c-0.5-0.5-0.9-1.1-1.2-1.8C386.3,254.9,386.2,254.2,386.2,253.4z"/>
</g>
</svg>
