<?xml version="1.0" encoding="utf-8"?>
<!-- Generator: Adobe Illustrator 17.1.0, SVG Export Plug-In . SVG Version: 6.00 Build 0)  -->
<!DOCTYPE svg PUBLIC "-//W3C//DTD SVG 1.1//EN" "http://www.w3.org/Graphics/SVG/1.1/DTD/svg11.dtd">
<svg version="1.1" id="Layer_1" xmlns="http://www.w3.org/2000/svg" xmlns:xlink="http://www.w3.org/1999/xlink" x="0px" y="0px"
	 viewBox="0 0 150 200" enable-background="new 0 0 150 200" xml:space="preserve">
<rect x="9.7" y="175.9" fill="#FBFAEC" width="130.7" height="14.5"/>
<path fill="#FBFAEC" d="M128.3,10.7H21.7c-6.6,0-12,5.4-12,12v156c0,6.6,5.4,12,12,12h106.7c6.6,0,12-5.4,12-12v-156
	C140.3,16,135,10.7,128.3,10.7z M125.5,15.2h5.5v5.5h-5.5V15.2z M112.1,15.2h5.5v5.5h-5.5V15.2z M98.7,15.2h5.5v5.5h-5.5V15.2z
	 M85.3,15.2h5.5v5.5h-5.5V15.2z M71.9,15.2h5.5v5.5h-5.5V15.2z M58.5,15.2H64v5.5h-5.5V15.2z M45.1,15.2h5.5v5.5h-5.5V15.2z
	 M31.7,15.2h5.5v5.5h-5.5V15.2z M18.3,15.2h5.5v5.5h-5.5V15.2z"/>
<line fill="none" stroke="#E9E4DB" stroke-width="0.25" stroke-miterlimit="10" x1="9.7" y1="39.7" x2="140.3" y2="39.7"/>
<line fill="none" stroke="#E9E4DB" stroke-width="0.25" stroke-miterlimit="10" x1="9.7" y1="50.5" x2="140.3" y2="50.5"/>
<line fill="none" stroke="#E9E4DB" stroke-width="0.25" stroke-miterlimit="10" x1="9.7" y1="61.3" x2="140.3" y2="61.3"/>
<line fill="none" stroke="#E9E4DB" stroke-width="0.25" stroke-miterlimit="10" x1="9.7" y1="72.1" x2="140.3" y2="72.1"/>
<line fill="none" stroke="#E9E4DB" stroke-width="0.25" stroke-miterlimit="10" x1="9.7" y1="82.8" x2="140.3" y2="82.8"/>
<line fill="none" stroke="#E9E4DB" stroke-width="0.25" stroke-miterlimit="10" x1="9.7" y1="93.6" x2="140.3" y2="93.6"/>
<line fill="none" stroke="#E9E4DB" stroke-width="0.25" stroke-miterlimit="10" x1="9.7" y1="104.4" x2="140.3" y2="104.4"/>
<line fill="none" stroke="#E9E4DB" stroke-width="0.25" stroke-miterlimit="10" x1="9.7" y1="115.2" x2="140.3" y2="115.2"/>
<line fill="none" stroke="#E9E4DB" stroke-width="0.25" stroke-miterlimit="10" x1="9.7" y1="126" x2="140.3" y2="126"/>
<line fill="none" stroke="#E9E4DB" stroke-width="0.25" stroke-miterlimit="10" x1="9.7" y1="136.8" x2="140.3" y2="136.8"/>
<line fill="none" stroke="#E9E4DB" stroke-width="0.25" stroke-miterlimit="10" x1="9.7" y1="147.6" x2="140.3" y2="147.6"/>
<line fill="none" stroke="#E9E4DB" stroke-width="0.25" stroke-miterlimit="10" x1="9.7" y1="158.3" x2="140.3" y2="158.3"/>
<line fill="none" stroke="#E9E4DB" stroke-width="0.25" stroke-miterlimit="10" x1="9.7" y1="169.1" x2="140.3" y2="169.1"/>
<line fill="none" stroke="#E9E4DB" stroke-width="0.25" stroke-miterlimit="10" x1="9.7" y1="179.9" x2="140.3" y2="179.9"/>
<rect x="9.7" y="10.7" fill="#E9E4DB" width="130.7" height="14.5"/>
<line fill="none" stroke="#E9E4DB" stroke-width="0.25" stroke-miterlimit="10" x1="22.3" y1="25.2" x2="22.3" y2="190.7"/>
<line fill="none" stroke="#E9E4DB" stroke-width="0.25" stroke-miterlimit="10" x1="24.8" y1="25.2" x2="24.8" y2="190.7"/>
</svg>
