<?xml version="1.0" encoding="utf-8"?>
<!-- Generator: Adobe Illustrator 17.1.0, SVG Export Plug-In . SVG Version: 6.00 Build 0)  -->
<!DOCTYPE svg PUBLIC "-//W3C//DTD SVG 1.1//EN" "http://www.w3.org/Graphics/SVG/1.1/DTD/svg11.dtd">
<svg version="1.1" id="Layer_1" xmlns="http://www.w3.org/2000/svg" xmlns:xlink="http://www.w3.org/1999/xlink" x="0px" y="0px"
	 viewBox="0 0 91 500" enable-background="new 0 0 91 500" xml:space="preserve">
<g>
	<g opacity="0.3">
		<path d="M18.3,341.7v26.7c0,5.8,4.2,10,8.5,10h6.9c4.3,0,6.8-4.2,6.8-10v-26.7L18.3,341.7L18.3,341.7z"/>
		<rect x="18.3" y="48.3" width="22.3" height="304.2"/>
		<rect x="18.3" y="341.7" width="22.3" height="11"/>
		<rect x="18.3" y="344.1" width="22.3" height="6.1"/>
		<polygon points="30.3,18.8 30.2,19 30.2,19 		"/>
		<polygon points="29.5,17.1 18.3,48.2 22.1,52.5 25.8,48.2 29.5,52.5 33.3,48.2 37,52.5 40.7,48.2 		"/>
		<path d="M35,32.2l-5.5-15.1L24,32.3c1.7,0.9,3.5,1.6,5.4,1.6C31.4,33.8,33.3,33.4,35,32.2z"/>
	</g>
	<g>
		<g>
			<path fill="#DA3E26" d="M16.7,339.4v26.7c0,5.8,4.2,10,8.5,10h6.9c4.3,0,6.8-4.2,6.8-10v-26.7H16.7z"/>
			<rect x="16.7" y="46.2" fill="#E5B56A" width="22.3" height="304.2"/>
			<rect x="16.7" y="46.2" fill="#CE9D5B" width="12" height="304.1"/>
			<rect x="16.7" y="339.4" fill="#F8DE6B" width="22.3" height="11"/>
			<rect x="16.7" y="341.8" fill="#A09F9F" width="22.3" height="6.1"/>
			<polygon fill="#DFB159" points="28.8,16.4 28.7,16.7 28.7,16.7 			"/>
			<polygon fill="#C2B08F" points="28,14.7 16.7,45.9 20.5,50.1 24.2,45.9 28,50.1 31.6,45.9 35.4,50.1 39,45.9 			"/>
			<g>
				<path d="M33.4,29.9L28,14.7l-5.5,15.3c1.7,0.9,3.5,1.6,5.4,1.6C29.9,31.6,31.6,31,33.4,29.9z"/>
			</g>
		</g>
	</g>
</g>
<g>
	<g opacity="0.3">
		<path d="M54.7,433.1v26.7c0,5.8,4.2,10,8.5,10h6.9c4.3,0,6.8-4.2,6.8-10v-26.7H54.7z"/>
		<rect x="54.7" y="139.8" width="22.3" height="304.2"/>
		<rect x="54.7" y="433.1" width="22.3" height="11"/>
		<rect x="54.7" y="435.5" width="22.3" height="6.1"/>
		<polygon points="66.8,110.2 66.7,110.5 66.7,110.5 		"/>
		<polygon points="65.9,108.5 54.7,139.7 58.5,143.9 62.3,139.7 65.9,143.9 69.7,139.7 73.4,143.9 77.1,139.7 		"/>
		<path d="M71.4,123.6l-5.5-15.1l-5.5,15.2c1.7,0.9,3.5,1.6,5.4,1.6C67.9,125.2,69.7,124.8,71.4,123.6z"/>
	</g>
	<g>
		<g>
			<path fill="#DA3E26" d="M53.2,430.8v26.7c0,5.8,4.2,10,8.5,10h6.9c4.3,0,6.8-4.2,6.8-10v-26.7H53.2z"/>
			<rect x="53.2" y="137.6" fill="#E5B56A" width="22.3" height="304.2"/>
			<rect x="53.2" y="137.6" fill="#CE9D5B" width="12" height="304.1"/>
			<rect x="53.2" y="430.8" fill="#F8DE6B" width="22.3" height="11"/>
			<rect x="53.2" y="433.4" fill="#A09F9F" width="22.3" height="6.1"/>
			<polygon fill="#DFB159" points="65.2,107.9 65.1,108.1 65.1,108.1 			"/>
			<polygon fill="#C2B08F" points="64.4,106.1 53.2,137.3 57,141.5 60.7,137.3 64.4,141.5 68.1,137.3 71.8,141.5 75.4,137.3 			"/>
			<g>
				<path d="M69.8,121.3l-5.4-15.2l-5.5,15.3c1.7,0.9,3.5,1.6,5.4,1.6C66.3,123.1,68.1,122.4,69.8,121.3z"/>
			</g>
		</g>
	</g>
</g>
</svg>
