<?xml version="1.0" encoding="utf-8"?>
<!-- Generator: Adobe Illustrator 17.1.0, SVG Export Plug-In . SVG Version: 6.00 Build 0)  -->
<!DOCTYPE svg PUBLIC "-//W3C//DTD SVG 1.1//EN" "http://www.w3.org/Graphics/SVG/1.1/DTD/svg11.dtd">
<svg version="1.1" xmlns="http://www.w3.org/2000/svg" xmlns:xlink="http://www.w3.org/1999/xlink" x="0px" y="0px"
	 viewBox="-300.8 -65 560.8 416" enable-background="new -300.8 -65 560.8 416" xml:space="preserve">
<g id="Layer_1" display="none">
	<g display="inline">
		<g opacity="0.3">
			<path d="M234.2-55.1c13.2,0,23.9,10.5,23.9,23.9V323c0,13.2-10.5,23.9-23.9,23.9h-471.7c-13.2,0-23.9-10.5-23.9-23.9V-31.2
				c0-13.2,10.5-23.9,23.9-23.9H234.2z"/>
			<rect x="-215.1" y="-16.2" width="426.3" height="323.7"/>
			<circle cx="-239" cy="146.2" r="4.2"/>
			<circle cx="235.4" cy="146.2" r="11.4"/>
			<path opacity="0.1" enable-background="new    " d="M234.5-55.1h-346.3L97,346.9h137.2c13.2,0,23.9-10.5,23.9-23.9V-31.5
				C258.5-44.6,248-55.1,234.5-55.1z"/>
		</g>
		<g>
			<g>
				<g enable-background="new    ">
					<g>
						<path fill="#FFFFFF" d="M232.2-57.1c13.2,0,23.9,10.5,23.9,23.9V321c0,13.2-10.5,23.9-23.9,23.9h-471.7
							c-13.2,0-23.9-10.5-23.9-23.9V-33.2c0-13.2,10.5-23.9,23.9-23.9H232.2z"/>
					</g>
				</g>
				<rect x="-217.1" y="-18.2" fill="#E2E2E2" width="426.3" height="323.7"/>
				<circle fill="#E8E8E8" cx="-241" cy="144.2" r="4.2"/>
				<circle fill="#E8E8E8" cx="233.4" cy="144.2" r="11.4"/>
				<path opacity="0.1" fill="#FFFFFF" enable-background="new    " d="M232.5-57.1h-346.3L95,344.9h137.2
					c13.2,0,23.9-10.5,23.9-23.9V-33.5C256.5-46.6,246-57.1,232.5-57.1z"/>
			</g>
		</g>
	</g>
</g>
<g id="Layer_8" display="none">
	<g display="inline">
		<defs>
			<path id="SVGID_1_" d="M-86.5,121.2c0.4,2.7-1.5,5.3-4.3,5.6l-185,26c-2.7,0.4-5.3-1.5-5.6-4.3l-16.2-115.3
				c-0.4-2.7,1.5-5.3,4.3-5.6l185-26c2.7-0.4,5.3,1.5,5.6,4.3L-86.5,121.2z"/>
		</defs>
		<clipPath id="SVGID_2_">
			<use xlink:href="#SVGID_1_"  overflow="visible"/>
		</clipPath>
		<g clip-path="url(#SVGID_2_)">
			<g>
				<g>
					
						<rect x="-290.4" y="14.1" transform="matrix(-0.9903 0.1392 -0.1392 -0.9903 -371.4077 180.5098)" fill="#FFFFFF" width="196.8" height="126.4"/>
					
						<rect x="-296" y="14.5" transform="matrix(-0.9903 0.1392 -0.1392 -0.9903 -388.0523 102.2031)" fill="#F94803" width="196.8" height="46.1"/>
					<g>
						<path fill="#FFFFFF" d="M-272.5,32.4l7.1-1l1.7,12.1l13.7-1.9l-1.7-12.1l7.1-1l4.5,32.2l-7.1,1l-2-13.9l-13.7,1.9l2,13.9
							l-7.1,1L-272.5,32.4z"/>
						<path fill="#FFFFFF" d="M-237.6,27.5l21.9-3.1l0.9,6.6l-14.8,2.1l0.8,6l13.9-2l0.9,6.6l-13.9,2l0.9,6.6l15.7-2.2l0.9,6.6
							l-22.7,3.2L-237.6,27.5z"/>
						<path fill="#FFFFFF" d="M-208.9,23.5l7.1-1l3.6,25.8l13.2-1.9l0.9,6.6l-20.3,2.9L-208.9,23.5L-208.9,23.5z"/>
						<path fill="#FFFFFF" d="M-184.4,20l7.1-1l3.6,25.8l13.2-1.9l0.9,6.6l-20.3,2.9L-184.4,20L-184.4,20z"/>
						<path fill="#FFFFFF" d="M-159.6,33c-0.4-2.6-0.2-4.9,0.3-7.3s1.4-4.3,2.8-5.8c1.4-1.5,3-2.9,5.1-4.1c2.1-1.2,4.2-1.9,6.9-2.3
							c2.4-0.3,4.9-0.2,7.3,0.3c2.3,0.6,4.3,1.4,6,2.5c1.7,1.1,3.3,2.9,4.3,4.8c1.2,1.9,1.9,4.2,2.3,6.9c0.4,2.6,0.2,4.9-0.3,7.3
							c-0.6,2.1-1.4,4.3-2.8,5.8c-1.3,1.8-2.9,3.1-5.1,4.1c-2.1,1.2-4.2,1.9-6.9,2.3s-4.9,0.2-7.2-0.1c-2.3-0.6-4.3-1.4-6-2.5
							c-1.8-1.3-3.3-2.9-4.3-4.8C-158.5,38-159.3,35.6-159.6,33z M-152.3,32c0.2,1.5,0.6,2.8,1.3,4.1c0.6,1.3,1.4,2.3,2.5,3
							s2.2,1.3,3.4,1.8c1.2,0.5,2.8,0.5,4.3,0.3c1.5-0.2,2.8-0.6,4.1-1.5c1.2-0.8,2-1.6,2.8-2.6c0.8-1,1.3-2.2,1.5-3.6
							c0.3-1.4,0.3-2.7,0.1-4.3c-0.2-1.5-0.6-2.8-1.3-4.1c-0.6-1.3-1.4-2.3-2.5-3s-2.2-1.3-3.4-1.8c-1.1-0.1-2.5-0.3-4.1-0.1
							c-1.5,0.2-2.8,0.6-4.1,1.5c-1.3,0.6-2,1.6-2.8,2.6c-0.8,1-1.3,2.2-1.5,3.6C-152.5,29.1-152.6,30.4-152.3,32z"/>
					</g>
					<g>
						<path fill="#F94803" d="M-224.1,67.9l2.4-0.3l2.2,4.4l0,0l0.9-4.9l2.4-0.3l1,7.3l-1.5,0.2l-0.8-5.5l0,0l-1,5.8l-1.3,0.2
							l-2.5-5.3l0,0l0.8,5.5l-1.5,0.2L-224.1,67.9L-224.1,67.9z"/>
						<path fill="#F94803" d="M-212,70.7l-3.5-3.8l2-0.3l1.9,2.4l1.2-2.9l1.8-0.2l-2.3,4.6l0.4,3.1l-1.5,0.2L-212,70.7L-212,70.7z"
							/>
						<path fill="#F94803" d="M-204.6,65.2l2.2-0.3l3.8,4.6l0,0l-0.7-5.1l1.5-0.2l1,7.3l-2,0.3l-3.8-4.6l0,0l0.7,5.1l-1.5,0.2
							l-1-7.3L-204.6,65.2z"/>
						<path fill="#F94803" d="M-193.8,63.7l1.3-0.2l4.1,6.9l-1.8,0.2l-0.9-1.5l-2.9,0.4l-0.4,1.6l-1.8,0.2L-193.8,63.7z
							 M-192.8,65.8l-0.6,2.3l1.8-0.2L-192.8,65.8z"/>
						<path fill="#F94803" d="M-188.5,62.9l2.4-0.3l2.2,4.4l0,0l0.9-4.9l2.4-0.3l1,7.3l-1.5,0.2l-0.8-5.5l0,0l-1,5.8l-1.3,0.2
							l-2.5-5.3l0,0l0.8,5.5l-1.5,0.2L-188.5,62.9L-188.5,62.9z"/>
						<path fill="#F94803" d="M-178.8,61.6l4.9-0.7l0.2,1.5l-3.3,0.5l0.2,1.3l3.1-0.4l0.2,1.5l-3.1,0.4l0.2,1.5l3.5-0.5l0.2,1.5
							l-5.1,0.7L-178.8,61.6L-178.8,61.6z"/>
						<path fill="#F94803" d="M-169.3,60.2l1.5-0.2l1,7.3l-1.5,0.2L-169.3,60.2z"/>
						<path fill="#F94803" d="M-162.4,61.3c0-0.2-0.3-0.2-0.5-0.4c-0.2,0-0.4,0.1-0.7,0.1l-0.2,0l-0.2,0c0,0-0.2,0-0.2,0.3l0,0.2
							c0,0.2,0.1,0.4,0.3,0.4s0.5,0.2,0.7,0.1s0.5,0.2,0.9,0.1c0.2,0,0.5,0.2,0.9,0.1c0.2,0,0.5,0.2,0.8,0.6
							c0.3,0.2,0.3,0.6,0.4,1.1c0.1,0.4,0.1,0.7-0.1,1.1c0,0.2-0.2,0.5-0.6,0.8c-0.2,0.3-0.4,0.3-0.8,0.6c-0.2,0-0.7,0.1-1.1,0.2
							c-0.4,0.1-0.9,0.1-1.4,0c-0.4,0.1-0.9-0.3-1.2-0.5l0.9-1.5c0.3,0.2,0.5,0.4,0.7,0.3c0.2,0,0.5,0.2,0.9,0.1c0,0,0.2,0,0.4-0.1
							c0.2,0,0.2,0,0.4-0.1c0,0,0.2,0,0.2-0.3l0-0.2c0-0.2-0.1-0.4-0.3-0.4s-0.5-0.2-0.7-0.1s-0.5-0.2-0.9-0.1
							c-0.2,0-0.5-0.2-0.9-0.3c-0.2,0-0.5-0.2-0.8-0.6c-0.3-0.2-0.3-0.6-0.4-1.1c-0.1-0.4-0.1-0.7,0.1-1.1c0-0.2,0.2-0.5,0.6-0.8
							c0.2-0.3,0.4-0.3,0.8-0.6c0.2,0,0.7-0.1,1.1-0.2c0.4-0.1,0.9-0.1,1.4,0c0.4-0.1,0.7,0.1,1.2,0.5L-162.4,61.3z"/>
					</g>
				</g>
			</g>
		</g>
	</g>
</g>
<g id="Layer_2_1_" display="none">
	<g display="inline">
		<path fill="#333333" d="M-255.5,100.7l3,21.4c0.6,4.5-1.6,7.6-6.1,8.3c-0.9,0.1-2.4,0.1-2.4,0.1l-0.1-2.8l1.9-0.3
			c2.4-0.3,3.2-1.8,2.9-4l-3.1-22.1l-3.3-0.3l-0.3-2l10.2-1.6l0.3,2.2L-255.5,100.7z"/>
		<path fill="#333333" d="M-229.4,110.1c0.9,6.3-2.2,11.1-7.8,11.9c-5.6,0.8-9.4-2.1-10.3-8.8c-0.9-6.3,2.4-11,8-11.8
			C-233.9,100.6-230.2,104.1-229.4,110.1z M-243.6,112.5c0.6,4.5,2.5,7,6.2,6.5c3.7-0.5,4.8-3.3,4.2-8.2c-0.6-4.1-2.3-6.9-6-6.4
			C-243,105-244.3,107.6-243.6,112.5z"/>
		<path fill="#333333" d="M-221.1,101.6c1-1.1,3.4-3.2,6.1-3.6c4.1-0.6,6.3,1.8,6.9,5.9l1.5,10.4l2.9,0.5l0.3,2l-8.9,1.3l-0.3-2
			l2.3-1.2l-1.4-10.1c-0.4-2.6-1.4-3.8-3.8-3.5c-3.2,0.4-5.1,3.8-5.1,3.8l1.5,11l2.5,0.6l0.3,2l-9.3,1.3l-0.3-2l3-1.4l-3.2-22.7
			l-3.3-0.3l-0.3-2l6.9-1.2L-221.1,101.6z"/>
		<path fill="#333333" d="M-202.1,97.7c0,0,3.9-2.1,7-2.5c4.3-0.6,7.1,0.5,7.7,4.8l1.6,11.3l3.1,0.3l0.3,2l-5.7,1l-1.1-2.5
			c-1.1,1.4-3.1,3.5-5.7,3.8c-3.5,0.5-5.9-1.3-6.4-4.8c-0.6-4.3,2.5-6.2,7.7-7l3-0.4l-0.4-3c-0.3-2.2-1.8-3.2-4-2.9
			c-2.2,0.3-3.7,1.1-3.7,1.1l-0.1,2.9l-2.4,0.3L-202.1,97.7z M-192.8,106.6c-3.7,0.5-5,1.7-4.7,3.9c0.2,1.7,1.4,2.6,3.1,2.4
			c2.8-0.4,4.6-3.7,4.6-3.7l-0.4-3L-192.8,106.6z"/>
		<path fill="#333333" d="M-175.7,95.5c0.8-0.9,3.4-3.6,6.5-4c4.1-0.6,6.3,1.8,6.9,5.9l1.5,10.4l2.9,0.5l0.3,2l-8.9,1.3l-0.3-2
			l2.3-1.3l-1.4-10c-0.4-2.6-1.5-3.8-3.9-3.4c-3.2,0.4-5,3.7-5,3.7l1.5,11l2.5,0.6l0.3,2l-9.3,1.3l-0.3-2l3-1.4l-1.9-13.8l-3.3-0.3
			l-0.3-2l6.1-1L-175.7,95.5z"/>
		<path fill="#333333" d="M-150.9,92.1c0.8-0.9,3.4-3.6,6.5-4c4.1-0.6,6.3,1.8,6.9,5.9l1.5,10.4l2.9,0.5l0.3,2l-8.9,1.3l-0.3-2
			l2.3-1.3l-1.4-10c-0.4-2.6-1.5-3.8-3.9-3.4c-3.2,0.4-5,3.7-5,3.7l1.5,11l2.6,0.6l0.3,2l-9.3,1.3l-0.3-2l3-1.4l-1.9-13.8l-3.3-0.3
			l-0.3-2l6.1-1L-150.9,92.1z"/>
		<path fill="#333333" d="M-131.5,87.8c0,0,3.9-2.1,7-2.5c4.3-0.6,7.1,0.5,7.7,4.8l1.6,11.3l3.1,0.3l0.3,2l-5.7,1l-1.1-2.5
			c-1.1,1.4-3.1,3.5-5.7,3.8c-3.5,0.5-5.9-1.3-6.4-4.8c-0.6-4.3,2.5-6.2,7.7-7l3-0.4l-0.4-3c-0.3-2.2-1.8-3.2-4-2.9
			c-2.2,0.3-3.7,1.1-3.7,1.1l-0.1,2.9l-2.4,0.3L-131.5,87.8z M-122.3,96.7c-3.7,0.5-5,1.7-4.7,3.9c0.2,1.7,1.4,2.6,3.1,2.4
			c2.8-0.4,4.6-3.7,4.6-3.7l-0.4-3L-122.3,96.7z"/>
	</g>
	<g display="inline">
		<g>
			<path fill="#231F20" d="M130.4,200.7c0,0.9-0.7,1.7-1.6,1.7H87.3c-0.9,0-1.6-0.8-1.6-1.7v-12.3c0-0.9,0.7-1.7,1.6-1.7h41.5
				c0.9,0,1.6,0.8,1.6,1.7V200.7z"/>
			<g>
				<path fill="#FFFFFF" d="M97.9,191.6h1.2l1.2,4.4h0l1.3-4.4h1.1l1.3,4.4h0l1.2-4.4h1.1l-1.8,6h-1l-1.4-4.5h0l-1.4,4.5h-1
					L97.9,191.6z"/>
				<path fill="#FFFFFF" d="M107,191.6h4v0.9h-2.9v1.5h2.8v0.9h-2.8v1.7h3.1v0.9H107V191.6z"/>
				<path fill="#FFFFFF" d="M112.2,191.6h2.3c0.2,0,0.4,0,0.7,0.1c0.2,0.1,0.4,0.1,0.6,0.3c0.2,0.1,0.3,0.3,0.4,0.5
					c0.1,0.2,0.2,0.4,0.2,0.7c0,0.3-0.1,0.6-0.3,0.8c-0.2,0.2-0.4,0.4-0.8,0.5v0c0.4,0.1,0.7,0.2,0.9,0.4c0.2,0.2,0.4,0.6,0.4,1
					c0,0.3-0.1,0.6-0.2,0.8c-0.1,0.2-0.3,0.4-0.5,0.5c-0.2,0.1-0.5,0.2-0.7,0.3c-0.3,0.1-0.6,0.1-0.8,0.1h-2.2V191.6z M113.2,194
					h0.9c0.4,0,0.6-0.1,0.8-0.2c0.2-0.1,0.3-0.3,0.3-0.6c0-0.3-0.1-0.5-0.3-0.6c-0.2-0.1-0.5-0.2-0.9-0.2h-0.9V194z M113.2,196.7h1
					c0.1,0,0.3,0,0.4,0c0.2,0,0.3-0.1,0.4-0.1c0.1-0.1,0.2-0.2,0.3-0.3c0.1-0.1,0.1-0.3,0.1-0.5c0-0.3-0.1-0.5-0.3-0.7
					c-0.2-0.1-0.5-0.2-1-0.2h-1V196.7z"/>
			</g>
		</g>
		<path fill="#231F20" d="M188.2,200.7c0,0.9-1.1,1.7-2.4,1.7h-50c-1.4,0-2.4-0.8-2.4-1.7v-12.3c0-0.9,1.1-1.7,2.4-1.7h50
			c1.4,0,2.4,0.8,2.4,1.7V200.7z"/>
		<path fill="#FFFFFF" d="M142.7,192.8c-0.1-0.2-0.3-0.3-0.5-0.4c-0.2-0.1-0.4-0.1-0.6-0.1c-0.1,0-0.3,0-0.4,0
			c-0.1,0-0.2,0.1-0.3,0.1c-0.1,0.1-0.2,0.2-0.2,0.3c-0.1,0.1-0.1,0.2-0.1,0.4c0,0.2,0.1,0.4,0.2,0.5c0.1,0.1,0.3,0.2,0.6,0.3
			c0.2,0.1,0.5,0.2,0.7,0.2c0.3,0.1,0.5,0.2,0.7,0.3c0.2,0.1,0.4,0.3,0.6,0.5c0.2,0.2,0.2,0.5,0.2,0.9c0,0.3-0.1,0.6-0.2,0.9
			c-0.1,0.3-0.3,0.5-0.5,0.6c-0.2,0.2-0.5,0.3-0.7,0.4c-0.3,0.1-0.6,0.1-0.9,0.1c-0.4,0-0.8-0.1-1.1-0.2c-0.4-0.1-0.7-0.4-0.9-0.7
			l0.9-0.8c0.1,0.2,0.3,0.4,0.5,0.5c0.2,0.1,0.5,0.2,0.7,0.2c0.1,0,0.3,0,0.4-0.1c0.1,0,0.3-0.1,0.4-0.2c0.1-0.1,0.2-0.2,0.3-0.3
			c0.1-0.1,0.1-0.2,0.1-0.4c0-0.2-0.1-0.4-0.2-0.5c-0.2-0.1-0.3-0.2-0.6-0.3c-0.2-0.1-0.5-0.2-0.7-0.2c-0.3-0.1-0.5-0.2-0.7-0.3
			c-0.2-0.1-0.4-0.3-0.6-0.5c-0.2-0.2-0.2-0.5-0.2-0.9c0-0.3,0.1-0.6,0.2-0.9c0.1-0.2,0.3-0.4,0.5-0.6c0.2-0.2,0.5-0.3,0.8-0.4
			c0.3-0.1,0.6-0.1,0.9-0.1c0.3,0,0.7,0.1,1,0.2c0.3,0.1,0.6,0.3,0.9,0.5L142.7,192.8z"/>
		<path fill="#FFFFFF" d="M146,192.5h-2v-1h5v1h-2v5.3H146V192.5z"/>
		<path fill="#FFFFFF" d="M149.9,191.5h2.2c0.3,0,0.6,0,0.9,0.1c0.3,0.1,0.5,0.2,0.8,0.3c0.2,0.1,0.4,0.3,0.5,0.6
			c0.1,0.2,0.2,0.5,0.2,0.9c0,0.5-0.1,0.8-0.4,1.2c-0.3,0.3-0.6,0.5-1.1,0.6l1.7,2.8h-1.4l-1.5-2.7H151v2.7h-1.1V191.5z
			 M151.9,194.2c0.2,0,0.3,0,0.5,0c0.2,0,0.3-0.1,0.4-0.1c0.1-0.1,0.2-0.1,0.3-0.3c0.1-0.1,0.1-0.3,0.1-0.5c0-0.2,0-0.3-0.1-0.5
			c-0.1-0.1-0.2-0.2-0.3-0.3c-0.1-0.1-0.3-0.1-0.4-0.1c-0.2,0-0.3,0-0.4,0h-1v1.7H151.9z"/>
		<path fill="#FFFFFF" d="M157.6,191.5h1l2.7,6.4h-1.3l-0.6-1.5h-2.8l-0.6,1.5h-1.3L157.6,191.5z M159.1,195.4l-1-2.6l-1,2.6H159.1z
			"/>
		<path fill="#FFFFFF" d="M162.5,192.5h-2v-1h5v1h-2v5.3h-1.1V192.5z"/>
		<path fill="#FFFFFF" d="M166.4,191.5h4.2v1h-3.1v1.6h2.9v1h-2.9v1.7h3.3v1h-4.4V191.5z"/>
		<path fill="#FFFFFF" d="M177.6,197.4c-0.8,0.4-1.7,0.6-2.6,0.6c-0.5,0-0.9-0.1-1.4-0.2c-0.4-0.2-0.8-0.4-1.1-0.7
			c-0.3-0.3-0.5-0.6-0.7-1c-0.2-0.4-0.3-0.9-0.3-1.4c0-0.5,0.1-1,0.3-1.4c0.2-0.4,0.4-0.8,0.7-1.1c0.3-0.3,0.7-0.5,1.1-0.7
			s0.9-0.2,1.4-0.2c0.5,0,0.9,0.1,1.4,0.2c0.4,0.1,0.8,0.3,1.1,0.6l-0.8,0.8c-0.2-0.2-0.5-0.4-0.7-0.5c-0.3-0.1-0.6-0.2-0.9-0.2
			c-0.3,0-0.6,0.1-0.9,0.2c-0.3,0.1-0.5,0.3-0.7,0.5c-0.2,0.2-0.3,0.4-0.4,0.7c-0.1,0.3-0.2,0.6-0.2,0.9c0,0.3,0.1,0.7,0.2,0.9
			c0.1,0.3,0.3,0.5,0.4,0.7c0.2,0.2,0.4,0.4,0.7,0.5c0.3,0.1,0.6,0.2,0.9,0.2c0.3,0,0.6,0,0.8-0.1c0.3-0.1,0.5-0.1,0.7-0.3v-1.5
			h-1.3v-1h2.4V197.4z"/>
		<path fill="#FFFFFF" d="M180.5,195.1l-2.4-3.6h1.4l1.6,2.5l1.6-2.5h1.4l-2.4,3.6v2.7h-1.1V195.1z"/>
		<g>
			<g>
				<path fill="#231F20" d="M82.6,200.7c0,0.9-0.8,1.7-1.9,1.7H21c-1,0-1.9-0.8-1.9-1.7v-12.3c0-0.9,0.8-1.7,1.9-1.7h59.7
					c1,0,1.9,0.8,1.9,1.7V200.7z"/>
			</g>
		</g>
		<g enable-background="new    ">
			<path fill="#FFFFFF" d="M24.6,191.5h1.7L28,196l1.7-4.5h1.7v6.4h-1.1v-5.3h0l-1.9,5.3h-0.8l-1.9-5.3h0v5.3h-1.1V191.5z"/>
			<path fill="#FFFFFF" d="M34.9,191.5h1l2.7,6.4h-1.3l-0.6-1.5H34l-0.6,1.5h-1.3L34.9,191.5z M36.4,195.4l-1-2.6l-1,2.6H36.4z"/>
			<path fill="#FFFFFF" d="M39.4,191.5h2.2c0.3,0,0.6,0,0.9,0.1c0.3,0.1,0.5,0.2,0.8,0.3c0.2,0.1,0.4,0.3,0.5,0.6
				c0.1,0.2,0.2,0.5,0.2,0.9c0,0.5-0.1,0.8-0.4,1.2c-0.3,0.3-0.6,0.5-1.1,0.6l1.7,2.8h-1.4l-1.5-2.7h-0.8v2.7h-1.1V191.5z
				 M41.4,194.2c0.2,0,0.3,0,0.5,0c0.2,0,0.3-0.1,0.4-0.1c0.1-0.1,0.2-0.1,0.3-0.3c0.1-0.1,0.1-0.3,0.1-0.5c0-0.2,0-0.3-0.1-0.5
				c-0.1-0.1-0.2-0.2-0.3-0.3c-0.1-0.1-0.3-0.1-0.4-0.1c-0.2,0-0.3,0-0.4,0h-1v1.7H41.4z"/>
			<path fill="#FFFFFF" d="M45,191.5h1.1v2.7h0.1l2.6-2.7h1.5l-3,2.9l3.2,3.4H49l-2.8-3.1h-0.1v3.1H45V191.5z"/>
			<path fill="#FFFFFF" d="M51.2,191.5h4.2v1h-3.1v1.6h2.9v1h-2.9v1.7h3.3v1h-4.4V191.5z"/>
			<path fill="#FFFFFF" d="M58,192.5h-2v-1h5v1h-2v5.3H58V192.5z"/>
			<path fill="#FFFFFF" d="M61.9,191.5H63v6.4h-1.1V191.5z"/>
			<path fill="#FFFFFF" d="M64.4,191.5h1.5l3.1,4.7h0v-4.7h1.1v6.4h-1.4l-3.2-4.9h0v4.9h-1.1V191.5z"/>
			<path fill="#FFFFFF" d="M77.2,197.4c-0.8,0.4-1.7,0.6-2.6,0.6c-0.5,0-0.9-0.1-1.4-0.2s-0.8-0.4-1.1-0.7c-0.3-0.3-0.5-0.6-0.7-1
				c-0.2-0.4-0.3-0.9-0.3-1.4c0-0.5,0.1-1,0.3-1.4c0.2-0.4,0.4-0.8,0.7-1.1c0.3-0.3,0.7-0.5,1.1-0.7s0.9-0.2,1.4-0.2
				c0.5,0,0.9,0.1,1.4,0.2c0.4,0.1,0.8,0.3,1.1,0.6l-0.8,0.8c-0.2-0.2-0.5-0.4-0.7-0.5c-0.3-0.1-0.6-0.2-0.9-0.2
				c-0.3,0-0.6,0.1-0.9,0.2c-0.3,0.1-0.5,0.3-0.7,0.5c-0.2,0.2-0.3,0.4-0.4,0.7c-0.1,0.3-0.2,0.6-0.2,0.9c0,0.3,0.1,0.7,0.2,0.9
				c0.1,0.3,0.3,0.5,0.4,0.7c0.2,0.2,0.4,0.4,0.7,0.5c0.3,0.1,0.6,0.2,0.9,0.2c0.3,0,0.6,0,0.8-0.1c0.3-0.1,0.5-0.1,0.7-0.3v-1.5
				h-1.3v-1h2.4V197.4z"/>
		</g>
	</g>
</g>
<g id="Layer_3" display="none">
	<g display="inline">
		<path fill="#333333" d="M-250.6,119.9c0,0,1.7,0.7,4,0.3c2.6-0.4,5.2-2,4.8-4.5c-0.8-5.4-13.1-1.4-14.3-9.8
			c-0.7-4.9,2.9-7.5,7.3-8.1c3.3-0.5,7.6,0.4,7.6,0.4l0.7,6l-2.3,0.3l-1.7-3.6c0,0-1.9-0.4-3.8-0.1c-3.2,0.4-4.4,2.3-4.2,4.1
			c0.7,5.3,13.1,1.5,14.2,9.4c0.7,5.3-3.2,8.3-8.1,9c-3.7,0.5-7.4-0.4-7.4-0.4l-0.9-6.1l2.8-0.4L-250.6,119.9z"/>
		<path fill="#333333" d="M-235,103.4c0,0,3.7-1.9,6.6-2.4c4.1-0.6,6.7,0.5,7.2,4.5l1.5,10.7l2.9,0.3l0.3,1.9l-5.4,0.9l-1.1-2.4
			c-1,1.4-2.9,3.3-5.4,3.6c-3.3,0.5-5.5-1.2-6-4.5c-0.6-4,2.4-5.9,7.3-6.6l2.8-0.4l-0.4-2.8c-0.3-2.1-1.7-3-3.8-2.7
			c-2.1,0.3-3.5,1-3.5,1l-0.1,2.7l-2.3,0.3L-235,103.4z M-226.3,111.8c-3.5,0.5-4.7,1.6-4.4,3.7c0.2,1.6,1.4,2.5,2.9,2.3
			c2.6-0.4,4.3-3.5,4.3-3.5l-0.4-2.8L-226.3,111.8z"/>
		<path fill="#333333" d="M-210.1,101.5c0.7-1.1,2.5-3.3,4.9-3.7c1.8-0.2,3.2,0.1,3.2,0.1l0.5,5.1l-2.3,0.3l-0.9-2.6
			c-2.6,0.4-4.1,2.3-4.7,3.4l1.5,10.4l3.6,0.4l0.3,1.9l-10,1.4l-0.3-1.9l2.9-1.3l-1.8-13l-3.1-0.3l-0.3-1.9l5.8-1L-210.1,101.5z"/>
		<path fill="#333333" d="M-199.2,98.4c0,0,3.7-1.9,6.6-2.4c4.1-0.6,6.7,0.5,7.2,4.5l1.5,10.7l2.9,0.3l0.3,1.9l-5.4,0.9l-1.1-2.4
			c-1,1.4-2.9,3.3-5.4,3.6c-3.3,0.5-5.5-1.2-6-4.5c-0.6-4,2.4-5.9,7.3-6.6l2.8-0.4l-0.4-2.8c-0.3-2.1-1.7-3-3.8-2.7
			c-2.1,0.3-3.5,1-3.5,1l-0.1,2.7l-2.3,0.3L-199.2,98.4z M-190.5,106.8c-3.5,0.5-4.7,1.6-4.4,3.7c0.2,1.6,1.4,2.5,2.9,2.3
			c2.6-0.4,4.3-3.5,4.3-3.5l-0.4-2.8L-190.5,106.8z"/>
		<path fill="#333333" d="M-174.5,96.1c1-1.1,3.2-3,5.8-3.4c3.9-0.5,6,1.7,6.5,5.5l1.4,9.8l2.8,0.5l0.3,1.9l-8.4,1.2l-0.3-1.9
			l2.2-1.2l-1.3-9.5c-0.3-2.5-1.3-3.6-3.6-3.3c-3,0.4-4.8,3.5-4.8,3.5l1.5,10.3l2.4,0.6l0.3,1.9l-8.8,1.2l-0.3-1.9l2.9-1.3l-3-21.4
			l-3.1-0.3l-0.3-1.9l6.5-1.1L-174.5,96.1z"/>
		<path fill="#333333" d="M-147.4,86.8l-3.1-0.3l-0.3-1.9l6.5-1.1l4-0.6c4.4-0.6,7.8,0.9,8.4,5.1c0.4,3.2-0.9,5.2-3.8,6.3
			c3.8,0.3,5.8,2.1,6.2,5c0.7,4.9-2.2,7.5-8,8.3l-10,1.4l-0.3-2.1l2.9-1.1L-147.4,86.8z M-140.2,93.7c3.2-0.4,5.1-2,4.7-4.8
			c-0.3-2.5-2.3-3.4-4.5-3.1l-3.9,0.5l1.1,7.7L-140.2,93.7z M-137.5,104.7c3.3-0.5,4.9-2.1,4.5-4.7c-0.5-3.5-2.9-4.2-6.8-3.7
			l-2.6,0.4l1.2,8.6L-137.5,104.7z"/>
		<path fill="#333333" d="M-122.7,100.9c1.4-0.2,2.4,0.6,2.6,2.1s-0.7,2.6-1.9,2.8c-1.4,0.2-2.4-0.6-2.6-2.1S-123.9,101-122.7,100.9
			z"/>
	</g>
	<g display="inline">
		<g>
			<g>
				<path fill="#231F20" d="M66.9,200.7c0,0.9-1.1,1.7-2.5,1.7H21.6c-1.4,0-2.5-0.8-2.5-1.7v-12.4c0-0.9,1.1-1.7,2.5-1.7h42.8
					c1.4,0,2.5,0.8,2.5,1.7V200.7z"/>
			</g>
		</g>
		<g>
			<path fill="#FFFFFF" d="M24.6,191.6h1.1v6h-1.1V191.6z"/>
			<path fill="#FFFFFF" d="M27,191.6h2.1c0.4,0,0.8,0.1,1.2,0.2c0.4,0.1,0.8,0.3,1.1,0.5c0.3,0.2,0.6,0.5,0.8,0.9
				c0.2,0.4,0.3,0.9,0.3,1.4c0,0.5-0.1,1-0.3,1.4c-0.2,0.4-0.5,0.7-0.8,0.9c-0.3,0.2-0.7,0.4-1.1,0.5c-0.4,0.1-0.8,0.2-1.2,0.2H27
				V191.6z M29,196.7c0.3,0,0.6,0,0.8-0.1c0.3-0.1,0.5-0.2,0.8-0.3c0.2-0.2,0.4-0.4,0.6-0.6c0.1-0.3,0.2-0.6,0.2-1
				c0-0.4-0.1-0.8-0.2-1.1c-0.1-0.3-0.3-0.5-0.6-0.6c-0.2-0.2-0.5-0.3-0.8-0.3c-0.3-0.1-0.6-0.1-0.8-0.1h-0.9v4.2H29z"/>
			<path fill="#FFFFFF" d="M33.5,191.6h4v0.9h-2.9v1.5h2.8v0.9h-2.8v1.7h3.1v1h-4.2V191.6z"/>
			<path fill="#FFFFFF" d="M38.8,191.6h1.4l2.8,4.5h0v-4.5h1.1v6h-1.4l-2.9-4.7h0v4.7h-1.1V191.6z"/>
			<path fill="#FFFFFF" d="M46.6,192.5h-1.9v-0.9h4.8v0.9h-1.9v5.1h-1.1V192.5z"/>
			<path fill="#FFFFFF" d="M50.3,191.6h1.1v6h-1.1V191.6z"/>
			<path fill="#FFFFFF" d="M53.9,192.5H52v-0.9h4.8v0.9H55v5.1h-1.1V192.5z"/>
			<path fill="#FFFFFF" d="M58.9,195l-2.3-3.4h1.3l1.5,2.5l1.5-2.5h1.2L60,195v2.6h-1.1V195z"/>
		</g>
		<g>
			<path fill="#231F20" d="M188.2,200.7c0,0.9-1.1,1.7-2.4,1.7h-47c-1.4,0-2.4-0.8-2.4-1.7v-12.3c0-0.9,1.1-1.7,2.4-1.7h47
				c1.4,0,2.4,0.8,2.4,1.7V200.7z"/>
		</g>
		<g>
			<path fill="#FFFFFF" d="M149.3,197.3c-0.3,0.1-0.6,0.3-1,0.3c-0.4,0.1-0.8,0.1-1.3,0.1c-0.5,0-0.9-0.1-1.3-0.2s-0.7-0.4-1-0.7
				s-0.5-0.6-0.7-1c-0.2-0.4-0.2-0.8-0.2-1.3c0-0.5,0.1-0.9,0.2-1.3c0.2-0.4,0.4-0.7,0.7-1c0.3-0.3,0.6-0.5,1-0.6
				c0.4-0.1,0.8-0.2,1.3-0.2c0.5,0,0.9,0.1,1.3,0.2c0.4,0.1,0.7,0.3,1,0.5l-0.7,0.8c-0.2-0.2-0.4-0.3-0.6-0.4
				c-0.3-0.1-0.6-0.2-0.9-0.2c-0.3,0-0.6,0.1-0.9,0.2c-0.3,0.1-0.5,0.3-0.7,0.5c-0.2,0.2-0.3,0.4-0.4,0.7c-0.1,0.3-0.1,0.6-0.1,0.9
				c0,0.3,0,0.6,0.1,0.9c0.1,0.3,0.2,0.5,0.4,0.7c0.2,0.2,0.4,0.4,0.7,0.5c0.3,0.1,0.6,0.2,0.9,0.2c0.5,0,0.9-0.1,1.2-0.2v-1.5H147
				v-0.9h2.3V197.3z"/>
			<path fill="#FFFFFF" d="M150.6,191.6h2.1c0.3,0,0.6,0,0.8,0.1c0.3,0.1,0.5,0.2,0.7,0.3c0.2,0.1,0.4,0.3,0.5,0.5
				c0.1,0.2,0.2,0.5,0.2,0.8c0,0.4-0.1,0.8-0.4,1.1c-0.2,0.3-0.6,0.5-1,0.6l1.6,2.7h-1.3l-1.4-2.5h-0.8v2.5h-1.1V191.6z
				 M152.5,194.2c0.2,0,0.3,0,0.5,0c0.2,0,0.3-0.1,0.4-0.1c0.1-0.1,0.2-0.2,0.3-0.3c0.1-0.1,0.1-0.3,0.1-0.4c0-0.2,0-0.3-0.1-0.4
				c-0.1-0.1-0.2-0.2-0.3-0.2c-0.1-0.1-0.2-0.1-0.4-0.1c-0.1,0-0.3,0-0.4,0h-1v1.7H152.5z"/>
			<path fill="#FFFFFF" d="M157.8,191.6h0.9l2.6,6H160l-0.6-1.4h-2.6l-0.5,1.4h-1.2L157.8,191.6z M159.1,195.3l-0.9-2.4l-0.9,2.4
				H159.1z"/>
			<path fill="#FFFFFF" d="M161.9,191.6h2c0.3,0,0.7,0,0.9,0.1c0.3,0.1,0.5,0.2,0.7,0.3c0.2,0.1,0.3,0.3,0.5,0.5
				c0.1,0.2,0.2,0.5,0.2,0.8c0,0.3-0.1,0.6-0.2,0.8c-0.1,0.2-0.3,0.4-0.5,0.5c-0.2,0.1-0.5,0.2-0.7,0.3c-0.3,0.1-0.6,0.1-0.9,0.1
				h-0.8v2.5h-1.1V191.6z M163.7,194.2c0.2,0,0.3,0,0.5,0c0.2,0,0.3-0.1,0.4-0.1c0.1-0.1,0.2-0.2,0.3-0.3c0.1-0.1,0.1-0.3,0.1-0.4
				c0-0.2,0-0.3-0.1-0.4c-0.1-0.1-0.2-0.2-0.3-0.3c-0.1-0.1-0.3-0.1-0.4-0.1c-0.2,0-0.3,0-0.5,0h-0.8v1.7H163.7z"/>
			<path fill="#FFFFFF" d="M167,191.6h1.1v2.4h2.8v-2.4h1.1v6h-1.1v-2.7h-2.8v2.7H167V191.6z"/>
			<path fill="#FFFFFF" d="M173.3,191.6h1.1v6h-1.1V191.6z"/>
			<path fill="#FFFFFF" d="M180,193c-0.2-0.2-0.4-0.4-0.6-0.5c-0.3-0.1-0.5-0.1-0.7-0.1c-0.3,0-0.6,0.1-0.8,0.2
				c-0.3,0.1-0.5,0.3-0.7,0.5c-0.2,0.2-0.3,0.4-0.4,0.7c-0.1,0.3-0.1,0.6-0.1,0.9c0,0.3,0,0.6,0.1,0.9c0.1,0.3,0.2,0.5,0.4,0.7
				c0.2,0.2,0.4,0.3,0.6,0.5c0.2,0.1,0.5,0.2,0.8,0.2c0.3,0,0.6-0.1,0.9-0.2c0.2-0.1,0.4-0.3,0.6-0.5l0.9,0.6
				c-0.3,0.3-0.6,0.6-1,0.8c-0.4,0.2-0.8,0.3-1.3,0.3c-0.5,0-0.9-0.1-1.3-0.2c-0.4-0.2-0.7-0.4-1-0.7c-0.3-0.3-0.5-0.6-0.7-1
				c-0.2-0.4-0.2-0.8-0.2-1.3c0-0.5,0.1-0.9,0.2-1.3c0.2-0.4,0.4-0.7,0.7-1c0.3-0.3,0.6-0.5,1-0.6c0.4-0.1,0.8-0.2,1.3-0.2
				c0.2,0,0.4,0,0.6,0.1c0.2,0,0.4,0.1,0.6,0.2c0.2,0.1,0.4,0.2,0.5,0.3c0.2,0.1,0.3,0.2,0.4,0.4L180,193z"/>
		</g>
		<path fill="#231F20" d="M133.4,200.6c0,0.9-0.8,1.7-1.9,1.7H71.8c-1,0-1.9-0.8-1.9-1.7v-12.3c0-0.9,0.8-1.7,1.9-1.7h59.7
			c1,0,1.9,0.8,1.9,1.7V200.6z"/>
		<g enable-background="new    ">
			<path fill="#FFFFFF" d="M75.3,191.4H77l1.7,4.5l1.7-4.5h1.7v6.4h-1.1v-5.3h0l-1.9,5.3h-0.8l-1.9-5.3h0v5.3h-1.1V191.4z"/>
			<path fill="#FFFFFF" d="M85.7,191.4h1l2.7,6.4h-1.3l-0.6-1.5h-2.8l-0.6,1.5h-1.3L85.7,191.4z M87.1,195.4l-1-2.6l-1,2.6H87.1z"/>
			<path fill="#FFFFFF" d="M90.1,191.4h2.2c0.3,0,0.6,0,0.9,0.1c0.3,0.1,0.5,0.2,0.8,0.3c0.2,0.1,0.4,0.3,0.5,0.6
				c0.1,0.2,0.2,0.5,0.2,0.9c0,0.5-0.1,0.8-0.4,1.2c-0.3,0.3-0.6,0.5-1.1,0.6l1.7,2.8h-1.4l-1.5-2.7h-0.8v2.7h-1.1V191.4z
				 M92.1,194.1c0.2,0,0.3,0,0.5,0c0.2,0,0.3-0.1,0.4-0.1c0.1-0.1,0.2-0.1,0.3-0.3c0.1-0.1,0.1-0.3,0.1-0.5c0-0.2,0-0.3-0.1-0.5
				c-0.1-0.1-0.2-0.2-0.3-0.3c-0.1-0.1-0.3-0.1-0.4-0.1c-0.2,0-0.3,0-0.4,0h-1v1.7H92.1z"/>
			<path fill="#FFFFFF" d="M95.8,191.4h1.1v2.7H97l2.6-2.7h1.5l-3,2.9l3.2,3.4h-1.6l-2.8-3.1h-0.1v3.1h-1.1V191.4z"/>
			<path fill="#FFFFFF" d="M102,191.4h4.2v1h-3.1v1.6h2.9v1h-2.9v1.7h3.3v1H102V191.4z"/>
			<path fill="#FFFFFF" d="M108.8,192.4h-2v-1h5v1h-2v5.3h-1.1V192.4z"/>
			<path fill="#FFFFFF" d="M112.6,191.4h1.1v6.4h-1.1V191.4z"/>
			<path fill="#FFFFFF" d="M115.1,191.4h1.5l3.1,4.7h0v-4.7h1.1v6.4h-1.4l-3.2-4.9h0v4.9h-1.1V191.4z"/>
			<path fill="#FFFFFF" d="M128,197.3c-0.8,0.4-1.7,0.6-2.6,0.6c-0.5,0-0.9-0.1-1.4-0.2c-0.4-0.2-0.8-0.4-1.1-0.7
				c-0.3-0.3-0.5-0.6-0.7-1c-0.2-0.4-0.3-0.9-0.3-1.4c0-0.5,0.1-1,0.3-1.4c0.2-0.4,0.4-0.8,0.7-1.1c0.3-0.3,0.7-0.5,1.1-0.7
				c0.4-0.2,0.9-0.2,1.4-0.2c0.5,0,0.9,0.1,1.4,0.2c0.4,0.1,0.8,0.3,1.1,0.6l-0.8,0.8c-0.2-0.2-0.5-0.4-0.7-0.5
				c-0.3-0.1-0.6-0.2-0.9-0.2c-0.3,0-0.6,0.1-0.9,0.2c-0.3,0.1-0.5,0.3-0.7,0.5c-0.2,0.2-0.3,0.4-0.4,0.7c-0.1,0.3-0.2,0.6-0.2,0.9
				c0,0.3,0.1,0.7,0.2,0.9c0.1,0.3,0.3,0.5,0.4,0.7c0.2,0.2,0.4,0.4,0.7,0.5c0.3,0.1,0.6,0.2,0.9,0.2c0.3,0,0.6,0,0.8-0.1
				c0.3-0.1,0.5-0.1,0.7-0.3v-1.5h-1.3v-1h2.4V197.3z"/>
		</g>
	</g>
</g>
<g id="Layer_4" display="none">
	<g display="inline">
		<path fill="#333333" d="M-266.5,122.1c0,0,1.7,0.6,3.9,0.3c2.5-0.4,5.1-2,4.8-4.4c-0.7-5.3-12.9-1.4-14.1-9.6
			c-0.7-4.8,2.9-7.4,7.2-8c3.3-0.5,7.5,0.4,7.5,0.4l0.7,5.9l-2.2,0.3l-1.7-3.5c0,0-1.9-0.4-3.8-0.1c-3.1,0.4-4.4,2.3-4.1,4
			c0.7,5.3,12.9,1.5,14,9.3c0.7,5.2-3.1,8.2-8,8.8c-3.6,0.5-7.3-0.4-7.3-0.4l-0.9-6l2.8-0.4L-266.5,122.1z"/>
		<path fill="#333333" d="M-240.9,106.2l-5,0.7l1.6,11.1c0.2,1.6,1.1,2,2,1.9c0.8-0.1,1.7-0.6,2.6-1.2l1.2,1.7
			c-1.4,1.4-2.9,2.2-4.6,2.4c-2.1,0.3-4.1-0.6-4.7-4.5l-1.5-10.9l-3.5,0.5l-0.3-2.2l3.4-0.8l-0.6-4.4l3.4-1.2l0.7,5l5-0.7
			L-240.9,106.2z"/>
		<path fill="#333333" d="M-233.9,112.3c0.5,3.8,2.9,5.9,5.9,5.5c3.5-0.5,5.5-2.7,5.5-2.7l1.5,1.6c0,0-2.8,3.3-7,3.9
			c-5.5,0.8-8.8-2.5-9.6-8.2c-0.8-5.5,2.1-10.2,7.1-10.9c5-0.7,7.7,1.9,8.4,7.1c0.1,0.9,0.1,1.9,0.1,1.9L-233.9,112.3z
			 M-225.8,108.5c-0.4-2.6-1.7-4.6-4.4-4.2c-2.8,0.4-4,2.8-3.9,5.4L-225.8,108.5z"/>
		<path fill="#333333" d="M-214.3,101.6c0.9-1.1,2.5-2.7,4.9-3c5-0.7,7.9,2.6,8.7,7.9c0.8,5.9-1.5,10.4-7.9,11.3
			c-1.1,0.2-2.2,0.1-3.2,0l0.8,5.5l3.7,0.2l0.3,1.9l-9.9,1.4l-0.3-1.9l2.7-1.1l-2.9-20.9l-3-0.3l-0.3-1.9l5.9-1L-214.3,101.6z
			 M-212.2,114.8c0,0,1.1,0.5,3.7,0.2c4-0.6,4.7-3.8,4.2-7.6c-0.5-3.8-2.3-6.4-5.4-5.9c-3.1,0.4-4,3-4,3L-212.2,114.8z"/>
		<path fill="#333333" d="M-192.7,98.8c0.9-1,3.1-3,5.7-3.3c3.8-0.5,5.9,1.6,6.4,5.4l1.4,9.7l2.7,0.5l0.3,1.9l-8.3,1.2l-0.3-1.9
			l2.1-1.1l-1.3-9.4c-0.3-2.4-1.3-3.5-3.5-3.2c-2.9,0.4-4.7,3.5-4.7,3.5l1.4,10.2l2.4,0.5l0.3,1.9l-8.6,1.2l-0.3-1.9l2.8-1.3
			l-3-21.1l-3-0.3l-0.3-1.9l6.4-1.1L-192.7,98.8z"/>
		<path fill="#333333" d="M-175.1,95.2c0,0,3.6-1.9,6.5-2.3c4-0.6,6.6,0.5,7.1,4.5l1.5,10.5l2.9,0.3l0.3,1.9l-5.3,0.9l-1.1-2.3
			c-1,1.3-2.9,3.2-5.3,3.6c-3.3,0.5-5.5-1.2-5.9-4.5c-0.6-4,2.4-5.8,7.2-6.5l2.8-0.4l-0.4-2.8c-0.3-2.1-1.6-2.9-3.7-2.6
			s-3.4,1-3.4,1l-0.1,2.7l-2.2,0.3L-175.1,95.2z M-166.5,103.5c-3.5,0.5-4.6,1.5-4.4,3.6c0.2,1.6,1.3,2.5,2.9,2.2
			c2.6-0.4,4.3-3.4,4.3-3.4l-0.4-2.8L-166.5,103.5z"/>
		<path fill="#333333" d="M-150.6,93.2c0.7-0.8,3.2-3.3,6-3.7c3.8-0.5,5.9,1.6,6.4,5.4l1.4,9.7l2.7,0.5l0.3,1.9l-8.3,1.2l-0.3-1.9
			l2.1-1.2l-1.3-9.3c-0.3-2.4-1.4-3.5-3.6-3.2c-2.9,0.4-4.6,3.5-4.6,3.5l1.4,10.2l2.4,0.5l0.3,1.9l-8.6,1.2l-0.3-1.9l2.8-1.3
			l-1.8-12.8l-3-0.3l-0.3-1.9l5.7-1L-150.6,93.2z"/>
		<path fill="#333333" d="M-122.4,105.4l-9,1.3l-0.3-1.9l2.8-1.3l-1.8-12.8l-3-0.3l-0.3-1.9l6.4-1.1l2.2,15.6l2.7,0.5L-122.4,105.4z
			 M-130.6,79.6c1.4-0.2,2.3,0.4,2.6,2.1c0.2,1.6-0.9,2.6-1.9,2.7c-1.4,0.2-2.4-0.5-2.6-2.1C-132.7,80.8-131.8,79.8-130.6,79.6z"/>
		<path fill="#333333" d="M-117.4,95.9c0.5,3.8,2.9,5.9,5.9,5.5c3.5-0.5,5.5-2.7,5.5-2.7l1.5,1.6c0,0-2.8,3.3-7,3.9
			c-5.5,0.8-8.8-2.5-9.6-8.2c-0.8-5.5,2.1-10.2,7.1-10.9c5-0.7,7.7,1.9,8.4,7.1c0.1,0.9,0.1,1.9,0.1,1.9L-117.4,95.9z M-109.3,92.1
			c-0.4-2.6-1.7-4.6-4.4-4.2c-2.8,0.4-4,2.8-3.9,5.4L-109.3,92.1z"/>
	</g>
	<g display="inline">
		<g>
			<path fill="#231F20" d="M79,200.8c0,0.9-0.7,1.7-1.6,1.7H35.9c-0.9,0-1.6-0.8-1.6-1.7v-12.3c0-0.9,0.7-1.7,1.6-1.7h41.5
				c0.9,0,1.6,0.8,1.6,1.7V200.8z"/>
			<g>
				<path fill="#FFFFFF" d="M46.5,191.7h1.2l1.2,4.4h0l1.3-4.4h1.1l1.3,4.4h0l1.2-4.4h1.1l-1.8,6h-1l-1.4-4.5h0l-1.4,4.5h-1
					L46.5,191.7z"/>
				<path fill="#FFFFFF" d="M55.7,191.7h4v0.9h-2.9v1.5h2.8v0.9h-2.8v1.7h3.1v0.9h-4.1V191.7z"/>
				<path fill="#FFFFFF" d="M60.8,191.7h2.3c0.2,0,0.4,0,0.7,0.1c0.2,0.1,0.4,0.1,0.6,0.3c0.2,0.1,0.3,0.3,0.4,0.5
					c0.1,0.2,0.2,0.4,0.2,0.7c0,0.3-0.1,0.6-0.3,0.8c-0.2,0.2-0.4,0.4-0.8,0.5v0c0.4,0.1,0.7,0.2,0.9,0.4c0.2,0.2,0.4,0.6,0.4,1
					c0,0.3-0.1,0.6-0.2,0.8c-0.1,0.2-0.3,0.4-0.5,0.5c-0.2,0.1-0.5,0.2-0.7,0.3c-0.3,0.1-0.6,0.1-0.8,0.1h-2.2V191.7z M61.9,194.2
					h0.9c0.4,0,0.6-0.1,0.8-0.2c0.2-0.1,0.3-0.3,0.3-0.6c0-0.3-0.1-0.5-0.3-0.6c-0.2-0.1-0.5-0.2-0.9-0.2h-0.9V194.2z M61.9,196.8h1
					c0.1,0,0.3,0,0.4,0c0.2,0,0.3-0.1,0.4-0.1c0.1-0.1,0.2-0.2,0.3-0.3c0.1-0.1,0.1-0.3,0.1-0.5c0-0.3-0.1-0.5-0.3-0.7
					c-0.2-0.1-0.5-0.2-1-0.2h-1V196.8z"/>
			</g>
		</g>
		<g>
			<path fill="#231F20" d="M173.1,200.7c0,0.9-1.1,1.7-2.4,1.7h-47c-1.4,0-2.4-0.8-2.4-1.7v-12.3c0-0.9,1.1-1.7,2.4-1.7h47
				c1.4,0,2.4,0.8,2.4,1.7V200.7z"/>
		</g>
		<g>
			<path fill="#FFFFFF" d="M134.1,197.3c-0.3,0.1-0.6,0.3-1,0.3c-0.4,0.1-0.8,0.1-1.3,0.1c-0.5,0-0.9-0.1-1.3-0.2s-0.7-0.4-1-0.7
				s-0.5-0.6-0.7-1c-0.2-0.4-0.2-0.8-0.2-1.3c0-0.5,0.1-0.9,0.2-1.3c0.2-0.4,0.4-0.7,0.7-1c0.3-0.3,0.6-0.5,1-0.6
				c0.4-0.1,0.8-0.2,1.3-0.2c0.5,0,0.9,0.1,1.3,0.2c0.4,0.1,0.7,0.3,1,0.5l-0.7,0.8c-0.2-0.2-0.4-0.3-0.6-0.4
				c-0.3-0.1-0.6-0.2-0.9-0.2c-0.3,0-0.6,0.1-0.9,0.2c-0.3,0.1-0.5,0.3-0.7,0.5c-0.2,0.2-0.3,0.4-0.4,0.7c-0.1,0.3-0.1,0.6-0.1,0.9
				c0,0.3,0,0.6,0.1,0.9c0.1,0.3,0.2,0.5,0.4,0.7c0.2,0.2,0.4,0.4,0.7,0.5c0.3,0.1,0.6,0.2,0.9,0.2c0.5,0,0.9-0.1,1.2-0.2v-1.5h-1.3
				v-0.9h2.3V197.3z"/>
			<path fill="#FFFFFF" d="M135.4,191.6h2.1c0.3,0,0.6,0,0.8,0.1c0.3,0.1,0.5,0.2,0.7,0.3c0.2,0.1,0.4,0.3,0.5,0.5
				c0.1,0.2,0.2,0.5,0.2,0.8c0,0.4-0.1,0.8-0.4,1.1c-0.2,0.3-0.6,0.5-1,0.6l1.6,2.7h-1.3l-1.4-2.5h-0.8v2.5h-1.1V191.6z
				 M137.4,194.2c0.2,0,0.3,0,0.5,0c0.2,0,0.3-0.1,0.4-0.1c0.1-0.1,0.2-0.2,0.3-0.3c0.1-0.1,0.1-0.3,0.1-0.4c0-0.2,0-0.3-0.1-0.4
				c-0.1-0.1-0.2-0.2-0.3-0.2c-0.1-0.1-0.2-0.1-0.4-0.1c-0.1,0-0.3,0-0.4,0h-1v1.7H137.4z"/>
			<path fill="#FFFFFF" d="M142.6,191.6h0.9l2.6,6h-1.2l-0.6-1.4h-2.6l-0.5,1.4H140L142.6,191.6z M144,195.3l-0.9-2.4l-0.9,2.4H144z
				"/>
			<path fill="#FFFFFF" d="M146.7,191.6h2c0.3,0,0.7,0,0.9,0.1c0.3,0.1,0.5,0.2,0.7,0.3c0.2,0.1,0.3,0.3,0.5,0.5
				c0.1,0.2,0.2,0.5,0.2,0.8c0,0.3-0.1,0.6-0.2,0.8c-0.1,0.2-0.3,0.4-0.5,0.5c-0.2,0.1-0.5,0.2-0.7,0.3c-0.3,0.1-0.6,0.1-0.9,0.1
				h-0.8v2.5h-1.1V191.6z M148.5,194.2c0.2,0,0.3,0,0.5,0c0.2,0,0.3-0.1,0.4-0.1c0.1-0.1,0.2-0.2,0.3-0.3c0.1-0.1,0.1-0.3,0.1-0.4
				c0-0.2,0-0.3-0.1-0.4c-0.1-0.1-0.2-0.2-0.3-0.3c-0.1-0.1-0.3-0.1-0.4-0.1c-0.2,0-0.3,0-0.5,0h-0.8v1.7H148.5z"/>
			<path fill="#FFFFFF" d="M151.9,191.6h1.1v2.4h2.8v-2.4h1.1v6h-1.1v-2.7H153v2.7h-1.1V191.6z"/>
			<path fill="#FFFFFF" d="M158.1,191.6h1.1v6h-1.1V191.6z"/>
			<path fill="#FFFFFF" d="M164.9,193c-0.2-0.2-0.4-0.4-0.6-0.5c-0.3-0.1-0.5-0.1-0.7-0.1c-0.3,0-0.6,0.1-0.8,0.2
				c-0.3,0.1-0.5,0.3-0.7,0.5c-0.2,0.2-0.3,0.4-0.4,0.7c-0.1,0.3-0.1,0.6-0.1,0.9c0,0.3,0,0.6,0.1,0.9c0.1,0.3,0.2,0.5,0.4,0.7
				c0.2,0.2,0.4,0.3,0.6,0.5c0.2,0.1,0.5,0.2,0.8,0.2c0.3,0,0.6-0.1,0.9-0.2c0.2-0.1,0.4-0.3,0.6-0.5l0.9,0.6
				c-0.3,0.3-0.6,0.6-1,0.8c-0.4,0.2-0.8,0.3-1.3,0.3c-0.5,0-0.9-0.1-1.3-0.2c-0.4-0.2-0.7-0.4-1-0.7c-0.3-0.3-0.5-0.6-0.7-1
				c-0.2-0.4-0.2-0.8-0.2-1.3c0-0.5,0.1-0.9,0.2-1.3c0.2-0.4,0.4-0.7,0.7-1c0.3-0.3,0.6-0.5,1-0.6c0.4-0.1,0.8-0.2,1.3-0.2
				c0.2,0,0.4,0,0.6,0.1c0.2,0,0.4,0.1,0.6,0.2c0.2,0.1,0.4,0.2,0.5,0.3c0.2,0.1,0.3,0.2,0.4,0.4L164.9,193z"/>
		</g>
		<path fill="#231F20" d="M118.2,200.7c0,0.9-0.8,1.7-1.9,1.7H83.9c-1,0-1.9-0.8-1.9-1.7v-12.3c0-0.9,0.8-1.7,1.9-1.7h32.5
			c1,0,1.9,0.8,1.9,1.7V200.7z"/>
		<g>
			<path fill="#FFFFFF" d="M92.8,193c-0.2-0.2-0.4-0.4-0.6-0.5c-0.3-0.1-0.5-0.1-0.7-0.1c-0.3,0-0.6,0.1-0.8,0.2
				c-0.3,0.1-0.5,0.3-0.7,0.5c-0.2,0.2-0.3,0.4-0.4,0.7c-0.1,0.3-0.1,0.6-0.1,0.9c0,0.3,0,0.6,0.1,0.9c0.1,0.3,0.2,0.5,0.4,0.7
				c0.2,0.2,0.4,0.3,0.6,0.5c0.2,0.1,0.5,0.2,0.8,0.2c0.3,0,0.6-0.1,0.9-0.2c0.2-0.1,0.4-0.3,0.6-0.5l0.9,0.6
				c-0.3,0.3-0.6,0.6-1,0.8c-0.4,0.2-0.8,0.3-1.3,0.3c-0.5,0-0.9-0.1-1.3-0.2c-0.4-0.2-0.7-0.4-1-0.7c-0.3-0.3-0.5-0.6-0.7-1
				c-0.2-0.4-0.2-0.8-0.2-1.3c0-0.5,0.1-0.9,0.2-1.3c0.2-0.4,0.4-0.7,0.7-1c0.3-0.3,0.6-0.5,1-0.6c0.4-0.1,0.8-0.2,1.3-0.2
				c0.2,0,0.4,0,0.6,0.1c0.2,0,0.4,0.1,0.6,0.2c0.2,0.1,0.4,0.2,0.5,0.3c0.2,0.1,0.3,0.2,0.4,0.4L92.8,193z"/>
			<path fill="#FFFFFF" d="M94,194.6c0-0.5,0.1-0.9,0.2-1.3c0.2-0.4,0.4-0.7,0.7-1c0.3-0.3,0.6-0.5,1-0.6c0.4-0.1,0.8-0.2,1.3-0.2
				c0.5,0,0.9,0.1,1.3,0.2c0.4,0.1,0.7,0.4,1,0.6c0.3,0.3,0.5,0.6,0.7,1c0.2,0.4,0.2,0.8,0.2,1.3c0,0.5-0.1,0.9-0.2,1.3
				c-0.2,0.4-0.4,0.7-0.7,1c-0.3,0.3-0.6,0.5-1,0.7c-0.4,0.2-0.8,0.2-1.3,0.2c-0.5,0-0.9-0.1-1.3-0.2c-0.4-0.2-0.7-0.4-1-0.7
				c-0.3-0.3-0.5-0.6-0.7-1C94.1,195.5,94,195,94,194.6z M95.2,194.6c0,0.3,0,0.6,0.1,0.9c0.1,0.3,0.2,0.5,0.4,0.7
				c0.2,0.2,0.4,0.4,0.7,0.5c0.3,0.1,0.5,0.2,0.8,0.2c0.3,0,0.6-0.1,0.8-0.2c0.3-0.1,0.5-0.3,0.7-0.5c0.2-0.2,0.3-0.4,0.4-0.7
				c0.1-0.3,0.1-0.6,0.1-0.9c0-0.3,0-0.6-0.1-0.9c-0.1-0.3-0.2-0.5-0.4-0.7c-0.2-0.2-0.4-0.4-0.7-0.5c-0.3-0.1-0.5-0.2-0.8-0.2
				c-0.3,0-0.6,0.1-0.8,0.2c-0.3,0.1-0.5,0.3-0.6,0.5c-0.2,0.2-0.3,0.4-0.4,0.7C95.2,194,95.2,194.3,95.2,194.6z"/>
			<path fill="#FFFFFF" d="M101.5,191.6h2.1c0.4,0,0.8,0.1,1.2,0.2c0.4,0.1,0.8,0.3,1.1,0.5c0.3,0.2,0.6,0.5,0.8,0.9
				c0.2,0.4,0.3,0.9,0.3,1.4c0,0.5-0.1,1-0.3,1.4c-0.2,0.4-0.5,0.7-0.8,0.9c-0.3,0.2-0.7,0.4-1.1,0.5c-0.4,0.1-0.8,0.2-1.2,0.2h-2.1
				V191.6z M103.4,196.7c0.3,0,0.6,0,0.8-0.1c0.3-0.1,0.5-0.2,0.7-0.3c0.2-0.2,0.4-0.4,0.5-0.6c0.1-0.3,0.2-0.6,0.2-1
				c0-0.4-0.1-0.8-0.2-1.1c-0.1-0.3-0.3-0.5-0.5-0.6c-0.2-0.2-0.5-0.3-0.7-0.3c-0.3-0.1-0.6-0.1-0.8-0.1h-0.9v4.1H103.4z"/>
			<path fill="#FFFFFF" d="M107.9,191.6h4v0.9H109v1.5h2.8v0.9H109v1.7h3.1v0.9h-4.1V191.6z"/>
		</g>
	</g>
</g>
<g id="Layer_5">
	<g>
		<path fill="#333333" d="M-250.5,119.9c0,0,1.7,0.7,4,0.3c2.6-0.4,5.2-2,4.8-4.5c-0.8-5.4-13.1-1.4-14.2-9.7
			c-0.7-4.9,2.9-7.5,7.3-8.1c3.3-0.5,7.6,0.4,7.6,0.4l0.7,6l-2.3,0.3l-1.7-3.6c0,0-1.9-0.4-3.8-0.1c-3.1,0.4-4.4,2.3-4.2,4
			c0.7,5.3,13.1,1.5,14.2,9.4c0.7,5.2-3.2,8.3-8.1,8.9c-3.7,0.5-7.4-0.4-7.4-0.4l-0.9-6.1l2.8-0.4L-250.5,119.9z"/>
		<path fill="#333333" d="M-234.9,103.4c0,0,3.7-1.9,6.6-2.4c4.1-0.6,6.7,0.5,7.2,4.5l1.5,10.7l2.9,0.3l0.3,1.9l-5.4,0.9l-1.1-2.3
			c-1,1.4-2.9,3.3-5.3,3.6c-3.3,0.5-5.5-1.2-6-4.5c-0.6-4,2.4-5.9,7.3-6.6l2.8-0.4l-0.4-2.8c-0.3-2.1-1.7-3-3.8-2.7s-3.5,1-3.5,1
			l-0.1,2.7l-2.3,0.3L-234.9,103.4z M-226.2,111.9c-3.5,0.5-4.7,1.6-4.4,3.7c0.2,1.6,1.3,2.5,2.9,2.3c2.6-0.4,4.3-3.5,4.3-3.5
			l-0.4-2.8L-226.2,111.9z"/>
		<path fill="#333333" d="M-210.1,101.5c0.7-1.1,2.5-3.3,4.9-3.6c1.7-0.2,3.2,0.1,3.2,0.1l0.5,5.1l-2.3,0.3l-0.9-2.5
			c-2.6,0.4-4.1,2.3-4.7,3.4l1.5,10.4l3.6,0.4l0.3,1.9l-10,1.4l-0.3-1.9l2.8-1.3l-1.8-12.9l-3.1-0.3l-0.3-1.9l5.7-1L-210.1,101.5z"
			/>
		<path fill="#333333" d="M-199.2,98.4c0,0,3.7-1.9,6.6-2.4c4.1-0.6,6.7,0.5,7.2,4.5l1.5,10.7l2.9,0.3l0.3,1.9l-5.4,0.9l-1.1-2.3
			c-1,1.4-2.9,3.3-5.3,3.6c-3.3,0.5-5.5-1.2-6-4.5c-0.6-4,2.4-5.9,7.3-6.6l2.8-0.4l-0.4-2.8c-0.3-2.1-1.7-3-3.8-2.7s-3.5,1-3.5,1
			l-0.1,2.7l-2.3,0.3L-199.2,98.4z M-190.6,106.8c-3.5,0.5-4.7,1.6-4.4,3.7c0.2,1.6,1.3,2.5,2.9,2.3c2.6-0.4,4.3-3.5,4.3-3.5
			l-0.4-2.8L-190.6,106.8z"/>
		<path fill="#333333" d="M-174.6,96.1c1-1.1,3.2-3,5.8-3.4c3.8-0.5,5.9,1.7,6.5,5.5l1.4,9.8l2.7,0.5l0.3,1.9l-8.4,1.2l-0.3-1.9
			l2.2-1.2l-1.3-9.5c-0.3-2.4-1.3-3.6-3.6-3.2c-3,0.4-4.8,3.5-4.8,3.5l1.4,10.3l2.4,0.6l0.3,1.9l-8.7,1.2l-0.3-1.9l2.8-1.3l-3-21.3
			l-3.1-0.3l-0.3-1.9l6.4-1.1L-174.6,96.1z"/>
		<path fill="#333333" d="M-133.9,85.5c0,0-2-0.4-4.6-0.1c-4.7,0.7-6.9,4.5-5.9,11c0.9,6.3,4.4,8.7,8.8,8c3.7-0.5,6.6-3.8,6.6-3.8
			l1.7,2.1c0,0-3,4.2-8.2,4.9c-7,1-11.8-2.6-12.9-10.5c-1.1-8,2.7-13.8,9.9-14.8c3.8-0.5,8.1,0.6,8.1,0.6l0.7,6l-2.6,0.4
			L-133.9,85.5z"/>
		<path fill="#333333" d="M-121.7,100.7c1.4-0.2,2.4,0.6,2.6,2.1s-0.7,2.6-1.9,2.8c-1.4,0.2-2.4-0.6-2.6-2.1
			C-123.8,101.9-122.9,100.9-121.7,100.7z"/>
	</g>
	<g>
		<path fill="#231F20" d="M72.8,200.6c0,0.9-0.8,1.7-1.8,1.7H36.1c-1,0-1.8-0.8-1.8-1.7v-12.3c0-0.9,0.8-1.7,1.8-1.7H71
			c1,0,1.8,0.8,1.8,1.7V200.6z"/>
		<g>
			<path fill="#FFFFFF" d="M41.8,191.5h2c0.3,0,0.7,0,0.9,0.1c0.3,0.1,0.5,0.2,0.7,0.3c0.2,0.1,0.3,0.3,0.5,0.5
				c0.1,0.2,0.2,0.5,0.2,0.8c0,0.3-0.1,0.6-0.2,0.8c-0.1,0.2-0.3,0.4-0.5,0.5c-0.2,0.1-0.5,0.2-0.7,0.3c-0.3,0.1-0.6,0.1-0.9,0.1
				h-0.8v2.5h-1.1V191.5z M43.6,194.1c0.2,0,0.3,0,0.5,0c0.2,0,0.3-0.1,0.4-0.1c0.1-0.1,0.2-0.2,0.3-0.3c0.1-0.1,0.1-0.3,0.1-0.4
				c0-0.2,0-0.3-0.1-0.4c-0.1-0.1-0.2-0.2-0.3-0.3c-0.1-0.1-0.3-0.1-0.4-0.1c-0.2,0-0.3,0-0.5,0h-0.8v1.7H43.6z"/>
			<path fill="#FFFFFF" d="M46.9,191.5H49c0.3,0,0.6,0,0.8,0.1c0.3,0.1,0.5,0.2,0.7,0.3c0.2,0.1,0.4,0.3,0.5,0.5
				c0.1,0.2,0.2,0.5,0.2,0.8c0,0.4-0.1,0.8-0.4,1.1c-0.2,0.3-0.6,0.5-1,0.6l1.6,2.7h-1.3l-1.4-2.5H48v2.5h-1.1V191.5z M48.9,194.1
				c0.2,0,0.3,0,0.5,0c0.2,0,0.3-0.1,0.4-0.1c0.1-0.1,0.2-0.2,0.3-0.3c0.1-0.1,0.1-0.3,0.1-0.4c0-0.2,0-0.3-0.1-0.4
				c-0.1-0.1-0.2-0.2-0.3-0.2c-0.1-0.1-0.2-0.1-0.4-0.1c-0.1,0-0.3,0-0.4,0h-1v1.7H48.9z"/>
			<path fill="#FFFFFF" d="M52.2,191.5h1.1v6h-1.1V191.5z"/>
			<path fill="#FFFFFF" d="M54.6,191.5H56l2.8,4.5h0v-4.5h1.1v6h-1.4l-2.8-4.6h0v4.6h-1.1V191.5z"/>
			<path fill="#FFFFFF" d="M62.5,192.4h-1.8v-0.9h4.7v0.9h-1.8v5.1h-1.1V192.4z"/>
		</g>
		<g>
			<path fill="#231F20" d="M173.1,200.5c0,0.9-1.1,1.7-2.4,1.7h-47c-1.4,0-2.4-0.8-2.4-1.7v-12.3c0-0.9,1.1-1.7,2.4-1.7h47
				c1.4,0,2.4,0.8,2.4,1.7V200.5z"/>
		</g>
		<g>
			<path fill="#FFFFFF" d="M134.1,197.1c-0.3,0.1-0.6,0.3-1,0.3c-0.4,0.1-0.8,0.1-1.3,0.1c-0.5,0-0.9-0.1-1.3-0.2
				c-0.4-0.2-0.7-0.4-1-0.7s-0.5-0.6-0.7-1c-0.2-0.4-0.2-0.8-0.2-1.3c0-0.5,0.1-0.9,0.2-1.3c0.2-0.4,0.4-0.7,0.7-1
				c0.3-0.3,0.6-0.5,1-0.6c0.4-0.1,0.8-0.2,1.3-0.2c0.5,0,0.9,0.1,1.3,0.2c0.4,0.1,0.7,0.3,1,0.5l-0.7,0.8c-0.2-0.2-0.4-0.3-0.6-0.4
				c-0.3-0.1-0.6-0.2-0.9-0.2c-0.3,0-0.6,0.1-0.9,0.2c-0.3,0.1-0.5,0.3-0.7,0.5c-0.2,0.2-0.3,0.4-0.4,0.7c-0.1,0.3-0.1,0.6-0.1,0.9
				c0,0.3,0,0.6,0.1,0.9c0.1,0.3,0.2,0.5,0.4,0.7c0.2,0.2,0.4,0.4,0.7,0.5c0.3,0.1,0.6,0.2,0.9,0.2c0.5,0,0.9-0.1,1.2-0.2v-1.5h-1.3
				V194h2.3V197.1z"/>
			<path fill="#FFFFFF" d="M135.4,191.4h2.1c0.3,0,0.6,0,0.8,0.1c0.3,0.1,0.5,0.2,0.7,0.3c0.2,0.1,0.4,0.3,0.5,0.5
				c0.1,0.2,0.2,0.5,0.2,0.8c0,0.4-0.1,0.8-0.4,1.1c-0.2,0.3-0.6,0.5-1,0.6l1.6,2.7h-1.3l-1.4-2.5h-0.8v2.5h-1.1V191.4z M137.4,194
				c0.2,0,0.3,0,0.5,0c0.2,0,0.3-0.1,0.4-0.1c0.1-0.1,0.2-0.2,0.3-0.3c0.1-0.1,0.1-0.3,0.1-0.4c0-0.2,0-0.3-0.1-0.4
				c-0.1-0.1-0.2-0.2-0.3-0.2c-0.1-0.1-0.2-0.1-0.4-0.1c-0.1,0-0.3,0-0.4,0h-1v1.7H137.4z"/>
			<path fill="#FFFFFF" d="M142.6,191.4h0.9l2.6,6h-1.2l-0.6-1.4h-2.6l-0.5,1.4H140L142.6,191.4z M144,195.1l-0.9-2.4l-0.9,2.4H144z
				"/>
			<path fill="#FFFFFF" d="M146.7,191.4h2c0.3,0,0.7,0,0.9,0.1c0.3,0.1,0.5,0.2,0.7,0.3c0.2,0.1,0.3,0.3,0.5,0.5
				c0.1,0.2,0.2,0.5,0.2,0.8c0,0.3-0.1,0.6-0.2,0.8c-0.1,0.2-0.3,0.4-0.5,0.5c-0.2,0.1-0.5,0.2-0.7,0.3c-0.3,0.1-0.6,0.1-0.9,0.1
				h-0.8v2.5h-1.1V191.4z M148.5,194.1c0.2,0,0.3,0,0.5,0c0.2,0,0.3-0.1,0.4-0.1c0.1-0.1,0.2-0.2,0.3-0.3c0.1-0.1,0.1-0.3,0.1-0.4
				c0-0.2,0-0.3-0.1-0.4c-0.1-0.1-0.2-0.2-0.3-0.3c-0.1-0.1-0.3-0.1-0.4-0.1c-0.2,0-0.3,0-0.5,0h-0.8v1.7H148.5z"/>
			<path fill="#FFFFFF" d="M151.9,191.4h1.1v2.4h2.8v-2.4h1.1v6h-1.1v-2.7H153v2.7h-1.1V191.4z"/>
			<path fill="#FFFFFF" d="M158.1,191.4h1.1v6h-1.1V191.4z"/>
			<path fill="#FFFFFF" d="M164.9,192.8c-0.2-0.2-0.4-0.4-0.6-0.5c-0.3-0.1-0.5-0.1-0.7-0.1c-0.3,0-0.6,0.1-0.8,0.2
				c-0.3,0.1-0.5,0.3-0.7,0.5c-0.2,0.2-0.3,0.4-0.4,0.7c-0.1,0.3-0.1,0.6-0.1,0.9c0,0.3,0,0.6,0.1,0.9c0.1,0.3,0.2,0.5,0.4,0.7
				c0.2,0.2,0.4,0.3,0.6,0.5c0.2,0.1,0.5,0.2,0.8,0.2c0.3,0,0.6-0.1,0.9-0.2c0.2-0.1,0.4-0.3,0.6-0.5l0.9,0.6
				c-0.3,0.3-0.6,0.6-1,0.8c-0.4,0.2-0.8,0.3-1.3,0.3c-0.5,0-0.9-0.1-1.3-0.2c-0.4-0.2-0.7-0.4-1-0.7c-0.3-0.3-0.5-0.6-0.7-1
				c-0.2-0.4-0.2-0.8-0.2-1.3c0-0.5,0.1-0.9,0.2-1.3c0.2-0.4,0.4-0.7,0.7-1c0.3-0.3,0.6-0.5,1-0.6c0.4-0.1,0.8-0.2,1.3-0.2
				c0.2,0,0.4,0,0.6,0.1c0.2,0,0.4,0.1,0.6,0.2c0.2,0.1,0.4,0.2,0.5,0.3c0.2,0.1,0.3,0.2,0.4,0.4L164.9,192.8z"/>
		</g>
		<g>
			<path fill="#231F20" d="M118.2,200.6c0,0.9-0.9,1.7-2,1.7H77.9c-1.1,0-2-0.8-2-1.7v-12.3c0-0.9,0.9-1.7,2-1.7h38.4
				c1.1,0,2,0.8,2,1.7V200.6z"/>
			<g>
				<path fill="#FFFFFF" d="M82.7,191.5h2c0.3,0,0.6,0,0.8,0.1c0.3,0.1,0.5,0.1,0.7,0.3c0.2,0.1,0.4,0.3,0.5,0.5
					c0.1,0.2,0.2,0.5,0.2,0.8c0,0.4-0.1,0.7-0.2,0.9c-0.1,0.2-0.3,0.4-0.5,0.5c-0.2,0.1-0.5,0.2-0.7,0.3c-0.3,0-0.6,0.1-0.9,0.1
					h-0.7v2.4h-1V191.5z M84.4,194c0.1,0,0.3,0,0.5,0c0.2,0,0.3,0,0.4-0.1c0.1-0.1,0.2-0.1,0.3-0.2c0.1-0.1,0.1-0.3,0.1-0.5
					c0-0.2,0-0.3-0.1-0.4c-0.1-0.1-0.2-0.2-0.3-0.2c-0.1-0.1-0.3-0.1-0.4-0.1c-0.1,0-0.3,0-0.4,0h-0.7v1.6H84.4z"/>
				<path fill="#FFFFFF" d="M87.7,191.5h1v2.3h2.7v-2.3h1v5.8h-1v-2.6h-2.7v2.6h-1V191.5z"/>
				<path fill="#FFFFFF" d="M93.6,194.5c0-0.5,0.1-0.9,0.2-1.3c0.2-0.4,0.4-0.7,0.6-1c0.3-0.3,0.6-0.5,1-0.6
					c0.4-0.1,0.8-0.2,1.2-0.2c0.5,0,0.9,0.1,1.3,0.2c0.4,0.1,0.7,0.3,1,0.6c0.3,0.3,0.5,0.6,0.6,1c0.2,0.4,0.2,0.8,0.2,1.3
					c0,0.5-0.1,0.9-0.2,1.2c-0.2,0.4-0.4,0.7-0.6,1c-0.3,0.3-0.6,0.5-1,0.6c-0.4,0.2-0.8,0.2-1.3,0.2c-0.5,0-0.9-0.1-1.2-0.2
					c-0.4-0.1-0.7-0.4-1-0.6c-0.3-0.3-0.5-0.6-0.6-1C93.6,195.3,93.6,194.9,93.6,194.5z M94.6,194.4c0,0.3,0,0.6,0.1,0.9
					c0.1,0.3,0.2,0.5,0.4,0.7c0.2,0.2,0.4,0.3,0.6,0.5c0.2,0.1,0.5,0.2,0.8,0.2c0.3,0,0.6-0.1,0.8-0.2c0.2-0.1,0.5-0.3,0.6-0.5
					c0.2-0.2,0.3-0.4,0.4-0.7c0.1-0.3,0.1-0.6,0.1-0.9c0-0.3,0-0.6-0.1-0.8c-0.1-0.3-0.2-0.5-0.4-0.7c-0.2-0.2-0.4-0.3-0.6-0.4
					c-0.2-0.1-0.5-0.2-0.8-0.2c-0.3,0-0.6,0.1-0.8,0.2c-0.2,0.1-0.5,0.3-0.6,0.4c-0.2,0.2-0.3,0.4-0.4,0.7
					C94.7,193.8,94.6,194.1,94.6,194.4z"/>
				<path fill="#FFFFFF" d="M102,192.5h-1.8v-0.9h4.6v0.9H103v4.9h-1V192.5z"/>
				<path fill="#FFFFFF" d="M105.2,194.5c0-0.5,0.1-0.9,0.2-1.3c0.2-0.4,0.4-0.7,0.6-1c0.3-0.3,0.6-0.5,1-0.6s0.8-0.2,1.2-0.2
					c0.5,0,0.9,0.1,1.3,0.2c0.4,0.1,0.7,0.3,1,0.6c0.3,0.3,0.5,0.6,0.6,1c0.2,0.4,0.2,0.8,0.2,1.3c0,0.5-0.1,0.9-0.2,1.2
					c-0.2,0.4-0.4,0.7-0.6,1c-0.3,0.3-0.6,0.5-1,0.6c-0.4,0.2-0.8,0.2-1.3,0.2c-0.5,0-0.9-0.1-1.2-0.2s-0.7-0.4-1-0.6
					c-0.3-0.3-0.5-0.6-0.6-1C105.3,195.3,105.2,194.9,105.2,194.5z M106.3,194.4c0,0.3,0,0.6,0.1,0.9c0.1,0.3,0.2,0.5,0.4,0.7
					c0.2,0.2,0.4,0.3,0.6,0.5c0.2,0.1,0.5,0.2,0.8,0.2c0.3,0,0.6-0.1,0.8-0.2c0.2-0.1,0.5-0.3,0.6-0.5c0.2-0.2,0.3-0.4,0.4-0.7
					c0.1-0.3,0.1-0.6,0.1-0.9c0-0.3,0-0.6-0.1-0.8c-0.1-0.3-0.2-0.5-0.4-0.7c-0.2-0.2-0.4-0.3-0.6-0.4c-0.2-0.1-0.5-0.2-0.8-0.2
					c-0.3,0-0.6,0.1-0.8,0.2c-0.2,0.1-0.5,0.3-0.6,0.4c-0.2,0.2-0.3,0.4-0.4,0.7C106.3,193.8,106.3,194.1,106.3,194.4z"/>
			</g>
		</g>
	</g>
</g>
<g id="Layer_6" display="none">
	<g display="inline">
		<path fill="#333333" d="M-227.8,97.2l-3.2-0.3l-0.3-2l6.9-1.2l4.6-0.6c7.1-1,12.1,2.8,13.2,10.8c1.1,8-2.9,13.8-10.2,14.8l-11,1.5
			l-0.3-2.2l3-1.2L-227.8,97.2z M-217,115.8c4.6-0.6,7.2-4.2,6.3-11.1c-0.9-6.8-4.3-9.3-8.8-8.6l-4.4,0.6l2.8,19.7L-217,115.8z"/>
		<path fill="#333333" d="M-184.8,104c0.9,6.2-2.2,10.9-7.7,11.7s-9.2-2.1-10.1-8.6c-0.9-6.2,2.4-10.8,7.9-11.5
			C-189.3,94.8-185.6,98.2-184.8,104z M-198.8,106.3c0.6,4.4,2.5,6.9,6.1,6.4s4.8-3.3,4.1-8c-0.6-4-2.3-6.8-5.9-6.2
			C-198.2,99-199.5,101.6-198.8,106.3z"/>
		<path fill="#333333" d="M-176.5,96.1c0.8-1.1,2.6-3.5,5.1-3.8c1.8-0.3,3.4,0.1,3.4,0.1l0.6,5.3l-2.4,0.3l-0.9-2.7
			c-2.7,0.4-4.2,2.4-4.9,3.6l1.5,10.8l3.8,0.4l0.3,2l-10.4,1.5l-0.3-2l3-1.3l-1.9-13.5l-3.2-0.3l-0.3-2l6-1L-176.5,96.1z"/>
		<path fill="#333333" d="M-165.2,92.9c0,0,3.8-2,6.9-2.5c4.2-0.6,7,0.5,7.6,4.7l1.6,11.1l3,0.3l0.3,2l-5.6,1l-1.1-2.4
			c-1.1,1.4-3,3.4-5.6,3.8c-3.5,0.5-5.8-1.2-6.2-4.7c-0.6-4.2,2.5-6.1,7.6-6.8l2.9-0.4l-0.4-2.9c-0.3-2.2-1.7-3.1-3.9-2.8
			c-2.2,0.3-3.6,1.1-3.6,1.1l-0.1,2.8l-2.4,0.3L-165.2,92.9z M-156.1,101.6c-3.7,0.5-4.9,1.6-4.6,3.8c0.2,1.6,1.4,2.6,3.1,2.4
			c2.7-0.4,4.5-3.6,4.5-3.6l-0.4-2.9L-156.1,101.6z"/>
	</g>
	<g display="inline">
		<g>
			<path fill="#231F20" d="M79,200.5c0,0.9-0.7,1.7-1.6,1.7H35.9c-0.9,0-1.6-0.8-1.6-1.7v-12.3c0-0.9,0.7-1.7,1.6-1.7h41.5
				c0.9,0,1.6,0.8,1.6,1.7V200.5z"/>
			<g>
				<path fill="#FFFFFF" d="M46.5,191.5h1.2l1.2,4.4h0l1.3-4.4h1.1l1.3,4.4h0l1.2-4.4h1.1l-1.8,6h-1l-1.4-4.5h0l-1.4,4.5h-1
					L46.5,191.5z"/>
				<path fill="#FFFFFF" d="M55.7,191.5h4v0.9h-2.9v1.5h2.8v0.9h-2.8v1.7h3.1v0.9h-4.1V191.5z"/>
				<path fill="#FFFFFF" d="M60.8,191.5h2.3c0.2,0,0.4,0,0.7,0.1c0.2,0.1,0.4,0.1,0.6,0.3c0.2,0.1,0.3,0.3,0.4,0.5
					c0.1,0.2,0.2,0.4,0.2,0.7c0,0.3-0.1,0.6-0.3,0.8c-0.2,0.2-0.4,0.4-0.8,0.5v0c0.4,0.1,0.7,0.2,0.9,0.4c0.2,0.2,0.4,0.6,0.4,1
					c0,0.3-0.1,0.6-0.2,0.8c-0.1,0.2-0.3,0.4-0.5,0.5c-0.2,0.1-0.5,0.2-0.7,0.3c-0.3,0.1-0.6,0.1-0.8,0.1h-2.2V191.5z M61.9,193.9
					h0.9c0.4,0,0.6-0.1,0.8-0.2c0.2-0.1,0.3-0.3,0.3-0.6c0-0.3-0.1-0.5-0.3-0.6c-0.2-0.1-0.5-0.2-0.9-0.2h-0.9V193.9z M61.9,196.6h1
					c0.1,0,0.3,0,0.4,0c0.2,0,0.3-0.1,0.4-0.1c0.1-0.1,0.2-0.2,0.3-0.3c0.1-0.1,0.1-0.3,0.1-0.5c0-0.3-0.1-0.5-0.3-0.7
					c-0.2-0.1-0.5-0.2-1-0.2h-1V196.6z"/>
			</g>
		</g>
		<g>
			<path fill="#231F20" d="M173.1,200.4c0,0.9-1.1,1.7-2.4,1.7h-47c-1.4,0-2.4-0.8-2.4-1.7v-12.3c0-0.9,1.1-1.7,2.4-1.7h47
				c1.4,0,2.4,0.8,2.4,1.7V200.4z"/>
		</g>
		<g>
			<path fill="#FFFFFF" d="M134.1,197.1c-0.3,0.1-0.6,0.3-1,0.3c-0.4,0.1-0.8,0.1-1.3,0.1c-0.5,0-0.9-0.1-1.3-0.2
				c-0.4-0.2-0.7-0.4-1-0.7s-0.5-0.6-0.7-1c-0.2-0.4-0.2-0.8-0.2-1.3c0-0.5,0.1-0.9,0.2-1.3c0.2-0.4,0.4-0.7,0.7-1
				c0.3-0.3,0.6-0.5,1-0.6c0.4-0.1,0.8-0.2,1.3-0.2c0.5,0,0.9,0.1,1.3,0.2c0.4,0.1,0.7,0.3,1,0.5l-0.7,0.8c-0.2-0.2-0.4-0.3-0.6-0.4
				c-0.3-0.1-0.6-0.2-0.9-0.2c-0.3,0-0.6,0.1-0.9,0.2c-0.3,0.1-0.5,0.3-0.7,0.5c-0.2,0.2-0.3,0.4-0.4,0.7c-0.1,0.3-0.1,0.6-0.1,0.9
				c0,0.3,0,0.6,0.1,0.9c0.1,0.3,0.2,0.5,0.4,0.7c0.2,0.2,0.4,0.4,0.7,0.5c0.3,0.1,0.6,0.2,0.9,0.2c0.5,0,0.9-0.1,1.2-0.2v-1.5h-1.3
				V194h2.3V197.1z"/>
			<path fill="#FFFFFF" d="M135.4,191.4h2.1c0.3,0,0.6,0,0.8,0.1c0.3,0.1,0.5,0.2,0.7,0.3c0.2,0.1,0.4,0.3,0.5,0.5
				c0.1,0.2,0.2,0.5,0.2,0.8c0,0.4-0.1,0.8-0.4,1.1c-0.2,0.3-0.6,0.5-1,0.6l1.6,2.7h-1.3l-1.4-2.5h-0.8v2.5h-1.1V191.4z M137.4,194
				c0.2,0,0.3,0,0.5,0c0.2,0,0.3-0.1,0.4-0.1c0.1-0.1,0.2-0.2,0.3-0.3c0.1-0.1,0.1-0.3,0.1-0.4c0-0.2,0-0.3-0.1-0.4
				c-0.1-0.1-0.2-0.2-0.3-0.2c-0.1-0.1-0.2-0.1-0.4-0.1c-0.1,0-0.3,0-0.4,0h-1v1.7H137.4z"/>
			<path fill="#FFFFFF" d="M142.6,191.4h0.9l2.6,6h-1.2l-0.6-1.4h-2.6l-0.5,1.4H140L142.6,191.4z M144,195.1l-0.9-2.4l-0.9,2.4H144z
				"/>
			<path fill="#FFFFFF" d="M146.7,191.4h2c0.3,0,0.7,0,0.9,0.1c0.3,0.1,0.5,0.2,0.7,0.3c0.2,0.1,0.3,0.3,0.5,0.5
				c0.1,0.2,0.2,0.5,0.2,0.8c0,0.3-0.1,0.6-0.2,0.8c-0.1,0.2-0.3,0.4-0.5,0.5c-0.2,0.1-0.5,0.2-0.7,0.3c-0.3,0.1-0.6,0.1-0.9,0.1
				h-0.8v2.5h-1.1V191.4z M148.5,194c0.2,0,0.3,0,0.5,0c0.2,0,0.3-0.1,0.4-0.1c0.1-0.1,0.2-0.2,0.3-0.3c0.1-0.1,0.1-0.3,0.1-0.4
				c0-0.2,0-0.3-0.1-0.4c-0.1-0.1-0.2-0.2-0.3-0.3c-0.1-0.1-0.3-0.1-0.4-0.1c-0.2,0-0.3,0-0.5,0h-0.8v1.7H148.5z"/>
			<path fill="#FFFFFF" d="M151.9,191.4h1.1v2.4h2.8v-2.4h1.1v6h-1.1v-2.7H153v2.7h-1.1V191.4z"/>
			<path fill="#FFFFFF" d="M158.1,191.4h1.1v6h-1.1V191.4z"/>
			<path fill="#FFFFFF" d="M164.9,192.8c-0.2-0.2-0.4-0.4-0.6-0.5c-0.3-0.1-0.5-0.1-0.7-0.1c-0.3,0-0.6,0.1-0.8,0.2
				c-0.3,0.1-0.5,0.3-0.7,0.5c-0.2,0.2-0.3,0.4-0.4,0.7c-0.1,0.3-0.1,0.6-0.1,0.9c0,0.3,0,0.6,0.1,0.9c0.1,0.3,0.2,0.5,0.4,0.7
				c0.2,0.2,0.4,0.3,0.6,0.5c0.2,0.1,0.5,0.2,0.8,0.2c0.3,0,0.6-0.1,0.9-0.2c0.2-0.1,0.4-0.3,0.6-0.5l0.9,0.6
				c-0.3,0.3-0.6,0.6-1,0.8c-0.4,0.2-0.8,0.3-1.3,0.3c-0.5,0-0.9-0.1-1.3-0.2c-0.4-0.2-0.7-0.4-1-0.7c-0.3-0.3-0.5-0.6-0.7-1
				c-0.2-0.4-0.2-0.8-0.2-1.3c0-0.5,0.1-0.9,0.2-1.3c0.2-0.4,0.4-0.7,0.7-1c0.3-0.3,0.6-0.5,1-0.6c0.4-0.1,0.8-0.2,1.3-0.2
				c0.2,0,0.4,0,0.6,0.1c0.2,0,0.4,0.1,0.6,0.2c0.2,0.1,0.4,0.2,0.5,0.3c0.2,0.1,0.3,0.2,0.4,0.4L164.9,192.8z"/>
		</g>
		<path fill="#231F20" d="M118.2,200.5c0,0.9-0.8,1.7-1.9,1.7H83.9c-1,0-1.9-0.8-1.9-1.7v-12.3c0-0.9,0.8-1.7,1.9-1.7h32.5
			c1,0,1.9,0.8,1.9,1.7V200.5z"/>
		<g>
			<path fill="#FFFFFF" d="M92.8,192.8c-0.2-0.2-0.4-0.4-0.6-0.5c-0.3-0.1-0.5-0.1-0.7-0.1c-0.3,0-0.6,0.1-0.8,0.2
				c-0.3,0.1-0.5,0.3-0.7,0.5c-0.2,0.2-0.3,0.4-0.4,0.7c-0.1,0.3-0.1,0.6-0.1,0.9c0,0.3,0,0.6,0.1,0.9c0.1,0.3,0.2,0.5,0.4,0.7
				c0.2,0.2,0.4,0.3,0.6,0.5c0.2,0.1,0.5,0.2,0.8,0.2c0.3,0,0.6-0.1,0.9-0.2c0.2-0.1,0.4-0.3,0.6-0.5l0.9,0.6
				c-0.3,0.3-0.6,0.6-1,0.8c-0.4,0.2-0.8,0.3-1.3,0.3c-0.5,0-0.9-0.1-1.3-0.2c-0.4-0.2-0.7-0.4-1-0.7c-0.3-0.3-0.5-0.6-0.7-1
				c-0.2-0.4-0.2-0.8-0.2-1.3c0-0.5,0.1-0.9,0.2-1.3c0.2-0.4,0.4-0.7,0.7-1c0.3-0.3,0.6-0.5,1-0.6c0.4-0.1,0.8-0.2,1.3-0.2
				c0.2,0,0.4,0,0.6,0.1c0.2,0,0.4,0.1,0.6,0.2s0.4,0.2,0.5,0.3c0.2,0.1,0.3,0.2,0.4,0.4L92.8,192.8z"/>
			<path fill="#FFFFFF" d="M94,194.4c0-0.5,0.1-0.9,0.2-1.3c0.2-0.4,0.4-0.7,0.7-1c0.3-0.3,0.6-0.5,1-0.6c0.4-0.1,0.8-0.2,1.3-0.2
				c0.5,0,0.9,0.1,1.3,0.2c0.4,0.1,0.7,0.4,1,0.6c0.3,0.3,0.5,0.6,0.7,1c0.2,0.4,0.2,0.8,0.2,1.3c0,0.5-0.1,0.9-0.2,1.3
				c-0.2,0.4-0.4,0.7-0.7,1c-0.3,0.3-0.6,0.5-1,0.7c-0.4,0.2-0.8,0.2-1.3,0.2c-0.5,0-0.9-0.1-1.3-0.2c-0.4-0.2-0.7-0.4-1-0.7
				c-0.3-0.3-0.5-0.6-0.7-1C94.1,195.2,94,194.8,94,194.4z M95.2,194.4c0,0.3,0,0.6,0.1,0.9c0.1,0.3,0.2,0.5,0.4,0.7
				c0.2,0.2,0.4,0.4,0.7,0.5c0.3,0.1,0.5,0.2,0.8,0.2c0.3,0,0.6-0.1,0.8-0.2c0.3-0.1,0.5-0.3,0.7-0.5c0.2-0.2,0.3-0.4,0.4-0.7
				c0.1-0.3,0.1-0.6,0.1-0.9c0-0.3,0-0.6-0.1-0.9c-0.1-0.3-0.2-0.5-0.4-0.7c-0.2-0.2-0.4-0.4-0.7-0.5c-0.3-0.1-0.5-0.2-0.8-0.2
				c-0.3,0-0.6,0.1-0.8,0.2c-0.3,0.1-0.5,0.3-0.6,0.5c-0.2,0.2-0.3,0.4-0.4,0.7C95.2,193.8,95.2,194,95.2,194.4z"/>
			<path fill="#FFFFFF" d="M101.5,191.4h2.1c0.4,0,0.8,0.1,1.2,0.2c0.4,0.1,0.8,0.3,1.1,0.5c0.3,0.2,0.6,0.5,0.8,0.9
				c0.2,0.4,0.3,0.9,0.3,1.4c0,0.5-0.1,1-0.3,1.4c-0.2,0.4-0.5,0.7-0.8,0.9c-0.3,0.2-0.7,0.4-1.1,0.5c-0.4,0.1-0.8,0.2-1.2,0.2h-2.1
				V191.4z M103.4,196.4c0.3,0,0.6,0,0.8-0.1c0.3-0.1,0.5-0.2,0.7-0.3c0.2-0.2,0.4-0.4,0.5-0.6c0.1-0.3,0.2-0.6,0.2-1
				c0-0.4-0.1-0.8-0.2-1.1c-0.1-0.3-0.3-0.5-0.5-0.6c-0.2-0.2-0.5-0.3-0.7-0.3c-0.3-0.1-0.6-0.1-0.8-0.1h-0.9v4.1H103.4z"/>
			<path fill="#FFFFFF" d="M107.9,191.4h4v0.9H109v1.5h2.8v0.9H109v1.7h3.1v0.9h-4.1V191.4z"/>
		</g>
	</g>
</g>
<g id="Layer_7" display="none">
	
		<rect x="-290.4" y="14.1" transform="matrix(0.9903 -0.1392 0.1392 0.9903 -12.6225 -25.9714)" display="inline" fill="none" stroke="#000000" stroke-miterlimit="10" width="196.8" height="126.4"/>
</g>
</svg>
