<?xml version="1.0" encoding="utf-8"?>
<!-- Generator: Adobe Illustrator 17.1.0, SVG Export Plug-In . SVG Version: 6.00 Build 0)  -->
<!DOCTYPE svg PUBLIC "-//W3C//DTD SVG 1.1//EN" "http://www.w3.org/Graphics/SVG/1.1/DTD/svg11.dtd">
<svg version="1.1" id="Layer_1" xmlns="http://www.w3.org/2000/svg" xmlns:xlink="http://www.w3.org/1999/xlink" x="0px" y="0px"
	 viewBox="0 0 221.3 220.3" enable-background="new 0 0 221.3 220.3" xml:space="preserve">
<g>
	<g opacity="0.3">
		<path fill="#231F20" d="M218.3,213.4c2.9-4.8,1.3-8.3,1.3-8.3c-1.1-8.9-49.4-49.4-49.4-49.4s-29.2-23-53-47.7L97.5,88.4
			C89.4,80.1,88.8,74,88.8,74C103.3,51.6,66,21.2,66,21.2C23.6-12.1,8.5,5.8,8.5,5.8L7.7,6.6c0,0-17.8,15.1,15.5,57.5
			c0,0,30.3,37.3,52.7,22.8c0,0,6.2,0.6,14.4,8.7l19.6,19.6c24.6,23.8,47.7,53,47.7,53s40.5,48.4,49.4,49.4c0,0,4.7,0.6,9.3-2.3
			L218.3,213.4L218.3,213.4z"/>
	</g>
	<g>
		<g>
			<g>
				<path fill="#C9C9C9" d="M216.2,213.4c2.9-4.8,1.3-8.3,1.3-8.3c-1.1-8.9-49.4-49.4-49.4-49.4s-29.2-23-53-47.7L95.4,88.4
					C87.3,80.1,86.7,74,86.7,74c14.5-22.4-22.8-52.7-22.8-52.7C21.4-12.1,6.4,5.8,6.4,5.8L5.5,6.6c0,0-17.8,15.1,15.5,57.5
					c0,0,30.3,37.3,52.7,22.8c0,0,6.2,0.6,14.4,8.7l19.6,19.6c24.6,23.8,47.7,53,47.7,53s40.5,48.4,49.4,49.4c0,0,4.7,0.6,9.3-2.3
					L216.2,213.4L216.2,213.4z"/>
			</g>
		</g>
	</g>
</g>
<g>
	<g opacity="0.3">
		<path fill="#231F20" d="M53.2,30.9c2.3,2.3,2.2,6,0,8.3L43.1,49.2c-2.3,2.3-6,2.2-8.3,0L24.7,39.2c-2.3-2.3-2.2-6,0-8.3l10.1-10.1
			c2.3-2.3,6-2.2,8.3,0L53.2,30.9z"/>
	</g>
	<g>
		<path fill="#FFFFFF" d="M51,30.9c2.3,2.3,2.2,6,0,8.3L41,49.2c-2.3,2.3-6,2.2-8.3,0L22.6,39.2c-2.3-2.3-2.2-6,0-8.3l10.1-10.1
			c2.3-2.3,6-2.2,8.3,0L51,30.9z"/>
	</g>
</g>
<g>
	<g opacity="0.3">
		<path fill="#231F20" d="M74.7,60.9c1,3.1-0.6,6.4-3.7,7.5L57.5,73c-3.1,1-6.4-0.6-7.5-3.7l-4.6-13.5c-1-3.1,0.6-6.4,3.7-7.5
			l13.5-4.6c3.1-1,6.4,0.6,7.5,3.7L74.7,60.9z"/>
	</g>
	<g>
		<path fill="#FFFFFF" d="M72.6,60.9c1,3.1-0.6,6.4-3.7,7.5L55.4,73c-3.1,1-6.4-0.6-7.5-3.7l-4.6-13.5c-1-3.1,0.6-6.4,3.7-7.5
			l13.5-4.6c3.1-1,6.4,0.6,7.5,3.7L72.6,60.9z"/>
	</g>
</g>
</svg>
