<?xml version="1.0" encoding="utf-8"?>
<!-- Generator: Adobe Illustrator 17.1.0, SVG Export Plug-In . SVG Version: 6.00 Build 0)  -->
<!DOCTYPE svg PUBLIC "-//W3C//DTD SVG 1.1//EN" "http://www.w3.org/Graphics/SVG/1.1/DTD/svg11.dtd">
<svg version="1.1" id="Layer_1" xmlns="http://www.w3.org/2000/svg" xmlns:xlink="http://www.w3.org/1999/xlink" x="0px" y="0px"
	 viewBox="0 0 45 200" enable-background="new 0 0 45 200" xml:space="preserve">
<g>
	<g opacity="0.3">
		<path fill="#231F20" d="M24.5,199.1c3.6-0.9,4.5-3.3,4.5-3.3c3.7-4.7,0-46.6,0-46.6s-2.9-24.6-2.5-47.5V83.2
			c0.1-7.7,2.7-10.9,2.7-10.9c17.4-3.7,14.1-35.6,14.1-35.6C39,1,23.5,2.3,23.5,2.3h-0.8c0,0-15.5-1.3-19.8,34.4
			c0,0-3.3,31.9,14.1,35.6c0,0,2.6,3.2,2.7,10.9v18.5c0.4,22.8-2.5,47.5-2.5,47.5s-3.7,41.9,0,46.6c0,0,1.9,2.5,5.5,3.3L24.5,199.1
			L24.5,199.1z"/>
	</g>
	<g>
		<g>
			<g>
				<path fill="#C9C9C9" d="M23.5,198.1c3.6-0.9,4.5-3.3,4.5-3.3c3.7-4.7,0-46.6,0-46.6s-2.9-24.6-2.5-47.5V82.2
					c0.1-7.7,2.7-10.9,2.7-10.9c17.4-3.7,14.1-35.6,14.1-35.6C38,0,22.5,1.3,22.5,1.3h-0.8c0,0-15.5-1.3-19.8,34.4
					c0,0-3.3,31.9,14.1,35.6c0,0,2.6,3.2,2.7,10.9v18.5c0.4,22.8-2.5,47.5-2.5,47.5s-3.7,41.9,0,46.6c0,0,1.9,2.5,5.5,3.3
					L23.5,198.1L23.5,198.1z"/>
			</g>
		</g>
	</g>
</g>
<g>
	<g opacity="0.3">
		<path fill="#231F20" d="M32.7,35.2c0,2.2-1.8,3.9-3.9,3.9h-9.5c-2.2,0-3.9-1.8-3.9-3.9v-9.5c0-2.2,1.8-3.9,3.9-3.9h9.5
			c2.2,0,3.9,1.8,3.9,3.9V35.2z"/>
	</g>
	<g>
		<path fill="#FFFFFF" d="M31.7,34.2c0,2.2-1.8,3.9-3.9,3.9h-9.5c-2.2,0-3.9-1.8-3.9-3.9v-9.5c0-2.2,1.8-3.9,3.9-3.9h9.5
			c2.2,0,3.9,1.8,3.9,3.9V34.2z"/>
	</g>
</g>
<g>
	<g opacity="0.3">
		<path fill="#231F20" d="M28.7,59.5c-1,1.9-3.3,2.7-5.3,1.8l-8.5-4.2c-1.9-1-2.7-3.3-1.8-5.3l4.2-8.5c1-1.9,3.3-2.7,5.3-1.8
			l8.5,4.2c1.9,1,2.7,3.3,1.8,5.3L28.7,59.5z"/>
	</g>
	<g>
		<path fill="#FFFFFF" d="M27.7,58.5c-1,1.9-3.3,2.7-5.3,1.8l-8.5-4.2c-1.9-1-2.7-3.3-1.8-5.3l4.2-8.5c1-1.9,3.3-2.7,5.3-1.8
			l8.5,4.2c1.9,1,2.7,3.3,1.8,5.3L27.7,58.5z"/>
	</g>
</g>
</svg>
