<?xml version="1.0" encoding="utf-8"?>
<!-- Generator: Adobe Illustrator 17.1.0, SVG Export Plug-In . SVG Version: 6.00 Build 0)  -->
<!DOCTYPE svg PUBLIC "-//W3C//DTD SVG 1.1//EN" "http://www.w3.org/Graphics/SVG/1.1/DTD/svg11.dtd">
<svg version="1.1" id="Layer_1" xmlns="http://www.w3.org/2000/svg" xmlns:xlink="http://www.w3.org/1999/xlink" x="0px" y="0px"
	 viewBox="0 -25 250 250" enable-background="new 0 -25 250 250" xml:space="preserve">
<path fill="#D3CDC1" d="M46,132c0-0.9-0.2-1.6-0.7-2C44.4,130.6,44.6,131.8,46,132z M48.2,142c0,2.5,1.8,3.1,2.2,5.1
	C50.9,145.4,50,142.5,48.2,142z M63.6,212.5c1.1-0.7,1.8-2,1.6-3.8C63.6,207.2,60.7,212.1,63.6,212.5z M138.8,193.5
	c-0.2-0.2-1.8-0.7-2,0.7C137.5,194,139,194.8,138.8,193.5z M138.4,176.7h-0.9c0.2,0.9-0.4,0.9-0.2,1.6
	C138.4,178.5,138.8,177.2,138.4,176.7z M161.2,205.6c0-0.4,0-0.9-0.2-0.9c-2.9-0.2-5.6-0.2-7.4,2c-0.2-1.3,1.1-0.9,0.7-2.2
	c-2,0-2.9,1.3-2.2,2.9c-1.6,0.2-1.6,2-3.8,1.3v0.9c8.1,0,17.5-1.6,25.3-4.5C171.7,201.1,164.8,205.6,161.2,205.6z M156.3,32.9
	c0,0.9,0.4,0.9,0.7,1.6c0.7,0,0.7-0.4,1.3-0.2v-1.3C157.8,32.4,156.7,32.4,156.3,32.9z M167.2,25.5c0.4,0.4,1.1,0.4,1.6,0v-1.3
	C167.7,23.9,167.2,24.6,167.2,25.5z M178.4,201.3c-1.8-0.2-3.4,1.3-5.1,2c0.4,0,0.2,0.9,0.2,1.3c3.1-1.6,7.8-1.3,10.1-3.6
	c6.9-1.3,12.5-6.7,18.8-9.8c1.8-2.7,4.9-3.8,6.5-6.5c-2.7,0.4-3.1,2.9-6.3,2.9C196.6,194.2,186,196.4,178.4,201.3z M173.7,56.6
	c-0.7,1.1-0.2,3.1,1.3,2.9C176.6,58.8,175.7,56.3,173.7,56.6z M224.3,73.1c0.7,0,1.6-1.6,0.9-2C225.2,72,224.1,72,224.3,73.1z
	 M227.9,102c1.1-1.3-0.9-3.1-2.2-2C225.6,101.8,227,101.5,227.9,102z M128.3,16.3c2,0,4.5,2,7.2,2.7c1.8,0.4,3.6,0.4,5.1,0.7
	c2.2,0.2,4,0.9,5.8,0.9c4,0.4,7.8-1.8,11.6-1.6c9.2,0.4,14.8,7.2,21,9.4c4.3,6,11.2,9.4,14.5,16.3c1.1,0.2,1.3,0.9,2.2,1.3
	c2.7,7.2,8.1,11.2,7.8,20.4c1.1,0.9,2.2,2,2.9,3.6c-0.9,3.4,1.6,6.3,2.2,8.1c0.9,2.7,0.7,8.1,0.9,10.7c1.3,11-0.9,24.8-3.6,34.7
	c-0.7,2.7-2.5,5.6-3.1,7.4c-1.6,4.3-0.4,7.6-4.3,9.2c0.2,1.1,0.9,1.1,0.2,2.2c-2.9,4-5.4,8.5-7.2,12.8c-6.9,3.6-9.6,11.4-16.6,15
	c-4.3,7.6-13.4,10.3-19.5,16.3c1.8,1.8,5.8-2,8.1,0.7c3.1-1.3,8.9-2.7,13.6-2c1.1-2.5,5.4-3.8,6.5-0.7c2.5,0.2,5.8-2.7,8.7-2.2
	c0.4-1.8,0-2.7-1.6-3.4c1.6-1.3,4.7-1.3,6.7-2.2c0.4-1.8-1.3-1.3-1.3-2.9c1.1-0.7,1.6-1.8,2-2.9c2.5,0.7,1.8-1.6,2.9-2.2
	c0.2,0.4,0.4,0.7,0.7,0.9c-1.1-2.2,1.8-1.8,2.7-2.7c1.8-1.3,2.9-5.1,6.3-4.5c-0.7-2.5-2.2-1.8-2.9-3.4c2.2-1.3,1.6-2.5,3.6-4.9
	c-1.3-0.4-2.9-2.2-3.8-2c1.3,0-0.4,1.6-0.9,1.6c-3.1-1.6-6.5-0.2-9.2-0.7c1.3-2.7,5.1-3.1,7.2-5.1c2.2,0.2,3.6,2.2,6.3,2.2
	c1.3-1.6,2.9-3.6,2.2-6.3c1.6-2.9,5.8-3.4,9.2-4.9c0.2-1.6,0-1.8,0.7-3.4c0.9,0,1.6,0,2-0.2c0.4-3.6-2.5-4.5-1.3-7.8
	c-4.9-5.1-2-12.5-2.9-19.5c-2.5-0.4-1.8-2.2-2.9-4.3c1.1-0.7,1.6,0.2,2.9-0.2c0.7-0.4,0.2-2,1.3-2c-0.9-2.2-2.7-4.7-3.6-2.7
	c-0.7-2.7-1.8-4.3-2-6.7c1.3-0.4,0.9-1.6,2.9-0.9c-0.2-4.7-0.4-7.8-1.3-11.4c0.7-0.4,2,0,2.2-0.9c0.9-2.2-2-2.7-1.3-5.6
	c0.7-0.4,2.7-0.7,2.9,0.2c1.3-2-0.2-3.1,0-5.8c-0.4-0.7-0.9-1.3-1.3-2.2c-0.2-7.2-4.7-10.7-7.2-15.2c-1.1-1.8-1.8-3.6-2.9-4.9
	c-8.5-10.1-20.4-17.9-29.5-26.8c-3.6-1.6-5.6-4.5-8.5-6.7c0.2-0.9,2-1.3,1.3-2.2c-1.6-2.5-8.3-0.2-7.8-4.3c0.4-3.1,5.8-2,9.4-2.2
	c2-0.2,3.6-1.3,5.6-1.3c2.7,0,4.7,1.3,5.8-0.2c-1.6-3.1-5.8-4-9.2-4.5c-8.5-1.6-18.8-1.3-27.5-2c-0.9,0-1.8-0.7-2.7-0.7
	c-1.8,0-3.4,0.9-5.1,0.9c-6.7,0-11.9-6.3-18.1-3.1c-7.6-5.8-19.2-2.2-29.3-0.2C87.8-7,81.1-3.6,75.1-2.5c-0.9,0.4-1.1,1.8-2,2.2
	c-14.5,3.8-25.3,11.6-34.5,21c0.4,2,0.2,2.9,0.9,4.5c-0.7,0.2-0.9,0.9-2,0.7c0.2,1.6,0.7,2.9-1.3,2.9c0.2-1.8,0.2-2.9,0.7-5.1
	c-1.1,0.7-0.9,1.1-2.7,0.7C19.6,38.2,9.1,60.2,6.6,83.2C4.4,93,5,103.3,6.4,113c0.4,4,3.4,7.6,2.7,12.1c3.6,8.5,6,17.9,11.4,24.6
	c0,0.9-0.4,0.7,0,1.3c3.4,4,5.4,9.6,9.4,13c4.7,7.6,11.4,12.8,16.8,19.5c1.1,0.2,0.9-0.7,1.6,0c1.8,4,5.4,4,8.7,6.3
	c0.2-0.9,1.1-0.9,1.6-1.3c4.3,3.8,13.9,3.4,14.3,10.1c3.8-3.4,8.9,0.2,12.1,2.9c1.3-1.1,2.7,0.4,3.6,0.9c2.5-0.4,4.3,1.1,6.3,0.2
	c4.5,1.8,6.5,6.3,11.4,5.1c0.2,0.9-0.2,1.1-0.2,2c0.7,0.2,1.1,0.7,1.3,1.3c6,0.9,14.1,0.4,21.7,0.2c3.6,0,6.9-1.1,10.1-1.3
	c2.9-0.2,6.7,1.1,8.5-1.6c0-0.9-2,0.4-1.6-0.9c0.2-0.9,0.9-1.1,2-1.3c1.3-0.2,1.1,1.6,2.9,0.9c0.4-2.7-2.7-3.1-3.8-5.6
	c-0.9,0.2-0.9,0.2-2,0c-1.1-0.9-0.2-1.8-1.6-2.7c0.4,1.3-0.2,1.6-0.2,2.2c-2.2-1.1-5.1-2-4.9-4.9c-1.6-0.2-0.2,1.8-1.3,0.9
	c0.9-0.2-1.6-1.1-0.2,0c-0.9,0.2-2.5-2-2.7-3.6c-0.2,0.2-0.7,0.7-0.9,0.9c-4.5-1.8-12.3,3.6-15-0.7c-7.2,0-11.9,1.8-19.7,0.2
	c-1.1,0-0.7,1.6-2,1.6c-0.9-0.2-1.1-1.6-2.2-1.6c-5.1-1.8-9.4-1.6-14.3-2.2c-5.1-0.7-8.5-5.4-14.3-4.5c-1.3-2.2-4.9-3.4-7.4-3.4
	c0.7-2.5-0.2-5.4-2.2-6.3c-1.6,0.2-2,1.6-3.6,1.6c-5.8-3.1-8.9-8.7-15-11.6c0.2-2-1.3-2-2.2-2.9c-11.2-15.2-19-36.9-17.5-60
	c0.4-0.4,0.9-1.1,1.6-1.3c-0.2-1.1,0.4-2.9,0.7-5.4c2.9-2.7,3.1-8.3,4.9-12.3c2.5-5.4,5.6-11.6,7.8-17.2c2.9-7.8,5.8-16.6,10.7-22.2
	c5.6-6.3,13.9-8.1,21.7-11.6c3.1-1.6,5.8-3.4,9.2-4.5 M186,179c-0.2,1.1,1.1,0.9,0.9,2c-0.7,0.9-1.6,0.7-2.2,0.9
	c-0.4-0.4,0.2-1.8-0.2-2.9C185.6,179.2,185.1,179.2,186,179z M196.8,152.3c-0.2,0.7-0.9,0.9-0.7,2c-0.7,0-1.6-0.2-1.3,0.7
	c-1.1-1.1-0.7,0.9-2,0.7c-0.2-1.1,0.4-1.6,0.7-2.2C195,154.1,194.5,152.1,196.8,152.3z M216.2,121.5
	C211.1,123.5,215.3,116.8,216.2,121.5L216.2,121.5z M216.2,115.4c-0.4,0-0.9,0-0.9,0.2c-0.7,0-0.2-1.3,0-1.6
	C215.8,114.3,216.2,114.5,216.2,115.4z M150.7,190.6v-1.1c-0.7,0-0.7-0.4-1.3-0.2c0,0.4-0.2,0.7-0.2,0.9c0.7,0,0.7-0.4,0.9-0.7
	C150.5,189.5,150.2,190.6,150.7,190.6z M236.4,146.7c-0.2,0.7-0.2,1.6-0.7,2.2c-5.4,6.7-7.8,14.5-14.3,20.1
	c-1.6,5.8-9.2,7.4-9.4,13.6c3.1-2.5,6.9-4.7,9.4-7.8c0.7-0.9,0.7-2,1.3-2.9c1.3-1.6,3.4-2.9,4.5-4.5c0.7-0.9,1.3-2.2,2-3.4
	c3.6-5.6,8.5-12.8,9.8-19.2c0-0.4-0.2-0.9-0.2-0.2C238.2,145.6,237.1,146.3,236.4,146.7z M239.3,140.9c0.4,1.3-0.7,2.2,0.7,2.7
	c0-3.1,2.9-6,2.9-10.1C240.2,134.4,241.1,139.1,239.3,140.9z"/>
</svg>
