<?xml version="1.0" encoding="utf-8"?>
<!-- Generator: Adobe Illustrator 17.1.0, SVG Export Plug-In . SVG Version: 6.00 Build 0)  -->
<!DOCTYPE svg PUBLIC "-//W3C//DTD SVG 1.1//EN" "http://www.w3.org/Graphics/SVG/1.1/DTD/svg11.dtd">
<svg version="1.1" id="Layer_1" xmlns="http://www.w3.org/2000/svg" xmlns:xlink="http://www.w3.org/1999/xlink" x="0px" y="0px"
	 viewBox="0 -25 250 250" enable-background="new 0 -25 250 250" xml:space="preserve">
<path fill="#D3CDC1" d="M200.7,196.9c6.5,4,13.6-1.8,14.3-7.4c-1.1-11.6-16.3-10.3-17.5-0.7C197.1,190.6,198,195.1,200.7,196.9z
	 M92.7,22.6c0.9,0,1.6-0.2,2-0.7C94,21,92.9,21.3,92.7,22.6z M82.6,24.8c-2.5,0-3.1,1.8-5.1,2.2C79.2,27.5,82.1,26.6,82.6,24.8z
	 M12.1,40.3c0.7,1.1,2,1.8,3.8,1.6C17.5,40.3,12.6,37.4,12.1,40.3z M122.6,74.5c-0.9-0.7-2-1.1-3.8-0.9c-1.1,3.4-4.3,6-5.1,8.5
	c-1.3,3.6-1.8,11.2,0.2,13.2C121.7,92.4,123.1,83.5,122.6,74.5z M84.4,82.8c1.8,0.2,2-0.9,3.4-1.6V79C83.7,74.7,79.7,82.3,84.4,82.8
	z M31.1,115.5c0.2-0.2,0.7-1.8-0.7-2C30.7,114.1,29.8,115.7,31.1,115.5z M47.9,115v-0.9c-0.9,0.2-0.9-0.4-1.6-0.2
	C46.1,115,47.5,115.5,47.9,115z M19,137.8c0.4,0,0.9,0,0.9-0.2c0.2-2.9,0.2-5.6-2-7.4c1.3-0.2,0.9,1.1,2.2,0.7c0-2-1.3-2.9-2.9-2.2
	c-0.2-1.6-2-1.6-1.3-3.8H15c0,8.1,1.6,17.5,4.5,25.3C23.5,148.3,19,141.4,19,137.8z M191.8,132.9c-0.9,0-0.9,0.4-1.6,0.7
	c0,0.7,0.4,0.7,0.2,1.3h1.3C192.2,134.5,192.2,133.4,191.8,132.9z M199.2,143.9c-0.4,0.4-0.4,1.1,0,1.6h1.3
	C200.7,144.3,200.1,143.9,199.2,143.9z M23.3,155.1c0.2-1.8-1.3-3.4-2-5.1c0,0.4-0.9,0.2-1.3,0.2c1.6,3.1,1.3,7.8,3.6,10.1
	c1.3,6.9,6.7,12.5,9.8,18.8c2.7,1.8,3.8,4.9,6.5,6.5c-0.4-2.7-2.9-3.1-2.9-6.3C30.5,173.2,28.2,162.7,23.3,155.1z M168.1,150.4
	c-1.1-0.7-3.1-0.2-2.9,1.3C165.8,153.3,168.3,152.4,168.1,150.4z M212.6,170.5c2.9,0.2,4.7-0.4,6.3-1.6
	C216.8,167.8,213.7,169.2,212.6,170.5z M151.5,200.9c0,0.7,1.6,1.6,2,0.9C152.6,201.8,152.6,200.7,151.5,200.9z M122.6,204.5
	c1.3,1.1,3.1-0.9,2-2.2C122.9,202.3,123.1,203.6,122.6,204.5z M232.7,101.1c5.8-7.6,2.2-19.2,0.2-29.3c-1.3-7.4-4.7-14.1-5.8-20.1
	c-0.4-0.9-1.8-1.1-2.2-2c-3.8-14.5-11.6-25.3-21-34.5c-2,0.4-2.9,0.2-4.5,0.9c-0.2-0.7-0.9-0.9-0.7-2c-1.6,0.2-2.9,0.7-2.9-1.3
	c1.8,0.2,2.9,0.2,5.1,0.7c-0.7-1.1-1.1-0.9-0.7-2.7c-13.9-14.5-35.8-25.1-58.8-27.5c-9.8-2.2-20.1-1.6-29.8-0.2
	c-4,0.4-7.6,3.4-12.1,2.7c-8.5,3.6-17.9,6-24.6,11.4c-0.9,0-0.7-0.4-1.3,0c-4,3.4-9.6,5.4-13,9.4c-7.6,4.7-12.8,11.4-19.5,16.8
	c-0.2,1.1,0.7,0.9,0,1.6c-4,1.8-4,5.4-6.3,8.7c0.9,0.2,0.9,1.1,1.3,1.6c-3.8,4.3-3.4,13.9-10.1,14.3c3.4,3.8-0.2,8.9-2.9,12.1
	c1.1,1.3-0.4,2.7-0.9,3.6c0.4,2.5-1.1,4.3-0.2,6.3c-1.8,4.5-6.3,6.5-5.1,11.4c-0.9,0.2-1.1-0.2-2-0.2c-0.2,0.7-0.7,1.1-1.3,1.3
	c-0.9,6-0.4,14.1-0.2,21.7c0,3.6,1.1,6.9,1.3,10.1c0.2,2.9-1.1,6.7,1.6,8.5c0.9,0-0.4-2,0.9-1.6c0.9,0.2,1.1,0.9,1.3,2
	c0.2,1.3-1.6,1.1-0.9,2.9c2.7,0.4,3.1-2.7,5.6-3.8c-0.2-0.9-0.2-0.9,0-2c0.9-1.1,1.8-0.2,2.7-1.6c-1.3,0.4-1.6-0.2-2.2-0.2
	c1.1-2.2,2-5.1,4.9-4.9c0.2-1.6-1.8-0.2-0.9-1.3c0.2,0.9,1.1-1.6,0-0.2c-0.2-0.9,2-2.5,3.6-2.7c-0.2-0.2-0.7-0.7-0.9-0.9
	c1.8-4.5-3.6-12.3,0.7-15c0-7.2-1.8-11.9-0.2-19.7c0-1.1-1.6-0.7-1.6-2c0.2-0.9,1.6-1.1,1.6-2.2c1.8-5.1,1.6-9.4,2.2-14.3
	c0.7-5.1,5.4-8.5,4.5-14.3c2.2-1.3,3.4-4.9,3.4-7.4c2.5,0.7,5.4-0.2,6.3-2.2c-0.2-1.6-1.6-2-1.6-3.6c3.1-5.8,8.7-8.9,11.6-15
	c2,0.2,2-1.3,2.9-2.2c15.2-11.2,36.9-19,60-17.5c0.4,0.4,1.1,0.9,1.3,1.6c1.1-0.2,2.9,0.4,5.4,0.7c2.7,2.9,8.3,3.1,12.3,4.9
	c5.4,2.5,11.6,5.6,17.2,7.8c7.8,2.9,16.6,5.8,22.2,10.7c6.3,5.6,8.1,13.9,11.6,21.7c1.6,3.1,3.4,5.8,4.5,9.2
	c-1.8-1.1-3.4-2.2-4.3-4.3c-0.9,0.2-0.9-0.7-2-0.2c-1.6-2.5-4.3-4.3-7.4-5.1c-2-3.4-6.9-4.3-10.3-5.8c-2.7-1.3-4.7-4.9-7.8-4.9
	c0,2,2,1.8,2.7,1.6c0.2,1.1-0.9,0.7-0.7,2c1.3,1.8,3.1,2.5,4.5,4.3c0.7,0.9,0.9,2.2,1.6,3.4c2.9,3.6,7.8,5.6,10.7,9.2
	c1.6,2,2.5,4.3,4.3,5.8c1.3,1.3,3.1,1.6,4.5,2.7c2.7,2,4.3,6.3,7.2,8.1c2.5,4,5.4,7.4,9.4,9.8c0.7,1.6,1.3,3.6,0.2,5.6
	c-3.4-1.8-4.3-6-7.2-8.5c-3.1-6.3-9.4-9.6-13.9-14.5c-0.7,0-0.9-0.7-2-0.2c-5.6-5.6-13.4-10.5-22.8-11.4c3.1,4.5,8.5,6.7,13,9.8
	c0.2,2.9,3.1,3.4,5.1,4.3c0,0.7-0.4,0.7-0.2,1.3c8.3,7.4,14.1,17.2,21.7,25.3c1.3,4.3,7.4,11.2,7.4,15.9c0,2-2,4.5-2.7,7.2
	c-0.4,1.8-0.4,3.6-0.7,5.1c-0.2,2.2-0.9,4-0.9,5.8c-0.4,4,1.8,7.8,1.6,11.6c-0.4,9.2-7.2,14.8-9.4,21c-6,4.3-9.4,11.2-16.3,14.5
	c-0.2,1.1-0.9,1.3-1.3,2.2c-7.2,2.7-11.2,8.1-20.4,7.8c-0.9,1.1-2,2.2-3.6,2.9c-3.4-0.9-6.3,1.6-8.1,2.2c-2.7,0.9-8.1,0.7-10.7,0.9
	c-11,1.3-24.8-0.9-34.7-3.6c-2.7-0.7-5.6-2.5-7.4-3.1c-4.3-1.6-7.6-0.4-9.2-4.3c-1.1,0.2-1.1,0.9-2.2,0.2c-4-2.9-8.5-5.4-12.8-7.2
	c-3.6-6.9-11.4-9.6-15-16.6c-7.6-4.3-10.3-13.4-16.3-19.5c-1.8,1.8,2,5.8-0.7,8.1c1.3,3.1,2.7,8.9,2,13.6c2.5,1.1,3.8,5.4,0.7,6.5
	c-0.2,2.5,2.7,5.8,2.2,8.7c1.8,0.4,2.7,0,3.4-1.6c1.3,1.6,1.3,4.7,2.2,6.7c1.8,0.4,1.3-1.3,2.9-1.3c0.7,1.1,1.8,1.6,2.9,2
	c-0.7,2.5,1.6,1.8,2.2,2.9c-0.4,0.2-0.7,0.4-0.9,0.7c2.2-1.1,1.8,1.8,2.7,2.7c1.3,1.8,5.1,2.9,4.5,6.3c2.5-0.7,1.8-2.2,3.4-2.9
	c1.3,2.2,2.5,1.6,4.9,3.6c0.4-1.3,2.2-2.9,2-3.8c0,1.3-1.6-0.4-1.6-0.9c1.6-3.1,0.2-6.5,0.7-9.2c2.7,1.3,3.1,5.1,5.1,7.2
	c-0.2,2.2-2.2,3.6-2.2,6.3c1.6,1.3,3.6,2.9,6.3,2.2c2.9,1.6,3.4,5.8,4.9,9.2c1.6,0.2,1.8,0,3.4,0.7c0,0.9,0,1.6,0.2,2
	c3.6,0.4,4.5-2.5,7.8-1.3c5.1-4.9,12.5-2,19.5-2.9c0.4-2.5,2.2-1.8,4.3-2.9c0.7,1.1-0.2,1.6,0.2,2.9c0.4,0.7,2,0.2,2,1.3
	c2.2-0.9,4.7-2.7,2.7-3.6c2.7-0.7,4.3-1.8,6.7-2c0.4,1.3,1.6,0.9,0.9,2.9c4.7-0.2,7.8-0.4,11.4-1.3c0.4,0.7,0,2,0.9,2.2
	c2.2,0.9,2.7-2,5.6-1.3c0.4,0.7,0.7,2.7-0.2,2.9c2,1.3,3.1-0.2,5.8,0c0.7-0.4,1.3-0.9,2.2-1.3c7.2-0.2,10.7-4.7,15.2-7.2
	c1.8-1.1,3.6-1.8,4.9-2.9c10.1-8.5,17.9-20.4,26.8-29.5c1.6-3.6,4.5-5.6,6.7-8.5c0.9,0.2,1.3,2,2.2,1.3c2.5-1.6,0.2-8.3,4.3-7.8
	c3.1,0.4,2,5.8,2.2,9.4c0.2,2,1.3,3.6,1.3,5.6c0,2.7-1.3,4.7,0.2,5.8c3.1-1.6,4-5.8,4.5-9.2c1.6-8.5,1.3-18.8,2-27.5
	c0-0.9,0.7-1.8,0.7-2.7c0-1.8-0.9-3.4-0.9-5.1C229.6,112.5,235.9,107.4,232.7,101.1z M45.7,162.7c-1.1-0.2-0.9,1.1-2,0.9
	c-0.9-0.7-0.7-1.6-0.9-2.2c0.4-0.4,1.8,0.2,2.9-0.2C45.4,162.2,45.4,161.8,45.7,162.7z M72.3,173.4c-0.7-0.2-0.9-0.9-2-0.7
	c0-0.7,0.2-1.6-0.7-1.3c1.1-1.1-0.9-0.7-0.7-2c1.1-0.2,1.6,0.4,2.2,0.7C70.5,171.6,72.5,171.2,72.3,173.4z M103.2,192.9
	C101.2,187.7,107.9,192,103.2,192.9L103.2,192.9z M109.2,192.9c0-0.4,0-0.9-0.2-0.9c0-0.7,1.3-0.2,1.6,0
	C110.3,192.4,110.1,192.9,109.2,192.9z M34,127.3h1.1c0-0.7,0.4-0.7,0.2-1.3c-0.4,0-0.7-0.2-0.9-0.2c0,0.7,0.4,0.7,0.7,0.9
	C35.2,127.1,34,126.9,34,127.3z M77.9,213c-0.7-0.2-1.6-0.2-2.2-0.7c-6.7-5.4-14.5-7.8-20.1-14.3c-5.8-1.6-7.4-9.2-13.6-9.4
	c2.5,3.1,4.7,6.9,7.8,9.4c0.9,0.7,2,0.7,2.9,1.3c1.6,1.3,2.9,3.4,4.5,4.5c0.9,0.7,2.2,1.3,3.4,2c5.6,3.6,12.8,8.5,19.2,9.8
	c0.4,0,0.9-0.2,0.2-0.2C79,214.8,78.3,213.7,77.9,213z M83.7,215.9c-1.3,0.4-2.2-0.7-2.7,0.7c3.1,0,6,2.9,10.1,2.9
	C90.2,216.8,85.5,217.7,83.7,215.9z"/>
</svg>
