<?xml version="1.0" encoding="utf-8"?>
<!-- Generator: Adobe Illustrator 17.1.0, SVG Export Plug-In . SVG Version: 6.00 Build 0)  -->
<!DOCTYPE svg PUBLIC "-//W3C//DTD SVG 1.1//EN" "http://www.w3.org/Graphics/SVG/1.1/DTD/svg11.dtd">
<svg version="1.1" id="Layer_1" xmlns="http://www.w3.org/2000/svg" xmlns:xlink="http://www.w3.org/1999/xlink" x="0px" y="0px"
	 viewBox="0 -25 250 250" enable-background="new 0 -25 250 250" xml:space="preserve">
<path fill="#D3CDC1" d="M155.6,177.3c-0.9,0-1.7,0.2-2.1,0.7C154.2,178.9,155.4,178.7,155.6,177.3z M166.2,174.9
	c2.6,0,3.3-1.9,5.4-2.4C169.7,172.1,166.7,173,166.2,174.9z M240.5,158.6c-0.7-1.2-2.1-1.9-4-1.7C234.8,158.6,240,161.7,240.5,158.6
	z M220.4,79.4c-0.2,0.2-0.7,1.9,0.7,2.1C220.9,80.8,221.8,79.2,220.4,79.4z M202.7,79.9v0.9c0.9-0.2,0.9,0.5,1.7,0.2
	C204.6,79.9,203.2,79.4,202.7,79.9z M233.2,55.8c-0.5,0-0.9,0-0.9,0.2c-0.2,3.1-0.2,5.9,2.1,7.8c-1.4,0.2-0.9-1.2-2.4-0.7
	c0,2.1,1.4,3.1,3.1,2.4c0.2,1.7,2.1,1.7,1.4,4h0.9 M51.1,61c0.9,0,0.9-0.5,1.7-0.7c0-0.7-0.5-0.7-0.2-1.4h-1.4
	C50.7,59.4,50.7,60.5,51.1,61z M43.4,49.5c0.5-0.5,0.5-1.2,0-1.7h-1.4C41.7,49,42.4,49.5,43.4,49.5z M76.1,42.6
	c1.2,0.7,3.3,0.2,3.1-1.4C78.5,39.6,75.9,40.5,76.1,42.6z M93.6-10.7c0-0.7-1.7-1.7-2.1-0.9C92.4-11.6,92.4-10.4,93.6-10.7z
	 M124-14.4c-1.4-1.2-3.3,0.9-2.1,2.4C123.8-12.1,123.5-13.5,124-14.4z M33.7,90.5c0-2.1,2.1-4.7,2.8-7.5c0.5-1.9,0.5-3.8,0.7-5.4
	c0.2-2.4,0.9-4.2,0.9-6.1c0.5-4.2-1.9-8.3-1.7-12.3c0.5-9.7,7.5-15.6,9.9-22.2c6.4-4.5,9.9-11.8,17.2-15.3c0.2-1.2,0.9-1.4,1.4-2.4
	c7.5-2.8,11.8-8.5,21.5-8.3c0.9-1.2,2.1-2.4,3.8-3.1c3.5,0.9,6.6-1.7,8.5-2.4c2.8-0.9,8.5-0.7,11.3-0.9c11.6-1.4,26.2,0.9,36.5,3.8
	c2.8,0.7,5.9,2.6,7.8,3.3c4.5,1.7,8,0.5,9.7,4.5c1.2-0.2,1.2-0.9,2.4-0.2c4.2,3.1,9,5.7,13.4,7.5c3.8,7.3,12,10.1,15.8,17.4
	c8,4.5,10.8,14.1,17.2,20.5c1.9-1.9-2.1-6.1,0.7-8.5c-1.4-3.3-2.8-9.4-2.1-14.4c-2.6-1.2-4-5.7-0.7-6.8c0.2-2.6-2.8-6.1-2.4-9.2
	c-1.9-0.5-2.8,0-3.5,1.7c-1.4-1.7-1.4-5-2.4-7.1c-1.9-0.5-1.4,1.4-3.1,1.4c-0.7-1.2-1.9-1.7-3.1-2.1c0.7-2.6-1.7-1.9-2.4-3.1
	c0.5-0.2,0.7-0.5,0.9-0.7c-2.4,1.2-1.9-1.9-2.8-2.8c-1.4-1.9-5.4-3.1-4.7-6.6c-2.6,0.7-1.9,2.4-3.5,3.1c-1.4-2.4-2.6-1.7-5.2-3.8
	c-0.5,1.4-2.4,3.1-2.1,4c0-1.4,1.7,0.5,1.7,0.9c-1.7,3.3-0.2,6.8-0.7,9.7c-2.8-1.4-3.3-5.4-5.4-7.5c0.2-2.4,2.4-3.8,2.4-6.6
	c-1.7-1.4-3.8-3.1-6.6-2.4c-3.1-1.7-3.5-6.1-5.2-9.7c-1.7-0.2-1.9,0-3.5-0.7c0-0.9,0-1.7-0.2-2.1c-3.8-0.5-4.7,2.6-8.3,1.4
	c-5.4,5.2-13.2,2.1-20.5,3.1c-0.5,2.6-2.4,1.9-4.5,3.1c-0.7-1.2,0.2-1.7-0.2-3.1c-0.5-0.7-2.1-0.2-2.1-1.4c-2.4,0.9-5,2.8-2.8,3.8
	c-2.8,0.7-4.5,1.9-7.1,2.1c-0.5-1.4-1.7-0.9-0.9-3.1c-5,0.2-8.3,0.5-12,1.4c-0.5-0.7,0-2.1-0.9-2.4c-2.4-0.9-2.8,2.1-5.9,1.4
	c-0.5-0.7-0.7-2.8,0.2-3.1c-2.1-1.4-3.3,0.2-6.1,0c-0.7,0.5-1.4,0.9-2.4,1.4c-7.5,0.2-11.3,5-16,7.5c-1.9,1.2-3.8,1.9-5.2,3.1
	c-10.6,9-18.9,21.5-28.3,31.1c-1.7,3.8-4.7,5.9-7.1,9c-0.9-0.2-1.4-2.1-2.4-1.4c-2.6,1.7-0.2,8.7-4.5,8.3c-3.3-0.5-2.1-6.1-2.4-9.9
	c-0.2-2.1-1.4-3.8-1.4-5.9c0-2.8,1.4-5-0.2-6.1c-3.3,1.7-4.2,6.1-4.7,9.7c-1.7,9-1.4,19.8-2.1,29c0,0.9-0.7,1.9-0.7,2.8
	c0,1.9,0.9,3.5,0.9,5.4c0,7.1-6.6,12.5-3.3,19.1c-6.1,8-2.4,20.3-0.2,30.9c1.4,7.8,5,14.9,6.1,21.2c0.5,0.9,1.9,1.2,2.4,2.1
	c4,15.3,12.3,26.6,22.2,36.3c2.1-0.5,3.1-0.2,4.7-0.9c0.2,0.7,0.9,0.9,0.7,2.1c1.7-0.2,3.1-0.7,3.1,1.4c-1.9-0.2-3.1-0.2-5.4-0.7
	c0.7,1.2,1.2,0.9,0.7,2.8c14.6,15.3,37.7,26.4,62,29c10.4,2.4,21.2,1.7,31.4,0.2c4.2-0.5,8-3.5,12.7-2.8c9-3.8,18.9-6.4,25.9-12
	c0.9,0,0.7,0.5,1.4,0c4.2-3.5,10.1-5.7,13.7-9.9c8-5,13.4-12,20.5-17.7c0.2-1.2-0.7-0.9,0-1.7c4.2-1.9,4.2-5.7,6.6-9.2
	c-0.9-0.2-0.9-1.2-1.4-1.7c4-4.5,3.5-14.6,10.6-15.1c-3.5-4,0.2-9.4,3.1-12.7c-1.2-1.4,0.5-2.8,0.9-3.8c-0.5-2.6,1.2-4.5,0.2-6.6
	c1.9-4.7,6.6-6.8,5.4-12c0.9-0.2,1.2,0.2,2.1,0.2c0.2-0.7,0.7-1.2,1.4-1.4c0.9-6.4,0.5-14.9,0.2-22.9c0-3.8-1.2-7.3-1.4-10.6
	c-0.2-3.1,1.2-7.1-1.7-9c-0.9,0,0.5,2.1-0.9,1.7c-0.9-0.2-1.2-0.9-1.4-2.1c-0.2-1.4,1.7-1.2,0.9-3.1c-2.8-0.5-3.3,2.8-5.9,4
	c0.2,0.9,0.2,0.9,0,2.1c-0.9,1.2-1.9,0.2-2.8,1.7c1.4-0.5,1.7,0.2,2.4,0.2c-1.2,2.4-2.1,5.4-5.2,5.2c-0.2,1.7,1.9,0.2,0.9,1.4
	c-0.2-0.9-1.2,1.7,0,0.2c0.2,0.9-2.1,2.6-3.8,2.8c0.2,0.2,0.7,0.7,0.9,0.9c-1.9,4.7,3.8,13-0.7,15.8c0,7.5,1.9,12.5,0.2,20.7
	c0,1.2,1.7,0.7,1.7,2.1c-0.2,0.9-1.7,1.2-1.7,2.4c-1.9,5.4-1.7,9.9-2.4,15.1c-0.7,5.4-5.7,9-4.7,15.1c-2.4,1.4-3.5,5.2-3.5,7.8
	c-2.6-0.7-5.7,0.2-6.6,2.4c0.2,1.7,1.7,2.1,1.7,3.8c-3.3,6.1-9.2,9.4-12.3,15.8c-2.1-0.2-2.1,1.4-3.1,2.4
	c-16,11.8-38.9,20-63.2,18.4c-0.5-0.5-1.2-0.9-1.4-1.7c-1.2,0.2-3.1-0.5-5.7-0.7c-2.8-3.1-8.7-3.3-13-5.2
	c-5.7-2.6-12.3-5.9-18.2-8.3c-8.3-3.1-17.4-6.1-23.3-11.3c-6.6-5.9-8.5-14.6-12.3-22.9c-1.7-3.3-3.5-6.1-4.7-9.7 M205.1,29.7
	c1.2,0.2,0.9-1.2,2.1-0.9c0.9,0.7,0.7,1.7,0.9,2.4c-0.5,0.5-1.9-0.2-3.1,0.2C205.3,30.1,205.3,30.6,205.1,29.7z M177,18.3
	c0.7,0.2,0.9,0.9,2.1,0.7c0,0.7-0.2,1.7,0.7,1.4c-1.2,1.2,0.9,0.7,0.7,2.1c-1.2,0.2-1.7-0.5-2.4-0.7C178.9,20.2,176.8,20.7,177,18.3
	z M144.5-2.2C146.6,3.2,139.6-1.2,144.5-2.2L144.5-2.2z M138.1-2.2c0,0.5,0,0.9,0.2,0.9c0,0.7-1.4,0.2-1.7,0
	C137-1.7,137.2-2.2,138.1-2.2z M217.4,66.9h-1.2c0,0.7-0.5,0.7-0.2,1.4c0.5,0,0.7,0.2,0.9,0.2c0-0.7-0.5-0.7-0.7-0.9
	C216.2,67.1,217.4,67.4,217.4,66.9z"/>
</svg>
