<?xml version="1.0" encoding="utf-8"?>
<!-- Generator: Adobe Illustrator 17.1.0, SVG Export Plug-In . SVG Version: 6.00 Build 0)  -->
<!DOCTYPE svg PUBLIC "-//W3C//DTD SVG 1.1//EN" "http://www.w3.org/Graphics/SVG/1.1/DTD/svg11.dtd">
<svg version="1.1" xmlns="http://www.w3.org/2000/svg" xmlns:xlink="http://www.w3.org/1999/xlink" x="0px" y="0px"
	 viewBox="-300.8 -121.1 892.3 472" enable-background="new -300.8 -121.1 892.3 472" xml:space="preserve">
<g id="Layer_1" display="none">
	<g display="inline">
		<g opacity="0.3">
			<rect x="-296.7" y="-116.9" width="264.1" height="169.6"/>
			<rect x="-296.7" y="-116.9" width="264.1" height="61.9"/>
			<path d="M-263.1-106.7h9.6v16.5h18.5v-16.5h9.6v43.7h-9.6v-18.8h-18.5v18.8h-9.6V-106.7z"/>
			<path d="M-215.9-106.7h29.6v9h-20v8.1h19.1v9H-206v9h21.2v9h-31.1V-106.7z"/>
			<path d="M-177-106.7h9.6v35h17.9v9H-177V-106.7L-177-106.7z"/>
			<path d="M-143.8-106.7h9.6v35h17.9v9h-27.5V-106.7L-143.8-106.7z"/>
			<path d="M-113.3-84.9c0-3.6,0.6-6.6,1.8-9.6c1.2-2.7,2.7-5.4,4.8-7.2c2.1-2.1,4.5-3.6,7.5-4.5c3-1.2,6-1.8,9.6-1.8
				c3.3,0,6.6,0.6,9.6,1.8c3,1.2,5.4,2.7,7.5,4.5s3.6,4.5,4.8,7.5c1.2,2.7,1.8,6,1.8,9.6s-0.6,6.6-1.8,9.6c-1.2,2.7-2.7,5.4-4.8,7.2
				c-2.1,2.1-4.5,3.6-7.5,4.5c-3,0.9-6,1.8-9.6,1.8s-6.6-0.6-9.6-1.8c-3-1.2-5.4-2.7-7.5-4.5s-3.9-4.5-4.8-7.2
				C-112.7-78-113.3-81.3-113.3-84.9z M-103.4-84.9c0,2.1,0.3,3.9,0.9,5.7c0.6,1.8,1.5,3.3,2.7,4.5c1.2,1.2,2.7,2.1,4.2,3
				c1.8,0.6,3.6,1.2,5.7,1.2c2.1,0,3.9-0.3,5.7-1.2c1.8-0.6,3-1.8,4.2-3c1.2-1.2,2.1-2.7,2.7-4.5c0.6-1.8,0.9-3.6,0.9-5.7
				s-0.3-3.9-0.9-5.7c-0.6-1.8-1.5-3.3-2.7-4.5c-1.2-1.2-2.7-2.1-4.2-3c-1.8-0.6-3.6-1.2-5.7-1.2c-2.1,0-3.9,0.3-5.7,1.2
				c-1.8,0.9-3,1.8-4.2,3c-1.2,1.2-2.1,2.7-2.7,4.5S-103.4-87-103.4-84.9z"/>
			<path d="M-205.4-50.5h3.3l2.1,6.3l0,0l2.1-6.3h3.3v10.2h-2.1v-7.5l0,0l-2.4,7.5h-1.8l-2.4-7.5l0,0v7.5h-2.1V-50.5L-205.4-50.5z"
				/>
			<path d="M-189.9-44.5l-3.9-5.7h2.7l2.1,3.6l2.1-3.6h2.7l-3.9,5.7v4.2h-2.1L-189.9-44.5L-189.9-44.5z"/>
			<path d="M-179.1-50.5h3l4.2,6.9l0,0v-6.9h2.1v10.2h-2.7l-4.2-6.9l0,0v6.9h-2.1v-10.2H-179.1z"/>
			<path d="M-164.4-50.5h1.8l4.2,9.9h-2.4l-0.9-2.1h-3.9l-0.6,2.4h-2.4L-164.4-50.5z M-163.5-47.5l-1.2,3h2.4L-163.5-47.5z"/>
			<path d="M-157.3-50.5h3.3l2.1,6.3l0,0l2.1-6.3h3.3v10.2h-2.1v-7.5l0,0l-2.4,7.5h-1.8l-2.4-7.5l0,0v7.5h-2.1V-50.5L-157.3-50.5z"
				/>
			<path d="M-144.1-50.5h6.6v2.1h-4.5v1.8h4.2v2.1h-4.2v2.1h4.8v2.1h-6.9V-50.5L-144.1-50.5z"/>
			<path d="M-131.2-50.5h2.1v10.2h-2.1V-50.5z"/>
			<path d="M-122.3-47.8c0-0.3-0.3-0.3-0.6-0.6c-0.3,0-0.6,0-0.9,0h-0.3h-0.3c0,0-0.3,0-0.3,0.3v0.3c0,0.3,0,0.6,0.3,0.6
				c0.3,0,0.6,0.3,0.9,0.3s0.6,0.3,1.2,0.3c0.3,0,0.6,0.3,1.2,0.3c0.3,0,0.6,0.3,0.9,0.9c0.3,0.3,0.3,0.9,0.3,1.5
				c0,0.6,0,0.9-0.3,1.5c0,0.3-0.3,0.6-0.9,0.9c-0.3,0.3-0.6,0.3-1.2,0.6c-0.3,0-0.9,0-1.5,0c-0.6,0-1.2,0-1.8-0.3
				c-0.6,0-1.2-0.6-1.5-0.9l1.5-1.8c0.3,0.3,0.6,0.6,0.9,0.6c0.3,0,0.6,0.3,1.2,0.3c0,0,0.3,0,0.6,0s0.3,0,0.6,0c0,0,0.3,0,0.3-0.3
				v-0.3c0-0.3,0-0.6-0.3-0.6c-0.3,0-0.6-0.3-0.9-0.3c-0.3,0-0.6-0.3-1.2-0.3c-0.3,0-0.6-0.3-1.2-0.6c-0.3,0-0.6-0.3-0.9-0.9
				c-0.3-0.3-0.3-0.9-0.3-1.5s0-0.9,0.3-1.5c0-0.3,0.3-0.6,0.9-0.9c0.3-0.3,0.6-0.3,1.2-0.6c0.3,0,0.9,0,1.5,0s1.2,0,1.8,0.3
				c0.6,0,0.9,0.3,1.5,0.9L-122.3-47.8z"/>
		</g>
		<g>
			<g>
				<rect x="-300.8" y="-121.1" fill="#FFFFFF" width="264.1" height="169.6"/>
				<rect x="-300.8" y="-121.1" fill="#B0CDD7" width="264.1" height="61.9"/>
				<g>
					<path fill="#FFFFFF" d="M-267.3-110.9h9.6v16.5h18.5v-16.5h9.6v43.7h-9.6v-18.8h-18.5v18.8h-9.6
						C-267.3-67.3-267.3-110.9-267.3-110.9z"/>
					<path fill="#FFFFFF" d="M-220.1-110.9h29.6v9h-20v8.1h18.8v9h-18.8v9h21.2v9h-30.8V-110.9z"/>
					<path fill="#FFFFFF" d="M-181.2-110.9h9.6v35h17.9v9h-27.5V-110.9L-181.2-110.9z"/>
					<path fill="#FFFFFF" d="M-148-110.9h9.6v35h17.9v9H-148V-110.9L-148-110.9z"/>
					<path fill="#FFFFFF" d="M-117.5-89.1c0-3.6,0.6-6.6,1.8-9.6c1.2-3,2.7-5.4,4.8-7.2c2.1-1.8,4.5-3.3,7.5-4.5
						c3-1.2,6-1.8,9.6-1.8c3.3,0,6.6,0.6,9.6,1.8c3,1.2,5.4,2.7,7.5,4.5s3.9,4.5,4.8,7.2c1.2,2.7,1.8,6,1.8,9.6
						c0,3.6-0.6,6.6-1.8,9.6c-1.2,2.7-2.7,5.4-4.8,7.2c-2.1,2.1-4.5,3.6-7.5,4.5c-3,1.2-6,1.8-9.6,1.8s-6.6-0.6-9.6-1.5
						c-3-1.2-5.4-2.7-7.5-4.5c-2.1-2.1-3.9-4.5-4.8-7.2C-116.9-82.2-117.5-85.5-117.5-89.1z M-107.6-89.1c0,2.1,0.3,3.9,0.9,5.7
						c0.6,1.8,1.5,3.3,2.7,4.5c1.2,1.2,2.7,2.1,4.2,3c1.5,0.9,3.6,1.2,5.7,1.2s3.9-0.3,5.7-1.2c1.8-0.9,3-1.8,4.2-3
						c1.2-1.2,2.1-2.7,2.7-4.5c0.6-1.8,0.9-3.6,0.9-5.7s-0.3-3.9-0.9-5.7c-0.6-1.8-1.5-3.3-2.7-4.5c-1.2-1.2-2.7-2.1-4.2-3
						c-1.5-0.3-3.3-0.9-5.4-0.9s-3.9,0.3-5.7,1.2c-1.8,0.6-3,1.8-4.2,3s-2.1,2.7-2.7,4.5C-107.3-93-107.6-91.2-107.6-89.1z"/>
				</g>
				<g>
					<path fill="#B0CDD7" d="M-209.6-54.7h3.3l2.1,6.3l0,0l2.1-6.3h3.3v9.9h-2.1v-7.5l0,0l-2.4,7.5h-1.8l-2.4-7.5l0,0v7.5h-2.1
						V-54.7L-209.6-54.7z"/>
					<path fill="#B0CDD7" d="M-194-48.7l-3.9-5.7h2.7l2.1,3.6l2.1-3.6h2.4l-3.9,5.7v4.2h-2.1L-194-48.7L-194-48.7z"/>
					<path fill="#B0CDD7" d="M-183.3-54.7h3l4.2,6.9l0,0v-6.9h2.1v9.9h-2.7l-4.2-6.9l0,0v6.9h-2.1v-9.9H-183.3z"/>
					<path fill="#B0CDD7" d="M-168.6-54.7h1.8l4.2,9.9h-2.4l-0.9-2.1h-3.9l-0.9,2.1h-2.4L-168.6-54.7z M-167.7-51.7l-1.2,3h2.4
						L-167.7-51.7z"/>
					<path fill="#B0CDD7" d="M-161.4-54.7h3.3l2.1,6.3l0,0l2.1-6.3h3.3v9.9h-2.1v-7.5l0,0l-2.4,7.5h-1.8l-2.4-7.5l0,0v7.5h-2.1
						V-54.7L-161.4-54.7z"/>
					<path fill="#B0CDD7" d="M-148.3-54.7h6.6v2.1h-4.5v1.8h4.2v2.1h-4.2v2.1h4.8v2.1h-6.9V-54.7L-148.3-54.7z"/>
					<path fill="#B0CDD7" d="M-135.4-54.7h2.1v9.9h-2.1V-54.7z"/>
					<path fill="#B0CDD7" d="M-126.4-52c0-0.3-0.3-0.3-0.6-0.6c-0.3,0-0.6,0-0.9,0h-0.3h-0.3c0,0-0.3,0-0.3,0.3v0.3
						c0,0.3,0,0.6,0.3,0.6c0.3,0,0.6,0.3,0.9,0.3c0.3,0,0.6,0.3,1.2,0.3c0.3,0,0.6,0.3,1.2,0.3c0.3,0,0.6,0.3,0.9,0.9
						c0.3,0.3,0.3,0.9,0.3,1.5s0,0.9-0.3,1.5c0,0.3-0.3,0.6-0.9,0.9c-0.3,0.3-0.6,0.3-1.2,0.6c-0.3,0-0.9,0-1.5,0s-1.2,0-1.8-0.3
						c-0.6,0-1.2-0.6-1.5-0.9l1.5-1.8c0.3,0.3,0.6,0.6,0.9,0.6s0.6,0.3,1.2,0.3c0,0,0.3,0,0.6,0s0.3,0,0.6,0c0,0,0.3,0,0.3-0.3v-0.3
						c0-0.3,0-0.6-0.3-0.6c-0.3,0-0.6-0.3-0.9-0.3c-0.3,0-0.6-0.3-1.2-0.3c-0.3,0-0.6-0.3-1.2-0.6c-0.3,0-0.6-0.3-0.9-0.9
						c-0.3-0.3-0.3-0.9-0.3-1.5c0-0.6,0-0.9,0.3-1.5c0-0.3,0.3-0.6,0.9-0.9c0.3-0.3,0.6-0.3,1.2-0.6c0.3,0,0.9,0,1.5,0
						s1.2,0,1.8,0.3c0.6,0,0.9,0.3,1.5,0.9L-126.4-52z"/>
				</g>
			</g>
		</g>
	</g>
	<g display="inline">
		<g>
			<g opacity="0.3">
				<path d="M567.5-51.1c13.2,0,23.9,10.5,23.9,23.9V327c0,13.2-10.5,23.9-23.9,23.9H96.1c-13.2,0-23.9-10.5-23.9-23.9V-27.2
					c0-13.2,10.5-23.9,23.9-23.9H567.5z"/>
			</g>
			<g>
				<path fill="#FFFFFF" d="M561.6-57.1c13.2,0,23.9,10.5,23.9,23.9V321c0,13.2-10.5,23.9-23.9,23.9H89.8
					c-13.2,0-23.9-10.5-23.9-23.9V-33.2c0-13.2,10.5-23.9,23.9-23.9H561.6z"/>
			</g>
		</g>
		<rect x="112.3" y="-18.2" fill="#DBDDDD" width="426.3" height="323.7"/>
		<circle fill="#E8E8E8" cx="88.3" cy="144.2" r="4.2"/>
		<circle fill="#E8E8E8" cx="562.8" cy="144.2" r="11.4"/>
		<path opacity="0.1" fill="#FFFFFF" enable-background="new    " d="M66.2-33.2v229.7L585.5-12.2v-20.6c0-13.2-10.5-23.9-23.9-23.9
			H89.8C76.7-57.1,66.2-46.6,66.2-33.2z"/>
	</g>
	<g display="inline">
		<g opacity="0.3">
			<path d="M22.6,316.7c0.9,10.1-6.5,18.7-16.6,19.6l-106.2,8.9c-10.1,0.9-18.7-6.5-19.6-16.6l-23.1-276.1
				c-0.9-10.1,6.5-18.7,16.6-19.6L-20.1,24C-10,23.1-1.4,30.5-0.5,40.6L22.6,316.7z"/>
		</g>
		<g>
			<path fill="#FFFFFF" d="M18,313.2c0.9,10.2-6.6,18.8-16.8,19.7l-107.1,9c-10.2,0.9-18.8-6.6-19.7-16.8L-148.9,47
				c-0.9-10.2,6.6-18.8,16.8-19.7l107.1-9C-14.9,17.4-6.2,24.9-5.3,35L18,313.2z"/>
		</g>
	</g>
	<circle display="inline" fill="#E8E8E8" cx="-54.4" cy="314.1" r="11.4"/>
	
		<rect x="-131.5" y="62.6" transform="matrix(-0.9965 8.330660e-02 -8.330660e-02 -0.9965 -117.2376 355.559)" display="inline" fill="#DBDDDD" width="131" height="225.5"/>
	<path display="inline" fill="#E8E8E8" d="M-54.7,44.3c0,2.1-1.5,3.9-3.6,4.2l-36.8,3c-2.1,0-3.9-1.5-4.2-3.6l0,0
		c0-2.1,1.5-3.9,3.6-4.2l36.8-3C-56.4,40.7-54.7,42.2-54.7,44.3L-54.7,44.3z"/>
	<path display="inline" opacity="0.1" fill="#FFFFFF" enable-background="new    " d="M-25.3,18.3l-91.2,7.5L15.6,288.7l-21.2-254
		C-6.2,24.9-15.2,17.4-25.3,18.3z"/>
</g>
<g id="Layer_2_1_" display="none">
	<path display="inline" fill-rule="evenodd" clip-rule="evenodd" fill="#F94803" d="M-76.7,116.9l3.6,4.6l3.2-0.6l2-5.6l4.2,0.4
		l0.8,5.8l3,1.1l4.5-3.8l3.4,2.4l-2.2,5.4l2.1,2.5l5.8-1.1l1.8,3.8l-4.6,3.6l0.6,3.2l5.6,2l-0.4,4.2l-5.8,0.8l-1.1,3l3.8,4.5
		l-2.4,3.4l-5.4-2.2l-2.5,2.1l1.1,5.8l-3.8,1.8l-3.6-4.7l-3.2,0.6l-2,5.6l-4.2-0.4l-0.8-5.8l-3-1.1l-4.5,3.8l-3.4-2.4l2.2-5.4
		l-2.1-2.5l-5.8,1.1l-1.8-3.8l4.7-3.6l-0.6-3.2l-5.6-2l0.4-4.2l5.8-0.8l1.1-3l-3.8-4.5l2.4-3.4l5.4,2.2l2.5-2.1l-1.1-5.8
		L-76.7,116.9L-76.7,116.9z M-72.6,130.8c5.3-2.5,11.7-0.2,14.2,5.2c2.5,5.3,0.2,11.7-5.2,14.2c-5.3,2.5-11.7,0.2-14.2-5.2
		C-80.3,139.6-78,133.2-72.6,130.8L-72.6,130.8z"/>
	<g display="inline">
		<path fill="#636565" d="M-279-22.1l-4-0.7v-2.3l8.7-0.3h5.7c8.7,0,14.4,5.4,14.4,15.4s-6,16.4-15.1,16.4H-283V3.8l4-1V-22.1z
			 M-268.9,2.8c5.7,0,9.7-4,9.7-12.4s-3.7-12.1-9.4-12.1h-5.4V2.8H-268.9z"/>
		<path fill="#636565" d="M-227.6-6.3c0,7.7-4.7,13.1-11.4,13.1s-11.1-4-11.1-12.4c0-7.7,4.7-12.8,11.7-12.8
			C-231.3-18.4-227.6-13.3-227.6-6.3z M-245.1-5.6c0,5.4,1.7,8.7,6.4,8.7c4.7,0,6.4-3.4,6.4-9.1c0-5-1.7-8.7-6-8.7
			S-245.1-11.7-245.1-5.6z"/>
		<path fill="#636565" d="M-215.9-14.3c1-1.3,3.7-3.7,7-3.7c2.3,0,4,0.7,4,0.7l-0.3,6.7h-3l-0.7-3.4c-3.4,0-5.7,2.3-6.7,3.7V3.1
			l4.7,1v2.3H-224V4.1l4-1v-16.8l-4-1V-17l7.4-0.3L-215.9-14.3z"/>
		<path fill="#636565" d="M-201.5-16.4c0,0,5-1.7,8.7-1.7c5.4,0,8.4,1.7,8.4,7V2.8l3.7,1v2.3l-7,0.3l-1-3.4
			c-1.7,1.7-4.4,3.7-7.4,3.7c-4.4,0-6.7-2.3-6.7-6.7c0-5.4,4-7,10.4-7h3.7v-3.7c0-2.7-1.7-4-4.4-4s-4.7,0.7-4.7,0.7l-0.7,3.4h-3
			L-201.5-16.4z M-192.1-4.3c-4.7,0-6.4,1-6.4,4c0,2,1.3,3.4,3.4,3.4c3.4,0,6-3.7,6-3.7v-3.7C-189.1-4.3-192.1-4.3-192.1-4.3z"/>
		<path fill="#636565" d="M-145.4-21.1c0,0-2.3-1-5.7-1c-6,0-9.7,4.7-9.7,13.1c0,8.1,4,11.7,9.7,11.7c4.7,0,9.1-3.7,9.1-3.7l1.7,3
			c0,0-4.7,4.7-11.4,4.7c-9.1,0-14.4-5.4-14.4-15.8c0-10.4,6-17.1,15.1-17.1c5,0,10.4,2.3,10.4,2.3l-0.3,7.7h-3.4L-145.4-21.1z"/>
		<path fill="#636565" d="M-128.7-15c1.3-1.3,4.7-3.4,8.1-3.4c5,0,7.4,3.4,7.4,8.1V2.4l3.4,1v2.3h-11.1V3.4l3-1V-10
			c0-3.4-1-4.7-4-4.7c-4,0-6.7,3.7-6.7,3.7V2.4l3,1v2.3H-137V3.4l4-1v-27.9l-4-1v-2.3l8.4-0.3C-128.7-29.1-128.7-15-128.7-15z"/>
		<path fill="#636565" d="M-105.2-16.4c0,0,5-1.7,8.7-1.7c5.4,0,8.4,1.7,8.4,7V2.8l3.7,1v2.3l-7,0.3l-1-3.4
			c-1.7,1.7-4.4,3.7-7.4,3.7c-4.4,0-6.7-2.3-6.7-6.7c0-5.4,4-7,10.4-7h3.7v-3.7c0-2.7-1.7-4-4.4-4s-4.7,0.7-4.7,0.7l-0.7,3.4h-3
			V-16.4z M-95.8-4.3c-4.7,0-6.4,1-6.4,4c0,2,1.3,3.4,3.4,3.4c3.4,0,6-3.7,6-3.7v-3.7C-92.7-4.3-95.8-4.3-95.8-4.3z"/>
		<path fill="#636565" d="M-73.3-14.7c1-1,4.7-3.7,8.4-3.7c5,0,7.4,3.4,7.4,8.1V2.4l3.4,1v2.3h-10.7V3.4l3-1V-10c0-3.4-1-4.7-4-4.7
			c-4,0-6.7,3.7-6.7,3.7V2.4l3,1v2.3H-81V3.4l4-1v-16.8l-4-1v-2.3l7.4-0.3L-73.3-14.7z"/>
	</g>
	<path display="inline" fill="#F94803" d="M-94.6,183.7l7.2-0.7v1.6l-2.3,0.7l3.9,11.8l3.3-14.1l2.6-0.3l5.6,13.8L-72,184l-2.3-0.3
		v-1.3l7.2-0.7v1.6l-2,0.7l-3.3,16.7l-3,0.3l-4.3-11.8l-1.3-3.3l-0.7,3l-2.6,12.1l-2.6,0.3l-5.6-15.7l-2-0.3L-94.6,183.7z"/>
	<path display="inline" fill="#F94803" d="M-62.8,192.9c0.3,3,2,4.6,4.3,4.3c2.6-0.3,4.3-1.6,4.3-1.6l1,1.3c0,0-2.3,2.3-5.2,2.6
		c-4.3,0.3-6.6-2.3-6.9-6.6s2-7.5,5.9-7.9c3.9-0.3,5.6,1.6,5.9,5.6c0,0.7,0,1.3,0,1.3L-62.8,192.9z M-56.6,190.2c0-2-1-3.6-3.3-3.3
		c-2,0.3-3.3,2-3.3,3.9L-56.6,190.2z"/>
	<path display="inline" fill="#F94803" d="M-48.1,185.3c0.7-0.7,2-1.6,3.9-2c3.9-0.3,5.6,2.3,5.9,6.2c0.3,4.6-2,7.9-6.6,8.2
		c-3,0.3-4.9-0.3-4.9-0.3l-1.6-17.4l-2.3-0.3v-1.3l4.6-0.7L-48.1,185.3z M-47.4,196.1c0,0,0.7,0.3,2.6,0c3-0.3,3.9-2.6,3.6-5.6
		c-0.3-3-1.3-4.9-3.6-4.6s-3.3,2-3.3,2L-47.4,196.1z"/>
	<path display="inline" fill="#F94803" d="M-115.1,214.6l-2.3-0.3V213l4.9-0.7l3.3-0.3c5.2-0.3,8.5,2.6,8.9,8.2
		c0.3,5.9-2.6,9.8-7.9,10.2l-7.9,0.7v-1.6l2.3-0.7L-115.1,214.6z M-108.2,228.4c3.3-0.3,5.2-2.6,4.9-7.5s-2.6-6.9-5.9-6.6l-3.3,0.3
		l1.3,14.1L-108.2,228.4z"/>
	<path display="inline" fill="#F94803" d="M-94.7,222.8c0.3,3,2,4.6,4.3,4.3c2.6-0.3,4.3-1.6,4.3-1.6l1,1.3c0,0-2.3,2.3-5.2,2.6
		c-4.3,0.3-6.6-2.3-6.9-6.6s2-7.5,5.9-7.9c3.9-0.3,5.6,1.6,5.9,5.6c0,0.7,0,1.3,0,1.3L-94.7,222.8z M-88.5,220.2c0-2-1-3.6-3.3-3.3
		c-2,0.3-3.3,2-3.3,3.9L-88.5,220.2z"/>
	<path display="inline" fill="#F94803" d="M-80.6,226.4c0,0,0.7,0.3,2.3,0c1.6,0,3-0.7,3-2.3c-0.3-3-7.5-1-7.9-5.6
		c-0.3-2.6,1.6-4.3,4.6-4.6c2-0.3,4.6,0.3,4.6,0.3l0.3,3.6h-1.6l-0.7-2c0,0-1-0.3-2.3,0c-1.3,0-2.3,0.7-2.3,2c0.3,3,7.5,1,7.9,5.6
		c0.3,3-2.3,4.6-5.2,4.9c-2.3,0.3-4.3-0.3-4.3-0.3l-0.3-3.9h2L-80.6,226.4z"/>
	<path display="inline" fill="#F94803" d="M-63.6,226.8l-6.9,0.7v-1.3l2.3-1l-0.7-9.8l-2.3-0.3v-1.3l4.9-0.7l1,11.8l2,0.7
		L-63.6,226.8z M-68.8,207.1c1,0,1.6,0.3,2,1.6c0,1.3-0.7,2-1.6,2c-1,0-1.6-0.7-2-1.6C-70.8,208.1-69.8,207.1-68.8,207.1z"/>
	<path display="inline" fill="#F94803" d="M-51.8,214c0,0,0.7,1,1,2.6c0.3,3.6-2,5.2-5.2,5.6c-1.3,0-2,0-2,0v2.6l3.9-0.3
		c3.3-0.3,5.2,1,5.6,3.3c0.3,3-2,4.9-6.6,5.2c-3.6,0.3-6.2-0.3-6.6-3.3c-0.3-2.3,2.6-3.6,2.6-3.6s-1.6,0-1.6-1.3c0-1,1-3,1-3
		s-2-0.7-2.3-3.9c-0.3-3.3,2-5.2,5.2-5.6c1.6,0,2.6,0.3,2.6,0.3l4.6-0.3v1.3L-51.8,214z M-57.4,226.4c0,0-1.6,1-1.6,2.6
		c0,2,1.6,2,4.3,2c2.6-0.3,3.9-1,3.6-3c-0.3-2-1.6-2-3.6-2L-57.4,226.4z M-59.3,217.3c0,2,1.3,3,3.3,3c2-0.3,3-1.3,2.6-3.3
		c0-2-1.3-3-3.3-3S-59.3,215.3-59.3,217.3z"/>
	<path display="inline" fill="#F94803" d="M-42.9,213c0.7-0.7,2.6-2.3,4.6-2.6c3-0.3,4.3,1.6,4.6,4.3l0.7,7.2l2,0.7v1.3l-6.2,0.7
		v-1.3l1.6-0.7l-0.3-7.2c0-2-1-2.6-2.6-2.6c-2.3,0.3-3.6,2.3-3.6,2.3l0.7,7.9l1.6,0.7v1.3l-6.6,0.7v-1.3l2.3-1l-0.7-9.8l-2.3-0.3
		v-1.3l4.3-0.3V213z"/>
	<path display="inline" fill="#F94803" d="M-26.9,217.3c0.3,3,2,4.6,4.3,4.3c2.6-0.3,4.3-1.6,4.3-1.6l1,1.3c0,0-2.3,2.3-5.2,2.6
		c-4.3,0.3-6.6-2.3-6.9-6.6c-0.3-4.3,2-7.5,5.9-7.9c3.9-0.3,5.6,1.6,5.9,5.6c0,0.7,0,1.3,0,1.3L-26.9,217.3z M-20.7,214.6
		c0-2-1-3.6-3.3-3.3c-2,0.3-3.3,2-3.3,3.9L-20.7,214.6z"/>
	<path display="inline" fill="#F94803" d="M-11.5,210.4c0.7-0.7,2-2.3,3.9-2.6c1.3,0,2.3,0.3,2.3,0.3l0.3,3.9h-1.6l-0.7-1.6
		c-2,0-3.3,1.6-3.6,2.3l0.7,7.9l2.6,0.3v1.3l-7.5,0.7v-1.3l2.3-1l-0.7-9.8l-2.3-0.3v-1.3l4.3-0.3L-11.5,210.4z"/>
</g>
<g id="Layer_3" display="none">
	<g display="inline">
		<path fill="#636565" d="M-276-17V2.7c0,4.1-2.5,6.7-6.7,6.7c-1,0-2.2-0.3-2.2-0.3l0.6-2.5h1.6c2.2,0,3.2-1.3,3.2-3.2V-17l-2.9-0.6
			v-1.9l9.5-0.3v1.9L-276-17z"/>
		<path fill="#636565" d="M-253.5-5.3c0,5.7-3.5,9.8-8.6,9.8s-8.2-3.2-8.2-9.2c0-5.7,3.5-9.5,8.9-9.5
			C-256.3-14.5-253.5-10.7-253.5-5.3z M-266.8-5c0,4.1,1.3,6.7,4.8,6.7s4.8-2.5,4.8-7c0-3.8-1.3-6.7-4.8-6.7
			C-265.2-11.6-266.8-9.4-266.8-5z"/>
		<path fill="#636565" d="M-244.9-11.9c1-1,3.5-2.5,6-2.5c3.8,0,5.4,2.5,5.4,6v9.5l2.5,1v1.9h-8.2V2l2.5-0.6v-9.2
			c0-2.5-0.6-3.5-2.9-3.5c-2.9,0-5.1,2.9-5.1,2.9v9.8l2.2,1v1.9h-8.6V2.3l2.9-1v-20.9l-2.9-0.6v-1.9l6.3-0.3v10.5H-244.9z"/>
		<path fill="#636565" d="M-227.2-12.9c0,0,3.8-1.3,6.7-1.3c4.1,0,6.3,1.3,6.3,5.4V1.4l2.9,0.6v1.9l-5.4,0.3l-0.6-2.5
			c-1.3,1.3-3.2,2.9-5.7,2.9c-3.2,0-5.1-1.9-5.1-5.1c0-3.8,3.2-5.4,7.9-5.4h2.5v-2.9c0-1.9-1.3-3.2-3.2-3.2c-1.9,0-3.5,0.6-3.5,0.6
			l-0.6,2.5h-2.2V-12.9z M-219.9-3.7c-3.5,0-4.8,1-4.8,2.9c0,1.6,1,2.5,2.5,2.5c2.5,0,4.8-2.9,4.8-2.9V-4h-2.5V-3.7z"/>
		<path fill="#636565" d="M-203.1-11.6c1-0.6,3.5-2.9,6.3-2.9c3.8,0,5.4,2.5,5.4,6v9.5l2.5,1v1.9h-8.2V2l2.2-1v-9.2
			c0-2.5-1-3.5-3.2-3.5c-2.9,0-5.1,2.9-5.1,2.9V1.4l2.2,1v1.9h-8.6V2.3l2.9-1v-12.7l-2.9-0.6v-1.9l5.7-0.3L-203.1-11.6z"/>
		<path fill="#636565" d="M-180.3-11.6c1-0.6,3.5-2.9,6.3-2.9c3.8,0,5.4,2.5,5.4,6v9.5l2.5,1v1.9h-8.2V2l2.2-1v-9.2
			c0-2.5-1-3.5-3.2-3.5c-2.9,0-5.1,2.9-5.1,2.9V1.4l2.2,1v1.9h-8.6V2.3l2.9-1v-12.7l-2.9-0.6v-1.9l5.7-0.3L-180.3-11.6z"/>
		<path fill="#636565" d="M-162.2-12.9c0,0,3.8-1.3,6.7-1.3c4.1,0,6.3,1.3,6.3,5.4V1.4l2.9,0.6v1.9l-5.4,0.3l-0.6-2.5
			c-1.3,1.3-3.2,2.9-5.7,2.9c-3.2,0-5.1-1.9-5.1-5.1c0-3.8,3.2-5.4,7.9-5.4h2.9v-2.9c0-1.9-1.3-3.2-3.2-3.2s-3.5,0.6-3.5,0.6
			l-0.6,2.5h-2.2L-162.2-12.9z M-155-3.7c-3.5,0-4.8,1-4.8,2.9c0,1.6,1,2.5,2.5,2.5c2.5,0,4.8-2.9,4.8-2.9V-4h-2.5V-3.7z"/>
		<path fill="#636565" d="M-131.8,0.8c0,0,1.6,1,3.8,1c2.5,0,5.4-1.3,5.4-3.8c0-5.4-12.4-3.2-12.4-11.4c0-4.8,3.8-7,8.2-7
			c3.2,0,7.3,1.3,7.3,1.3l-0.3,5.7h-2.2l-1.3-3.8c0,0-1.9-0.6-3.5-0.6c-3.2,0-4.4,1.6-4.4,3.2c0,5.1,12.4,3.2,12.4,11.1
			c0,5.1-4.1,7.6-8.9,7.6c-3.5,0-7-1.3-7-1.3v-6h2.9V0.8z"/>
		<path fill="#636565" d="M-104.6-11.3h-5.1v11.1c0,1.6,0.6,2.2,1.6,2.2c1,0,1.9-0.3,2.5-1l1,1.9c-1.6,1.3-3.2,1.6-4.8,1.6
			c-1.9,0-3.8-1.3-3.8-5.1v-10.8h-3.2v-2.2l3.5-0.3v-4.4l3.5-0.6v5.1h5.1v2.5H-104.6z"/>
		<path fill="#636565" d="M-98.6-4.3c0,3.8,1.9,6,5.1,6c3.5,0,5.7-1.9,5.7-1.9l1.3,1.9c0,0-3.2,2.9-7.3,2.9c-5.4,0-8.2-3.5-8.2-9.2
			c0-5.4,3.5-9.5,8.6-9.5s7.3,2.9,7.3,7.9c0,1-0.3,1.9-0.3,1.9H-98.6z M-90.3-6.9c0-2.5-1-4.8-3.8-4.8c-2.9,0-4.4,2.2-4.4,4.8H-90.3
			z"/>
		<path fill="#636565" d="M-74.8,4.2h-8.9V2.3l2.9-1v-12.7l-2.9-0.6v-1.9l6.3-0.3V1.4l2.5,1V4.2z M-79.2-22.1c1.3,0,2.2,0.6,2.2,2.5
			c0,1.6-1.3,2.5-2.2,2.5c-1.3,0-2.2-1-2.2-2.5S-80.5-22.1-79.2-22.1z"/>
		<path fill="#636565" d="M-66.3-11.6c1-0.6,3.5-2.9,6.3-2.9c3.8,0,5.4,2.5,5.4,6v9.5l2.5,1v1.9h-8.2V2l2.2-1v-9.2
			c0-2.5-1-3.5-3.2-3.5c-2.9,0-5.1,2.9-5.1,2.9V1.4l2.2,1v1.9h-8.6V2.3l2.9-1v-12.7l-2.9-0.6v-1.9l5.7-0.3L-66.3-11.6z"/>
	</g>
	<g display="inline">
		<path fill="#F94803" d="M-84.2,188.5c0,0-2.4-0.7-5.1-0.3c-5.4,0.3-8.2,4.8-7.5,12.2c0.7,7.1,4.8,10.2,9.5,9.9
			c4.4-0.3,7.8-4.1,7.8-4.1l1.7,2.4c0,0-3.7,4.8-9.9,5.1c-8.2,0.7-13.3-3.7-14.3-12.9c-1-9.2,3.7-15.6,12.2-16.3
			c4.4-0.3,9.2,1,9.2,1l0.3,6.8l-3.1,0.3L-84.2,188.5z"/>
		<path fill="#F94803" d="M-58.4,194.3l0.3,3.4l-9.2,1l1,9.9l9.2-1l0.3-4.1l2.7-0.3l0.7,7.1l-20.4,2l-0.3-2.4l3.4-1l-2-21.8
			l-3.4-0.3l-0.3-2.4l7.5-1l12.2-1l0.7,6.8l-2.7,0.3l-1.4-3.4l-8.8,0.7l0.7,8.8L-58.4,194.3z"/>
		<path fill="#F94803" d="M-24.4,193.2c0.7,8.8-4.1,15.6-11.9,16.3c-7.8,0.7-12.9-4.1-13.6-13.3c-0.7-8.8,3.7-15.3,11.9-16
			C-30.2,179.3-25.1,184.4-24.4,193.2z M-45.1,195.3c0.7,7.1,3.7,10.9,8.8,10.5s8.2-4.4,7.5-12.2c-0.7-7.1-3.7-10.5-9.2-10.2
			C-43.1,184.1-45.8,187.8-45.1,195.3z"/>
	</g>
	<path display="inline" fill-rule="evenodd" clip-rule="evenodd" fill="#F94803" d="M-83.8,123.5l26.8-2.6c7.3-0.7,13.9,4.7,14.6,12
		l1.1,11c0.7,7.4-4.7,14-12,14.7l-20.3,2c-0.6,4.2,0.3,8.2,3.5,11.8c-6-1.8-9.1-5.8-10.2-11.2c-7.3,0.6-13.8-4.7-14.5-12.1l-1.1-11
		C-96.6,130.8-91.1,124.2-83.8,123.5L-83.8,123.5L-83.8,123.5z"/>
</g>
<g id="Layer_4" display="none">
	<g display="inline">
		<path fill="#636565" d="M-279.2-0.5c0,0,1.5,0.8,3.6,0.8c2.4,0,5-1.2,5-3.5c0-5-11.7-2.9-11.7-10.7c0-4.5,3.6-6.5,7.7-6.5
			c3.1,0,6.9,1.3,6.9,1.3l-0.2,5.5h-2.1l-1.1-3.5c0,0-1.7-0.6-3.4-0.6c-2.9,0-4.3,1.5-4.3,3.1c0,4.9,11.7,3.1,11.7,10.4
			c0,4.9-3.9,7.1-8.5,7.1c-3.4,0-6.7-1.3-6.7-1.3v-5.7h2.6L-279.2-0.5z"/>
		<path fill="#636565" d="M-262.9-13.5c0,0,3.6-1.3,6.3-1.3c3.8,0,6,1.3,6,5v9.9l2.6,0.6v1.8l-5,0.2l-0.7-2.3
			c-1.1,1.1-3.1,2.6-5.3,2.6c-3.1,0-4.9-1.8-4.9-4.9c0-3.7,2.9-5,7.5-5h2.6v-2.6c0-1.9-1.1-2.9-3.1-2.9s-3.3,0.5-3.3,0.5l-0.5,2.4
			h-2.1L-262.9-13.5z M-256-4.7c-3.2,0-4.5,0.8-4.5,2.8c0,1.5,0.9,2.4,2.4,2.4c2.4,0,4.4-2.6,4.4-2.6v-2.6H-256z"/>
		<path fill="#636565" d="M-240-12.1c0.8-0.9,2.7-2.7,4.9-2.7c1.6,0,2.9,0.5,2.9,0.5l-0.2,4.7h-2.1l-0.5-2.4c-2.4,0-4,1.6-4.7,2.5
			v9.6l3.2,0.8v1.8h-9.3V0.9l2.8-0.8v-12l-2.8-0.6v-1.8l5.4-0.2L-240-12.1z"/>
		<path fill="#636565" d="M-229.8-13.5c0,0,3.6-1.3,6.3-1.3c3.8,0,6,1.3,6,5v9.9l2.6,0.6v1.8l-5,0.2l-0.7-2.3
			c-1.1,1.1-3.1,2.6-5.3,2.6c-3.1,0-4.9-1.8-4.9-4.9c0-3.7,2.9-5,7.5-5h2.6v-2.6c0-1.9-1.1-2.9-3.1-2.9s-3.3,0.5-3.3,0.5l-0.5,2.4
			h-2.1L-229.8-13.5z M-222.9-4.7c-3.2,0-4.5,0.8-4.5,2.8c0,1.5,0.9,2.4,2.4,2.4c2.4,0,4.4-2.6,4.4-2.6v-2.6H-222.9z"/>
		<path fill="#636565" d="M-207-12.5c1-0.8,3.3-2.3,5.7-2.3c3.6,0,5.2,2.3,5.2,5.8v9.1l2.4,0.8v1.8h-7.8V0.9l2.1-0.8v-8.8
			c0-2.3-0.7-3.4-2.8-3.4c-2.8,0-4.8,2.6-4.8,2.6v9.6l2.1,0.8v1.8h-8.1V0.9l2.8-0.8v-19.8l-2.8-0.6v-1.8l6-0.2V-12.5z"/>
		<path fill="#636565" d="M-181.2-17.4l-2.8-0.6v-1.8l6-0.2h3.7c4.1,0,7,1.8,7,5.7c0,2.9-1.5,4.6-4.2,5.3c3.4,0.8,5,2.7,5,5.3
			c0,4.5-2.9,6.5-8.3,6.5h-9.3V0.8l2.8-0.6V-17.4z M-175.5-10.3c2.9,0,4.9-1.1,4.9-3.7c0-2.3-1.6-3.4-3.7-3.4h-3.6v7.1H-175.5z
			 M-174.6,0.1c3.1,0,4.7-1.3,4.7-3.7c0-3.2-2.1-4.2-5.7-4.2h-2.4v8H-174.6z"/>
		<path fill="#636565" d="M-157.9-12.1c0.8-0.9,2.7-2.7,4.9-2.7c1.6,0,2.9,0.5,2.9,0.5l-0.2,4.7h-2.1l-0.5-2.4c-2.4,0-4,1.6-4.7,2.5
			v9.6l3.2,0.8v1.8h-9.3V0.9l2.8-0.8v-12l-2.8-0.6v-1.8l5.4-0.2L-157.9-12.1z"/>
		<path fill="#636565" d="M-129.4,2.6l-5.4,0.2l-0.3-2.3c-0.8,0.7-3.3,2.6-6,2.6c-3.6,0-5.2-2.2-5.2-5.8v-9.1l-2.8-0.6v-1.8l6-0.2
			v11.4c0,2.3,0.8,3.4,2.9,3.4c2.8,0,4.7-2.6,4.7-2.6v-9.6l-2.8-0.6v-1.8l6-0.2V0.1l2.8,0.6V2.6z"/>
		<path fill="#636565" d="M-124.5,0.3c0,0,1,0.3,2.7,0.3c1.9,0,3.7-0.6,3.7-2.6c0-3.5-9.1-1.9-9.1-7.8c0-3.4,2.6-5.1,5.9-5.1
			c2.6,0,5.6,1,5.6,1l-0.1,4.4h-2.1l-0.5-2.5c0,0-1-0.4-2.6-0.4c-1.7,0-2.9,0.5-2.9,2.2c0,3.5,9.1,2.1,9.1,7.7
			c0,3.7-3.2,5.6-7.1,5.6c-3,0-5.1-0.7-5.1-0.7v-4.8h2.3L-124.5,0.3z"/>
		<path fill="#636565" d="M-109.3,0.3c0,0,1,0.3,2.7,0.3c1.9,0,3.7-0.6,3.7-2.6c0-3.5-9.1-1.9-9.1-7.8c0-3.4,2.6-5.1,5.9-5.1
			c2.6,0,5.6,1,5.6,1l-0.1,4.4h-2.1l-0.5-2.5c0,0-1-0.4-2.6-0.4c-1.7,0-2.9,0.5-2.9,2.2c0,3.5,9.1,2.1,9.1,7.7
			c0,3.7-3.2,5.6-7.1,5.6c-3,0-5.1-0.7-5.1-0.7v-4.8h2.3L-109.3,0.3z"/>
		<path fill="#636565" d="M-86.3-11.9H-91v10.4c0,1.5,0.7,2,1.6,2c0.8,0,1.7-0.4,2.5-0.8l0.9,1.7C-87.4,2.5-88.9,3-90.5,3
			c-1.9,0-3.7-1.1-3.7-4.7v-10.2h-3.2V-14l3.2-0.3v-4.1l3.2-0.6v4.7h4.7V-11.9z"/>
		<path fill="#636565" d="M-82.9-13.5c0,0,3.6-1.3,6.3-1.3c3.8,0,6,1.3,6,5v9.9l2.6,0.6v1.8l-5,0.2l-0.7-2.3C-74.8,1.6-76.7,3-79,3
			c-3.1,0-4.9-1.8-4.9-4.9c0-3.7,2.9-5,7.5-5h2.6v-2.6c0-1.9-1.1-2.9-3.1-2.9s-3.3,0.5-3.3,0.5l-0.5,2.4h-2.1L-82.9-13.5z
			 M-76.1-4.7c-3.2,0-4.5,0.8-4.5,2.8c0,1.5,0.9,2.4,2.4,2.4c2.4,0,4.4-2.6,4.4-2.6v-2.6H-76.1z"/>
		<path fill="#636565" d="M-60-12.1c0.8-0.9,2.7-2.7,4.9-2.7c1.6,0,2.9,0.5,2.9,0.5l-0.2,4.7h-2.1l-0.5-2.4c-2.4,0-4,1.6-4.7,2.5
			v9.6l3.2,0.8v1.8h-9.3V0.9l2.8-0.8v-12l-2.8-0.6v-1.8l5.4-0.2L-60-12.1z"/>
	</g>
	<path display="inline" fill="#F94803" d="M-117.2,194.5l-2.3-0.3v-1.3l4.9-0.7l3.3-0.3c5.2-0.3,8.5,2.6,8.9,8.2
		c0.3,5.9-2.6,9.8-7.9,10.2l-7.9,0.7v-1.6l2.3-0.7L-117.2,194.5z M-110.3,208.2c3.3-0.3,5.2-2.6,4.9-7.5s-2.6-6.9-5.9-6.6l-3.3,0.3
		l1.3,14.1L-110.3,208.2z"/>
	<path display="inline" fill="#F94803" d="M-96.9,202.7c0.3,3,2,4.6,4.3,4.3c2.6-0.3,4.3-1.6,4.3-1.6l1,1.3c0,0-2.3,2.3-5.2,2.6
		c-4.3,0.3-6.6-2.3-6.9-6.6s2-7.5,5.9-7.9c3.9-0.3,5.6,1.6,5.9,5.6c0,0.7,0,1.3,0,1.3L-96.9,202.7z M-90.6,200c0-2-1-3.6-3.3-3.3
		c-2,0.3-3.3,2-3.3,3.9L-90.6,200z"/>
	<path display="inline" fill="#F94803" d="M-82.8,206.3c0,0,0.7,0.3,2.3,0c1.6,0,3-0.7,3-2.3c-0.3-3-7.5-1-7.9-5.6
		c-0.3-2.6,1.6-4.3,4.6-4.6c2-0.3,4.6,0.3,4.6,0.3l0.3,3.6h-1.6l-0.7-2c0,0-1-0.3-2.3,0c-1.3,0-2.3,0.7-2.3,2c0.3,3,7.5,1,7.9,5.6
		c0.3,3-2.3,4.6-5.2,4.9c-2.3,0.3-4.3-0.3-4.3-0.3l-0.3-3.9h2L-82.8,206.3z"/>
	<path display="inline" fill="#F94803" d="M-65.7,206.6l-6.9,0.7v-1.3l2.3-1l-0.7-9.8l-2.3-0.3v-1.3l4.9-0.7l1,11.8l2,0.7
		L-65.7,206.6z M-71,186.9c1,0,1.6,0.3,2,1.6c0,1.3-0.7,2-1.6,2s-1.6-0.7-2-1.6C-72.9,187.9-72,186.9-71,186.9z"/>
	<path display="inline" fill="#F94803" d="M-53.9,193.8c0,0,0.7,1,1,2.6c0.3,3.6-2,5.2-5.2,5.6c-1.3,0-2,0-2,0v2.6l3.9-0.3
		c3.3-0.3,5.2,1,5.6,3.3c0.3,3-2,4.9-6.6,5.2c-3.6,0.3-6.2-0.3-6.6-3.3c-0.3-2.3,2.6-3.6,2.6-3.6s-1.6,0-1.6-1.3c0-1,1-3,1-3
		s-2-0.7-2.3-3.9c-0.3-3.3,2-5.2,5.2-5.6c1.6,0,2.6,0.3,2.6,0.3l4.6-0.3v1.3L-53.9,193.8z M-59.5,206.3c0,0-1.6,1-1.6,2.6
		c0,2,1.6,2,4.3,2c2.6-0.3,3.9-1,3.6-3c-0.3-2-1.6-2-3.6-2L-59.5,206.3z M-61.5,197.1c0,2,1.3,3,3.3,3c2-0.3,3-1.3,2.6-3.3
		c0-2-1.3-3-3.3-3C-60.8,193.8-61.5,195.1-61.5,197.1z"/>
	<path display="inline" fill="#F94803" d="M-45.1,192.8c0.7-0.7,2.6-2.3,4.6-2.6c3-0.3,4.3,1.6,4.6,4.3l0.7,7.2l2,0.7v1.3l-6.2,0.7
		V203l1.6-0.7l-0.3-7.2c0-2-1-2.6-2.6-2.6c-2.3,0.3-3.6,2.3-3.6,2.3l0.7,7.9l1.6,0.7v1.3l-6.6,0.7V204l2.3-1l-0.7-9.8l-2.3-0.3v-1.3
		l4.3-0.3V192.8z"/>
	<path display="inline" fill="#F94803" d="M-29,197.1c0.3,3,2,4.6,4.3,4.3c2.6-0.3,4.3-1.6,4.3-1.6l1,1.3c0,0-2.3,2.3-5.2,2.6
		c-4.3,0.3-6.6-2.3-6.9-6.6c-0.3-4.3,2-7.5,5.9-7.9c3.9-0.3,5.6,1.6,5.9,5.6c0,0.7,0,1.3,0,1.3L-29,197.1z M-22.8,194.5
		c0-2-1-3.6-3.3-3.3c-2,0.3-3.3,2-3.3,3.9L-22.8,194.5z"/>
	<path display="inline" fill="#F94803" d="M-13.6,190.2c0.7-0.7,2-2.3,3.9-2.6c1.3,0,2.3,0.3,2.3,0.3l0.3,3.9h-1.6l-0.7-1.6
		c-2,0-3.3,1.6-3.6,2.3l0.7,7.9l2.6,0.3v1.3l-7.5,0.7v-1.3l2.3-1l-0.7-9.8l-2.3-0.3v-1.3l4.3-0.3L-13.6,190.2z"/>
	<path display="inline" fill-rule="evenodd" clip-rule="evenodd" fill="#F94803" d="M-83.6,148.5c1.2-0.1,2.4,0,3.5,0.3
		c0.8-5.8,5.5-10.4,11.6-11c6-0.5,11.5,3.2,13.3,8.7c1.1-0.5,2.2-0.8,3.4-0.9c5.9-0.5,11.1,3.8,11.6,9.7c0.1,0.6,0.1,1.1,0,1.7
		c2.4,0.8,4.3,2.9,4.5,5.6c0.3,3.6-2.3,6.8-5.9,7.1l-20.9,1.9l-1.4-15l4.3,3.6c1.3,1.1,3.2,0.9,4.3-0.4l0,0c1.1-1.3,0.9-3.2-0.4-4.3
		l-9.9-8.3c-0.6-0.5-1.4-0.8-2.1-0.7c-0.1,0-0.1,0-0.2,0l0,0c-0.8,0.1-1.5,0.5-2,1.1l-8.3,10c-1.1,1.3-0.9,3.2,0.4,4.3l0,0
		c1.3,1.1,3.2,0.9,4.3-0.4l3.6-4.3l1.4,15l-20.9,1.9c-3.6,0.3-6.8-2.3-7.1-5.9c-0.2-2.7,1.2-5.1,3.4-6.3c-0.1-0.5-0.2-1.1-0.3-1.7
		C-93.9,154.3-89.5,149.1-83.6,148.5z"/>
</g>
<g id="Layer_5" display="none">
	<g display="inline">
		<path fill="#636565" d="M-280.3,1.3c0,0,1.7,0.9,4.2,0.9c2.8,0,5.8-1.4,5.8-4.1c0-5.8-13.7-3.4-13.7-12.5c0-5.3,4.2-7.5,9-7.5
			c3.6,0,8,1.5,8,1.5l-0.2,6.4h-2.5l-1.3-4.1c0,0-1.9-0.7-4-0.7c-3.4,0-5,1.8-5,3.7c0,5.8,13.6,3.6,13.6,12.1c0,5.7-4.6,8.3-9.9,8.3
			c-4,0-7.8-1.5-7.8-1.5v-6.6h3L-280.3,1.3z"/>
		<path fill="#636565" d="M-261.3-13.8c0,0,4.2-1.5,7.4-1.5c4.4,0,7,1.5,7,5.9V2.1l3,0.8v2.1l-5.9,0.2l-0.8-2.6
			c-1.3,1.3-3.6,3-6.2,3c-3.6,0-5.7-2.1-5.7-5.7c0-4.4,3.4-5.9,8.7-5.9h3v-3c0-2.3-1.3-3.4-3.6-3.4s-3.8,0.6-3.8,0.6l-0.5,2.8h-2.5
			L-261.3-13.8z M-253.3-3.6c-3.8,0-5.2,0.9-5.2,3.2c0,1.7,1.1,2.8,2.8,2.8c2.8,0,5.1-3,5.1-3v-3H-253.3z"/>
		<path fill="#636565" d="M-234.6-12.2c0.9-1.1,3.1-3.1,5.7-3.1c1.9,0,3.4,0.6,3.4,0.6l-0.2,5.5h-2.5l-0.6-2.8c-2.8,0-4.7,1.9-5.5,3
			V2.1l3.8,0.9v2.1h-10.8V3l3.2-0.9v-14l-3.2-0.8v-2.1l6.2-0.2L-234.6-12.2z"/>
		<path fill="#636565" d="M-222.6-13.8c0,0,4.2-1.5,7.4-1.5c4.4,0,7,1.5,7,5.9V2.1l3,0.8v2.1l-5.9,0.2l-0.8-2.6
			c-1.3,1.3-3.6,3-6.2,3c-3.6,0-5.7-2.1-5.7-5.7c0-4.4,3.4-5.9,8.7-5.9h3v-3c0-2.3-1.3-3.4-3.6-3.4s-3.8,0.6-3.8,0.6l-0.5,2.8h-2.5
			L-222.6-13.8z M-214.7-3.6c-3.8,0-5.2,0.9-5.2,3.2c0,1.7,1.1,2.8,2.8,2.8c2.8,0,5.1-3,5.1-3v-3H-214.7z"/>
		<path fill="#636565" d="M-196.1-12.6c1.2-1,3.8-2.7,6.6-2.7c4.2,0,6.1,2.6,6.1,6.8V2.1l2.8,0.9v2.1h-9.1V3l2.5-0.9V-8.1
			c0-2.6-0.8-4-3.3-4c-3.2,0-5.6,3-5.6,3V2.1l2.5,0.9v2.1h-9.5V3l3.2-0.9V-21l-3.2-0.8v-2.1l7-0.2V-12.6z"/>
		<path fill="#636565" d="M-151.3-17.8c0,0-2-0.8-4.8-0.8c-5.1,0-8,3.8-8,10.8c0,6.8,3.4,9.8,8.1,9.8c4,0,7.6-3,7.6-3l1.5,2.5
			c0,0-3.8,4-9.5,4c-7.6,0-12.1-4.5-12.1-13.1c0-8.7,4.9-14.2,12.7-14.2c4.2,0,8.5,1.9,8.5,1.9l-0.2,6.4h-2.8L-151.3-17.8z"/>
		<path fill="#636565" d="M-142.7-13.8c0,0,4.2-1.5,7.4-1.5c4.4,0,7,1.5,7,5.9V2.1l3,0.8v2.1l-5.9,0.2l-0.8-2.6
			c-1.3,1.3-3.6,3-6.2,3c-3.6,0-5.7-2.1-5.7-5.7c0-4.4,3.4-5.9,8.7-5.9h3v-3c0-2.3-1.3-3.4-3.6-3.4s-3.8,0.6-3.8,0.6l-0.5,2.8h-2.5
			L-142.7-13.8z M-134.8-3.6c-3.8,0-5.2,0.9-5.2,3.2c0,1.7,1.1,2.8,2.8,2.8c2.8,0,5.1-3,5.1-3v-3H-134.8z"/>
		<path fill="#636565" d="M-116.1-12.2c0.9-1.1,3.1-3.1,5.7-3.1c1.9,0,3.4,0.6,3.4,0.6l-0.2,5.5h-2.5l-0.6-2.8c-2.8,0-4.7,1.9-5.5,3
			V2.1l3.8,0.9v2.1h-10.8V3l3.2-0.9v-14l-3.2-0.8v-2.1l6.2-0.2L-116.1-12.2z"/>
		<path fill="#636565" d="M-86.5-5.3c0,6.4-3.8,10.8-9.5,10.8c-5.7,0-9.1-3.4-9.1-10.2c0-6.4,4-10.6,9.7-10.6
			C-89.7-15.3-86.5-11.3-86.5-5.3z M-101.1-4.9c0,4.5,1.5,7.4,5.3,7.4c3.8,0,5.3-2.6,5.3-7.6c0-4.2-1.3-7.2-5.1-7.2
			S-101.1-9.8-101.1-4.9z"/>
		<path fill="#636565" d="M-73.6,5.1h-10.5V3l3.2-0.9V-21l-3.2-0.8v-2.1L-77-24V2.1l3.4,0.9V5.1z"/>
		<path fill="#636565" d="M-67.9-4.3c0,4.2,2.2,6.8,5.5,6.8c3.8,0,6.4-2.1,6.4-2.1l1.3,2c0,0-3.5,3.1-8.1,3.1c-6.1,0-9.1-4-9.1-10.2
			c0-6.1,3.8-10.6,9.3-10.6s8,3.2,8,8.9c0,0.9-0.2,2-0.2,2.1H-67.9z M-58.7-7.2c0-2.8-1.1-5.2-4.1-5.2c-3,0-4.7,2.3-5,5.2H-58.7z"/>
	</g>
	<path display="inline" fill="#F94803" d="M-117.2,194.5l-2.3-0.3v-1.3l4.9-0.7l3.3-0.3c5.2-0.3,8.5,2.6,8.9,8.2
		c0.3,5.9-2.6,9.8-7.9,10.2l-7.9,0.7v-1.6l2.3-0.7L-117.2,194.5z M-110.3,208.2c3.3-0.3,5.2-2.6,4.9-7.5s-2.6-6.9-5.9-6.6l-3.3,0.3
		l1.3,14.1L-110.3,208.2z"/>
	<path display="inline" fill="#F94803" d="M-96.9,202.7c0.3,3,2,4.6,4.3,4.3c2.6-0.3,4.3-1.6,4.3-1.6l1,1.3c0,0-2.3,2.3-5.2,2.6
		c-4.3,0.3-6.6-2.3-6.9-6.6s2-7.5,5.9-7.9c3.9-0.3,5.6,1.6,5.9,5.6c0,0.7,0,1.3,0,1.3L-96.9,202.7z M-90.6,200c0-2-1-3.6-3.3-3.3
		c-2,0.3-3.3,2-3.3,3.9L-90.6,200z"/>
	<path display="inline" fill="#F94803" d="M-82.8,206.3c0,0,0.7,0.3,2.3,0c1.6,0,3-0.7,3-2.3c-0.3-3-7.5-1-7.9-5.6
		c-0.3-2.6,1.6-4.3,4.6-4.6c2-0.3,4.6,0.3,4.6,0.3l0.3,3.6h-1.6l-0.7-2c0,0-1-0.3-2.3,0c-1.3,0-2.3,0.7-2.3,2c0.3,3,7.5,1,7.9,5.6
		c0.3,3-2.3,4.6-5.2,4.9c-2.3,0.3-4.3-0.3-4.3-0.3l-0.3-3.9h2L-82.8,206.3z"/>
	<path display="inline" fill="#F94803" d="M-65.7,206.6l-6.9,0.7v-1.3l2.3-1l-0.7-9.8l-2.3-0.3v-1.3l4.9-0.7l1,11.8l2,0.7
		L-65.7,206.6z M-71,186.9c1,0,1.6,0.3,2,1.6c0,1.3-0.7,2-1.6,2s-1.6-0.7-2-1.6C-72.9,187.9-72,186.9-71,186.9z"/>
	<path display="inline" fill="#F94803" d="M-53.9,193.8c0,0,0.7,1,1,2.6c0.3,3.6-2,5.2-5.2,5.6c-1.3,0-2,0-2,0v2.6l3.9-0.3
		c3.3-0.3,5.2,1,5.6,3.3c0.3,3-2,4.9-6.6,5.2c-3.6,0.3-6.2-0.3-6.6-3.3c-0.3-2.3,2.6-3.6,2.6-3.6s-1.6,0-1.6-1.3c0-1,1-3,1-3
		s-2-0.7-2.3-3.9c-0.3-3.3,2-5.2,5.2-5.6c1.6,0,2.6,0.3,2.6,0.3l4.6-0.3v1.3L-53.9,193.8z M-59.5,206.3c0,0-1.6,1-1.6,2.6
		c0,2,1.6,2,4.3,2c2.6-0.3,3.9-1,3.6-3c-0.3-2-1.6-2-3.6-2L-59.5,206.3z M-61.5,197.1c0,2,1.3,3,3.3,3c2-0.3,3-1.3,2.6-3.3
		c0-2-1.3-3-3.3-3C-60.8,193.8-61.5,195.1-61.5,197.1z"/>
	<path display="inline" fill="#F94803" d="M-45.1,192.8c0.7-0.7,2.6-2.3,4.6-2.6c3-0.3,4.3,1.6,4.6,4.3l0.7,7.2l2,0.7v1.3l-6.2,0.7
		V203l1.6-0.7l-0.3-7.2c0-2-1-2.6-2.6-2.6c-2.3,0.3-3.6,2.3-3.6,2.3l0.7,7.9l1.6,0.7v1.3l-6.6,0.7V204l2.3-1l-0.7-9.8l-2.3-0.3v-1.3
		l4.3-0.3V192.8z"/>
	<path display="inline" fill="#F94803" d="M-29,197.1c0.3,3,2,4.6,4.3,4.3c2.6-0.3,4.3-1.6,4.3-1.6l1,1.3c0,0-2.3,2.3-5.2,2.6
		c-4.3,0.3-6.6-2.3-6.9-6.6c-0.3-4.3,2-7.5,5.9-7.9c3.9-0.3,5.6,1.6,5.9,5.6c0,0.7,0,1.3,0,1.3L-29,197.1z M-22.8,194.5
		c0-2-1-3.6-3.3-3.3c-2,0.3-3.3,2-3.3,3.9L-22.8,194.5z"/>
	<path display="inline" fill="#F94803" d="M-13.6,190.2c0.7-0.7,2-2.3,3.9-2.6c1.3,0,2.3,0.3,2.3,0.3l0.3,3.9h-1.6l-0.7-1.6
		c-2,0-3.3,1.6-3.6,2.3l0.7,7.9l2.6,0.3v1.3l-7.5,0.7v-1.3l2.3-1l-0.7-9.8l-2.3-0.3v-1.3l4.3-0.3L-13.6,190.2z"/>
	<path display="inline" fill-rule="evenodd" clip-rule="evenodd" fill="#F94803" d="M-83.6,148.5c1.2-0.1,2.4,0,3.5,0.3
		c0.8-5.8,5.5-10.4,11.6-11c6-0.5,11.5,3.2,13.3,8.7c1.1-0.5,2.2-0.8,3.4-0.9c5.9-0.5,11.1,3.8,11.6,9.7c0.1,0.6,0.1,1.1,0,1.7
		c2.4,0.8,4.3,2.9,4.5,5.6c0.3,3.6-2.3,6.8-5.9,7.1l-20.9,1.9l-1.4-15l4.3,3.6c1.3,1.1,3.2,0.9,4.3-0.4l0,0c1.1-1.3,0.9-3.2-0.4-4.3
		l-9.9-8.3c-0.6-0.5-1.4-0.8-2.1-0.7c-0.1,0-0.1,0-0.2,0l0,0c-0.8,0.1-1.5,0.5-2,1.1l-8.3,10c-1.1,1.3-0.9,3.2,0.4,4.3l0,0
		c1.3,1.1,3.2,0.9,4.3-0.4l3.6-4.3l1.4,15l-20.9,1.9c-3.6,0.3-6.8-2.3-7.1-5.9c-0.2-2.7,1.2-5.1,3.4-6.3c-0.1-0.5-0.2-1.1-0.3-1.7
		C-93.9,154.3-89.5,149.1-83.6,148.5z"/>
</g>
<g id="Layer_6" display="none">
	<g display="inline">
		<path fill="#636565" d="M-282.9-0.4c0,0,1.3,0.7,3.1,0.7c2.1,0,4.3-1,4.3-3c0-4.4-10.2-2.5-10.2-9.3c0-4,3.2-5.6,6.7-5.6
			c2.7,0,6,1.1,6,1.1l-0.1,4.8h-1.8l-1-3c0,0-1.4-0.5-3-0.5c-2.5,0-3.8,1.3-3.8,2.7c0,4.3,10.2,2.7,10.2,9c0,4.2-3.4,6.2-7.4,6.2
			c-3,0-5.8-1.1-5.8-1.1v-5h2.3L-282.9-0.4z"/>
		<path fill="#636565" d="M-260.5-10.3h-4.1v9.1c0,1.3,0.6,1.7,1.4,1.7c0.7,0,1.5-0.3,2.2-0.7l0.8,1.5c-1.3,0.9-2.5,1.4-4,1.4
			c-1.7,0-3.3-0.9-3.3-4.1v-8.9h-2.8v-1.8l2.8-0.3V-16l2.8-0.6v4.1h4.1V-10.3z"/>
		<path fill="#636565" d="M-255.5-4.6c0,3.1,1.7,5.1,4.1,5.1c2.8,0,4.8-1.6,4.8-1.6l1,1.5c0,0-2.6,2.3-6,2.3c-4.5,0-6.8-3-6.8-7.6
			c0-4.5,2.8-7.9,6.9-7.9c4.1,0,5.9,2.4,5.9,6.7c0,0.7-0.1,1.5-0.1,1.6H-255.5z M-248.6-6.8c0-2.1-0.8-3.9-3.1-3.9
			c-2.3,0-3.5,1.8-3.7,3.9H-248.6z"/>
		<path fill="#636565" d="M-238.6-11c0.8-0.8,2.3-1.9,4.3-1.9c4.1,0,6.1,3,6.1,7.4c0,4.8-2.4,8.2-7.6,8.2c-0.9,0-1.8-0.2-2.5-0.4
			v4.5l3,0.6V9h-8.1V7.4l2.3-0.6v-17.1l-2.4-0.6v-1.6l4.8-0.1L-238.6-11z M-238.4-0.1c0,0,0.8,0.6,3,0.6c3.3,0,4.2-2.5,4.2-5.7
			c0-3.1-1.1-5.4-3.7-5.4c-2.5,0-3.5,2-3.5,2V-0.1z"/>
		<path fill="#636565" d="M-221-10.8c0.9-0.7,2.9-2,5-2c3.1,0,4.5,2,4.5,5.1v7.9l2.1,0.7v1.6h-6.8V0.9l1.8-0.7v-7.7c0-2-0.6-3-2.5-3
			c-2.4,0-4.2,2.3-4.2,2.3v8.4l1.8,0.7v1.6h-7.1V0.9l2.4-0.7v-17.3l-2.4-0.6v-1.6l5.2-0.1V-10.8z"/>
		<path fill="#636565" d="M-206.4-11.7c0,0,3.1-1.1,5.5-1.1c3.3,0,5.2,1.1,5.2,4.4v8.6l2.3,0.6v1.6l-4.4,0.1l-0.6-2
			c-1,1-2.7,2.3-4.6,2.3c-2.7,0-4.2-1.6-4.2-4.2c0-3.3,2.5-4.4,6.5-4.4h2.3v-2.3c0-1.7-1-2.5-2.7-2.5s-2.9,0.4-2.9,0.4l-0.4,2.1
			h-1.8L-206.4-11.7z M-200.4-4.1c-2.8,0-3.9,0.7-3.9,2.4c0,1.3,0.8,2.1,2.1,2.1c2.1,0,3.8-2.3,3.8-2.3v-2.3H-200.4z"/>
		<path fill="#636565" d="M-186.5-10.6c0.7-0.6,2.9-2.3,5.3-2.3c3.1,0,4.5,2,4.5,5.1v7.9l2.1,0.7v1.6h-6.8V0.9l1.8-0.7v-7.6
			c0-2-0.7-3-2.5-3c-2.4,0-4.1,2.3-4.1,2.3v8.4l1.8,0.7v1.6h-7.1V0.9l2.4-0.7v-10.5l-2.4-0.6v-1.6l4.7-0.1L-186.5-10.6z"/>
		<path fill="#636565" d="M-165.2,2.4h-7.4V0.9l2.4-0.7v-10.5l-2.4-0.6v-1.6l5.2-0.1V0.2l2.1,0.7V2.4z M-168.9-19.2
			c1.1,0,1.8,0.6,1.8,2c0,1.3-1,2-1.8,2c-1.1,0-1.8-0.7-1.8-2C-170.7-18.5-169.9-19.2-168.9-19.2z"/>
		<path fill="#636565" d="M-160.1-4.6c0,3.1,1.7,5.1,4.1,5.1c2.8,0,4.8-1.6,4.8-1.6l1,1.5c0,0-2.6,2.3-6,2.3c-4.5,0-6.8-3-6.8-7.6
			c0-4.5,2.8-7.9,6.9-7.9c4.1,0,5.9,2.4,5.9,6.7c0,0.7-0.1,1.5-0.1,1.6H-160.1z M-153.2-6.8c0-2.1-0.8-3.9-3.1-3.9
			c-2.3,0-3.5,1.8-3.7,3.9H-153.2z"/>
		<path fill="#636565" d="M-137.6-0.4c0,0,1.3,0.7,3.1,0.7c2.1,0,4.3-1,4.3-3c0-4.4-10.2-2.5-10.2-9.3c0-4,3.2-5.6,6.7-5.6
			c2.7,0,6,1.1,6,1.1l-0.1,4.8h-1.8l-1-3c0,0-1.4-0.5-3-0.5c-2.5,0-3.8,1.3-3.8,2.7c0,4.3,10.2,2.7,10.2,9c0,4.2-3.4,6.2-7.4,6.2
			c-3,0-5.8-1.1-5.8-1.1v-5h2.3L-137.6-0.4z"/>
		<path fill="#636565" d="M-115.2-10.3h-4.1v9.1c0,1.3,0.6,1.7,1.4,1.7c0.7,0,1.5-0.3,2.2-0.7l0.8,1.5c-1.3,0.9-2.5,1.4-4,1.4
			c-1.7,0-3.3-0.9-3.3-4.1v-8.9h-2.8v-1.8l2.8-0.3V-16l2.8-0.6v4.1h4.1V-10.3z"/>
		<path fill="#636565" d="M-112.2-11.7c0,0,3.1-1.1,5.5-1.1c3.3,0,5.2,1.1,5.2,4.4v8.6l2.3,0.6v1.6l-4.4,0.1l-0.6-2
			c-1,1-2.7,2.3-4.6,2.3c-2.7,0-4.2-1.6-4.2-4.2c0-3.3,2.5-4.4,6.5-4.4h2.3v-2.3c0-1.7-1-2.5-2.7-2.5s-2.9,0.4-2.9,0.4l-0.4,2.1
			h-1.8L-112.2-11.7z M-106.3-4.1c-2.8,0-3.9,0.7-3.9,2.4c0,1.3,0.8,2.1,2.1,2.1c2.1,0,3.8-2.3,3.8-2.3v-2.3H-106.3z"/>
		<path fill="#636565" d="M-92.3-10.5c0.7-0.8,2.3-2.3,4.3-2.3c1.4,0,2.5,0.4,2.5,0.4l-0.1,4.1h-1.8l-0.4-2.1
			c-2.1,0-3.5,1.4-4.1,2.2v8.4l2.8,0.7v1.6h-8.1V0.9l2.4-0.7v-10.5l-2.4-0.6v-1.6l4.7-0.1L-92.3-10.5z"/>
		<path fill="#636565" d="M-74.3-10.3c0,0-1.1-0.3-2.5-0.3c-2.7,0-4.2,1.7-4.2,5.2c0,3.8,1.7,5.8,4.4,5.8s4.4-1.7,4.4-1.7l1,1.7
			c0,0-2.5,2.3-5.7,2.3c-4.7,0-7.1-3-7.1-7.8c0-4.5,2.8-7.8,7.4-7.8c2.5,0,4.8,1.1,4.8,1.1L-72-7.9h-1.8L-74.3-10.3z"/>
		<path fill="#636565" d="M-64.8-10.8c0.9-0.7,2.9-2,5-2c3.1,0,4.5,2,4.5,5.1v7.9l2.1,0.7v1.6H-60V0.9l1.8-0.7v-7.7c0-2-0.6-3-2.5-3
			c-2.4,0-4.2,2.3-4.2,2.3v8.4l1.8,0.7v1.6H-70V0.9l2.4-0.7v-17.3l-2.4-0.6v-1.6l5.2-0.1V-10.8z"/>
	</g>
	<path display="inline" fill-rule="evenodd" clip-rule="evenodd" fill="#F94803" d="M-76.7,116.9l3.6,4.6l3.2-0.6l2-5.6l4.2,0.4
		l0.8,5.8l3,1.1l4.5-3.8l3.4,2.4l-2.2,5.4l2.1,2.5l5.8-1.1l1.8,3.8l-4.6,3.6l0.6,3.2l5.6,2l-0.4,4.2l-5.8,0.8l-1.1,3l3.8,4.5
		l-2.4,3.4l-5.4-2.2l-2.5,2.1l1.1,5.8l-3.8,1.8l-3.6-4.7l-3.2,0.6l-2,5.6l-4.2-0.4l-0.8-5.8l-3-1.1l-4.5,3.8l-3.4-2.4l2.2-5.4
		l-2.1-2.5l-5.8,1.1l-1.8-3.8l4.7-3.6l-0.6-3.2l-5.6-2l0.4-4.2l5.8-0.8l1.1-3l-3.8-4.5l2.4-3.4l5.4,2.2l2.5-2.1l-1.1-5.8
		L-76.7,116.9L-76.7,116.9z M-72.6,130.8c5.3-2.5,11.7-0.2,14.2,5.2c2.5,5.3,0.2,11.7-5.2,14.2c-5.3,2.5-11.7,0.2-14.2-5.2
		C-80.3,139.6-78,133.2-72.6,130.8L-72.6,130.8z"/>
	<path display="inline" fill="#F94803" d="M-94.6,183.7l7.2-0.7v1.6l-2.3,0.7l3.9,11.8l3.3-14.1l2.6-0.3l5.6,13.8L-72,184l-2.3-0.3
		v-1.3l7.2-0.7v1.6l-2,0.7l-3.3,16.7l-3,0.3l-4.3-11.8l-1.3-3.3l-0.7,3l-2.6,12.1l-2.6,0.3l-5.6-15.7l-2-0.3L-94.6,183.7z"/>
	<path display="inline" fill="#F94803" d="M-62.8,192.9c0.3,3,2,4.6,4.3,4.3c2.6-0.3,4.3-1.6,4.3-1.6l1,1.3c0,0-2.3,2.3-5.2,2.6
		c-4.3,0.3-6.6-2.3-6.9-6.6s2-7.5,5.9-7.9c3.9-0.3,5.6,1.6,5.9,5.6c0,0.7,0,1.3,0,1.3L-62.8,192.9z M-56.6,190.2c0-2-1-3.6-3.3-3.3
		c-2,0.3-3.3,2-3.3,3.9L-56.6,190.2z"/>
	<path display="inline" fill="#F94803" d="M-48.1,185.3c0.7-0.7,2-1.6,3.9-2c3.9-0.3,5.6,2.3,5.9,6.2c0.3,4.6-2,7.9-6.6,8.2
		c-3,0.3-4.9-0.3-4.9-0.3l-1.6-17.4l-2.3-0.3v-1.3l4.6-0.7L-48.1,185.3z M-47.4,196.1c0,0,0.7,0.3,2.6,0c3-0.3,3.9-2.6,3.6-5.6
		c-0.3-3-1.3-4.9-3.6-4.6s-3.3,2-3.3,2L-47.4,196.1z"/>
	<path display="inline" fill="#F94803" d="M-115.1,214.6l-2.3-0.3V213l4.9-0.7l3.3-0.3c5.2-0.3,8.5,2.6,8.9,8.2
		c0.3,5.9-2.6,9.8-7.9,10.2l-7.9,0.7v-1.6l2.3-0.7L-115.1,214.6z M-108.2,228.4c3.3-0.3,5.2-2.6,4.9-7.5s-2.6-6.9-5.9-6.6l-3.3,0.3
		l1.3,14.1L-108.2,228.4z"/>
	<path display="inline" fill="#F94803" d="M-94.7,222.8c0.3,3,2,4.6,4.3,4.3c2.6-0.3,4.3-1.6,4.3-1.6l1,1.3c0,0-2.3,2.3-5.2,2.6
		c-4.3,0.3-6.6-2.3-6.9-6.6s2-7.5,5.9-7.9c3.9-0.3,5.6,1.6,5.9,5.6c0,0.7,0,1.3,0,1.3L-94.7,222.8z M-88.5,220.2c0-2-1-3.6-3.3-3.3
		c-2,0.3-3.3,2-3.3,3.9L-88.5,220.2z"/>
	<path display="inline" fill="#F94803" d="M-80.6,226.4c0,0,0.7,0.3,2.3,0c1.6,0,3-0.7,3-2.3c-0.3-3-7.5-1-7.9-5.6
		c-0.3-2.6,1.6-4.3,4.6-4.6c2-0.3,4.6,0.3,4.6,0.3l0.3,3.6h-1.6l-0.7-2c0,0-1-0.3-2.3,0c-1.3,0-2.3,0.7-2.3,2c0.3,3,7.5,1,7.9,5.6
		c0.3,3-2.3,4.6-5.2,4.9c-2.3,0.3-4.3-0.3-4.3-0.3l-0.3-3.9h2L-80.6,226.4z"/>
	<path display="inline" fill="#F94803" d="M-63.6,226.8l-6.9,0.7v-1.3l2.3-1l-0.7-9.8l-2.3-0.3v-1.3l4.9-0.7l1,11.8l2,0.7
		L-63.6,226.8z M-68.8,207.1c1,0,1.6,0.3,2,1.6c0,1.3-0.7,2-1.6,2c-1,0-1.6-0.7-2-1.6C-70.8,208.1-69.8,207.1-68.8,207.1z"/>
	<path display="inline" fill="#F94803" d="M-51.8,214c0,0,0.7,1,1,2.6c0.3,3.6-2,5.2-5.2,5.6c-1.3,0-2,0-2,0v2.6l3.9-0.3
		c3.3-0.3,5.2,1,5.6,3.3c0.3,3-2,4.9-6.6,5.2c-3.6,0.3-6.2-0.3-6.6-3.3c-0.3-2.3,2.6-3.6,2.6-3.6s-1.6,0-1.6-1.3c0-1,1-3,1-3
		s-2-0.7-2.3-3.9c-0.3-3.3,2-5.2,5.2-5.6c1.6,0,2.6,0.3,2.6,0.3l4.6-0.3v1.3L-51.8,214z M-57.4,226.4c0,0-1.6,1-1.6,2.6
		c0,2,1.6,2,4.3,2c2.6-0.3,3.9-1,3.6-3c-0.3-2-1.6-2-3.6-2L-57.4,226.4z M-59.3,217.3c0,2,1.3,3,3.3,3c2-0.3,3-1.3,2.6-3.3
		c0-2-1.3-3-3.3-3S-59.3,215.3-59.3,217.3z"/>
	<path display="inline" fill="#F94803" d="M-42.9,213c0.7-0.7,2.6-2.3,4.6-2.6c3-0.3,4.3,1.6,4.6,4.3l0.7,7.2l2,0.7v1.3l-6.2,0.7
		v-1.3l1.6-0.7l-0.3-7.2c0-2-1-2.6-2.6-2.6c-2.3,0.3-3.6,2.3-3.6,2.3l0.7,7.9l1.6,0.7v1.3l-6.6,0.7v-1.3l2.3-1l-0.7-9.8l-2.3-0.3
		v-1.3l4.3-0.3V213z"/>
	<path display="inline" fill="#F94803" d="M-26.9,217.3c0.3,3,2,4.6,4.3,4.3c2.6-0.3,4.3-1.6,4.3-1.6l1,1.3c0,0-2.3,2.3-5.2,2.6
		c-4.3,0.3-6.6-2.3-6.9-6.6c-0.3-4.3,2-7.5,5.9-7.9c3.9-0.3,5.6,1.6,5.9,5.6c0,0.7,0,1.3,0,1.3L-26.9,217.3z M-20.7,214.6
		c0-2-1-3.6-3.3-3.3c-2,0.3-3.3,2-3.3,3.9L-20.7,214.6z"/>
	<path display="inline" fill="#F94803" d="M-11.5,210.4c0.7-0.7,2-2.3,3.9-2.6c1.3,0,2.3,0.3,2.3,0.3l0.3,3.9h-1.6l-0.7-1.6
		c-2,0-3.3,1.6-3.6,2.3l0.7,7.9l2.6,0.3v1.3l-7.5,0.7v-1.3l2.3-1l-0.7-9.8l-2.3-0.3v-1.3l4.3-0.3L-11.5,210.4z"/>
</g>
<g id="Layer_7">
	<g>
		<path fill="#636565" d="M-208-20.2c0,0-2.4-0.9-5.8-0.9c-6.2,0-9.6,4.6-9.6,13c0,8.2,4.1,11.9,9.8,11.9c4.8,0,9.1-3.7,9.1-3.7
			l1.8,3c0,0-4.6,4.8-11.4,4.8c-9.1,0-14.6-5.5-14.6-15.8c0-10.5,5.9-17.1,15.3-17.1c5,0,10.3,2.3,10.3,2.3l-0.2,7.8h-3.4L-208-20.2
			z"/>
		<path fill="#636565" d="M-176.9-5.2c0,7.8-4.6,13-11.4,13c-6.9,0-11-4.1-11-12.3c0-7.8,4.8-12.8,11.6-12.8S-176.9-12.5-176.9-5.2z
			 M-194.4-4.7c0,5.5,1.8,8.9,6.4,8.9c4.6,0,6.4-3.2,6.4-9.1c0-5-1.6-8.7-6.2-8.7S-194.4-10.7-194.4-4.7z"/>
		<path fill="#636565" d="M-148.1,7.2l-7.8,0.2l-0.4-2.6c-1.3,1.3-3.7,3.1-7.2,3.1C-170,7.8-173,3.1-173-4c0-7.8,3.9-13.2,12.1-13.2
			c1.7,0,3.2,0.3,4.3,0.7v-7.6l-3.9-0.9v-2.5l8.5-0.2V3.7l3.9,0.9V7.2z M-156.5-12.7c0,0-1.6-0.9-4.8-0.9c-5.3,0-6.9,4.1-6.9,9.1
			s1.6,8.7,5.7,8.7c3.9,0,5.9-3.4,5.9-3.4V-12.7z"/>
		<path fill="#636565" d="M-133.2,7.4h-11.9V4.9l3.9-1.1v-16.9l-3.9-0.9v-2.5l8.5-0.2V3.7l3.4,1.1V7.4z M-139.2-27.6
			c1.8,0,3,0.9,3,3.2c0,2.1-1.6,3.2-3,3.2c-1.8,0-3-1.1-3-3.2S-140.8-27.6-139.2-27.6z"/>
		<path fill="#636565" d="M-128.2-15.5c0,0,5-1.8,8.9-1.8c5.3,0,8.5,1.8,8.5,7.1V3.7l3.7,0.9v2.5l-7.1,0.2l-1-3.2
			c-1.6,1.6-4.3,3.7-7.5,3.7c-4.3,0-6.9-2.5-6.9-6.9c0-5.3,4.1-7.1,10.5-7.1h3.7v-3.7c0-2.7-1.6-4.1-4.3-4.1c-2.7,0-4.6,0.7-4.6,0.7
			l-0.6,3.4h-3L-128.2-15.5z M-118.6-3.1c-4.6,0-6.3,1.1-6.3,3.9c0,2.1,1.3,3.4,3.3,3.4c3.4,0,6.2-3.7,6.2-3.7v-3.7H-118.6z"/>
	</g>
	<path fill="#F94803" d="M-93.9,129.2l-1,3.3l-5.4,14l-3.4,0.5l-7.8-13.3l-1.3-2.9l1.8,21.3l4.1,0.5l0.2,2.6l-11.5,1l-0.2-2.6
		l3.5-1.2l-2-23l-3.7-0.5l-0.2-2.3l9.6-1l9.2,16.4l6.6-17.5l8.9-1l0.2,2.6l-3.5,1.2l2,23l3.7,0.5l0.2,2.6l-11.9,1l-0.2-2.6l4-1.2
		L-93.9,129.2z"/>
	<path fill="#F94803" d="M-76.9,141.9c0.4,4.7,3.2,7.4,6.8,7.1c4.3-0.4,7-3,7-3l1.7,2.1c0,0-3.7,3.9-8.8,4.3
		c-6.8,0.6-10.6-3.6-11.2-10.6C-82,135-78.2,129.6-72,129c6.2-0.5,9.3,2.9,9.8,9.2c0.1,1.1,0,2.3,0,2.4L-76.9,141.9z M-66.8,137.8
		c-0.3-3.2-1.7-5.7-5.1-5.4c-3.4,0.3-5.1,3.1-5.1,6.3L-66.8,137.8z"/>
	<path fill="#F94803" d="M-53.5,139.9c0.4,4.7,3.2,7.4,6.8,7.1c4.3-0.4,7-3,7-3l1.7,2.1c0,0-3.7,3.9-8.8,4.3
		c-6.8,0.6-10.6-3.6-11.2-10.6c-0.6-6.8,3.2-12.3,9.4-12.8s9.3,2.9,9.8,9.2c0.1,1.1,0,2.3,0,2.4L-53.5,139.9z M-43.3,135.8
		c-0.3-3.2-1.7-5.7-5.1-5.4c-3.4,0.3-5.1,3.1-5.1,6.3L-43.3,135.8z"/>
	<path fill="#F94803" d="M-21.8,128.6l-6.2,0.5l1.2,13.7c0.2,2,1.2,2.5,2.4,2.4c1-0.1,2.2-0.7,3.2-1.4l1.3,2.2
		c-1.8,1.6-3.6,2.5-5.8,2.6c-2.6,0.2-5-1-5.4-5.8l-1.2-13.4l-4.3,0.4l-0.2-2.8l4.2-0.8l-0.5-5.4l4.2-1.2l0.5,6.2l6.2-0.5
		L-21.8,128.6z"/>
	<path fill="#F94803" d="M-82.2,173.1l-4.6,0.4l0.9,10.3c0.1,1.5,0.9,1.9,1.8,1.8c0.8-0.1,1.6-0.5,2.4-1l1,1.6
		c-1.3,1.2-2.7,1.8-4.3,2c-1.9,0.2-3.8-0.7-4.1-4.3l-0.9-10.1l-3.2,0.3l-0.2-2.1l3.2-0.6l-0.3-4l3.1-0.9l0.4,4.7l4.6-0.4
		L-82.2,173.1z"/>
	<path fill="#F94803" d="M-74.6,171.9c0.9-0.9,3-2.6,5.4-2.8c3.5-0.3,5.3,1.8,5.6,5.3l0.8,8.9l2.5,0.6l0.2,1.8l-7.7,0.7l-0.2-1.8
		l2-0.9l-0.7-8.7c-0.2-2.2-1-3.3-3.1-3.1c-2.7,0.2-4.5,3-4.5,3l0.8,9.4l2.1,0.6l0.2,1.8l-8,0.7l-0.2-1.8l2.6-1l-1.7-19.5l-2.8-0.4
		l-0.2-1.8l5.9-0.7L-74.6,171.9z"/>
	<path fill="#F94803" d="M-55.3,177.3c0.3,3.5,2.4,5.6,5.1,5.4c3.2-0.3,5.2-2.2,5.2-2.2l1.3,1.6c0,0-2.7,2.9-6.6,3.2
		c-5.1,0.4-8-2.7-8.4-8c-0.4-5.1,2.4-9.2,7.1-9.6c4.6-0.4,6.9,2.1,7.4,6.9c0.1,0.8,0,1.7,0,1.8L-55.3,177.3z M-47.7,174.2
		c-0.2-2.4-1.3-4.3-3.9-4.1c-2.6,0.2-3.8,2.3-3.8,4.7L-47.7,174.2z"/>
	<path fill="#F94803" d="M-112.1,224.7l4.2-1.2l-2-23l-5.5,0.5l-0.7,4.4l-2.8,0.2l-0.7-7.7l23.2-2l0.7,7.7l-2.8,0.2l-1.4-4.2
		l-5.5,0.5l2,23l4.3,0.5l0.2,2.6l-13,1.1L-112.1,224.7z"/>
	<path fill="#F94803" d="M-88.1,214.4c0.4,4.7,3.2,7.4,6.8,7.1c4.3-0.4,7-3,7-3l1.7,2.1c0,0-3.7,3.9-8.8,4.3
		c-6.8,0.6-10.6-3.6-11.2-10.6c-0.6-6.8,3.2-12.3,9.4-12.8c6.2-0.5,9.3,2.9,9.8,9.2c0.1,1.1,0,2.3,0,2.4L-88.1,214.4z M-78,210.3
		c-0.3-3.2-1.7-5.7-5.1-5.4c-3.4,0.3-5.1,3.1-5.1,6.3L-78,210.3z"/>
	<path fill="#F94803" d="M-69,202.1c0,0,4.5-2.1,8.2-2.4c4.9-0.4,8,1,8.4,5.9l1.1,13l3.5,0.6l0.2,2.3l-6.6,0.8l-1.2-2.9
		c-1.3,1.6-3.7,3.8-6.7,4c-4,0.3-6.6-1.8-6.9-5.8c-0.4-4.9,3.3-6.9,9.2-7.4l3.4-0.3l-0.3-3.4c-0.2-2.6-1.8-3.7-4.4-3.5
		c-2.6,0.2-4.2,1-4.2,1l-0.3,3.2l-2.8,0.2L-69,202.1z M-59.1,212.8c-4.3,0.4-5.8,1.6-5.6,4.1c0.2,1.9,1.5,3.1,3.4,2.9
		c3.2-0.3,5.5-3.9,5.5-3.9l-0.3-3.4L-59.1,212.8z"/>
	<path fill="#F94803" d="M-38.9,201.2c0.9-1,3.9-3.8,7.4-4.1c3.1-0.3,5.1,1,6.2,3.2c0.5-0.6,3.7-4,7.6-4.3c4.7-0.4,6.9,2.4,7.3,7.1
		l1,11.9l3.3,0.8l0.2,2.3l-10.2,0.9l-0.2-2.3l2.7-1.3l-1-11.5c-0.3-3-1.2-4.4-4-4.2c-3.6,0.3-5.7,3.9-5.7,3.9l1.1,12.6l2.9,0.8
		l0.2,2.3l-9.8,0.8l-0.2-2.3l2.7-1.3l-1-11.5c-0.3-3-1.2-4.4-4-4.2c-3.6,0.3-5.7,3.9-5.7,3.9l1.1,12.6l2.9,0.8l0.2,2.3l-10.6,0.9
		l-0.2-2.3l3.5-1.4l-1.4-15.8l-3.7-0.5l-0.2-2.3l7-0.8L-38.9,201.2z"/>
</g>
</svg>
