<?xml version="1.0" encoding="utf-8"?>
<!-- Generator: Adobe Illustrator 17.1.0, SVG Export Plug-In . SVG Version: 6.00 Build 0)  -->
<!DOCTYPE svg PUBLIC "-//W3C//DTD SVG 1.1//EN" "http://www.w3.org/Graphics/SVG/1.1/DTD/svg11.dtd">
<svg version="1.1" id="Layer_1" xmlns="http://www.w3.org/2000/svg" xmlns:xlink="http://www.w3.org/1999/xlink" x="0px" y="0px"
	 viewBox="0 0 500 500" enable-background="new 0 0 500 500" xml:space="preserve">
<path fill="#B0CDD7" d="M468.9,3.8H31.1C14.3,3.8,5,15.6,5,29.9v437.7c0,16.8,14.3,28.6,28.6,28.6h235.7V300.8h-66.8v-73.6h64.3
	v-52.5c0-64.3,38.2-97.5,95.4-97.5c28.6,0,50,2.5,57.1,2.5v66.4h-38.2c-28.6,0-38.2,14.3-38.2,35.7v50h71.4l-9.6,73.9h-64.3v190.4
	h126.1c16.8,0,28.6-14.3,28.6-28.6V30.3C495.4,16,483.2,3.8,468.9,3.8z"/>
</svg>
