<?xml version="1.0" encoding="utf-8"?>
<!-- Generator: Adobe Illustrator 17.1.0, SVG Export Plug-In . SVG Version: 6.00 Build 0)  -->
<!DOCTYPE svg PUBLIC "-//W3C//DTD SVG 1.1//EN" "http://www.w3.org/Graphics/SVG/1.1/DTD/svg11.dtd">
<svg version="1.1" id="Layer_1" xmlns="http://www.w3.org/2000/svg" xmlns:xlink="http://www.w3.org/1999/xlink" x="0px" y="0px"
	 viewBox="0 0 500 500" enable-background="new 0 0 500 500" xml:space="preserve">
<g>
	<path fill="#B0CDD7" d="M269.6,227L269.6,227L269.6,227L269.6,227z"/>
	<path fill="#B0CDD7" d="M43.6,5.5c-20.7,0-39,16.1-39,34.3v420.4c0,18.2,16.1,34.3,36.4,34.3h417.9c18.2,0,36.4-16.1,36.4-34.3
		V39.8c0-18.2-16.1-34.3-36.4-34.3H43.6z M155.7,416.6H80.4V195.2h75.4v221.4H155.7z M116.8,165.2L116.8,165.2
		c-25,0-41.1-16.1-41.1-36.4s16.1-38.9,41.1-38.9c25-2.1,41.1,16.1,43.6,36.4C160,149.5,141.8,165.2,116.8,165.2z M422.9,416.6
		h-75.4V297.7c0-32.1-9.3-50.4-36.4-50.4c-22.9,0-32.1,11.4-36.4,27.5c-2.1,6.8-2.1,11.4-2.1,18.2v125.7h-75.7c0,0,0-203.2,0-221.4
		h75.4v32.1c9.3-18.2,27.5-41.1,66.1-41.1c50.4,0,84.6,32.1,84.6,100.4v127.9H422.9z"/>
</g>
</svg>
