<?xml version="1.0" encoding="utf-8"?>
<!-- Generator: Adobe Illustrator 17.1.0, SVG Export Plug-In . SVG Version: 6.00 Build 0)  -->
<!DOCTYPE svg PUBLIC "-//W3C//DTD SVG 1.1//EN" "http://www.w3.org/Graphics/SVG/1.1/DTD/svg11.dtd">
<svg version="1.1" id="Layer_1" xmlns="http://www.w3.org/2000/svg" xmlns:xlink="http://www.w3.org/1999/xlink" x="0px" y="0px"
	 viewBox="0 0 500 500" enable-background="new 0 0 500 500" xml:space="preserve">
<path fill="#B0CDD7" d="M249.6,3.9C113.9,3.9,2.5,115.4,2.5,251.1c0,102.5,60.7,187.9,147.9,226.1c0-17.5,0-38.2,5.4-57.5
	S187.2,284,187.2,284s-6.8-13.9-6.8-38.2c0-34.6,20.7-64.3,47.1-64.3c20.7,0,33.2,17.5,33.2,38.2c0,24.3-13.9,57.5-20.7,87.1
	c-6.8,26.1,13.9,47.1,38.2,47.1c47.1,0,78.2-59.3,78.2-130.4c0-53.9-34.6-95.7-102.5-95.7c-73.2,0-121.8,53.9-121.8,118.2
	c0,20.7,6.8,34.6,17.5,47.1c5.4,5.4,5.4,6.8,5.4,13.9c-1.8,5.4-5.4,17.5-5.4,19.3c-3.6,10.4-8.6,12.1-12.1,10.4
	c-38.2-13.9-52.1-52.1-52.1-95.7c0-71.4,59.3-155,175.7-155c95.7,0,156.4,69.6,156.4,142.5c0,97.5-53.9,168.6-132.1,168.6
	c-26.1,0-52.1-13.9-59.3-31.4c0,0-13.9,57.5-17.5,69.6c-5.4,19.3-17.5,38.2-24.3,52.1c19.3,6.8,43.6,8.6,66.1,8.6
	c135.7,0,247.1-111.4,247.1-247.1S385.4,3.9,249.6,3.9"/>
</svg>
