<?xml version="1.0" encoding="utf-8"?>
<!-- Generator: Adobe Illustrator 17.1.0, SVG Export Plug-In . SVG Version: 6.00 Build 0)  -->
<!DOCTYPE svg PUBLIC "-//W3C//DTD SVG 1.1//EN" "http://www.w3.org/Graphics/SVG/1.1/DTD/svg11.dtd">
<svg version="1.1" id="Layer_1" xmlns="http://www.w3.org/2000/svg" xmlns:xlink="http://www.w3.org/1999/xlink" x="0px" y="0px"
	 viewBox="0 0 500 500" enable-background="new 0 0 500 500" xml:space="preserve">
<path fill="#B0CDD7" d="M492.3,108.1c-19.6,7.9-37.1,13.6-56.8,15.7c21.4-13.6,37.1-31.4,43.2-56.8c-19.6,9.6-39.3,19.6-64.6,23.6
	c-19.6-19.6-43.2-31.4-72.5-31.4c-56.8,0-98.2,45-98.2,98.2c0,7.9,0,15.7,1.8,23.6c-82.5-5.8-156.8-43.3-206.1-104
	c-5.7,13.6-11.8,33.2-11.8,52.9c0,35,19.6,64.3,45,82.1c-15.7,0-31.4-5.7-45-13.6l0,0c0,48.9,35.4,88.2,80.4,98.2
	c-7.9,1.8-15.7,1.8-27.5,1.8c-5.7,0-13.6,0-19.6-1.8c13.6,39.3,51.1,68.6,94.3,68.6c-35.4,27.5-78.6,43.2-123.6,43.2
	c-7.9,0-15.7,0-23.6-1.8c45,29.3,96.1,47.1,152.9,47.1c184.3,0,284.3-152.9,284.3-284.3c0-5.7,0-7.9,0-13.6
	C462.7,145.3,478.4,125.6,492.3,108.1z"/>
</svg>
